<?xml version="1.0" encoding="utf-8"?>
<!-- Generator: Adobe Illustrator 23.0.2, SVG Export Plug-In . SVG Version: 6.00 Build 0)  -->
<svg version="1.1" id="Layer_1" xmlns="http://www.w3.org/2000/svg" xmlns:xlink="http://www.w3.org/1999/xlink" x="0px" y="0px"
	 viewBox="0 0 405 617" style="enable-background:new 0 0 405 617;" xml:space="preserve">
<style type="text/css">
	.st0{enable-background:new    ;}
	.st1{fill:#FFFFFF;}
	.st2{fill:none;stroke:#FFFFFF;stroke-width:2;stroke-miterlimit:10;}
	.st3{font-family:'SFProDisplay-Semibold';}
	.st4{font-size:15.14px;}
	.st5{fill:none;stroke:#FFFFFF;stroke-width:1.51;stroke-linejoin:bevel;}
	.st6{fill:none;stroke:#FFFFFF;stroke-width:1.51;stroke-linejoin:bevel;stroke-dasharray:6.54,6.54;}
	.st7{fill:none;stroke:#FFFFFF;stroke-width:1.51;stroke-linejoin:bevel;stroke-dasharray:6.58,6.58;}
	.st8{fill:none;stroke:#FFFFFF;stroke-width:2;stroke-miterlimit:10;stroke-dasharray:6.77;}
</style>
<title>diagram</title>
<g class="st0">
	<path class="st1" d="M148.4,24.3h2.5c0.4,1.1,1.3,1.7,2.6,1.7c2.2,0,3.3-2.1,3.3-5.4h0c-0.5,1.4-2,2.3-3.8,2.3
		c-2.6,0-4.7-1.9-4.7-4.6c0-2.9,2.2-4.9,5.3-4.9c2.9,0,5.7,2,5.7,7.2c0,4.7-2.1,7.5-5.7,7.5C150.8,28,148.8,26.5,148.4,24.3z
		 M156.3,18.2c0-1.6-1.2-2.8-2.8-2.8c-1.6,0-2.8,1.2-2.8,2.8c0,1.6,1.2,2.8,2.8,2.8C155.1,20.9,156.3,19.8,156.3,18.2z"/>
</g>
<g class="st0">
	<path class="st1" d="M164.5,16L164.5,16l-3.7,2.5v-2.3l3.7-2.6h2.5v14.1h-2.5V16z"/>
</g>
<g class="st0">
	<path class="st1" d="M173.8,16L173.8,16l-3.7,2.5v-2.3l3.7-2.6h2.5v14.1h-2.5V16z"/>
</g>
<g class="st0">
	<path class="st1" d="M179.1,30.7l0.8-5.3h2.4l-1.3,5.3H179.1z"/>
</g>
<g class="st0">
	<path class="st1" d="M189.6,23.8c0.2,1.3,1.5,2.1,3.2,2.1c1.7,0,2.9-0.8,2.9-2c0-1-0.7-1.6-2.5-2l-1.5-0.3c-2.8-0.6-4.1-1.9-4.1-4
		c0-2.5,2.2-4.2,5.2-4.2c3.1,0,5.2,1.7,5.2,4.2h-2.4c-0.1-1.3-1.2-2.1-2.8-2.1c-1.6,0-2.7,0.7-2.7,1.9c0,1,0.7,1.6,2.5,1.9l1.5,0.3
		c3,0.6,4.2,1.8,4.2,3.9c0,2.7-2.1,4.4-5.5,4.4c-3.3,0-5.4-1.6-5.5-4.2H189.6z"/>
	<path class="st1" d="M209,24.6c-0.3,2-2.1,3.3-4.6,3.3c-3.1,0-5-2-5-5.3c0-3.3,1.9-5.4,4.9-5.4c2.9,0,4.8,2,4.8,5.2v0.8h-7.2v0.1
		c0,1.7,1,2.8,2.6,2.8c1.1,0,2-0.6,2.3-1.4H209z M201.9,21.5h4.8c0-1.5-1-2.5-2.4-2.5C202.9,19,202,20.1,201.9,21.5z"/>
	<path class="st1" d="M217.5,21.1c-0.2-1.1-1-1.9-2.3-1.9c-1.5,0-2.5,1.3-2.5,3.4c0,2.2,1,3.4,2.5,3.4c1.2,0,2-0.7,2.3-1.9h2.3
		c-0.2,2.3-2,3.8-4.6,3.8c-3,0-5-2-5-5.4c0-3.3,2-5.4,5-5.4c2.7,0,4.4,1.7,4.6,3.9H217.5z"/>
	<path class="st1" d="M230.4,27.7H228v-1.8h0c-0.5,1.3-1.6,2-3.2,2c-2.2,0-3.7-1.5-3.7-3.8v-6.7h2.4v6.2c0,1.5,0.7,2.3,2.1,2.3
		c1.4,0,2.3-1,2.3-2.5v-6h2.4V27.7z"/>
	<path class="st1" d="M232.4,17.4h2.3v1.8h0c0.4-1.3,1.3-2,2.5-2c0.3,0,0.6,0.1,0.8,0.1v2.2c-0.2-0.1-0.6-0.1-1-0.1
		c-1.4,0-2.2,0.9-2.2,2.3v6h-2.4V17.4z"/>
	<path class="st1" d="M239.2,14.5c0-0.7,0.6-1.3,1.3-1.3c0.8,0,1.3,0.6,1.3,1.3c0,0.7-0.6,1.3-1.3,1.3
		C239.8,15.8,239.2,15.2,239.2,14.5z M239.3,17.4h2.4v10.4h-2.4V17.4z"/>
	<path class="st1" d="M246.9,14.9v2.4h2v1.9h-2v5.4c0,0.8,0.4,1.2,1.2,1.2c0.2,0,0.5,0,0.7,0v1.9c-0.3,0.1-0.7,0.1-1.3,0.1
		c-2.2,0-3.1-0.8-3.1-2.8v-5.7H243v-1.9h1.5v-2.4H246.9z"/>
	<path class="st1" d="M250.7,31.5v-1.9c0.1,0,0.6,0,0.7,0c1,0,1.5-0.4,1.8-1.3c0,0,0.2-0.5,0.1-0.6l-3.7-10.4h2.7l2.4,8.3h0l2.4-8.3
		h2.6L256,28.1c-0.9,2.6-2,3.4-4.4,3.4C251.5,31.6,250.8,31.6,250.7,31.5z"/>
</g>
<g class="st0">
	<path class="st1" d="M141.7,44.7c0-4.5,2.5-7.3,6.6-7.3c3.3,0,5.8,2,6.1,5.1h-2.5c-0.3-1.8-1.8-2.9-3.6-2.9c-2.4,0-4,2-4,5.1
		c0,3.2,1.5,5.1,4,5.1c1.9,0,3.2-1,3.6-2.7h2.5c-0.4,3-2.7,4.8-6.1,4.8C144.3,52,141.7,49.2,141.7,44.7z"/>
	<path class="st1" d="M155.6,46.5c0-3.3,2-5.4,5-5.4s5,2,5,5.4c0,3.4-2,5.4-5,5.4S155.6,49.9,155.6,46.5z M163.1,46.5
		c0-2.2-1-3.5-2.5-3.5c-1.5,0-2.5,1.3-2.5,3.5c0,2.2,1,3.5,2.5,3.5S163.1,48.8,163.1,46.5z"/>
	<path class="st1" d="M167.2,41.4h2.3v1.8h0c0.6-1.2,1.7-2,3.3-2c2.3,0,3.6,1.5,3.6,3.9v6.7H174v-6.2c0-1.5-0.7-2.3-2.1-2.3
		c-1.4,0-2.3,1-2.3,2.5v6h-2.4V41.4z"/>
	<path class="st1" d="M181.4,38.9v2.4h2v1.9h-2v5.4c0,0.8,0.4,1.2,1.2,1.2c0.2,0,0.5,0,0.7,0v1.9c-0.3,0.1-0.7,0.1-1.3,0.1
		c-2.2,0-3.1-0.8-3.1-2.8v-5.7h-1.5v-1.9h1.5v-2.4H181.4z"/>
</g>
<g class="st0">
	<path class="st1" d="M185,41.4h2.3v1.8h0c0.4-1.3,1.3-2,2.5-2c0.3,0,0.6,0.1,0.8,0.1v2.2c-0.2-0.1-0.6-0.1-1-0.1
		c-1.4,0-2.2,0.9-2.2,2.3v6H185V41.4z"/>
</g>
<g class="st0">
	<path class="st1" d="M191.1,46.5c0-3.3,2-5.4,5-5.4s5,2,5,5.4c0,3.4-2,5.4-5,5.4S191.1,49.9,191.1,46.5z M198.6,46.5
		c0-2.2-1-3.5-2.5-3.5c-1.5,0-2.5,1.3-2.5,3.5c0,2.2,1,3.5,2.5,3.5S198.6,48.8,198.6,46.5z"/>
	<path class="st1" d="M202.7,37.6h2.4v14.1h-2.4V37.6z"/>
	<path class="st1" d="M211,44.7c0-4.5,2.5-7.3,6.6-7.3c3.3,0,5.8,2,6.1,5.1h-2.5c-0.3-1.8-1.8-2.9-3.6-2.9c-2.4,0-4,2-4,5.1
		c0,3.2,1.5,5.1,4,5.1c1.9,0,3.2-1,3.6-2.7h2.5c-0.4,3-2.7,4.8-6.1,4.8C213.5,52,211,49.2,211,44.7z"/>
	<path class="st1" d="M234.4,48.6c-0.3,2-2.1,3.3-4.6,3.3c-3.1,0-5-2-5-5.3c0-3.3,1.9-5.4,4.9-5.4c2.9,0,4.8,2,4.8,5.2v0.8h-7.2v0.1
		c0,1.7,1,2.8,2.6,2.8c1.1,0,2-0.6,2.3-1.4H234.4z M227.3,45.5h4.8c0-1.5-1-2.5-2.4-2.5C228.4,43,227.4,44.1,227.3,45.5z"/>
	<path class="st1" d="M236.1,41.4h2.3v1.8h0c0.6-1.2,1.7-2,3.3-2c2.3,0,3.6,1.5,3.6,3.9v6.7h-2.4v-6.2c0-1.5-0.7-2.3-2.1-2.3
		c-1.4,0-2.3,1-2.3,2.5v6h-2.4V41.4z"/>
</g>
<g class="st0">
	<path class="st1" d="M250.4,38.9v2.4h2v1.9h-2v5.4c0,0.8,0.4,1.2,1.2,1.2c0.2,0,0.5,0,0.7,0v1.9c-0.3,0.1-0.7,0.1-1.3,0.1
		c-2.2,0-3.1-0.8-3.1-2.8v-5.7h-1.5v-1.9h1.5v-2.4H250.4z"/>
</g>
<g class="st0">
	<path class="st1" d="M262.9,48.6c-0.3,2-2.1,3.3-4.6,3.3c-3.1,0-5-2-5-5.3c0-3.3,1.9-5.4,4.9-5.4c2.9,0,4.8,2,4.8,5.2v0.8h-7.2v0.1
		c0,1.7,1,2.8,2.6,2.8c1.1,0,2-0.6,2.3-1.4H262.9z M255.8,45.5h4.8c0-1.5-1-2.5-2.4-2.5C256.9,43,255.9,44.1,255.8,45.5z"/>
	<path class="st1" d="M264.6,41.4h2.3v1.8h0c0.4-1.3,1.3-2,2.5-2c0.3,0,0.6,0.1,0.8,0.1v2.2c-0.2-0.1-0.6-0.1-1-0.1
		c-1.4,0-2.2,0.9-2.2,2.3v6h-2.4V41.4z"/>
</g>
<path class="st2" d="M240.1,292.9c0-0.3,0-0.6,0-0.8c0-15.1-12.2-27.3-27.2-27.3c-10.5,0-20.1,6-24.6,15.5
	c-6.9-3.5-15.3-0.8-18.8,6.1c-0.7,1.3-1.1,2.7-1.3,4.1c-11,3.8-16.9,15.8-13.1,26.8c2.9,8.5,10.9,14.3,20,14.3h65.3
	c10.7-0.2,19.2-9.1,18.9-19.8C258.8,301.4,250.4,293.1,240.1,292.9L240.1,292.9z"/>
<text transform="matrix(1 0 0 1 184.71 308.95)" class="st1 st3 st4">Ser</text>
<text transform="matrix(1 0 0 1 207.43 308.95)" class="st1 st3 st4">v</text>
<text transform="matrix(1 0 0 1 214.95 308.95)" class="st1 st3 st4">er</text>
<rect x="284.7" y="399" class="st2" width="81.8" height="68.9"/>
<text transform="matrix(1 0 0 1 303.81 428.56)" class="st1 st3 st4">Ser</text>
<text transform="matrix(1 0 0 1 326.53 428.56)" class="st1 st3 st4">v</text>
<text transform="matrix(1 0 0 1 334.05 428.56)" class="st1 st3 st4">er</text>
<text transform="matrix(1 0 0 1 302.09 446.73)" class="st1 st3 st4">(Node)</text>
<rect x="46.9" y="398.5" class="st2" width="81.8" height="68.9"/>
<text transform="matrix(1 0 0 1 78.32 428.06)" class="st1 st3 st4">TV</text>
<text transform="matrix(1 0 0 1 64.3 446.23)" class="st1 st3 st4">(Node)</text>
<rect x="165.9" y="526.9" class="st2" width="81.8" height="68.9"/>
<text transform="matrix(1 0 0 1 185.68 555.74)" class="st1 st3 st4">Fridge</text>
<text transform="matrix(1 0 0 1 183.41 573.91)" class="st1 st3 st4">(Node)</text>
<polygon class="st2" points="129,438 283.3,438 206.2,345.9 "/>
<polyline class="st5" points="132.4,437.1 129.6,437.1 131.8,439.7 "/>
<line class="st6" x1="136" y1="444.7" x2="201.9" y2="521.7"/>
<polyline class="st5" points="204,524.2 206.2,526.8 208.4,524.2 "/>
<line class="st7" x1="212.8" y1="519.2" x2="279.5" y2="442.2"/>
<line class="st5" x1="281.6" y1="439.7" x2="283.9" y2="437.1"/>
<line class="st8" x1="206.2" y1="526.1" x2="206.2" y2="347.6"/>
<line class="st2" x1="203.2" y1="95.6" x2="203.2" y2="213.6"/>
<polyline class="st2" points="194.5,100.8 203.7,95.1 212.9,100.8 "/>
</svg>
