<svg id="Layer_1" data-name="Layer 1" xmlns="http://www.w3.org/2000/svg" viewBox="0 0 1147 423"><defs><style>.cls-1{font-size:33.76px;}.cls-1,.cls-9{fill:#fff;font-family:SFProDisplay-Semibold, SF Pro Display;font-weight:600;}.cls-2{letter-spacing:-0.01em;}.cls-3{letter-spacing:0em;}.cls-4{letter-spacing:-0.02em;}.cls-5{letter-spacing:-0.06em;}.cls-6{letter-spacing:-0.02em;}.cls-7{letter-spacing:-0.01em;}.cls-11,.cls-12,.cls-13,.cls-14,.cls-15,.cls-8{fill:none;stroke:#fff;}.cls-11,.cls-15,.cls-8{stroke-miterlimit:10;}.cls-8{stroke-width:1.76px;}.cls-9{font-size:20px;}.cls-10{letter-spacing:-0.01em;}.cls-11,.cls-12,.cls-13,.cls-14,.cls-15{stroke-width:2px;}.cls-12,.cls-13,.cls-14{stroke-linejoin:bevel;}.cls-13{stroke-dasharray:11.79 11.79;}.cls-14{stroke-dasharray:11.81 11.81;}.cls-15{stroke-dasharray:12;}</style></defs><text class="cls-1" transform="translate(34.4 203.72)"><tspan class="cls-2">9</tspan><tspan class="cls-3" x="20.97" y="0">1</tspan><tspan class="cls-4" x="36.72" y="0">1</tspan><tspan class="cls-5" x="51.92" y="0">,</tspan><tspan x="59.14" y="0" xml:space="preserve"> Security </tspan><tspan x="-10.96" y="40.51">Cont</tspan><tspan class="cls-6" x="61.74" y="40.51">r</tspan><tspan x="72.69" y="40.51">ol Cen</tspan><tspan class="cls-7" x="166.75" y="40.51">t</tspan><tspan x="177.75" y="40.51">er</tspan></text><path class="cls-8" d="M571.5,196.36c0-.37,0-.73,0-1.1A36,36,0,0,0,503,179.75a18.54,18.54,0,0,0-26.64,13.49,27.88,27.88,0,0,0,9,54.26h86.14a25.56,25.56,0,0,0,0-51.12Z"/><text class="cls-9" transform="translate(498.37 217.61)">Ser<tspan class="cls-10" x="30.01" y="0">v</tspan><tspan x="39.94" y="0">er</tspan></text><rect class="cls-11" x="752.5" y="17.5" width="108" height="91"/><text class="cls-9" transform="translate(777.93 55.56)">Ser<tspan class="cls-10" x="30.01" y="0">v</tspan><tspan x="39.94" y="0">er</tspan><tspan x="-2.27" y="24">(Node)</tspan></text><rect class="cls-11" x="752.5" y="313.5" width="108" height="91"/><text class="cls-9" transform="translate(794.18 351.56)">TV<tspan x="-18.52" y="24">(Node)</tspan></text><rect class="cls-11" x="1025.5" y="153.5" width="108" height="91"/><text class="cls-9" transform="translate(1051.66 191.56)">Fridge<tspan x="-2.99" y="24">(Node)</tspan></text><polygon class="cls-11" points="806.5 313.5 806.5 109.7 1025.5 211.5 806.5 313.5"/><polyline class="cls-12" points="808.61 308.95 808.61 312.78 803.19 310.21"/><line class="cls-13" x1="792.54" y1="305.15" x2="606.24" y2="216.61"/><polyline class="cls-12" points="600.92 214.08 595.5 211.5 600.91 208.9"/><line class="cls-14" x1="611.55" y1="203.78" x2="797.88" y2="114.14"/><line class="cls-12" x1="803.2" y1="111.58" x2="808.61" y2="108.98"/><line class="cls-15" x1="597.02" y1="211.6" x2="1021.5" y2="211.6"/><line class="cls-11" x1="252.5" y1="211.5" x2="443.5" y2="211.5"/><polyline class="cls-11" points="261 220.19 251.81 211 261 201.81"/></svg>