<?xml version="1.0" encoding="utf-8"?>
<!-- Generator: Adobe Illustrator 23.0.2, SVG Export Plug-In . SVG Version: 6.00 Build 0)  -->
<svg version="1.1" id="Layer_1" xmlns="http://www.w3.org/2000/svg" xmlns:xlink="http://www.w3.org/1999/xlink" x="0px" y="0px"
	 viewBox="0 0 1159 462" style="enable-background:new 0 0 1159 462;" xml:space="preserve">
<style type="text/css">
	.st0{fill:#FFFFFF;}
	.st1{enable-background:new    ;}
</style>
<title>table</title>
<g>
	<path class="st0" d="M398.1,232h-366V128h366V232z M34.1,230h362V130h-362V230z"/>
</g>
<g>
	<path class="st0" d="M762,232H396V128h366V232z M398,230h362V130H398V230z"/>
</g>
<g>
	<path class="st0" d="M1125.5,232h-366V128h366V232z M761.5,230h362V130h-362V230z"/>
</g>
<g>
	<path class="st0" d="M398.1,129.6h-366v-104h366V129.6z M34.1,127.6h362v-100h-362V127.6z"/>
</g>
<g>
	<path class="st0" d="M762.2,129.6h-366v-104h366V129.6z M398.2,127.6h362v-100h-362V127.6z"/>
</g>
<g>
	<path class="st0" d="M1125.8,129.6h-366v-104h366V129.6z M761.8,127.6h362v-100h-362V127.6z"/>
</g>
<g>
	<path class="st0" d="M398,334H32V230h366V334z M34,332h362V232H34V332z"/>
</g>
<g>
	<path class="st0" d="M762,334H396V230h366V334z M398,332h362V232H398V332z"/>
</g>
<g>
	<path class="st0" d="M1126,334H760V230h366V334z M762,332h362V232H762V332z"/>
</g>
<g>
	<path class="st0" d="M398,436H32V332h366V436z M34,434h362V334H34V434z"/>
</g>
<g>
	<path class="st0" d="M762,436H396V332h366V436z M398,434h362V334H398V434z"/>
</g>
<g>
	<path class="st0" d="M1126.5,436h-366V332h366V436z M762.5,434h362V334h-362V434z"/>
</g>
<g class="st1">
	<path class="st0" d="M130.8,171.5c4.2,0,6.7,2.5,6.7,7s-2.5,7.1-6.7,7.1h-5.1v-14.1H130.8z M128.2,183.5h2.4c2.8,0,4.4-1.7,4.4-4.9
		c0-3.2-1.6-4.9-4.4-4.9h-2.4V183.5z"/>
</g>
<g class="st1">
	<path class="st0" d="M138.9,182.7c0-1.8,1.4-2.9,3.9-3.1l2.7-0.2v-0.7c0-1.1-0.7-1.7-1.9-1.7c-1.2,0-1.9,0.6-2,1.4h-2.3
		c0.1-1.9,1.8-3.3,4.4-3.3c2.6,0,4.2,1.4,4.2,3.4v7.1h-2.3V184h0c-0.6,1.1-1.9,1.8-3.2,1.8C140.3,185.8,138.9,184.5,138.9,182.7z
		 M145.5,181.8V181l-2.4,0.1c-1.2,0.1-1.8,0.6-1.8,1.4c0,0.8,0.7,1.4,1.8,1.4C144.4,184,145.5,183.1,145.5,181.8z"/>
</g>
<g class="st1">
	<path class="st0" d="M153,172.9v2.4h2v1.9h-2v5.4c0,0.8,0.4,1.2,1.2,1.2c0.2,0,0.5,0,0.7,0v1.9c-0.3,0.1-0.7,0.1-1.3,0.1
		c-2.2,0-3.1-0.8-3.1-2.8v-5.7h-1.5v-1.9h1.5v-2.4H153z"/>
</g>
<g class="st1">
	<path class="st0" d="M156.1,182.7c0-1.8,1.4-2.9,3.9-3.1l2.7-0.2v-0.7c0-1.1-0.7-1.7-1.9-1.7c-1.2,0-1.9,0.6-2,1.4h-2.3
		c0.1-1.9,1.8-3.3,4.4-3.3c2.6,0,4.2,1.4,4.2,3.4v7.1h-2.3V184h0c-0.6,1.1-1.9,1.8-3.2,1.8C157.5,185.8,156.1,184.5,156.1,182.7z
		 M162.7,181.8V181l-2.4,0.1c-1.2,0.1-1.8,0.6-1.8,1.4c0,0.8,0.7,1.4,1.8,1.4C161.6,184,162.7,183.1,162.7,181.8z"/>
	<path class="st0" d="M175.1,175.1c2.5,0,4.1,1.4,4.2,3.3H177c-0.1-0.9-0.8-1.5-1.9-1.5c-1.1,0-1.8,0.5-1.8,1.3c0,0.6,0.4,1,1.5,1.2
		l1.7,0.4c2.1,0.5,3,1.3,3,2.8c0,2-1.8,3.3-4.3,3.3c-2.7,0-4.3-1.3-4.5-3.3h2.4c0.2,1,0.9,1.5,2.1,1.5c1.2,0,1.9-0.5,1.9-1.3
		c0-0.6-0.4-1-1.5-1.2l-1.7-0.4c-2-0.4-3-1.4-3-2.9C170.9,176.4,172.6,175.1,175.1,175.1z"/>
</g>
<g class="st1">
	<path class="st0" d="M184.1,172.9v2.4h2v1.9h-2v5.4c0,0.8,0.4,1.2,1.2,1.2c0.2,0,0.5,0,0.7,0v1.9c-0.3,0.1-0.7,0.1-1.3,0.1
		c-2.2,0-3.1-0.8-3.1-2.8v-5.7h-1.5v-1.9h1.5v-2.4H184.1z"/>
</g>
<g class="st1">
	<path class="st0" d="M187.1,180.5c0-3.3,2-5.4,5-5.4s5,2,5,5.4c0,3.4-2,5.4-5,5.4S187.1,183.8,187.1,180.5z M194.6,180.5
		c0-2.2-1-3.5-2.5-3.5c-1.5,0-2.5,1.3-2.5,3.5c0,2.2,1,3.5,2.5,3.5S194.6,182.7,194.6,180.5z"/>
</g>
<g class="st1">
	<path class="st0" d="M198.7,175.3h2.3v1.8h0c0.4-1.3,1.3-2,2.5-2c0.3,0,0.6,0.1,0.8,0.1v2.2c-0.2-0.1-0.6-0.1-1-0.1
		c-1.4,0-2.2,0.9-2.2,2.3v6h-2.4V175.3z"/>
</g>
<g class="st1">
	<path class="st0" d="M204.9,182.7c0-1.8,1.4-2.9,3.9-3.1l2.7-0.2v-0.7c0-1.1-0.7-1.7-1.9-1.7c-1.2,0-1.9,0.6-2,1.4h-2.3
		c0.1-1.9,1.8-3.3,4.4-3.3c2.6,0,4.2,1.4,4.2,3.4v7.1h-2.3V184h0c-0.6,1.1-1.9,1.8-3.2,1.8C206.4,185.8,204.9,184.5,204.9,182.7z
		 M211.6,181.8V181l-2.4,0.1c-1.2,0.1-1.8,0.6-1.8,1.4c0,0.8,0.7,1.4,1.8,1.4C210.5,184,211.6,183.1,211.6,181.8z"/>
	<path class="st0" d="M215.9,186.4h2.4c0.3,0.8,1.2,1.3,2.3,1.3c1.6,0,2.5-0.9,2.5-2.2v-1.7H223c-0.5,1.1-1.8,1.9-3.2,1.9
		c-2.6,0-4.3-2-4.3-5.2c0-3.3,1.7-5.3,4.3-5.3c1.5,0,2.7,0.8,3.3,2h0v-1.8h2.4v10.2c0,2.5-2,4.1-5,4.1
		C217.9,189.5,216.1,188.2,215.9,186.4z M223.1,180.4c0-2-1-3.3-2.6-3.3c-1.5,0-2.5,1.3-2.5,3.3c0,2.1,1,3.3,2.5,3.3
		C222.1,183.7,223.1,182.5,223.1,180.4z"/>
	<path class="st0" d="M236.6,182.5c-0.3,2-2.1,3.3-4.6,3.3c-3.1,0-5-2-5-5.3c0-3.3,1.9-5.4,4.9-5.4c2.9,0,4.8,2,4.8,5.2v0.8h-7.2
		v0.1c0,1.7,1,2.8,2.6,2.8c1.1,0,2-0.6,2.3-1.4H236.6z M229.5,179.4h4.8c0-1.5-1-2.5-2.4-2.5C230.6,177,229.6,178,229.5,179.4z"/>
</g>
<g class="st1">
	<path class="st0" d="M246.3,175.1c2.5,0,4.1,1.4,4.2,3.3h-2.3c-0.1-0.9-0.8-1.5-1.9-1.5c-1.1,0-1.8,0.5-1.8,1.3
		c0,0.6,0.4,1,1.5,1.2l1.7,0.4c2.1,0.5,3,1.3,3,2.8c0,2-1.8,3.3-4.3,3.3c-2.7,0-4.3-1.3-4.5-3.3h2.4c0.2,1,0.9,1.5,2.1,1.5
		c1.2,0,1.9-0.5,1.9-1.3c0-0.6-0.4-1-1.5-1.2l-1.7-0.4c-2-0.4-3-1.4-3-2.9C242.1,176.4,243.8,175.1,246.3,175.1z"/>
	<path class="st0" d="M252.4,189.4v-1.9c0.1,0,0.6,0,0.7,0c1,0,1.5-0.4,1.8-1.3c0,0,0.2-0.5,0.1-0.6l-3.7-10.4h2.7l2.4,8.3h0
		l2.4-8.3h2.6l-3.8,10.8c-0.9,2.6-2,3.4-4.4,3.4C253.2,189.5,252.5,189.5,252.4,189.4z"/>
</g>
<g class="st1">
	<path class="st0" d="M266.6,175.1c2.5,0,4.1,1.4,4.2,3.3h-2.3c-0.1-0.9-0.8-1.5-1.9-1.5c-1.1,0-1.8,0.5-1.8,1.3
		c0,0.6,0.4,1,1.5,1.2l1.7,0.4c2.1,0.5,3,1.3,3,2.8c0,2-1.8,3.3-4.3,3.3c-2.7,0-4.3-1.3-4.5-3.3h2.4c0.2,1,0.9,1.5,2.1,1.5
		c1.2,0,1.9-0.5,1.9-1.3c0-0.6-0.4-1-1.5-1.2l-1.7-0.4c-2-0.4-3-1.4-3-2.9C262.4,176.4,264.1,175.1,266.6,175.1z"/>
</g>
<g class="st1">
	<path class="st0" d="M275.6,172.9v2.4h2v1.9h-2v5.4c0,0.8,0.4,1.2,1.2,1.2c0.2,0,0.5,0,0.7,0v1.9c-0.3,0.1-0.7,0.1-1.3,0.1
		c-2.2,0-3.1-0.8-3.1-2.8v-5.7h-1.5v-1.9h1.5v-2.4H275.6z"/>
</g>
<g class="st1">
	<path class="st0" d="M288.2,182.5c-0.3,2-2.1,3.3-4.6,3.3c-3.1,0-5-2-5-5.3c0-3.3,1.9-5.4,4.9-5.4c2.9,0,4.8,2,4.8,5.2v0.8H281v0.1
		c0,1.7,1,2.8,2.6,2.8c1.1,0,2-0.6,2.3-1.4H288.2z M281.1,179.4h4.8c0-1.5-1-2.5-2.4-2.5C282.1,177,281.2,178,281.1,179.4z"/>
	<path class="st0" d="M289.8,175.3h2.3v1.8h0c0.4-1.2,1.5-2,2.9-2c1.5,0,2.5,0.8,2.9,2.1h0.1c0.5-1.3,1.7-2.1,3.2-2.1
		c2,0,3.4,1.4,3.4,3.4v7.1h-2.4v-6.5c0-1.3-0.7-2-1.9-2c-1.2,0-2,0.9-2,2.1v6.4h-2.4V179c0-1.2-0.7-1.9-1.8-1.9c-1.2,0-2,0.9-2,2.2
		v6.3h-2.4V175.3z"/>
</g>
<g class="st1">
	<path class="st0" d="M467.3,181.7c0.2,1.3,1.5,2.1,3.2,2.1c1.7,0,2.9-0.8,2.9-2c0-1-0.7-1.6-2.5-2l-1.5-0.3c-2.8-0.6-4.1-1.9-4.1-4
		c0-2.5,2.2-4.2,5.2-4.2c3.1,0,5.2,1.7,5.2,4.2h-2.4c-0.1-1.3-1.2-2.1-2.8-2.1c-1.6,0-2.7,0.7-2.7,1.9c0,1,0.7,1.6,2.5,1.9l1.5,0.3
		c3,0.6,4.2,1.8,4.2,3.9c0,2.7-2.1,4.4-5.5,4.4c-3.3,0-5.4-1.6-5.5-4.2H467.3z"/>
	<path class="st0" d="M486.7,182.5c-0.3,2-2.1,3.3-4.6,3.3c-3.1,0-5-2-5-5.3c0-3.3,1.9-5.4,4.9-5.4c2.9,0,4.8,2,4.8,5.2v0.8h-7.2
		v0.1c0,1.7,1,2.8,2.6,2.8c1.1,0,2-0.6,2.3-1.4H486.7z M479.6,179.4h4.8c0-1.5-1-2.5-2.4-2.5C480.7,177,479.7,178,479.6,179.4z"/>
	<path class="st0" d="M498.4,180.5c0,3.3-1.7,5.3-4.3,5.3c-1.5,0-2.7-0.7-3.2-1.9h0v5.1h-2.4v-13.8h2.4v1.8h0c0.6-1.2,1.8-2,3.3-2
		C496.7,175.1,498.4,177.2,498.4,180.5z M495.9,180.5c0-2-1-3.3-2.5-3.3c-1.5,0-2.5,1.3-2.5,3.3c0,2,1,3.3,2.5,3.3
		C494.9,183.8,495.9,182.5,495.9,180.5z"/>
	<path class="st0" d="M499.5,182.7c0-1.8,1.4-2.9,3.9-3.1l2.7-0.2v-0.7c0-1.1-0.7-1.7-1.9-1.7c-1.2,0-1.9,0.6-2,1.4H500
		c0.1-1.9,1.8-3.3,4.4-3.3c2.6,0,4.2,1.4,4.2,3.4v7.1h-2.3V184h0c-0.6,1.1-1.9,1.8-3.2,1.8C501,185.8,499.5,184.5,499.5,182.7z
		 M506.2,181.8V181l-2.4,0.1c-1.2,0.1-1.8,0.6-1.8,1.4c0,0.8,0.7,1.4,1.8,1.4C505.1,184,506.2,183.1,506.2,181.8z"/>
</g>
<g class="st1">
	<path class="st0" d="M510.5,175.3h2.3v1.8h0c0.4-1.3,1.3-2,2.5-2c0.3,0,0.6,0.1,0.8,0.1v2.2c-0.2-0.1-0.6-0.1-1-0.1
		c-1.4,0-2.2,0.9-2.2,2.3v6h-2.4V175.3z"/>
</g>
<g class="st1">
	<path class="st0" d="M516.8,182.7c0-1.8,1.4-2.9,3.9-3.1l2.7-0.2v-0.7c0-1.1-0.7-1.7-1.9-1.7c-1.2,0-1.9,0.6-2,1.4h-2.3
		c0.1-1.9,1.8-3.3,4.4-3.3c2.6,0,4.2,1.4,4.2,3.4v7.1h-2.3V184h0c-0.6,1.1-1.9,1.8-3.2,1.8C518.2,185.8,516.8,184.5,516.8,182.7z
		 M523.4,181.8V181l-2.4,0.1c-1.2,0.1-1.8,0.6-1.8,1.4c0,0.8,0.7,1.4,1.8,1.4C522.3,184,523.4,183.1,523.4,181.8z"/>
</g>
<g class="st1">
	<path class="st0" d="M530.9,172.9v2.4h2v1.9h-2v5.4c0,0.8,0.4,1.2,1.2,1.2c0.2,0,0.5,0,0.7,0v1.9c-0.3,0.1-0.7,0.1-1.3,0.1
		c-2.2,0-3.1-0.8-3.1-2.8v-5.7H527v-1.9h1.5v-2.4H530.9z"/>
</g>
<g class="st1">
	<path class="st0" d="M543.4,182.5c-0.3,2-2.1,3.3-4.6,3.3c-3.1,0-5-2-5-5.3c0-3.3,1.9-5.4,4.9-5.4c2.9,0,4.8,2,4.8,5.2v0.8h-7.2
		v0.1c0,1.7,1,2.8,2.6,2.8c1.1,0,2-0.6,2.3-1.4H543.4z M536.3,179.4h4.8c0-1.5-1-2.5-2.4-2.5C537.4,177,536.4,178,536.3,179.4z"/>
</g>
<g class="st1">
	<path class="st0" d="M553.1,175.1c2.5,0,4.1,1.4,4.2,3.3H555c-0.1-0.9-0.8-1.5-1.9-1.5c-1.1,0-1.8,0.5-1.8,1.3c0,0.6,0.4,1,1.5,1.2
		l1.7,0.4c2.1,0.5,3,1.3,3,2.8c0,2-1.8,3.3-4.3,3.3c-2.7,0-4.3-1.3-4.5-3.3h2.4c0.2,1,0.9,1.5,2.1,1.5c1.2,0,1.9-0.5,1.9-1.3
		c0-0.6-0.4-1-1.5-1.2l-1.7-0.4c-2-0.4-3-1.4-3-2.9C548.9,176.4,550.6,175.1,553.1,175.1z"/>
	<path class="st0" d="M559.2,189.4v-1.9c0.1,0,0.6,0,0.7,0c1,0,1.5-0.4,1.8-1.3c0,0,0.2-0.5,0.1-0.6l-3.7-10.4h2.7l2.4,8.3h0
		l2.4-8.3h2.6l-3.8,10.8c-0.9,2.6-2,3.4-4.4,3.4C560,189.5,559.4,189.5,559.2,189.4z"/>
</g>
<g class="st1">
	<path class="st0" d="M573.4,175.1c2.5,0,4.1,1.4,4.2,3.3h-2.3c-0.1-0.9-0.8-1.5-1.9-1.5c-1.1,0-1.8,0.5-1.8,1.3
		c0,0.6,0.4,1,1.5,1.2l1.7,0.4c2.1,0.5,3,1.3,3,2.8c0,2-1.8,3.3-4.3,3.3c-2.7,0-4.3-1.3-4.5-3.3h2.4c0.2,1,0.9,1.5,2.1,1.5
		c1.2,0,1.9-0.5,1.9-1.3c0-0.6-0.4-1-1.5-1.2l-1.7-0.4c-2-0.4-3-1.4-3-2.9C569.3,176.4,570.9,175.1,573.4,175.1z"/>
</g>
<g class="st1">
	<path class="st0" d="M582.5,172.9v2.4h2v1.9h-2v5.4c0,0.8,0.4,1.2,1.2,1.2c0.2,0,0.5,0,0.7,0v1.9c-0.3,0.1-0.7,0.1-1.3,0.1
		c-2.2,0-3.1-0.8-3.1-2.8v-5.7h-1.5v-1.9h1.5v-2.4H582.5z"/>
</g>
<g class="st1">
	<path class="st0" d="M595,182.5c-0.3,2-2.1,3.3-4.6,3.3c-3.1,0-5-2-5-5.3c0-3.3,1.9-5.4,4.9-5.4c2.9,0,4.8,2,4.8,5.2v0.8h-7.2v0.1
		c0,1.7,1,2.8,2.6,2.8c1.1,0,2-0.6,2.3-1.4H595z M587.9,179.4h4.8c0-1.5-1-2.5-2.4-2.5C589,177,588,178,587.9,179.4z"/>
	<path class="st0" d="M596.7,175.3h2.3v1.8h0c0.4-1.2,1.5-2,2.9-2c1.5,0,2.5,0.8,2.9,2.1h0.1c0.5-1.3,1.7-2.1,3.2-2.1
		c2,0,3.4,1.4,3.4,3.4v7.1h-2.4v-6.5c0-1.3-0.7-2-1.9-2c-1.2,0-2,0.9-2,2.1v6.4h-2.4V179c0-1.2-0.7-1.9-1.8-1.9c-1.2,0-2,0.9-2,2.2
		v6.3h-2.4V175.3z"/>
</g>
<g class="st1">
	<path class="st0" d="M617.5,175.3h2.3v1.8h0c0.4-1.3,1.3-2,2.5-2c0.3,0,0.6,0.1,0.8,0.1v2.2c-0.2-0.1-0.6-0.1-1-0.1
		c-1.4,0-2.2,0.9-2.2,2.3v6h-2.4V175.3z"/>
</g>
<g class="st1">
	<path class="st0" d="M633.1,182.5c-0.3,2-2.1,3.3-4.6,3.3c-3.1,0-5-2-5-5.3c0-3.3,1.9-5.4,4.9-5.4c2.9,0,4.8,2,4.8,5.2v0.8H626v0.1
		c0,1.7,1,2.8,2.6,2.8c1.1,0,2-0.6,2.3-1.4H633.1z M626,179.4h4.8c0-1.5-1-2.5-2.4-2.5C627.1,177,626.1,178,626,179.4z"/>
	<path class="st0" d="M641.9,177.1L641.9,177.1l0-1.8h2.4V189h-2.4v-5.2h-0.1c-0.5,1.2-1.7,1.9-3.2,1.9c-2.6,0-4.3-2.1-4.3-5.4
		c0-3.3,1.7-5.3,4.3-5.3C640.2,175.1,641.3,175.9,641.9,177.1z M641.9,180.5c0-2-1-3.3-2.6-3.3c-1.6,0-2.5,1.3-2.5,3.3
		s1,3.3,2.5,3.3C640.9,183.8,641.9,182.5,641.9,180.5z"/>
	<path class="st0" d="M655.5,185.6h-2.3v-1.8h0c-0.5,1.3-1.6,2-3.2,2c-2.2,0-3.7-1.5-3.7-3.8v-6.7h2.4v6.2c0,1.5,0.7,2.3,2.1,2.3
		c1.4,0,2.3-1,2.3-2.5v-6h2.4V185.6z"/>
	<path class="st0" d="M657.4,172.4c0-0.7,0.6-1.3,1.3-1.3c0.8,0,1.3,0.6,1.3,1.3c0,0.7-0.6,1.3-1.3,1.3
		C658,173.7,657.4,173.1,657.4,172.4z M657.5,175.3h2.4v10.4h-2.4V175.3z"/>
</g>
<g class="st1">
	<path class="st0" d="M662,175.3h2.3v1.8h0c0.4-1.3,1.3-2,2.5-2c0.3,0,0.6,0.1,0.8,0.1v2.2c-0.2-0.1-0.6-0.1-1-0.1
		c-1.4,0-2.2,0.9-2.2,2.3v6H662V175.3z"/>
</g>
<g class="st1">
	<path class="st0" d="M677.6,182.5c-0.3,2-2.1,3.3-4.6,3.3c-3.1,0-5-2-5-5.3c0-3.3,1.9-5.4,4.9-5.4c2.9,0,4.8,2,4.8,5.2v0.8h-7.2
		v0.1c0,1.7,1,2.8,2.6,2.8c1.1,0,2-0.6,2.3-1.4H677.6z M670.5,179.4h4.8c0-1.5-1-2.5-2.4-2.5C671.6,177,670.6,178,670.5,179.4z"/>
	<path class="st0" d="M678.9,180.5c0-3.3,1.7-5.3,4.3-5.3c1.5,0,2.7,0.8,3.2,1.9h0.1v-5.5h2.4v14.1h-2.4v-1.8h0
		c-0.6,1.2-1.8,1.9-3.3,1.9C680.5,185.8,678.9,183.7,678.9,180.5z M681.3,180.5c0,2.1,1,3.3,2.5,3.3c1.5,0,2.5-1.3,2.5-3.3
		c0-2-1-3.3-2.5-3.3C682.3,177.1,681.3,178.4,681.3,180.5z"/>
</g>
<g class="st1">
	<path class="st0" d="M411.3,289.6h-2.5v-14.1h5.6c3,0,4.9,1.7,4.9,4.4c0,1.9-1,3.4-2.7,4l3.1,5.7h-2.9l-2.8-5.3h-2.7V289.6z
		 M411.3,282.4h2.8c1.6,0,2.5-0.9,2.5-2.4c0-1.5-1-2.4-2.6-2.4h-2.8V282.4z"/>
</g>
<g class="st1">
	<path class="st0" d="M430.1,286.5c-0.3,2-2.1,3.3-4.6,3.3c-3.1,0-5-2-5-5.3c0-3.3,1.9-5.4,4.9-5.4c2.9,0,4.8,2,4.8,5.2v0.8h-7.2
		v0.1c0,1.7,1,2.8,2.6,2.8c1.1,0,2-0.6,2.3-1.4H430.1z M422.9,283.4h4.8c0-1.5-1-2.5-2.4-2.5C424,281,423,282,422.9,283.4z"/>
	<path class="st0" d="M438.9,281.1L438.9,281.1l0-1.8h2.4V293h-2.4v-5.2h-0.1c-0.5,1.2-1.7,1.9-3.2,1.9c-2.6,0-4.3-2.1-4.3-5.4
		c0-3.3,1.7-5.3,4.3-5.3C437.1,279.1,438.3,279.9,438.9,281.1z M438.9,284.5c0-2-1-3.3-2.6-3.3c-1.6,0-2.5,1.3-2.5,3.3
		s1,3.3,2.5,3.3C437.8,287.8,438.9,286.5,438.9,284.5z"/>
	<path class="st0" d="M452.4,289.6h-2.3v-1.8h0c-0.5,1.3-1.6,2-3.2,2c-2.2,0-3.7-1.5-3.7-3.8v-6.7h2.4v6.2c0,1.5,0.7,2.3,2.1,2.3
		c1.4,0,2.3-1,2.3-2.5v-6h2.4V289.6z"/>
	<path class="st0" d="M454.4,276.4c0-0.7,0.6-1.3,1.3-1.3c0.8,0,1.3,0.6,1.3,1.3c0,0.7-0.6,1.3-1.3,1.3
		C455,277.7,454.4,277.1,454.4,276.4z M454.5,279.3h2.4v10.4h-2.4V279.3z"/>
</g>
<g class="st1">
	<path class="st0" d="M459,279.3h2.3v1.8h0c0.4-1.3,1.3-2,2.5-2c0.3,0,0.6,0.1,0.8,0.1v2.2c-0.2-0.1-0.6-0.1-1-0.1
		c-1.4,0-2.2,0.9-2.2,2.3v6H459V279.3z"/>
</g>
<g class="st1">
	<path class="st0" d="M474.6,286.5c-0.3,2-2.1,3.3-4.6,3.3c-3.1,0-5-2-5-5.3c0-3.3,1.9-5.4,4.9-5.4c2.9,0,4.8,2,4.8,5.2v0.8h-7.2
		v0.1c0,1.7,1,2.8,2.6,2.8c1.1,0,2-0.6,2.3-1.4H474.6z M467.5,283.4h4.8c0-1.5-1-2.5-2.4-2.5C468.5,281,467.6,282,467.5,283.4z"/>
	<path class="st0" d="M484.2,279.1c2.5,0,4.1,1.4,4.2,3.3h-2.3c-0.1-0.9-0.8-1.5-1.9-1.5c-1.1,0-1.8,0.5-1.8,1.3
		c0,0.6,0.4,1,1.5,1.2l1.7,0.4c2.1,0.5,3,1.3,3,2.8c0,2-1.8,3.3-4.3,3.3c-2.7,0-4.3-1.3-4.5-3.3h2.4c0.2,1,0.9,1.5,2.1,1.5
		c1.2,0,1.9-0.5,1.9-1.3c0-0.6-0.4-1-1.5-1.2l-1.7-0.4c-2-0.4-3-1.4-3-2.9C480.1,280.4,481.7,279.1,484.2,279.1z"/>
	<path class="st0" d="M500.2,284.5c0,3.3-1.7,5.3-4.3,5.3c-1.5,0-2.7-0.7-3.2-1.9h0v5.1h-2.4v-13.8h2.4v1.8h0c0.6-1.2,1.8-2,3.3-2
		C498.5,279.1,500.2,281.2,500.2,284.5z M497.7,284.5c0-2-1-3.3-2.5-3.3c-1.5,0-2.5,1.3-2.5,3.3c0,2,1,3.3,2.5,3.3
		C496.7,287.8,497.7,286.5,497.7,284.5z"/>
	<path class="st0" d="M510.8,286.5c-0.3,2-2.1,3.3-4.6,3.3c-3.1,0-5-2-5-5.3c0-3.3,1.9-5.4,4.9-5.4c2.9,0,4.8,2,4.8,5.2v0.8h-7.2
		v0.1c0,1.7,1,2.8,2.6,2.8c1.1,0,2-0.6,2.3-1.4H510.8z M503.7,283.4h4.8c0-1.5-1-2.5-2.4-2.5C504.8,281,503.8,282,503.7,283.4z"/>
	<path class="st0" d="M519.3,283c-0.2-1.1-1-1.9-2.3-1.9c-1.5,0-2.5,1.3-2.5,3.4c0,2.2,1,3.4,2.5,3.4c1.2,0,2-0.7,2.3-1.9h2.3
		c-0.2,2.3-2,3.8-4.6,3.8c-3,0-5-2-5-5.4c0-3.3,2-5.4,5-5.4c2.7,0,4.4,1.7,4.6,3.9H519.3z"/>
	<path class="st0" d="M523,276.4c0-0.7,0.6-1.3,1.3-1.3c0.8,0,1.3,0.6,1.3,1.3c0,0.7-0.6,1.3-1.3,1.3
		C523.6,277.7,523,277.1,523,276.4z M523.1,279.3h2.4v10.4h-2.4V279.3z"/>
	<path class="st0" d="M528.3,281.2h-1.4v-1.8h1.4v-0.9c0-2,1-3,3.2-3c0.5,0,1,0,1.3,0.1v1.7c-0.2,0-0.5-0.1-0.8-0.1
		c-0.9,0-1.3,0.4-1.3,1.3v0.8h2.1v1.8h-2v8.5h-2.4V281.2z"/>
	<path class="st0" d="M534.3,276.4c0-0.7,0.6-1.3,1.3-1.3c0.8,0,1.3,0.6,1.3,1.3c0,0.7-0.6,1.3-1.3,1.3
		C534.9,277.7,534.3,277.1,534.3,276.4z M534.4,279.3h2.4v10.4h-2.4V279.3z"/>
	<path class="st0" d="M545.7,283c-0.2-1.1-1-1.9-2.3-1.9c-1.5,0-2.5,1.3-2.5,3.4c0,2.2,1,3.4,2.5,3.4c1.2,0,2-0.7,2.3-1.9h2.3
		c-0.2,2.3-2,3.8-4.6,3.8c-3,0-5-2-5-5.4c0-3.3,2-5.4,5-5.4c2.7,0,4.4,1.7,4.6,3.9H545.7z"/>
	<path class="st0" d="M563.4,284.5c0,3.3-1.7,5.3-4.3,5.3c-1.5,0-2.7-0.7-3.2-1.9h0v5.1h-2.4v-13.8h2.4v1.8h0c0.6-1.2,1.8-2,3.3-2
		C561.8,279.1,563.4,281.2,563.4,284.5z M561,284.5c0-2-1-3.3-2.5-3.3c-1.5,0-2.5,1.3-2.5,3.3c0,2,1,3.3,2.5,3.3
		C560,287.8,561,286.5,561,284.5z"/>
</g>
<g class="st1">
	<path class="st0" d="M565,279.3h2.3v1.8h0c0.4-1.3,1.3-2,2.5-2c0.3,0,0.6,0.1,0.8,0.1v2.2c-0.2-0.1-0.6-0.1-1-0.1
		c-1.4,0-2.2,0.9-2.2,2.3v6H565V279.3z"/>
</g>
<g class="st1">
	<path class="st0" d="M571.1,284.5c0-3.3,2-5.4,5-5.4s5,2,5,5.4c0,3.4-2,5.4-5,5.4S571.1,287.8,571.1,284.5z M578.6,284.5
		c0-2.2-1-3.5-2.5-3.5c-1.5,0-2.5,1.3-2.5,3.5c0,2.2,1,3.5,2.5,3.5S578.6,286.7,578.6,284.5z"/>
	<path class="st0" d="M589.5,283c-0.2-1.1-1-1.9-2.3-1.9c-1.5,0-2.5,1.3-2.5,3.4c0,2.2,1,3.4,2.5,3.4c1.2,0,2-0.7,2.3-1.9h2.3
		c-0.2,2.3-2,3.8-4.6,3.8c-3,0-5-2-5-5.4c0-3.3,2-5.4,5-5.4c2.7,0,4.4,1.7,4.6,3.9H589.5z"/>
	<path class="st0" d="M602.4,286.5c-0.3,2-2.1,3.3-4.6,3.3c-3.1,0-5-2-5-5.3c0-3.3,1.9-5.4,4.9-5.4c2.9,0,4.8,2,4.8,5.2v0.8h-7.2
		v0.1c0,1.7,1,2.8,2.6,2.8c1.1,0,2-0.6,2.3-1.4H602.4z M595.2,283.4h4.8c0-1.5-1-2.5-2.4-2.5C596.3,281,595.3,282,595.2,283.4z"/>
	<path class="st0" d="M608,279.1c2.5,0,4.1,1.4,4.2,3.3h-2.3c-0.1-0.9-0.8-1.5-1.9-1.5c-1.1,0-1.8,0.5-1.8,1.3c0,0.6,0.4,1,1.5,1.2
		l1.7,0.4c2.1,0.5,3,1.3,3,2.8c0,2-1.8,3.3-4.3,3.3c-2.7,0-4.3-1.3-4.5-3.3h2.4c0.2,1,0.9,1.5,2.1,1.5c1.2,0,1.9-0.5,1.9-1.3
		c0-0.6-0.4-1-1.5-1.2l-1.7-0.4c-2-0.4-3-1.4-3-2.9C603.8,280.4,605.5,279.1,608,279.1z"/>
	<path class="st0" d="M617.9,279.1c2.5,0,4.1,1.4,4.2,3.3h-2.3c-0.1-0.9-0.8-1.5-1.9-1.5c-1.1,0-1.8,0.5-1.8,1.3
		c0,0.6,0.4,1,1.5,1.2l1.7,0.4c2.1,0.5,3,1.3,3,2.8c0,2-1.8,3.3-4.3,3.3c-2.7,0-4.3-1.3-4.5-3.3h2.4c0.2,1,0.9,1.5,2.1,1.5
		c1.2,0,1.9-0.5,1.9-1.3c0-0.6-0.4-1-1.5-1.2l-1.7-0.4c-2-0.4-3-1.4-3-2.9C613.8,280.4,615.4,279.1,617.9,279.1z"/>
	<path class="st0" d="M623.8,276.4c0-0.7,0.6-1.3,1.3-1.3c0.8,0,1.3,0.6,1.3,1.3c0,0.7-0.6,1.3-1.3,1.3
		C624.4,277.7,623.8,277.1,623.8,276.4z M623.9,279.3h2.4v10.4h-2.4V279.3z"/>
	<path class="st0" d="M628.4,279.3h2.3v1.8h0c0.6-1.2,1.7-2,3.3-2c2.3,0,3.6,1.5,3.6,3.9v6.7h-2.4v-6.2c0-1.5-0.7-2.3-2.1-2.3
		c-1.4,0-2.3,1-2.3,2.5v6h-2.4V279.3z"/>
	<path class="st0" d="M639.5,290.4h2.4c0.3,0.8,1.2,1.3,2.3,1.3c1.6,0,2.5-0.9,2.5-2.2v-1.7h-0.1c-0.5,1.1-1.8,1.9-3.2,1.9
		c-2.6,0-4.3-2-4.3-5.2c0-3.3,1.7-5.3,4.3-5.3c1.5,0,2.7,0.8,3.3,2h0v-1.8h2.4v10.2c0,2.5-2,4.1-5,4.1
		C641.6,293.5,639.7,292.2,639.5,290.4z M646.7,284.4c0-2-1-3.3-2.6-3.3c-1.5,0-2.5,1.3-2.5,3.3c0,2.1,1,3.3,2.5,3.3
		C645.7,287.7,646.7,286.5,646.7,284.4z"/>
	<path class="st0" d="M661.9,283c-0.2-1.1-1-1.9-2.3-1.9c-1.5,0-2.5,1.3-2.5,3.4c0,2.2,1,3.4,2.5,3.4c1.2,0,2-0.7,2.3-1.9h2.3
		c-0.2,2.3-2,3.8-4.6,3.8c-3,0-5-2-5-5.4c0-3.3,2-5.4,5-5.4c2.7,0,4.4,1.7,4.6,3.9H661.9z"/>
	<path class="st0" d="M665.3,284.5c0-3.3,2-5.4,5-5.4s5,2,5,5.4c0,3.4-2,5.4-5,5.4S665.3,287.8,665.3,284.5z M672.8,284.5
		c0-2.2-1-3.5-2.5-3.5c-1.5,0-2.5,1.3-2.5,3.5c0,2.2,1,3.5,2.5,3.5S672.8,286.7,672.8,284.5z"/>
	<path class="st0" d="M676.8,279.3h2.3v1.8h0c0.6-1.2,1.7-2,3.3-2c2.3,0,3.6,1.5,3.6,3.9v6.7h-2.4v-6.2c0-1.5-0.7-2.3-2.1-2.3
		c-1.4,0-2.3,1-2.3,2.5v6h-2.4V279.3z"/>
	<path class="st0" d="M687.6,284.5c0-3.3,1.7-5.3,4.3-5.3c1.5,0,2.7,0.8,3.2,1.9h0.1v-5.5h2.4v14.1h-2.4v-1.8h0
		c-0.6,1.2-1.8,1.9-3.3,1.9C689.3,289.8,687.6,287.7,687.6,284.5z M690.1,284.5c0,2.1,1,3.3,2.5,3.3c1.5,0,2.5-1.3,2.5-3.3
		c0-2-1-3.3-2.5-3.3C691,281.1,690.1,282.4,690.1,284.5z"/>
	<path class="st0" d="M699.5,276.4c0-0.7,0.6-1.3,1.3-1.3c0.8,0,1.3,0.6,1.3,1.3c0,0.7-0.6,1.3-1.3,1.3
		C700.1,277.7,699.5,277.1,699.5,276.4z M699.7,279.3h2.4v10.4h-2.4V279.3z"/>
	<path class="st0" d="M707.2,276.9v2.4h2v1.9h-2v5.4c0,0.8,0.4,1.2,1.2,1.2c0.2,0,0.5,0,0.7,0v1.9c-0.3,0.1-0.7,0.1-1.3,0.1
		c-2.2,0-3.1-0.8-3.1-2.8v-5.7h-1.5v-1.9h1.5v-2.4H707.2z"/>
	<path class="st0" d="M710.8,276.4c0-0.7,0.6-1.3,1.3-1.3c0.8,0,1.3,0.6,1.3,1.3c0,0.7-0.6,1.3-1.3,1.3
		C711.4,277.7,710.8,277.1,710.8,276.4z M710.9,279.3h2.4v10.4h-2.4V279.3z"/>
	<path class="st0" d="M715,284.5c0-3.3,2-5.4,5-5.4s5,2,5,5.4c0,3.4-2,5.4-5,5.4S715,287.8,715,284.5z M722.5,284.5
		c0-2.2-1-3.5-2.5-3.5c-1.5,0-2.5,1.3-2.5,3.5c0,2.2,1,3.5,2.5,3.5S722.5,286.7,722.5,284.5z"/>
	<path class="st0" d="M726.5,279.3h2.3v1.8h0c0.6-1.2,1.7-2,3.3-2c2.3,0,3.6,1.5,3.6,3.9v6.7h-2.4v-6.2c0-1.5-0.7-2.3-2.1-2.3
		c-1.4,0-2.3,1-2.3,2.5v6h-2.4V279.3z"/>
	<path class="st0" d="M741.7,279.1c2.5,0,4.1,1.4,4.2,3.3h-2.3c-0.1-0.9-0.8-1.5-1.9-1.5c-1.1,0-1.8,0.5-1.8,1.3
		c0,0.6,0.4,1,1.5,1.2l1.7,0.4c2.1,0.5,3,1.3,3,2.8c0,2-1.8,3.3-4.3,3.3c-2.7,0-4.3-1.3-4.5-3.3h2.4c0.2,1,0.9,1.5,2.1,1.5
		c1.2,0,1.9-0.5,1.9-1.3c0-0.6-0.4-1-1.5-1.2l-1.7-0.4c-2-0.4-3-1.4-3-2.9C737.5,280.4,739.2,279.1,741.7,279.1z"/>
</g>
<g class="st1">
	<path class="st0" d="M568.8,389.6v-6.1h-6.9v6.1h-2.5v-14.1h2.5v5.9h6.9v-5.9h2.5v14.1H568.8z"/>
	<path class="st0" d="M573.4,376.4c0-0.7,0.6-1.3,1.3-1.3c0.8,0,1.3,0.6,1.3,1.3c0,0.7-0.6,1.3-1.3,1.3
		C574,377.7,573.4,377.1,573.4,376.4z M573.6,379.3h2.4v10.4h-2.4V379.3z"/>
	<path class="st0" d="M578,390.4h2.4c0.3,0.8,1.2,1.3,2.3,1.3c1.6,0,2.5-0.9,2.5-2.2v-1.7h-0.1c-0.5,1.1-1.8,1.9-3.2,1.9
		c-2.6,0-4.3-2-4.3-5.2c0-3.3,1.7-5.3,4.3-5.3c1.5,0,2.7,0.8,3.3,2h0v-1.8h2.4v10.2c0,2.5-2,4.1-5,4.1
		C580,393.5,578.2,392.2,578,390.4z M585.2,384.4c0-2-1-3.3-2.6-3.3c-1.5,0-2.5,1.3-2.5,3.3c0,2.1,1,3.3,2.5,3.3
		C584.2,387.7,585.2,386.4,585.2,384.4z"/>
	<path class="st0" d="M589.6,375.5h2.4v5.5h0c0.6-1.3,1.7-2,3.3-2c2.3,0,3.6,1.5,3.6,3.9v6.7h-2.4v-6.2c0-1.4-0.7-2.3-2.1-2.3
		c-1.5,0-2.4,1-2.4,2.5v5.9h-2.4V375.5z"/>
</g>
<g class="st1">
	<path class="st0" d="M801.2,167.6c0,4.5-2.6,7.3-6.7,7.3c-4.1,0-6.7-2.8-6.7-7.3s2.6-7.3,6.7-7.3
		C798.6,160.3,801.2,163.1,801.2,167.6z M790.4,167.6c0,3.1,1.6,5.1,4.1,5.1c2.5,0,4.1-2,4.1-5.1c0-3.1-1.6-5.1-4.1-5.1
		C792,162.4,790.4,164.4,790.4,167.6z"/>
	<path class="st0" d="M802.9,164.3h2.3v1.8h0c0.6-1.2,1.7-2,3.3-2c2.3,0,3.6,1.5,3.6,3.9v6.7h-2.4v-6.2c0-1.5-0.7-2.3-2.1-2.3
		c-1.4,0-2.3,1-2.3,2.5v6h-2.4V164.3z"/>
	<path class="st0" d="M814.1,160.5h2.4v14.1h-2.4V160.5z"/>
	<path class="st0" d="M818.8,178.4v-1.9c0.1,0,0.6,0,0.7,0c1,0,1.5-0.4,1.8-1.3c0,0,0.2-0.5,0.1-0.6l-3.7-10.4h2.7l2.4,8.3h0
		l2.4-8.3h2.6l-3.8,10.8c-0.9,2.6-2,3.4-4.4,3.4C819.7,178.5,819,178.5,818.8,178.4z"/>
	<path class="st0" d="M843.1,169.4c0,3.3-1.7,5.3-4.3,5.3c-1.5,0-2.7-0.7-3.2-1.9h0v5.1h-2.4v-13.8h2.4v1.8h0c0.6-1.2,1.8-2,3.3-2
		C841.4,164.1,843.1,166.1,843.1,169.4z M840.6,169.4c0-2-1-3.3-2.5-3.3c-1.5,0-2.5,1.3-2.5,3.3c0,2,1,3.3,2.5,3.3
		C839.6,172.8,840.6,171.5,840.6,169.4z"/>
	<path class="st0" d="M844.2,169.4c0-3.3,2-5.4,5-5.4s5,2,5,5.4c0,3.4-2,5.4-5,5.4S844.2,172.8,844.2,169.4z M851.8,169.4
		c0-2.2-1-3.5-2.5-3.5c-1.5,0-2.5,1.3-2.5,3.5c0,2.2,1,3.5,2.5,3.5S851.8,171.7,851.8,169.4z"/>
	<path class="st0" d="M859.8,164.1c2.5,0,4.1,1.4,4.2,3.3h-2.3c-0.1-0.9-0.8-1.5-1.9-1.5c-1.1,0-1.8,0.5-1.8,1.3
		c0,0.6,0.4,1,1.5,1.2l1.7,0.4c2.1,0.5,3,1.3,3,2.8c0,2-1.8,3.3-4.3,3.3c-2.7,0-4.3-1.3-4.5-3.3h2.4c0.2,1,0.9,1.5,2.1,1.5
		c1.2,0,1.9-0.5,1.9-1.3c0-0.6-0.4-1-1.5-1.2l-1.7-0.4c-2-0.4-3-1.4-3-2.9C855.6,165.3,857.3,164.1,859.8,164.1z"/>
	<path class="st0" d="M869.7,164.1c2.5,0,4.1,1.4,4.2,3.3h-2.3c-0.1-0.9-0.8-1.5-1.9-1.5c-1.1,0-1.8,0.5-1.8,1.3
		c0,0.6,0.4,1,1.5,1.2l1.7,0.4c2.1,0.5,3,1.3,3,2.8c0,2-1.8,3.3-4.3,3.3c-2.7,0-4.3-1.3-4.5-3.3h2.4c0.2,1,0.9,1.5,2.1,1.5
		c1.2,0,1.9-0.5,1.9-1.3c0-0.6-0.4-1-1.5-1.2l-1.7-0.4c-2-0.4-3-1.4-3-2.9C865.5,165.3,867.2,164.1,869.7,164.1z"/>
	<path class="st0" d="M875.6,161.4c0-0.7,0.6-1.3,1.3-1.3c0.8,0,1.3,0.6,1.3,1.3c0,0.7-0.6,1.3-1.3,1.3
		C876.2,162.7,875.6,162.1,875.6,161.4z M875.7,164.3h2.4v10.4h-2.4V164.3z"/>
	<path class="st0" d="M882.7,172.9L882.7,172.9l0,1.8h-2.4v-14.1h2.4v5.5h0.1c0.6-1.2,1.8-2,3.2-2c2.6,0,4.3,2,4.3,5.4
		s-1.7,5.3-4.3,5.3C884.5,174.8,883.3,174.1,882.7,172.9z M882.7,169.4c0,2,1,3.3,2.5,3.3c1.6,0,2.5-1.3,2.5-3.3
		c0-2.1-1-3.3-2.5-3.3C883.7,166.1,882.7,167.4,882.7,169.4z"/>
	<path class="st0" d="M891.9,160.5h2.4v14.1h-2.4V160.5z"/>
	<path class="st0" d="M905.5,171.5c-0.3,2-2.1,3.3-4.6,3.3c-3.1,0-5-2-5-5.3c0-3.3,1.9-5.4,4.9-5.4c2.9,0,4.8,2,4.8,5.2v0.8h-7.2
		v0.1c0,1.7,1,2.8,2.6,2.8c1.1,0,2-0.6,2.3-1.4H905.5z M898.4,168.4h4.8c0-1.5-1-2.5-2.4-2.5C899.5,165.9,898.5,167,898.4,168.4z"/>
	<path class="st0" d="M922.4,174.6h-2.6l-2-7.6h0l-2,7.6h-2.5l-2.8-10.4h2.4l1.7,7.9h0l2-7.9h2.3l2,7.9h0.1l1.7-7.9h2.4L922.4,174.6
		z"/>
	<path class="st0" d="M926.4,161.4c0-0.7,0.6-1.3,1.3-1.3c0.8,0,1.3,0.6,1.3,1.3c0,0.7-0.6,1.3-1.3,1.3
		C927,162.7,926.4,162.1,926.4,161.4z M926.5,164.3h2.4v10.4h-2.4V164.3z"/>
	<path class="st0" d="M934.1,161.8v2.4h2v1.9h-2v5.4c0,0.8,0.4,1.2,1.2,1.2c0.2,0,0.5,0,0.7,0v1.9c-0.3,0.1-0.7,0.1-1.3,0.1
		c-2.2,0-3.1-0.8-3.1-2.8v-5.7h-1.5v-1.9h1.5v-2.4H934.1z"/>
	<path class="st0" d="M937.7,160.5h2.4v5.5h0c0.6-1.3,1.7-2,3.3-2c2.3,0,3.6,1.5,3.6,3.9v6.7h-2.4v-6.2c0-1.4-0.7-2.3-2.1-2.3
		c-1.5,0-2.4,1-2.4,2.5v5.9h-2.4V160.5z"/>
	<path class="st0" d="M957,164.1c2.5,0,4.1,1.4,4.2,3.3h-2.3c-0.1-0.9-0.8-1.5-1.9-1.5c-1.1,0-1.8,0.5-1.8,1.3c0,0.6,0.4,1,1.5,1.2
		l1.7,0.4c2.1,0.5,3,1.3,3,2.8c0,2-1.8,3.3-4.3,3.3c-2.7,0-4.3-1.3-4.5-3.3h2.4c0.2,1,0.9,1.5,2.1,1.5c1.2,0,1.9-0.5,1.9-1.3
		c0-0.6-0.4-1-1.5-1.2l-1.7-0.4c-2-0.4-3-1.4-3-2.9C952.8,165.3,954.5,164.1,957,164.1z"/>
	<path class="st0" d="M972.1,171.5c-0.3,2-2.1,3.3-4.6,3.3c-3.1,0-5-2-5-5.3c0-3.3,1.9-5.4,4.9-5.4c2.9,0,4.8,2,4.8,5.2v0.8H965v0.1
		c0,1.7,1,2.8,2.6,2.8c1.1,0,2-0.6,2.3-1.4H972.1z M965,168.4h4.8c0-1.5-1-2.5-2.4-2.5C966.1,165.9,965.1,167,965,168.4z"/>
	<path class="st0" d="M983.7,169.4c0,3.3-1.7,5.3-4.3,5.3c-1.5,0-2.7-0.7-3.2-1.9h0v5.1h-2.4v-13.8h2.4v1.8h0c0.6-1.2,1.8-2,3.3-2
		C982.1,164.1,983.7,166.1,983.7,169.4z M981.2,169.4c0-2-1-3.3-2.5-3.3c-1.5,0-2.5,1.3-2.5,3.3c0,2,1,3.3,2.5,3.3
		C980.3,172.8,981.2,171.5,981.2,169.4z"/>
	<path class="st0" d="M994.4,171.5c-0.3,2-2.1,3.3-4.6,3.3c-3.1,0-5-2-5-5.3c0-3.3,1.9-5.4,4.9-5.4c2.9,0,4.8,2,4.8,5.2v0.8h-7.2
		v0.1c0,1.7,1,2.8,2.6,2.8c1.1,0,2-0.6,2.3-1.4H994.4z M987.3,168.4h4.8c0-1.5-1-2.5-2.4-2.5C988.4,165.9,987.4,167,987.3,168.4z"/>
</g>
<g class="st1">
	<path class="st0" d="M996.1,164.3h2.3v1.8h0c0.4-1.3,1.3-2,2.5-2c0.3,0,0.6,0.1,0.8,0.1v2.2c-0.2-0.1-0.6-0.1-1-0.1
		c-1.4,0-2.2,0.9-2.2,2.3v6h-2.4V164.3z"/>
</g>
<g class="st1">
	<path class="st0" d="M1002.3,171.7c0-1.8,1.4-2.9,3.9-3.1l2.7-0.2v-0.7c0-1.1-0.7-1.7-1.9-1.7c-1.2,0-1.9,0.6-2,1.4h-2.3
		c0.1-1.9,1.8-3.3,4.4-3.3c2.6,0,4.2,1.4,4.2,3.4v7.1h-2.3V173h0c-0.6,1.1-1.9,1.8-3.2,1.8C1003.8,174.8,1002.3,173.5,1002.3,171.7z
		 M1009,170.8V170l-2.4,0.1c-1.2,0.1-1.8,0.6-1.8,1.4c0,0.8,0.7,1.4,1.8,1.4C1007.9,173,1009,172,1009,170.8z"/>
</g>
<g class="st1">
	<path class="st0" d="M1016.5,161.8v2.4h2v1.9h-2v5.4c0,0.8,0.4,1.2,1.2,1.2c0.2,0,0.5,0,0.7,0v1.9c-0.3,0.1-0.7,0.1-1.3,0.1
		c-2.2,0-3.1-0.8-3.1-2.8v-5.7h-1.5v-1.9h1.5v-2.4H1016.5z"/>
</g>
<g class="st1">
	<path class="st0" d="M1029,171.5c-0.3,2-2.1,3.3-4.6,3.3c-3.1,0-5-2-5-5.3c0-3.3,1.9-5.4,4.9-5.4c2.9,0,4.8,2,4.8,5.2v0.8h-7.2v0.1
		c0,1.7,1,2.8,2.6,2.8c1.1,0,2-0.6,2.3-1.4H1029z M1021.9,168.4h4.8c0-1.5-1-2.5-2.4-2.5C1023,165.9,1022,167,1021.9,168.4z"/>
</g>
<g class="st1">
	<path class="st0" d="M1038.6,164.1c2.5,0,4.1,1.4,4.2,3.3h-2.3c-0.1-0.9-0.8-1.5-1.9-1.5c-1.1,0-1.8,0.5-1.8,1.3
		c0,0.6,0.4,1,1.5,1.2l1.7,0.4c2.1,0.5,3,1.3,3,2.8c0,2-1.8,3.3-4.3,3.3c-2.7,0-4.3-1.3-4.5-3.3h2.4c0.2,1,0.9,1.5,2.1,1.5
		c1.2,0,1.9-0.5,1.9-1.3c0-0.6-0.4-1-1.5-1.2l-1.7-0.4c-2-0.4-3-1.4-3-2.9C1034.5,165.3,1036.1,164.1,1038.6,164.1z"/>
	<path class="st0" d="M1044.8,178.4v-1.9c0.1,0,0.6,0,0.7,0c1,0,1.5-0.4,1.8-1.3c0,0,0.2-0.5,0.1-0.6l-3.7-10.4h2.7l2.4,8.3h0
		l2.4-8.3h2.6l-3.8,10.8c-0.9,2.6-2,3.4-4.4,3.4C1045.6,178.5,1044.9,178.5,1044.8,178.4z"/>
</g>
<g class="st1">
	<path class="st0" d="M1059,164.1c2.5,0,4.1,1.4,4.2,3.3h-2.3c-0.1-0.9-0.8-1.5-1.9-1.5c-1.1,0-1.8,0.5-1.8,1.3c0,0.6,0.4,1,1.5,1.2
		l1.7,0.4c2.1,0.5,3,1.3,3,2.8c0,2-1.8,3.3-4.3,3.3c-2.7,0-4.3-1.3-4.5-3.3h2.4c0.2,1,0.9,1.5,2.1,1.5c1.2,0,1.9-0.5,1.9-1.3
		c0-0.6-0.4-1-1.5-1.2l-1.7-0.4c-2-0.4-3-1.4-3-2.9C1054.8,165.3,1056.5,164.1,1059,164.1z"/>
</g>
<g class="st1">
	<path class="st0" d="M1068,161.8v2.4h2v1.9h-2v5.4c0,0.8,0.4,1.2,1.2,1.2c0.2,0,0.5,0,0.7,0v1.9c-0.3,0.1-0.7,0.1-1.3,0.1
		c-2.2,0-3.1-0.8-3.1-2.8v-5.7h-1.5v-1.9h1.5v-2.4H1068z"/>
</g>
<g class="st1">
	<path class="st0" d="M1080.6,171.5c-0.3,2-2.1,3.3-4.6,3.3c-3.1,0-5-2-5-5.3c0-3.3,1.9-5.4,4.9-5.4c2.9,0,4.8,2,4.8,5.2v0.8h-7.2
		v0.1c0,1.7,1,2.8,2.6,2.8c1.1,0,2-0.6,2.3-1.4H1080.6z M1073.4,168.4h4.8c0-1.5-1-2.5-2.4-2.5
		C1074.5,165.9,1073.5,167,1073.4,168.4z"/>
	<path class="st0" d="M1082.2,164.3h2.3v1.8h0c0.4-1.2,1.5-2,2.9-2c1.5,0,2.5,0.8,2.9,2.1h0.1c0.5-1.3,1.7-2.1,3.2-2.1
		c2,0,3.4,1.4,3.4,3.4v7.1h-2.4v-6.5c0-1.3-0.7-2-1.9-2c-1.2,0-2,0.9-2,2.1v6.4h-2.4V168c0-1.2-0.7-1.9-1.8-1.9c-1.2,0-2,0.9-2,2.2
		v6.3h-2.4V164.3z"/>
</g>
<g class="st1">
	<path class="st0" d="M822.2,196.9L822.2,196.9l0,1.8h-2.4v-14.1h2.4v5.5h0.1c0.6-1.2,1.8-2,3.2-2c2.6,0,4.3,2,4.3,5.4
		s-1.7,5.3-4.3,5.3C824,198.8,822.8,198.1,822.2,196.9z M822.2,193.4c0,2,1,3.3,2.5,3.3c1.6,0,2.5-1.3,2.5-3.3c0-2.1-1-3.3-2.5-3.3
		C823.2,190.1,822.2,191.4,822.2,193.4z"/>
	<path class="st0" d="M831.4,184.5h2.4v14.1h-2.4V184.5z"/>
	<path class="st0" d="M835.5,193.4c0-3.3,2-5.4,5-5.4s5,2,5,5.4c0,3.4-2,5.4-5,5.4S835.5,196.8,835.5,193.4z M843,193.4
		c0-2.2-1-3.5-2.5-3.5c-1.5,0-2.5,1.3-2.5,3.5c0,2.2,1,3.5,2.5,3.5S843,195.7,843,193.4z"/>
	<path class="st0" d="M853.9,192c-0.2-1.1-1-1.9-2.3-1.9c-1.5,0-2.5,1.3-2.5,3.4c0,2.2,1,3.4,2.5,3.4c1.2,0,2-0.7,2.3-1.9h2.3
		c-0.2,2.3-2,3.8-4.6,3.8c-3,0-5-2-5-5.4c0-3.3,2-5.4,5-5.4c2.7,0,4.4,1.7,4.6,3.9H853.9z"/>
</g>
<g class="st1">
	<path class="st0" d="M864.1,188.3h2.8l-4.1,4.5l4.3,5.9h-2.8l-3.3-4.4l-0.8,0.8v3.6h-2.4v-14.1h2.4v8.1h0L864.1,188.3z"/>
</g>
<g class="st1">
	<path class="st0" d="M874.3,192c-0.2-1.1-1-1.9-2.3-1.9c-1.5,0-2.5,1.3-2.5,3.4c0,2.2,1,3.4,2.5,3.4c1.2,0,2-0.7,2.3-1.9h2.3
		c-0.2,2.3-2,3.8-4.6,3.8c-3,0-5-2-5-5.4c0-3.3,2-5.4,5-5.4c2.7,0,4.4,1.7,4.6,3.9H874.3z"/>
	<path class="st0" d="M878.2,184.5h2.4v5.5h0c0.6-1.3,1.7-2,3.3-2c2.3,0,3.6,1.5,3.6,3.9v6.7h-2.4v-6.2c0-1.4-0.7-2.3-2.1-2.3
		c-1.5,0-2.4,1-2.4,2.5v5.9h-2.4V184.5z"/>
	<path class="st0" d="M889,195.7c0-1.8,1.4-2.9,3.9-3.1l2.7-0.2v-0.7c0-1.1-0.7-1.7-1.9-1.7c-1.2,0-1.9,0.6-2,1.4h-2.3
		c0.1-1.9,1.8-3.3,4.4-3.3c2.6,0,4.2,1.4,4.2,3.4v7.1h-2.3V197h0c-0.6,1.1-1.9,1.8-3.2,1.8C890.5,198.8,889,197.5,889,195.7z
		 M895.7,194.8V194l-2.4,0.1c-1.2,0.1-1.8,0.6-1.8,1.4c0,0.8,0.7,1.4,1.8,1.4C894.6,197,895.7,196,895.7,194.8z"/>
	<path class="st0" d="M900,185.4c0-0.7,0.6-1.3,1.3-1.3c0.8,0,1.3,0.6,1.3,1.3c0,0.7-0.6,1.3-1.3,1.3
		C900.6,186.7,900,186.1,900,185.4z M900.1,188.3h2.4v10.4h-2.4V188.3z"/>
	<path class="st0" d="M904.6,188.3h2.3v1.8h0c0.6-1.2,1.7-2,3.3-2c2.3,0,3.6,1.5,3.6,3.9v6.7h-2.4v-6.2c0-1.5-0.7-2.3-2.1-2.3
		c-1.4,0-2.3,1-2.3,2.5v6h-2.4V188.3z"/>
</g>
<g class="st1">
	<path class="st0" d="M922.9,185.8v2.4h2v1.9h-2v5.4c0,0.8,0.4,1.2,1.2,1.2c0.2,0,0.5,0,0.7,0v1.9c-0.3,0.1-0.7,0.1-1.3,0.1
		c-2.2,0-3.1-0.8-3.1-2.8v-5.7h-1.5v-1.9h1.5v-2.4H922.9z"/>
</g>
<g class="st1">
	<path class="st0" d="M935.4,195.5c-0.3,2-2.1,3.3-4.6,3.3c-3.1,0-5-2-5-5.3c0-3.3,1.9-5.4,4.9-5.4c2.9,0,4.8,2,4.8,5.2v0.8h-7.2
		v0.1c0,1.7,1,2.8,2.6,2.8c1.1,0,2-0.6,2.3-1.4H935.4z M928.3,192.4h4.8c0-1.5-1-2.5-2.4-2.5C929.4,189.9,928.4,191,928.3,192.4z"/>
	<path class="st0" d="M943.9,192c-0.2-1.1-1-1.9-2.3-1.9c-1.5,0-2.5,1.3-2.5,3.4c0,2.2,1,3.4,2.5,3.4c1.2,0,2-0.7,2.3-1.9h2.3
		c-0.2,2.3-2,3.8-4.6,3.8c-3,0-5-2-5-5.4c0-3.3,2-5.4,5-5.4c2.7,0,4.4,1.7,4.6,3.9H943.9z"/>
	<path class="st0" d="M947.7,184.5h2.4v5.5h0c0.6-1.3,1.7-2,3.3-2c2.3,0,3.6,1.5,3.6,3.9v6.7h-2.4v-6.2c0-1.4-0.7-2.3-2.1-2.3
		c-1.5,0-2.4,1-2.4,2.5v5.9h-2.4V184.5z"/>
	<path class="st0" d="M959,188.3h2.3v1.8h0c0.6-1.2,1.7-2,3.3-2c2.3,0,3.6,1.5,3.6,3.9v6.7h-2.4v-6.2c0-1.5-0.7-2.3-2.1-2.3
		c-1.4,0-2.3,1-2.3,2.5v6H959V188.3z"/>
	<path class="st0" d="M969.7,193.4c0-3.3,2-5.4,5-5.4s5,2,5,5.4c0,3.4-2,5.4-5,5.4S969.7,196.8,969.7,193.4z M977.3,193.4
		c0-2.2-1-3.5-2.5-3.5c-1.5,0-2.5,1.3-2.5,3.5c0,2.2,1,3.5,2.5,3.5S977.3,195.7,977.3,193.4z"/>
	<path class="st0" d="M981.4,184.5h2.4v14.1h-2.4V184.5z"/>
	<path class="st0" d="M985.4,193.4c0-3.3,2-5.4,5-5.4s5,2,5,5.4c0,3.4-2,5.4-5,5.4S985.4,196.8,985.4,193.4z M993,193.4
		c0-2.2-1-3.5-2.5-3.5c-1.5,0-2.5,1.3-2.5,3.5c0,2.2,1,3.5,2.5,3.5S993,195.7,993,193.4z"/>
	<path class="st0" d="M996.9,199.4h2.4c0.3,0.8,1.2,1.3,2.3,1.3c1.6,0,2.5-0.9,2.5-2.2v-1.7h-0.1c-0.5,1.1-1.8,1.9-3.2,1.9
		c-2.6,0-4.3-2-4.3-5.2c0-3.3,1.7-5.3,4.3-5.3c1.5,0,2.7,0.8,3.3,2h0v-1.8h2.4v10.2c0,2.5-2,4.1-5,4.1
		C999,202.5,997.2,201.2,996.9,199.4z M1004.2,193.4c0-2-1-3.3-2.6-3.3c-1.5,0-2.5,1.3-2.5,3.3c0,2.1,1,3.3,2.5,3.3
		C1003.2,196.7,1004.2,195.4,1004.2,193.4z"/>
	<path class="st0" d="M1008.8,202.4v-1.9c0.1,0,0.6,0,0.7,0c1,0,1.5-0.4,1.8-1.3c0,0,0.2-0.5,0.1-0.6l-3.7-10.4h2.7l2.4,8.3h0
		l2.4-8.3h2.6l-3.8,10.8c-0.9,2.6-2,3.4-4.4,3.4C1009.6,202.5,1008.9,202.5,1008.8,202.4z"/>
	<path class="st0" d="M1023,188.3h2.3v1.8h0c0.6-1.2,1.7-2,3.3-2c2.3,0,3.6,1.5,3.6,3.9v6.7h-2.4v-6.2c0-1.5-0.7-2.3-2.1-2.3
		c-1.4,0-2.3,1-2.3,2.5v6h-2.4V188.3z"/>
	<path class="st0" d="M1043.3,195.5c-0.3,2-2.1,3.3-4.6,3.3c-3.1,0-5-2-5-5.3c0-3.3,1.9-5.4,4.9-5.4c2.9,0,4.8,2,4.8,5.2v0.8h-7.2
		v0.1c0,1.7,1,2.8,2.6,2.8c1.1,0,2-0.6,2.3-1.4H1043.3z M1036.2,192.4h4.8c0-1.5-1-2.5-2.4-2.5
		C1037.3,189.9,1036.3,191,1036.2,192.4z"/>
	<path class="st0" d="M1054.1,195.5c-0.3,2-2.1,3.3-4.6,3.3c-3.1,0-5-2-5-5.3c0-3.3,1.9-5.4,4.9-5.4c2.9,0,4.8,2,4.8,5.2v0.8h-7.2
		v0.1c0,1.7,1,2.8,2.6,2.8c1.1,0,2-0.6,2.3-1.4H1054.1z M1047,192.4h4.8c0-1.5-1-2.5-2.4-2.5C1048.1,189.9,1047.1,191,1047,192.4z"
		/>
	<path class="st0" d="M1055.3,193.4c0-3.3,1.7-5.3,4.3-5.3c1.5,0,2.7,0.8,3.2,1.9h0.1v-5.5h2.4v14.1h-2.4v-1.8h0
		c-0.6,1.2-1.8,1.9-3.3,1.9C1057,198.8,1055.3,196.7,1055.3,193.4z M1057.8,193.4c0,2.1,1,3.3,2.5,3.3c1.5,0,2.5-1.3,2.5-3.3
		c0-2-1-3.3-2.5-3.3C1058.8,190.1,1057.8,191.4,1057.8,193.4z"/>
</g>
<g class="st1">
	<path class="st0" d="M841,289.6h-2.5v-14.1h5.6c3,0,4.9,1.7,4.9,4.4c0,1.9-1,3.4-2.7,4l3.1,5.7h-2.9l-2.8-5.3H841V289.6z
		 M841,282.4h2.8c1.6,0,2.5-0.9,2.5-2.4c0-1.5-1-2.4-2.6-2.4H841V282.4z"/>
</g>
<g class="st1">
	<path class="st0" d="M859.8,286.5c-0.3,2-2.1,3.3-4.6,3.3c-3.1,0-5-2-5-5.3c0-3.3,1.9-5.4,4.9-5.4c2.9,0,4.8,2,4.8,5.2v0.8h-7.2
		v0.1c0,1.7,1,2.8,2.6,2.8c1.1,0,2-0.6,2.3-1.4H859.8z M852.7,283.4h4.8c0-1.5-1-2.5-2.4-2.5C853.8,281,852.8,282,852.7,283.4z"/>
</g>
<g class="st1">
	<path class="st0" d="M866.8,289.6h-2.7l-3.7-10.4h2.6l2.4,8.1h0l2.4-8.1h2.5L866.8,289.6z"/>
</g>
<g class="st1">
	<path class="st0" d="M880.4,286.5c-0.3,2-2.1,3.3-4.6,3.3c-3.1,0-5-2-5-5.3c0-3.3,1.9-5.4,4.9-5.4c2.9,0,4.8,2,4.8,5.2v0.8h-7.2
		v0.1c0,1.7,1,2.8,2.6,2.8c1.1,0,2-0.6,2.3-1.4H880.4z M873.3,283.4h4.8c0-1.5-1-2.5-2.4-2.5C874.4,281,873.4,282,873.3,283.4z"/>
	<path class="st0" d="M882.1,279.3h2.3v1.8h0c0.4-1.3,1.3-2,2.5-2c0.3,0,0.6,0.1,0.8,0.1v2.2c-0.2-0.1-0.6-0.1-1-0.1
		c-1.4,0-2.2,0.9-2.2,2.3v6h-2.4V279.3z"/>
	<path class="st0" d="M892.9,279.1c2.5,0,4.1,1.4,4.2,3.3h-2.3c-0.1-0.9-0.8-1.5-1.9-1.5c-1.1,0-1.8,0.5-1.8,1.3
		c0,0.6,0.4,1,1.5,1.2l1.7,0.4c2.1,0.5,3,1.3,3,2.8c0,2-1.8,3.3-4.3,3.3c-2.7,0-4.3-1.3-4.5-3.3h2.4c0.2,1,0.9,1.5,2.1,1.5
		c1.2,0,1.9-0.5,1.9-1.3c0-0.6-0.4-1-1.5-1.2l-1.7-0.4c-2-0.4-3-1.4-3-2.9C888.8,280.4,890.4,279.1,892.9,279.1z"/>
	<path class="st0" d="M908,286.5c-0.3,2-2.1,3.3-4.6,3.3c-3.1,0-5-2-5-5.3c0-3.3,1.9-5.4,4.9-5.4c2.9,0,4.8,2,4.8,5.2v0.8h-7.2v0.1
		c0,1.7,1,2.8,2.6,2.8c1.1,0,2-0.6,2.3-1.4H908z M900.9,283.4h4.8c0-1.5-1-2.5-2.4-2.5C902,281,901,282,900.9,283.4z"/>
</g>
<g class="st1">
	<path class="st0" d="M917.4,289.6v-12h-4.2v-2.1h10.9v2.1h-4.2v12H917.4z"/>
</g>
<g class="st1">
	<path class="st0" d="M925,276.4c0-0.7,0.6-1.3,1.3-1.3c0.8,0,1.3,0.6,1.3,1.3c0,0.7-0.6,1.3-1.3,1.3
		C925.6,277.7,925,277.1,925,276.4z M925.2,279.3h2.4v10.4h-2.4V279.3z"/>
	<path class="st0" d="M929.6,279.3h2.3v1.8h0c0.4-1.2,1.5-2,2.9-2c1.5,0,2.5,0.8,2.9,2.1h0.1c0.5-1.3,1.7-2.1,3.2-2.1
		c2,0,3.4,1.4,3.4,3.4v7.1h-2.4v-6.5c0-1.3-0.7-2-1.9-2c-1.2,0-2,0.9-2,2.1v6.4h-2.4V283c0-1.2-0.7-1.9-1.8-1.9c-1.2,0-2,0.9-2,2.2
		v6.3h-2.4V279.3z"/>
	<path class="st0" d="M955.6,286.5c-0.3,2-2.1,3.3-4.6,3.3c-3.1,0-5-2-5-5.3c0-3.3,1.9-5.4,4.9-5.4c2.9,0,4.8,2,4.8,5.2v0.8h-7.2
		v0.1c0,1.7,1,2.8,2.6,2.8c1.1,0,2-0.6,2.3-1.4H955.6z M948.5,283.4h4.8c0-1.5-1-2.5-2.4-2.5C949.6,281,948.6,282,948.5,283.4z"/>
	<path class="st0" d="M969.5,286h-5.2l-1.2,3.6h-2.6l5-14.1h2.8l5,14.1h-2.7L969.5,286z M964.9,284.1h4l-2-6h-0.1L964.9,284.1z"/>
	<path class="st0" d="M984.6,284.5c0,3.3-1.7,5.3-4.3,5.3c-1.5,0-2.7-0.7-3.2-1.9h0v5.1h-2.4v-13.8h2.4v1.8h0c0.6-1.2,1.8-2,3.3-2
		C982.9,279.1,984.6,281.2,984.6,284.5z M982.1,284.5c0-2-1-3.3-2.5-3.3c-1.5,0-2.5,1.3-2.5,3.3c0,2,1,3.3,2.5,3.3
		C981.1,287.8,982.1,286.5,982.1,284.5z"/>
	<path class="st0" d="M996.2,284.5c0,3.3-1.7,5.3-4.3,5.3c-1.5,0-2.7-0.7-3.2-1.9h0v5.1h-2.4v-13.8h2.4v1.8h0c0.6-1.2,1.8-2,3.3-2
		C994.5,279.1,996.2,281.2,996.2,284.5z M993.7,284.5c0-2-1-3.3-2.5-3.3c-1.5,0-2.5,1.3-2.5,3.3c0,2,1,3.3,2.5,3.3
		C992.7,287.8,993.7,286.5,993.7,284.5z"/>
</g>
<g class="st1">
	<path class="st0" d="M997.7,279.3h2.3v1.8h0c0.4-1.3,1.3-2,2.5-2c0.3,0,0.6,0.1,0.8,0.1v2.2c-0.2-0.1-0.6-0.1-1-0.1
		c-1.4,0-2.2,0.9-2.2,2.3v6h-2.4V279.3z"/>
</g>
<g class="st1">
	<path class="st0" d="M1003.8,284.5c0-3.3,2-5.4,5-5.4s5,2,5,5.4c0,3.4-2,5.4-5,5.4S1003.8,287.8,1003.8,284.5z M1011.3,284.5
		c0-2.2-1-3.5-2.5-3.5c-1.5,0-2.5,1.3-2.5,3.5c0,2.2,1,3.5,2.5,3.5S1011.3,286.7,1011.3,284.5z"/>
	<path class="st0" d="M1014.9,286.7c0-1.8,1.4-2.9,3.9-3.1l2.7-0.2v-0.7c0-1.1-0.7-1.7-1.9-1.7c-1.2,0-1.9,0.6-2,1.4h-2.3
		c0.1-1.9,1.8-3.3,4.4-3.3c2.6,0,4.2,1.4,4.2,3.4v7.1h-2.3V288h0c-0.6,1.1-1.9,1.8-3.2,1.8C1016.4,289.8,1014.9,288.5,1014.9,286.7z
		 M1021.6,285.8V285l-2.4,0.1c-1.2,0.1-1.8,0.6-1.8,1.4c0,0.8,0.7,1.4,1.8,1.4C1020.5,288,1021.6,287.1,1021.6,285.8z"/>
	<path class="st0" d="M1032.8,283c-0.2-1.1-1-1.9-2.3-1.9c-1.5,0-2.5,1.3-2.5,3.4c0,2.2,1,3.4,2.5,3.4c1.2,0,2-0.7,2.3-1.9h2.3
		c-0.2,2.3-2,3.8-4.6,3.8c-3,0-5-2-5-5.4c0-3.3,2-5.4,5-5.4c2.7,0,4.4,1.7,4.6,3.9H1032.8z"/>
	<path class="st0" d="M1036.6,275.5h2.4v5.5h0c0.6-1.3,1.7-2,3.3-2c2.3,0,3.6,1.5,3.6,3.9v6.7h-2.4v-6.2c0-1.4-0.7-2.3-2.1-2.3
		c-1.5,0-2.4,1-2.4,2.5v5.9h-2.4V275.5z"/>
</g>
<g class="st1">
	<path class="st0" d="M935.2,389.6h-8.9v-14.1h2.5v12h6.4V389.6z"/>
</g>
<g class="st1">
	<path class="st0" d="M936.2,384.4c0-3.3,2-5.4,5-5.4s5,2,5,5.4c0,3.4-2,5.4-5,5.4S936.2,387.8,936.2,384.4z M943.7,384.4
		c0-2.2-1-3.5-2.5-3.5c-1.5,0-2.5,1.3-2.5,3.5c0,2.2,1,3.5,2.5,3.5S943.7,386.7,943.7,384.4z"/>
</g>
<g class="st1">
	<path class="st0" d="M958.9,389.6h-2.6l-2-7.6h0l-2,7.6h-2.5l-2.8-10.4h2.4l1.7,7.9h0l2-7.9h2.3l2,7.9h0.1l1.7-7.9h2.4L958.9,389.6
		z"/>
</g>
<g class="st1">
	<path class="st0" d="M112.2,289.7v-6.1h-6.9v6.1h-2.5v-14.1h2.5v5.9h6.9v-5.9h2.5v14.1H112.2z"/>
</g>
<g class="st1">
	<path class="st0" d="M116.5,284.5c0-3.3,2-5.4,5-5.4s5,2,5,5.4c0,3.4-2,5.4-5,5.4S116.5,287.9,116.5,284.5z M124,284.5
		c0-2.2-1-3.5-2.5-3.5c-1.5,0-2.5,1.3-2.5,3.5c0,2.2,1,3.5,2.5,3.5S124,286.7,124,284.5z"/>
</g>
<g class="st1">
	<path class="st0" d="M139.3,289.7h-2.6l-2-7.6h0l-2,7.6H130l-2.8-10.4h2.4l1.7,7.9h0l2-7.9h2.3l2,7.9h0.1l1.7-7.9h2.4L139.3,289.7z
		"/>
</g>
<g class="st1">
	<path class="st0" d="M150.4,276.9v2.4h2v1.9h-2v5.4c0,0.8,0.4,1.2,1.2,1.2c0.2,0,0.5,0,0.7,0v1.9c-0.3,0.1-0.7,0.1-1.3,0.1
		c-2.2,0-3.1-0.8-3.1-2.8v-5.7h-1.5v-1.9h1.5v-2.4H150.4z"/>
</g>
<g class="st1">
	<path class="st0" d="M153.4,284.5c0-3.3,2-5.4,5-5.4s5,2,5,5.4c0,3.4-2,5.4-5,5.4S153.4,287.9,153.4,284.5z M160.9,284.5
		c0-2.2-1-3.5-2.5-3.5c-1.5,0-2.5,1.3-2.5,3.5c0,2.2,1,3.5,2.5,3.5S160.9,286.7,160.9,284.5z"/>
	<path class="st0" d="M168.5,284.5c0-3.3,2-5.4,5-5.4s5,2,5,5.4c0,3.4-2,5.4-5,5.4S168.5,287.9,168.5,284.5z M176.1,284.5
		c0-2.2-1-3.5-2.5-3.5c-1.5,0-2.5,1.3-2.5,3.5c0,2.2,1,3.5,2.5,3.5S176.1,286.7,176.1,284.5z"/>
	<path class="st0" d="M182.6,287.9L182.6,287.9l0,1.8h-2.4v-14.1h2.4v5.5h0.1c0.6-1.2,1.8-2,3.2-2c2.6,0,4.3,2,4.3,5.4
		s-1.7,5.3-4.3,5.3C184.4,289.8,183.2,289.1,182.6,287.9z M182.6,284.5c0,2,1,3.3,2.5,3.3c1.6,0,2.5-1.3,2.5-3.3
		c0-2.1-1-3.3-2.5-3.3C183.6,281.1,182.6,282.5,182.6,284.5z"/>
</g>
<g class="st1">
	<path class="st0" d="M194.8,276.9v2.4h2v1.9h-2v5.4c0,0.8,0.4,1.2,1.2,1.2c0.2,0,0.5,0,0.7,0v1.9c-0.3,0.1-0.7,0.1-1.3,0.1
		c-2.2,0-3.1-0.8-3.1-2.8v-5.7h-1.5v-1.9h1.5v-2.4H194.8z"/>
</g>
<g class="st1">
	<path class="st0" d="M197.9,286.7c0-1.8,1.4-2.9,3.9-3.1l2.7-0.2v-0.7c0-1.1-0.7-1.7-1.9-1.7c-1.2,0-1.9,0.6-2,1.4h-2.3
		c0.1-1.9,1.8-3.3,4.4-3.3c2.6,0,4.2,1.4,4.2,3.4v7.1h-2.3V288h0c-0.6,1.1-1.9,1.8-3.2,1.8C199.3,289.8,197.9,288.6,197.9,286.7z
		 M204.6,285.8V285l-2.4,0.1c-1.2,0.1-1.8,0.6-1.8,1.4c0,0.8,0.7,1.4,1.8,1.4C203.5,288,204.6,287.1,204.6,285.8z"/>
	<path class="st0" d="M208.8,276.4c0-0.7,0.6-1.3,1.3-1.3c0.8,0,1.3,0.6,1.3,1.3c0,0.7-0.6,1.3-1.3,1.3
		C209.4,277.8,208.8,277.2,208.8,276.4z M209,279.3h2.4v10.4H209V279.3z"/>
	<path class="st0" d="M213.4,279.3h2.3v1.8h0c0.6-1.2,1.7-2,3.3-2c2.3,0,3.6,1.5,3.6,3.9v6.7h-2.4v-6.2c0-1.5-0.7-2.3-2.1-2.3
		c-1.4,0-2.3,1-2.3,2.5v6h-2.4V279.3z"/>
	<path class="st0" d="M228.5,276.4c0-0.7,0.6-1.3,1.3-1.3c0.8,0,1.3,0.6,1.3,1.3c0,0.7-0.6,1.3-1.3,1.3
		C229.1,277.8,228.5,277.2,228.5,276.4z M228.7,279.3h2.4v10.4h-2.4V279.3z"/>
	<path class="st0" d="M233.1,279.3h2.3v1.8h0c0.6-1.2,1.7-2,3.3-2c2.3,0,3.6,1.5,3.6,3.9v6.7h-2.4v-6.2c0-1.5-0.7-2.3-2.1-2.3
		c-1.4,0-2.3,1-2.3,2.5v6h-2.4V279.3z"/>
</g>
<g class="st1">
	<path class="st0" d="M245,281.2h-1.4v-1.8h1.4v-0.9c0-2,1-3,3.2-3c0.5,0,1,0,1.3,0.1v1.7c-0.2,0-0.5-0.1-0.8-0.1
		c-0.9,0-1.3,0.4-1.3,1.3v0.8h2.1v1.8h-2v8.5H245V281.2z"/>
</g>
<g class="st1">
	<path class="st0" d="M250.3,284.5c0-3.3,2-5.4,5-5.4s5,2,5,5.4c0,3.4-2,5.4-5,5.4S250.3,287.9,250.3,284.5z M257.8,284.5
		c0-2.2-1-3.5-2.5-3.5c-1.5,0-2.5,1.3-2.5,3.5c0,2.2,1,3.5,2.5,3.5S257.8,286.7,257.8,284.5z"/>
	<path class="st0" d="M261.8,279.3h2.3v1.8h0c0.4-1.3,1.3-2,2.5-2c0.3,0,0.6,0.1,0.8,0.1v2.2c-0.2-0.1-0.6-0.1-1-0.1
		c-1.4,0-2.2,0.9-2.2,2.3v6h-2.4V279.3z"/>
	<path class="st0" d="M268.7,279.3h2.3v1.8h0c0.4-1.2,1.5-2,2.9-2c1.5,0,2.5,0.8,2.9,2.1h0.1c0.5-1.3,1.7-2.1,3.2-2.1
		c2,0,3.4,1.4,3.4,3.4v7.1h-2.4v-6.5c0-1.3-0.7-2-1.9-2c-1.2,0-2,0.9-2,2.1v6.4H275V283c0-1.2-0.7-1.9-1.8-1.9c-1.2,0-2,0.9-2,2.2
		v6.3h-2.4V279.3z"/>
	<path class="st0" d="M285.1,286.7c0-1.8,1.4-2.9,3.9-3.1l2.7-0.2v-0.7c0-1.1-0.7-1.7-1.9-1.7c-1.2,0-1.9,0.6-2,1.4h-2.3
		c0.1-1.9,1.8-3.3,4.4-3.3c2.6,0,4.2,1.4,4.2,3.4v7.1h-2.3V288h0c-0.6,1.1-1.9,1.8-3.2,1.8C286.6,289.8,285.1,288.6,285.1,286.7z
		 M291.8,285.8V285l-2.4,0.1c-1.2,0.1-1.8,0.6-1.8,1.4c0,0.8,0.7,1.4,1.8,1.4C290.7,288,291.8,287.1,291.8,285.8z"/>
	<path class="st0" d="M299.3,276.9v2.4h2v1.9h-2v5.4c0,0.8,0.4,1.2,1.2,1.2c0.2,0,0.5,0,0.7,0v1.9c-0.3,0.1-0.7,0.1-1.3,0.1
		c-2.2,0-3.1-0.8-3.1-2.8v-5.7h-1.5v-1.9h1.5v-2.4H299.3z"/>
	<path class="st0" d="M302.8,276.4c0-0.7,0.6-1.3,1.3-1.3c0.8,0,1.3,0.6,1.3,1.3c0,0.7-0.6,1.3-1.3,1.3
		C303.4,277.8,302.8,277.2,302.8,276.4z M302.9,279.3h2.4v10.4h-2.4V279.3z"/>
	<path class="st0" d="M307,284.5c0-3.3,2-5.4,5-5.4s5,2,5,5.4c0,3.4-2,5.4-5,5.4S307,287.9,307,284.5z M314.5,284.5
		c0-2.2-1-3.5-2.5-3.5c-1.5,0-2.5,1.3-2.5,3.5c0,2.2,1,3.5,2.5,3.5S314.5,286.7,314.5,284.5z"/>
	<path class="st0" d="M318.5,279.3h2.3v1.8h0c0.6-1.2,1.7-2,3.3-2c2.3,0,3.6,1.5,3.6,3.9v6.7h-2.4v-6.2c0-1.5-0.7-2.3-2.1-2.3
		c-1.4,0-2.3,1-2.3,2.5v6h-2.4V279.3z"/>
</g>
<g class="st1">
	<path class="st0" d="M81.7,374.1c0.2,1.3,1.5,2.1,3.2,2.1c1.7,0,2.9-0.8,2.9-2c0-1-0.7-1.6-2.5-2l-1.5-0.3c-2.8-0.6-4.1-1.9-4.1-4
		c0-2.5,2.2-4.2,5.2-4.2c3.1,0,5.2,1.7,5.2,4.2h-2.4c-0.1-1.3-1.2-2.1-2.8-2.1c-1.6,0-2.7,0.7-2.7,1.9c0,1,0.7,1.6,2.5,1.9l1.5,0.3
		c3,0.6,4.2,1.8,4.2,3.9c0,2.7-2.1,4.4-5.5,4.4c-3.3,0-5.4-1.6-5.5-4.2H81.7z"/>
</g>
<g class="st1">
	<path class="st0" d="M92.2,381.8v-1.9c0.1,0,0.6,0,0.7,0c1,0,1.5-0.4,1.8-1.3c0,0,0.2-0.5,0.1-0.6l-3.7-10.4h2.7l2.4,8.3h0l2.4-8.3
		h2.6l-3.8,10.8c-0.9,2.6-2,3.4-4.4,3.4C93,381.9,92.3,381.9,92.2,381.8z"/>
</g>
<g class="st1">
	<path class="st0" d="M106.4,367.5c2.5,0,4.1,1.4,4.2,3.3h-2.3c-0.1-0.9-0.8-1.5-1.9-1.5c-1.1,0-1.8,0.5-1.8,1.3
		c0,0.6,0.4,1,1.5,1.2l1.7,0.4c2.1,0.5,3,1.3,3,2.8c0,2-1.8,3.3-4.3,3.3c-2.7,0-4.3-1.3-4.5-3.3h2.4c0.2,1,0.9,1.5,2.1,1.5
		c1.2,0,1.9-0.5,1.9-1.3c0-0.6-0.4-1-1.5-1.2l-1.7-0.4c-2-0.4-3-1.4-3-2.9C102.2,368.8,103.9,367.5,106.4,367.5z"/>
</g>
<g class="st1">
	<path class="st0" d="M115.5,365.3v2.4h2v1.9h-2v5.4c0,0.8,0.4,1.2,1.2,1.2c0.2,0,0.5,0,0.7,0v1.9c-0.3,0.1-0.7,0.1-1.3,0.1
		c-2.2,0-3.1-0.8-3.1-2.8v-5.7h-1.5v-1.9h1.5v-2.4H115.5z"/>
</g>
<g class="st1">
	<path class="st0" d="M128,374.9c-0.3,2-2.1,3.3-4.6,3.3c-3.1,0-5-2-5-5.3c0-3.3,1.9-5.4,4.9-5.4c2.9,0,4.8,2,4.8,5.2v0.8h-7.2v0.1
		c0,1.7,1,2.8,2.6,2.8c1.1,0,2-0.6,2.3-1.4H128z M120.9,371.8h4.8c0-1.5-1-2.5-2.4-2.5C122,369.4,121,370.4,120.9,371.8z"/>
	<path class="st0" d="M129.6,367.7h2.3v1.8h0c0.4-1.2,1.5-2,2.9-2c1.5,0,2.5,0.8,2.9,2.1h0.1c0.5-1.3,1.7-2.1,3.2-2.1
		c2,0,3.4,1.4,3.4,3.4v7.1h-2.4v-6.5c0-1.3-0.7-2-1.9-2c-1.2,0-2,0.9-2,2.1v6.4h-2.4v-6.6c0-1.2-0.7-1.9-1.8-1.9c-1.2,0-2,0.9-2,2.2
		v6.3h-2.4V367.7z"/>
</g>
<g class="st1">
	<path class="st0" d="M150.5,367.7h2.3v1.8h0c0.4-1.3,1.3-2,2.5-2c0.3,0,0.6,0.1,0.8,0.1v2.2c-0.2-0.1-0.6-0.1-1-0.1
		c-1.4,0-2.2,0.9-2.2,2.3v6h-2.4V367.7z"/>
</g>
<g class="st1">
	<path class="st0" d="M166.1,374.9c-0.3,2-2.1,3.3-4.6,3.3c-3.1,0-5-2-5-5.3c0-3.3,1.9-5.4,4.9-5.4c2.9,0,4.8,2,4.8,5.2v0.8h-7.2
		v0.1c0,1.7,1,2.8,2.6,2.8c1.1,0,2-0.6,2.3-1.4H166.1z M159,371.8h4.8c0-1.5-1-2.5-2.4-2.5C160.1,369.4,159.1,370.4,159,371.8z"/>
	<path class="st0" d="M171.7,367.5c2.5,0,4.1,1.4,4.2,3.3h-2.3c-0.1-0.9-0.8-1.5-1.9-1.5c-1.1,0-1.8,0.5-1.8,1.3
		c0,0.6,0.4,1,1.5,1.2l1.7,0.4c2.1,0.5,3,1.3,3,2.8c0,2-1.8,3.3-4.3,3.3c-2.7,0-4.3-1.3-4.5-3.3h2.4c0.2,1,0.9,1.5,2.1,1.5
		c1.2,0,1.9-0.5,1.9-1.3c0-0.6-0.4-1-1.5-1.2l-1.7-0.4c-2-0.4-3-1.4-3-2.9C167.6,368.8,169.2,367.5,171.7,367.5z"/>
	<path class="st0" d="M177.2,372.9c0-3.3,2-5.4,5-5.4s5,2,5,5.4c0,3.4-2,5.4-5,5.4S177.2,376.2,177.2,372.9z M184.8,372.9
		c0-2.2-1-3.5-2.5-3.5c-1.5,0-2.5,1.3-2.5,3.5c0,2.2,1,3.5,2.5,3.5S184.8,375.1,184.8,372.9z"/>
	<path class="st0" d="M198,378h-2.3v-1.8h0c-0.5,1.3-1.6,2-3.2,2c-2.2,0-3.7-1.5-3.7-3.8v-6.7h2.4v6.2c0,1.5,0.7,2.3,2.1,2.3
		c1.4,0,2.3-1,2.3-2.5v-6h2.4V378z"/>
</g>
<g class="st1">
	<path class="st0" d="M200,367.7h2.3v1.8h0c0.4-1.3,1.3-2,2.5-2c0.3,0,0.6,0.1,0.8,0.1v2.2c-0.2-0.1-0.6-0.1-1-0.1
		c-1.4,0-2.2,0.9-2.2,2.3v6H200V367.7z"/>
</g>
<g class="st1">
	<path class="st0" d="M213.3,371.4c-0.2-1.1-1-1.9-2.3-1.9c-1.5,0-2.5,1.3-2.5,3.4c0,2.2,1,3.4,2.5,3.4c1.2,0,2-0.7,2.3-1.9h2.3
		c-0.2,2.3-2,3.8-4.6,3.8c-3,0-5-2-5-5.4c0-3.3,2-5.4,5-5.4c2.7,0,4.4,1.7,4.6,3.9H213.3z"/>
	<path class="st0" d="M226.2,374.9c-0.3,2-2.1,3.3-4.6,3.3c-3.1,0-5-2-5-5.3c0-3.3,1.9-5.4,4.9-5.4c2.9,0,4.8,2,4.8,5.2v0.8h-7.2
		v0.1c0,1.7,1,2.8,2.6,2.8c1.1,0,2-0.6,2.3-1.4H226.2z M219.1,371.8h4.8c0-1.5-1-2.5-2.4-2.5C220.2,369.4,219.2,370.4,219.1,371.8z"
		/>
	<path class="st0" d="M238.7,371.4c-0.2-1.1-1-1.9-2.3-1.9c-1.5,0-2.5,1.3-2.5,3.4c0,2.2,1,3.4,2.5,3.4c1.2,0,2-0.7,2.3-1.9h2.3
		c-0.2,2.3-2,3.8-4.6,3.8c-3,0-5-2-5-5.4c0-3.3,2-5.4,5-5.4c2.7,0,4.4,1.7,4.6,3.9H238.7z"/>
	<path class="st0" d="M242,372.9c0-3.3,2-5.4,5-5.4s5,2,5,5.4c0,3.4-2,5.4-5,5.4S242,376.2,242,372.9z M249.6,372.9
		c0-2.2-1-3.5-2.5-3.5c-1.5,0-2.5,1.3-2.5,3.5c0,2.2,1,3.5,2.5,3.5S249.6,375.1,249.6,372.9z"/>
	<path class="st0" d="M253.6,367.7h2.3v1.8h0c0.6-1.2,1.7-2,3.3-2c2.3,0,3.6,1.5,3.6,3.9v6.7h-2.4v-6.2c0-1.5-0.7-2.3-2.1-2.3
		c-1.4,0-2.3,1-2.3,2.5v6h-2.4V367.7z"/>
	<path class="st0" d="M268.7,367.5c2.5,0,4.1,1.4,4.2,3.3h-2.3c-0.1-0.9-0.8-1.5-1.9-1.5c-1.1,0-1.8,0.5-1.8,1.3
		c0,0.6,0.4,1,1.5,1.2l1.7,0.4c2.1,0.5,3,1.3,3,2.8c0,2-1.8,3.3-4.3,3.3c-2.7,0-4.3-1.3-4.5-3.3h2.4c0.2,1,0.9,1.5,2.1,1.5
		c1.2,0,1.9-0.5,1.9-1.3c0-0.6-0.4-1-1.5-1.2l-1.7-0.4c-2-0.4-3-1.4-3-2.9C264.6,368.8,266.2,367.5,268.7,367.5z"/>
	<path class="st0" d="M283.9,378h-2.3v-1.8h0c-0.5,1.3-1.6,2-3.2,2c-2.2,0-3.7-1.5-3.7-3.8v-6.7h2.4v6.2c0,1.5,0.7,2.3,2.1,2.3
		c1.4,0,2.3-1,2.3-2.5v-6h2.4V378z"/>
	<path class="st0" d="M285.8,367.7h2.3v1.8h0c0.4-1.2,1.5-2,2.9-2c1.5,0,2.5,0.8,2.9,2.1h0.1c0.5-1.3,1.7-2.1,3.2-2.1
		c2,0,3.4,1.4,3.4,3.4v7.1h-2.4v-6.5c0-1.3-0.7-2-1.9-2c-1.2,0-2,0.9-2,2.1v6.4h-2.4v-6.6c0-1.2-0.7-1.9-1.8-1.9c-1.2,0-2,0.9-2,2.2
		v6.3h-2.4V367.7z"/>
	<path class="st0" d="M312.6,372.9c0,3.3-1.7,5.3-4.3,5.3c-1.5,0-2.7-0.7-3.2-1.9h0v5.1h-2.4v-13.8h2.4v1.8h0c0.6-1.2,1.8-2,3.3-2
		C311,367.5,312.6,369.6,312.6,372.9z M310.2,372.9c0-2-1-3.3-2.5-3.3c-1.5,0-2.5,1.3-2.5,3.3c0,2,1,3.3,2.5,3.3
		C309.2,376.2,310.2,374.9,310.2,372.9z"/>
	<path class="st0" d="M317.3,365.3v2.4h2v1.9h-2v5.4c0,0.8,0.4,1.2,1.2,1.2c0.2,0,0.5,0,0.7,0v1.9c-0.3,0.1-0.7,0.1-1.3,0.1
		c-2.2,0-3.1-0.8-3.1-2.8v-5.7h-1.5v-1.9h1.5v-2.4H317.3z"/>
	<path class="st0" d="M320.9,364.8c0-0.7,0.6-1.3,1.3-1.3c0.8,0,1.3,0.6,1.3,1.3c0,0.7-0.6,1.3-1.3,1.3
		C321.4,366.1,320.9,365.5,320.9,364.8z M321,367.7h2.4V378H321V367.7z"/>
	<path class="st0" d="M325,372.9c0-3.3,2-5.4,5-5.4s5,2,5,5.4c0,3.4-2,5.4-5,5.4S325,376.2,325,372.9z M332.6,372.9
		c0-2.2-1-3.5-2.5-3.5c-1.5,0-2.5,1.3-2.5,3.5c0,2.2,1,3.5,2.5,3.5S332.6,375.1,332.6,372.9z"/>
	<path class="st0" d="M336.6,367.7h2.3v1.8h0c0.6-1.2,1.7-2,3.3-2c2.3,0,3.6,1.5,3.6,3.9v6.7h-2.4v-6.2c0-1.5-0.7-2.3-2.1-2.3
		c-1.4,0-2.3,1-2.3,2.5v6h-2.4V367.7z"/>
</g>
<g class="st1">
	<path class="st0" d="M153,387.9h2.2c-1.4,1.7-2.5,5.3-2.5,8.5s1.1,6.9,2.5,8.6H153c-2-2.4-2.9-5.1-2.9-8.6
		C150.1,393.1,151,390.3,153,387.9z"/>
	<path class="st0" d="M163.3,395.4c-0.2-1.1-1-1.9-2.3-1.9c-1.5,0-2.5,1.3-2.5,3.4c0,2.2,1,3.4,2.5,3.4c1.2,0,2-0.7,2.3-1.9h2.3
		c-0.2,2.3-2,3.8-4.6,3.8c-3,0-5-2-5-5.4c0-3.3,2-5.4,5-5.4c2.7,0,4.4,1.7,4.6,3.9H163.3z"/>
	<path class="st0" d="M166.7,396.9c0-3.3,2-5.4,5-5.4s5,2,5,5.4c0,3.4-2,5.4-5,5.4S166.7,400.2,166.7,396.9z M174.2,396.9
		c0-2.2-1-3.5-2.5-3.5c-1.5,0-2.5,1.3-2.5,3.5c0,2.2,1,3.5,2.5,3.5S174.2,399.1,174.2,396.9z"/>
	<path class="st0" d="M182.2,391.5c2.5,0,4.1,1.4,4.2,3.3h-2.3c-0.1-0.9-0.8-1.5-1.9-1.5c-1.1,0-1.8,0.5-1.8,1.3
		c0,0.6,0.4,1,1.5,1.2l1.7,0.4c2.1,0.5,3,1.3,3,2.8c0,2-1.8,3.3-4.3,3.3c-2.7,0-4.3-1.3-4.5-3.3h2.4c0.2,1,0.9,1.5,2.1,1.5
		c1.2,0,1.9-0.5,1.9-1.3c0-0.6-0.4-1-1.5-1.2l-1.7-0.4c-2-0.4-3-1.4-3-2.9C178.1,392.8,179.7,391.5,182.2,391.5z"/>
	<path class="st0" d="M191.3,389.3v2.4h2v1.9h-2v5.4c0,0.8,0.4,1.2,1.2,1.2c0.2,0,0.5,0,0.7,0v1.9c-0.3,0.1-0.7,0.1-1.3,0.1
		c-2.2,0-3.1-0.8-3.1-2.8v-5.7h-1.5v-1.9h1.5v-2.4H191.3z"/>
	<path class="st0" d="M198.8,388.8c0-0.7,0.6-1.3,1.3-1.3c0.8,0,1.3,0.6,1.3,1.3c0,0.7-0.6,1.3-1.3,1.3
		C199.4,390.1,198.8,389.5,198.8,388.8z M199,391.7h2.4V402H199V391.7z"/>
	<path class="st0" d="M203.4,391.7h2.3v1.8h0c0.6-1.2,1.7-2,3.3-2c2.3,0,3.6,1.5,3.6,3.9v6.7h-2.4v-6.2c0-1.5-0.7-2.3-2.1-2.3
		c-1.4,0-2.3,1-2.3,2.5v6h-2.4V391.7z"/>
	<path class="st0" d="M221.4,395.4c-0.2-1.1-1-1.9-2.3-1.9c-1.5,0-2.5,1.3-2.5,3.4c0,2.2,1,3.4,2.5,3.4c1.2,0,2-0.7,2.3-1.9h2.3
		c-0.2,2.3-2,3.8-4.6,3.8c-3,0-5-2-5-5.4c0-3.3,2-5.4,5-5.4c2.7,0,4.4,1.7,4.6,3.9H221.4z"/>
	<path class="st0" d="M225.2,387.9h2.4V402h-2.4V387.9z"/>
	<path class="st0" d="M238.9,402h-2.3v-1.8h0c-0.5,1.3-1.6,2-3.2,2c-2.2,0-3.7-1.5-3.7-3.8v-6.7h2.4v6.2c0,1.5,0.7,2.3,2.1,2.3
		c1.4,0,2.3-1,2.3-2.5v-6h2.4V402z"/>
	<path class="st0" d="M240.5,396.9c0-3.3,1.7-5.3,4.3-5.3c1.5,0,2.7,0.8,3.2,1.9h0.1v-5.5h2.4V402h-2.4v-1.8h0
		c-0.6,1.2-1.8,1.9-3.3,1.9C242.2,402.2,240.5,400.1,240.5,396.9z M243,396.9c0,2.1,1,3.3,2.5,3.3c1.5,0,2.5-1.3,2.5-3.3
		c0-2-1-3.3-2.5-3.3C243.9,393.5,243,394.8,243,396.9z"/>
	<path class="st0" d="M261.6,398.9c-0.3,2-2.1,3.3-4.6,3.3c-3.1,0-5-2-5-5.3c0-3.3,1.9-5.4,4.9-5.4c2.9,0,4.8,2,4.8,5.2v0.8h-7.2
		v0.1c0,1.7,1,2.8,2.6,2.8c1.1,0,2-0.6,2.3-1.4H261.6z M254.5,395.8h4.8c0-1.5-1-2.5-2.4-2.5C255.6,393.4,254.6,394.4,254.5,395.8z"
		/>
	<path class="st0" d="M262.9,396.9c0-3.3,1.7-5.3,4.3-5.3c1.5,0,2.7,0.8,3.2,1.9h0.1v-5.5h2.4V402h-2.4v-1.8h0
		c-0.6,1.2-1.8,1.9-3.3,1.9C264.6,402.2,262.9,400.1,262.9,396.9z M265.4,396.9c0,2.1,1,3.3,2.5,3.3c1.5,0,2.5-1.3,2.5-3.3
		c0-2-1-3.3-2.5-3.3C266.3,393.5,265.4,394.8,265.4,396.9z"/>
	<path class="st0" d="M276.4,405.1h-2.2c1.4-1.7,2.5-5.3,2.5-8.5s-1.1-6.9-2.5-8.6h2.2c1.9,2.4,2.9,5.1,2.9,8.6
		C279.3,399.9,278.4,402.7,276.4,405.1z"/>
</g>
<g class="st1">
	<path class="st0" d="M536.3,75.9c0,6.5-4.4,10.9-11.9,10.9c-0.9,0-3-0.1-4.4-0.1c-1.8,0-3.6,0-4.6,0.1v-0.6
		c1.9-0.1,2.2-0.4,2.2-2.6V68.7c0-2.2-0.4-2.5-2.2-2.6v-0.6c0.8,0,2.2,0.1,3.6,0.1c0.3,0,0.6,0,0.9,0c1.4,0,3.5-0.1,4.7-0.1
		C532.5,65.5,536.3,69.2,536.3,75.9z M522.4,68.6v15c0,2.1,0.4,2.6,2.3,2.6c5.1,0,6.7-3.7,6.7-10.2c0-6.7-1.9-10-6.7-10
		C522.8,66.1,522.4,66.6,522.4,68.6z"/>
</g>
<g class="st1">
	<path class="st0" d="M550.7,72.2c0.9,0.9,1.1,2.1,1.1,4.2v8.2c0,1,0.2,1.3,0.6,1.3c0.4,0,0.8-0.2,1.1-0.5l0.3,0.5
		c-0.9,0.7-1.9,1.1-3.4,1.1c-2.2,0-2.9-1.1-2.9-2.4c-1,1.7-2.7,2.4-4.4,2.4c-2.2,0-3.8-1.2-3.8-3.4c0-2.2,1.4-3.4,4.2-4.4
		c2.2-0.8,3.9-1.4,3.9-2.7v-2.3c0-1.6-0.7-2.7-2.4-2.7c-0.7,0-1.6,0.2-2.1,0.7c1.1,0.4,1.8,1.1,1.8,2.4c0,1.2-1,2.2-2.4,2.2
		c-1.3,0-2.1-1-2.1-2.3c0-1.1,0.7-1.9,1.7-2.5c1.1-0.6,2.5-1,4.6-1C548.3,70.8,549.8,71.2,550.7,72.2z M547.5,77.7
		c-0.3,0.5-0.8,0.8-1.9,1.5c-1.1,0.8-2,1.8-2,3.6c0,1.7,0.8,2.3,1.9,2.3c0.7,0,1.4-0.3,2-1.2V77.7z"/>
	<path class="st0" d="M564.3,71.3v0.6h-3.5V84c0,1.2,0.4,1.7,1.3,1.7c0.7,0,1.5-0.5,2.1-1.8l0.5,0.3c-0.7,1.8-1.9,3.1-4.1,3.1
		c-1.3,0-2.3-0.3-3-1c-0.9-0.9-1.1-2.1-1.1-4.2V71.9h-2.5v-0.6h2.5v-4c1.7,0,3.1-0.3,4.3-1v4.9H564.3z"/>
	<path class="st0" d="M576.8,72.2c0.9,0.9,1.1,2.1,1.1,4.2v8.2c0,1,0.2,1.3,0.6,1.3c0.4,0,0.8-0.2,1.1-0.5l0.3,0.5
		c-0.9,0.7-1.9,1.1-3.4,1.1c-2.2,0-2.9-1.1-2.9-2.4c-1,1.7-2.7,2.4-4.4,2.4c-2.2,0-3.8-1.2-3.8-3.4c0-2.2,1.4-3.4,4.2-4.4
		c2.2-0.8,3.9-1.4,3.9-2.7v-2.3c0-1.6-0.7-2.7-2.4-2.7c-0.7,0-1.6,0.2-2.1,0.7c1.1,0.4,1.8,1.1,1.8,2.4c0,1.2-1,2.2-2.4,2.2
		c-1.3,0-2.1-1-2.1-2.3c0-1.1,0.7-1.9,1.7-2.5c1.1-0.6,2.5-1,4.6-1C574.3,70.8,575.8,71.2,576.8,72.2z M573.5,77.7
		c-0.3,0.5-0.8,0.8-1.9,1.5c-1.1,0.8-2,1.8-2,3.6c0,1.7,0.8,2.3,1.9,2.3c0.7,0,1.4-0.3,2-1.2V77.7z"/>
	<path class="st0" d="M596.5,78.6c0,6.2-3.2,8.6-6.9,8.6c-1.3,0-2.4-0.3-3.4-1c-0.2,0-0.3,0-0.5,0c-1.3,0-2.7,0.5-3.4,1.1l-0.5-0.3
		c0.2-0.5,0.2-1.1,0.2-1.7V66.9c0-1.8-0.5-2.6-1.9-2.6v-0.6c0.6,0.1,1.3,0.1,1.9,0.1c1.7,0,3.1-0.1,4.4-0.4v10.4
		c0.8-1.9,2.5-2.9,4.6-2.9C594.2,70.8,596.5,73.4,596.5,78.6z M592,79c0-5.1-1-6.9-2.7-6.9c-1.2,0-2.5,1-2.8,2.6v11
		c0.7,0.5,1.5,0.8,2.2,0.8C590.9,86.6,592,84.1,592,79z"/>
	<path class="st0" d="M609.9,72.2c0.9,0.9,1.1,2.1,1.1,4.2v8.2c0,1,0.2,1.3,0.6,1.3c0.4,0,0.8-0.2,1.1-0.5l0.3,0.5
		c-0.9,0.7-1.9,1.1-3.4,1.1c-2.2,0-2.9-1.1-2.9-2.4c-1,1.7-2.7,2.4-4.4,2.4c-2.2,0-3.8-1.2-3.8-3.4c0-2.2,1.4-3.4,4.2-4.4
		c2.2-0.8,3.9-1.4,3.9-2.7v-2.3c0-1.6-0.7-2.7-2.4-2.7c-0.7,0-1.6,0.2-2.1,0.7c1.1,0.4,1.8,1.1,1.8,2.4c0,1.2-1,2.2-2.4,2.2
		c-1.3,0-2.1-1-2.1-2.3c0-1.1,0.7-1.9,1.7-2.5c1.1-0.6,2.5-1,4.6-1C607.4,70.8,608.9,71.2,609.9,72.2z M606.7,77.7
		c-0.3,0.5-0.8,0.8-1.9,1.5c-1.1,0.8-2,1.8-2,3.6c0,1.7,0.8,2.3,1.9,2.3c0.7,0,1.4-0.3,2-1.2V77.7z"/>
	<path class="st0" d="M623.4,71.8c0.2,0.1,0.4,0.2,0.5,0.2c0.4,0,0.6-0.4,0.7-1.1h0.6c-0.1,1.1-0.1,2.6-0.1,5.3h-0.6
		c-0.3-2.2-1.3-4.6-3.9-4.6c-1.2,0-2,0.7-2,1.9c0,1.8,1.8,2.8,3.7,4.2c2,1.5,3.6,2.8,3.6,5.1c0,2.7-2.6,4.5-5.7,4.5
		c-1.2,0-2.1-0.3-2.8-0.6c-0.5-0.3-1-0.5-1.4-0.6c0,0-0.1,0-0.1,0c-0.3,0-0.6,0.4-0.7,1.1h-0.6c0.1-1.3,0.1-3,0.1-6h0.6
		c0.4,3.3,1.5,5.5,4,5.5c1,0,2.1-0.6,2.1-2.1c0-1.8-1.3-2.7-3-4.1c-2-1.5-3.8-2.9-3.8-5.3c0-2.7,2.4-4.1,5.2-4.1
		C621.5,70.8,622.8,71.4,623.4,71.8z"/>
	<path class="st0" d="M640.5,82.3l0.5,0.2c-0.7,2.3-2.7,4.7-6,4.7c-4,0-6.9-2.5-6.9-8c0-5.6,3.1-8.3,7.3-8.3c3.5,0,5.6,2,5.6,6.7
		h-8.4c0,0.4-0.1,0.9-0.1,1.4c0,4.2,2,5.8,3.9,5.8C637.8,84.7,639.3,84.3,640.5,82.3z M632.6,76.9h4.7c0.1-2.9-0.6-5.4-2-5.4
		C633.9,71.5,632.9,73,632.6,76.9z"/>
</g>
<g class="st1">
	<path class="st0" d="M883,65.5v0.6c-0.9,0.3-1.9,1.3-2.7,3.6l-6.3,17.1c-0.3,0-0.7,0-1,0c-0.4,0-0.7,0-1,0L864.2,68
		c-0.6-1.4-1.3-1.9-1.9-1.9v-0.6c1.2,0.1,2.9,0.1,4.6,0.1c1.8,0,3.6,0,4.6-0.1v0.6c-1.4,0.1-2.1,0.2-2.1,1.1c0,0.3,0.1,0.8,0.4,1.4
		l5.3,13.4l3.7-10c0.6-1.6,0.8-2.7,0.8-3.6c0-1.7-0.9-2.3-2.5-2.4v-0.6c1.3,0.1,2.5,0.1,3.7,0.1C881.6,65.6,882.4,65.6,883,65.5z"/>
	<path class="st0" d="M893,66.1c-1.9,0.1-2.3,0.4-2.3,2.6v14.9c0,2.2,0.4,2.5,2.3,2.6v0.6c-1.1-0.1-2.9-0.1-4.5-0.1
		c-1.9,0-3.7,0-4.7,0.1v-0.6c1.9-0.1,2.2-0.4,2.2-2.6V68.7c0-2.2-0.4-2.5-2.2-2.6v-0.6c1,0.1,2.8,0.1,4.7,0.1c1.7,0,3.5,0,4.5-0.1
		V66.1z"/>
	<path class="st0" d="M912.3,84.3c0.6,1.4,1.3,1.9,1.9,1.9v0.6c-1.2-0.1-2.9-0.1-4.6-0.1c-1.9,0-3.6,0-4.6,0.1v-0.6
		c1.4-0.1,2.1-0.3,2.1-1.1c0-0.4-0.1-0.8-0.4-1.4l-1.8-4.9h-6.5l-0.8,2.1c-0.6,1.5-0.8,2.5-0.8,3.3c0,1.6,1,2,2.7,2v0.6
		c-1.4-0.1-2.5-0.1-3.7-0.1c-0.9,0-1.7,0-2.3,0.1v-0.6c0.9-0.2,1.8-0.9,2.6-3.1l6.8-17.5c0.3,0,0.7,0,1,0c0.4,0,0.7,0,1,0
		L912.3,84.3z M901.8,70.1l-3.1,8.1h6.1L901.8,70.1z"/>
	<path class="st0" d="M938.4,67.1c0.2,0.2,0.4,0.3,0.6,0.3c0.4,0,0.7-0.6,0.8-1.8h0.7c-0.1,1.5-0.1,3.6-0.1,7.3h-0.7
		c-0.3-2.8-0.7-4.2-2.3-5.4c-1-1-2.4-1.5-3.8-1.5c-4.3,0-6,5-6,10.3c0,5.4,1.8,10.3,6.1,10.3c1.3,0,2.8-0.5,3.7-1.5
		c1.6-1.2,1.9-2.9,2.2-5.8h0.7c0,3.8,0,6,0.1,7.6h-0.7c-0.1-1.2-0.3-1.8-0.7-1.8c-0.2,0-0.4,0.1-0.6,0.2c-1.5,1-3,1.9-5.5,1.9
		c-6.4,0-10.6-4-10.6-10.9c0-6.7,4.4-11.2,10.6-11.2C935.6,65.1,937.1,66,938.4,67.1z"/>
	<path class="st0" d="M965.2,66.1c-1.9,0.1-2.3,0.4-2.3,2.6v14.9c0,2.2,0.4,2.5,2.3,2.6v0.6c-1-0.1-2.7-0.1-4.6-0.1
		c-1.7,0-3.6,0-4.7,0.1v-0.6c1.9-0.1,2.3-0.4,2.3-2.6v-7.2h-8v7.2c0,2.2,0.4,2.5,2.3,2.6v0.6c-1.1-0.1-2.9-0.1-4.5-0.1
		c-1.9,0-3.7,0-4.7,0.1v-0.6c1.9-0.1,2.2-0.4,2.2-2.6V68.7c0-2.2-0.4-2.5-2.2-2.6v-0.6c1,0.1,2.8,0.1,4.7,0.1c1.7,0,3.5,0,4.5-0.1
		v0.6c-1.9,0.1-2.3,0.4-2.3,2.6v7.1h8v-7.1c0-2.2-0.4-2.5-2.3-2.6v-0.6c1.1,0.1,3,0.1,4.7,0.1c1.8,0,3.6,0,4.6-0.1V66.1z"/>
</g>
<g class="st1">
	<path class="st0" d="M987.6,84.3c0.6,1.4,1.3,1.9,1.9,1.9v0.6c-1.2-0.1-2.9-0.1-4.6-0.1c-1.9,0-3.6,0-4.6,0.1v-0.6
		c1.4-0.1,2.1-0.3,2.1-1.1c0-0.4-0.1-0.8-0.4-1.4l-1.8-4.9h-6.5l-0.8,2.1c-0.6,1.5-0.8,2.5-0.8,3.3c0,1.6,1,2,2.7,2v0.6
		c-1.4-0.1-2.5-0.1-3.7-0.1c-0.9,0-1.7,0-2.3,0.1v-0.6c0.9-0.2,1.8-0.9,2.6-3.1l6.8-17.5c0.3,0,0.7,0,1,0c0.4,0,0.7,0,1,0
		L987.6,84.3z M977.2,70.1l-3.1,8.1h6.1L977.2,70.1z"/>
</g>
<g class="st1">
	<path class="st0" d="M999.8,66.1c-1.9,0.1-2.3,0.4-2.3,2.6v14.9c0,2.2,0.4,2.5,2.3,2.6v0.6c-1.1-0.1-2.9-0.1-4.5-0.1
		c-1.9,0-3.7,0-4.7,0.1v-0.6c1.9-0.1,2.2-0.4,2.2-2.6V68.7c0-2.2-0.4-2.5-2.2-2.6v-0.6c1,0.1,2.8,0.1,4.7,0.1c1.7,0,3.5,0,4.5-0.1
		V66.1z"/>
	<path class="st0" d="M1021.5,66.1c-1.9,0.3-2.3,1.1-2.3,4v16.7c-0.2,0-0.5,0-0.7,0c-0.3,0-0.5,0-0.8,0l-13-16.5v11.5
		c0,3.3,0.3,4.1,2.9,4.3v0.6c-0.8-0.1-2.2-0.1-3.3-0.1c-0.9,0-2,0-2.6,0.1v-0.6c1.9-0.3,2.3-1.1,2.3-4V68.7c0-2.2-0.4-2.5-2.3-2.6
		v-0.6c0.6,0.1,1.7,0.1,2.6,0.1c1,0,1.9,0,2.6-0.1l11.6,14.3v-9.4c0-3.3-0.3-4.1-2.9-4.3v-0.6c0.8,0.1,2.2,0.1,3.3,0.1
		c0.9,0,2,0,2.6-0.1V66.1z"/>
</g>
<g>
	<path class="st0" d="M1119,34v394H768V34H1119 M1126,27H761v408h365V27z"/>
</g>
</svg>
