<?xml version="1.0" encoding="utf-8"?>
<!-- Generator: Adobe Illustrator 23.0.2, SVG Export Plug-In . SVG Version: 6.00 Build 0)  -->
<svg version="1.1" id="Layer_1" xmlns="http://www.w3.org/2000/svg" xmlns:xlink="http://www.w3.org/1999/xlink" x="0px" y="0px"
	 viewBox="0 0 1116.4 428.6" style="enable-background:new 0 0 1116.4 428.6;" xml:space="preserve">
<style type="text/css">
	.st0{fill:#FFFFFF;}
</style>
<g>
	<title>table</title>
	<g>
		<path class="st0" d="M377.9,215.5h-366v-104h366V215.5z M13.9,213.5h362v-100h-362V213.5z"/>
	</g>
	<g>
		<path class="st0" d="M741.8,215.4h-366v-104h366V215.4z M377.8,213.4h362v-100h-362V213.4z"/>
	</g>
	<g>
		<path class="st0" d="M1105.3,215.4h-366v-104h366V215.4z M741.3,213.4h362v-100h-362V213.4z"/>
	</g>
	<g>
		<path class="st0" d="M378.4,113.1h-366V9.1h366V113.1z M14.4,111.1h362v-100h-362V111.1z"/>
	</g>
	<g>
		<path class="st0" d="M742,113.1H376V9.1h366V113.1z M378,111.1h362v-100H378V111.1z"/>
	</g>
	<g>
		<path class="st0" d="M1105.6,113.1h-366V9.1h366V113.1z M741.6,111.1h362v-100h-362V111.1z"/>
	</g>
	<g>
		<path class="st0" d="M377.8,317.4h-366v-104h366V317.4z M13.8,315.4h362v-100h-362V315.4z"/>
	</g>
	<g>
		<path class="st0" d="M741.8,317.4h-366v-104h366V317.4z M377.8,315.4h362v-100h-362V315.4z"/>
	</g>
	<g>
		<path class="st0" d="M1105.8,317.4h-366v-104h366V317.4z M741.8,315.4h362v-100h-362V315.4z"/>
	</g>
	<g>
		<path class="st0" d="M377.8,419.4h-366v-104h366V419.4z M13.8,417.4h362v-100h-362V417.4z"/>
	</g>
	<g>
		<path class="st0" d="M741.8,419.4h-366v-104h366V419.4z M377.8,417.4h362v-100h-362V417.4z"/>
	</g>
	<g>
		<path class="st0" d="M1106.3,419.4h-366v-104h366V419.4z M742.3,417.4h362v-100h-362V417.4z"/>
	</g>
	<g>
		<path class="st0" d="M143.6,155c4.2,0,6.7,2.5,6.7,7s-2.5,7.1-6.7,7.1h-5.1V155H143.6z M141,166.9h2.4c2.8,0,4.4-1.7,4.4-4.9
			c0-3.2-1.6-4.9-4.4-4.9H141V166.9z"/>
		<path class="st0" d="M151.6,166.1c0-1.8,1.4-2.9,3.9-3.1l2.7-0.2v-0.7c0-1.1-0.7-1.7-1.9-1.7c-1.2,0-1.9,0.6-2,1.4h-2.3
			c0.1-1.9,1.8-3.3,4.4-3.3c2.6,0,4.2,1.4,4.2,3.4v7.1h-2.3v-1.7h0c-0.6,1.1-1.9,1.8-3.2,1.8C153.1,169.2,151.6,168,151.6,166.1z
			 M158.3,165.2v-0.8l-2.4,0.1c-1.2,0.1-1.8,0.6-1.8,1.4c0,0.8,0.7,1.4,1.8,1.4C157.2,167.4,158.3,166.5,158.3,165.2z"/>
		<path class="st0" d="M165.8,156.3v2.4h2v1.9h-2v5.4c0,0.8,0.4,1.2,1.2,1.2c0.2,0,0.5,0,0.7,0v1.9c-0.3,0.1-0.7,0.1-1.3,0.1
			c-2.2,0-3.1-0.8-3.1-2.8v-5.7h-1.5v-1.9h1.5v-2.4H165.8z"/>
		<path class="st0" d="M168.8,166.1c0-1.8,1.4-2.9,3.9-3.1l2.7-0.2v-0.7c0-1.1-0.7-1.7-1.9-1.7c-1.2,0-1.9,0.6-2,1.4h-2.3
			c0.1-1.9,1.8-3.3,4.4-3.3c2.6,0,4.2,1.4,4.2,3.4v7.1h-2.3v-1.7h0c-0.6,1.1-1.9,1.8-3.2,1.8C170.3,169.2,168.8,168,168.8,166.1z
			 M175.5,165.2v-0.8l-2.4,0.1c-1.2,0.1-1.8,0.6-1.8,1.4c0,0.8,0.7,1.4,1.8,1.4C174.4,167.4,175.5,166.5,175.5,165.2z"/>
		<path class="st0" d="M185.9,165.1c0.2,1.3,1.5,2.1,3.2,2.1c1.7,0,2.9-0.8,2.9-2c0-1-0.7-1.6-2.5-2l-1.5-0.3
			c-2.8-0.6-4.1-1.9-4.1-4c0-2.5,2.2-4.2,5.2-4.2c3.1,0,5.2,1.7,5.2,4.2h-2.4c-0.1-1.3-1.2-2.1-2.8-2.1c-1.6,0-2.7,0.7-2.7,1.9
			c0,1,0.7,1.6,2.5,1.9l1.5,0.3c3,0.6,4.2,1.8,4.2,3.9c0,2.7-2.1,4.4-5.5,4.4c-3.3,0-5.4-1.6-5.5-4.2H185.9z"/>
		<path class="st0" d="M199.3,156.3v2.4h2v1.9h-2v5.4c0,0.8,0.4,1.2,1.2,1.2c0.2,0,0.5,0,0.7,0v1.9c-0.3,0.1-0.7,0.1-1.3,0.1
			c-2.2,0-3.1-0.8-3.1-2.8v-5.7h-1.5v-1.9h1.5v-2.4H199.3z"/>
		<path class="st0" d="M202.3,163.9c0-3.3,2-5.4,5-5.4s5,2,5,5.4c0,3.4-2,5.4-5,5.4S202.3,167.3,202.3,163.9z M209.8,163.9
			c0-2.2-1-3.5-2.5-3.5c-1.5,0-2.5,1.3-2.5,3.5c0,2.2,1,3.5,2.5,3.5S209.8,166.1,209.8,163.9z"/>
		<path class="st0" d="M213.9,158.7h2.3v1.8h0c0.4-1.3,1.3-2,2.5-2c0.3,0,0.6,0.1,0.8,0.1v2.2c-0.2-0.1-0.6-0.1-1-0.1
			c-1.4,0-2.2,0.9-2.2,2.3v6h-2.4V158.7z"/>
		<path class="st0" d="M220.1,166.1c0-1.8,1.4-2.9,3.9-3.1l2.7-0.2v-0.7c0-1.1-0.7-1.7-1.9-1.7c-1.2,0-1.9,0.6-2,1.4h-2.3
			c0.1-1.9,1.8-3.3,4.4-3.3c2.6,0,4.2,1.4,4.2,3.4v7.1h-2.3v-1.7h0c-0.6,1.1-1.9,1.8-3.2,1.8C221.6,169.2,220.1,168,220.1,166.1z
			 M226.8,165.2v-0.8l-2.4,0.1c-1.2,0.1-1.8,0.6-1.8,1.4c0,0.8,0.7,1.4,1.8,1.4C225.7,167.4,226.8,166.5,226.8,165.2z"/>
		<path class="st0" d="M231.1,169.9h2.4c0.3,0.8,1.2,1.3,2.3,1.3c1.6,0,2.5-0.9,2.5-2.2v-1.7h-0.1c-0.5,1.1-1.8,1.9-3.2,1.9
			c-2.6,0-4.3-2-4.3-5.2c0-3.3,1.7-5.3,4.3-5.3c1.5,0,2.7,0.8,3.3,2h0v-1.8h2.4v10.2c0,2.5-2,4.1-5,4.1
			C233.1,173,231.3,171.7,231.1,169.9z M238.3,163.9c0-2-1-3.3-2.6-3.3c-1.5,0-2.5,1.3-2.5,3.3c0,2.1,1,3.3,2.5,3.3
			C237.3,167.1,238.3,165.9,238.3,163.9z"/>
		<path class="st0" d="M251.8,166c-0.3,2-2.1,3.3-4.6,3.3c-3.1,0-5-2-5-5.3c0-3.3,1.9-5.4,4.9-5.4c2.9,0,4.8,2,4.8,5.2v0.8h-7.2v0.1
			c0,1.7,1,2.8,2.6,2.8c1.1,0,2-0.6,2.3-1.4H251.8z M244.7,162.9h4.8c0-1.5-1-2.5-2.4-2.5C245.8,160.4,244.8,161.4,244.7,162.9z"/>
	</g>
	<g>
		<path class="st0" d="M442,169.1h-2.5V155h5.6c3,0,4.9,1.7,4.9,4.4c0,1.9-1,3.4-2.7,4l3.1,5.7h-2.9l-2.8-5.3H442V169.1z M442,161.8
			h2.8c1.6,0,2.5-0.9,2.5-2.4c0-1.5-1-2.4-2.6-2.4H442V161.8z"/>
		<path class="st0" d="M460.8,166c-0.3,2-2.1,3.3-4.6,3.3c-3.1,0-5-2-5-5.3c0-3.3,1.9-5.4,4.9-5.4c2.9,0,4.8,2,4.8,5.2v0.8h-7.2v0.1
			c0,1.7,1,2.8,2.6,2.8c1.1,0,2-0.6,2.3-1.4H460.8z M453.7,162.9h4.8c0-1.5-1-2.5-2.4-2.5C454.8,160.4,453.8,161.4,453.7,162.9z"/>
		<path class="st0" d="M469.6,160.5L469.6,160.5l0-1.8h2.4v13.8h-2.4v-5.2h-0.1c-0.5,1.2-1.7,1.9-3.2,1.9c-2.6,0-4.3-2.1-4.3-5.4
			c0-3.3,1.7-5.3,4.3-5.3C467.9,158.5,469,159.3,469.6,160.5z M469.6,163.9c0-2-1-3.3-2.6-3.3c-1.6,0-2.5,1.3-2.5,3.3s1,3.3,2.5,3.3
			C468.6,167.2,469.6,165.9,469.6,163.9z"/>
		<path class="st0" d="M483.2,169.1h-2.3v-1.8h0c-0.5,1.3-1.6,2-3.2,2c-2.2,0-3.7-1.5-3.7-3.8v-6.7h2.4v6.2c0,1.5,0.7,2.3,2.1,2.3
			c1.4,0,2.3-1,2.3-2.5v-6h2.4V169.1z"/>
		<path class="st0" d="M485.1,155.8c0-0.7,0.6-1.3,1.3-1.3c0.8,0,1.3,0.6,1.3,1.3c0,0.7-0.6,1.3-1.3,1.3
			C485.7,157.2,485.1,156.6,485.1,155.8z M485.3,158.7h2.4v10.4h-2.4V158.7z"/>
		<path class="st0" d="M489.7,158.7h2.3v1.8h0c0.4-1.3,1.3-2,2.5-2c0.3,0,0.6,0.1,0.8,0.1v2.2c-0.2-0.1-0.6-0.1-1-0.1
			c-1.4,0-2.2,0.9-2.2,2.3v6h-2.4V158.7z"/>
		<path class="st0" d="M505.4,166c-0.3,2-2.1,3.3-4.6,3.3c-3.1,0-5-2-5-5.3c0-3.3,1.9-5.4,4.9-5.4c2.9,0,4.8,2,4.8,5.2v0.8h-7.2v0.1
			c0,1.7,1,2.8,2.6,2.8c1.1,0,2-0.6,2.3-1.4H505.4z M498.2,162.9h4.8c0-1.5-1-2.5-2.4-2.5C499.3,160.4,498.3,161.4,498.2,162.9z"/>
		<path class="st0" d="M511,158.5c2.5,0,4.1,1.4,4.2,3.3h-2.3c-0.1-0.9-0.8-1.5-1.9-1.5c-1.1,0-1.8,0.5-1.8,1.3c0,0.6,0.4,1,1.5,1.2
			l1.7,0.4c2.1,0.5,3,1.3,3,2.8c0,2-1.8,3.3-4.3,3.3c-2.7,0-4.3-1.3-4.5-3.3h2.4c0.2,1,0.9,1.5,2.1,1.5c1.2,0,1.9-0.5,1.9-1.3
			c0-0.6-0.4-1-1.5-1.2l-1.7-0.4c-2-0.4-3-1.4-3-2.9C506.8,159.8,508.5,158.5,511,158.5z"/>
		<path class="st0" d="M520.5,166.1c0-1.8,1.4-2.9,3.9-3.1l2.7-0.2v-0.7c0-1.1-0.7-1.7-1.9-1.7c-1.2,0-1.9,0.6-2,1.4H521
			c0.1-1.9,1.8-3.3,4.4-3.3c2.6,0,4.2,1.4,4.2,3.4v7.1h-2.3v-1.7h0c-0.6,1.1-1.9,1.8-3.2,1.8C522,169.2,520.5,168,520.5,166.1z
			 M527.2,165.2v-0.8l-2.4,0.1c-1.2,0.1-1.8,0.6-1.8,1.4c0,0.8,0.7,1.4,1.8,1.4C526.1,167.4,527.2,166.5,527.2,165.2z"/>
		<path class="st0" d="M531.1,163.9c0-3.3,1.7-5.3,4.3-5.3c1.5,0,2.7,0.8,3.2,1.9h0.1V155h2.4v14.1h-2.4v-1.8h0
			c-0.6,1.2-1.8,1.9-3.3,1.9C532.8,169.2,531.1,167.2,531.1,163.9z M533.6,163.9c0,2.1,1,3.3,2.5,3.3c1.5,0,2.5-1.3,2.5-3.3
			c0-2-1-3.3-2.5-3.3C534.6,160.5,533.6,161.8,533.6,163.9z"/>
		<path class="st0" d="M542.7,163.9c0-3.3,1.7-5.3,4.3-5.3c1.5,0,2.7,0.8,3.2,1.9h0.1V155h2.4v14.1h-2.4v-1.8h0
			c-0.6,1.2-1.8,1.9-3.3,1.9C544.4,169.2,542.7,167.2,542.7,163.9z M545.2,163.9c0,2.1,1,3.3,2.5,3.3c1.5,0,2.5-1.3,2.5-3.3
			c0-2-1-3.3-2.5-3.3C546.2,160.5,545.2,161.8,545.2,163.9z"/>
		<path class="st0" d="M554.7,155.8c0-0.7,0.6-1.3,1.3-1.3c0.8,0,1.3,0.6,1.3,1.3c0,0.7-0.6,1.3-1.3,1.3
			C555.3,157.2,554.7,156.6,554.7,155.8z M554.8,158.7h2.4v10.4h-2.4V158.7z"/>
		<path class="st0" d="M562.4,156.3v2.4h2v1.9h-2v5.4c0,0.8,0.4,1.2,1.2,1.2c0.2,0,0.5,0,0.7,0v1.9c-0.3,0.1-0.7,0.1-1.3,0.1
			c-2.2,0-3.1-0.8-3.1-2.8v-5.7h-1.5v-1.9h1.5v-2.4H562.4z"/>
		<path class="st0" d="M565.9,155.8c0-0.7,0.6-1.3,1.3-1.3c0.8,0,1.3,0.6,1.3,1.3c0,0.7-0.6,1.3-1.3,1.3
			C566.5,157.2,565.9,156.6,565.9,155.8z M566.1,158.7h2.4v10.4h-2.4V158.7z"/>
		<path class="st0" d="M570.1,163.9c0-3.3,2-5.4,5-5.4s5,2,5,5.4c0,3.4-2,5.4-5,5.4S570.1,167.3,570.1,163.9z M577.7,163.9
			c0-2.2-1-3.5-2.5-3.5c-1.5,0-2.5,1.3-2.5,3.5c0,2.2,1,3.5,2.5,3.5S577.7,166.1,577.7,163.9z"/>
		<path class="st0" d="M581.7,158.7h2.3v1.8h0c0.6-1.2,1.7-2,3.3-2c2.3,0,3.6,1.5,3.6,3.9v6.7h-2.4v-6.2c0-1.5-0.7-2.3-2.1-2.3
			c-1.4,0-2.3,1-2.3,2.5v6h-2.4V158.7z"/>
		<path class="st0" d="M592.4,166.1c0-1.8,1.4-2.9,3.9-3.1l2.7-0.2v-0.7c0-1.1-0.7-1.7-1.9-1.7c-1.2,0-1.9,0.6-2,1.4h-2.3
			c0.1-1.9,1.8-3.3,4.4-3.3c2.6,0,4.2,1.4,4.2,3.4v7.1h-2.3v-1.7h0c-0.6,1.1-1.9,1.8-3.2,1.8C593.9,169.2,592.4,168,592.4,166.1z
			 M599.1,165.2v-0.8l-2.4,0.1c-1.2,0.1-1.8,0.6-1.8,1.4c0,0.8,0.7,1.4,1.8,1.4C598,167.4,599.1,166.5,599.1,165.2z"/>
		<path class="st0" d="M603.5,155h2.4v14.1h-2.4V155z"/>
		<path class="st0" d="M616,158.5c2.5,0,4.1,1.4,4.2,3.3h-2.3c-0.1-0.9-0.8-1.5-1.9-1.5c-1.1,0-1.8,0.5-1.8,1.3c0,0.6,0.4,1,1.5,1.2
			l1.7,0.4c2.1,0.5,3,1.3,3,2.8c0,2-1.8,3.3-4.3,3.3c-2.7,0-4.3-1.3-4.5-3.3h2.4c0.2,1,0.9,1.5,2.1,1.5c1.2,0,1.9-0.5,1.9-1.3
			c0-0.6-0.4-1-1.5-1.2l-1.7-0.4c-2-0.4-3-1.4-3-2.9C611.9,159.8,613.5,158.5,616,158.5z"/>
		<path class="st0" d="M622.2,172.9V171c0.1,0,0.6,0,0.7,0c1,0,1.5-0.4,1.8-1.3c0,0,0.2-0.5,0.1-0.6l-3.7-10.4h2.7l2.4,8.3h0
			l2.4-8.3h2.6l-3.8,10.8c-0.9,2.6-2,3.4-4.4,3.4C623,172.9,622.3,172.9,622.2,172.9z"/>
		<path class="st0" d="M636.3,158.5c2.5,0,4.1,1.4,4.2,3.3h-2.3c-0.1-0.9-0.8-1.5-1.9-1.5c-1.1,0-1.8,0.5-1.8,1.3
			c0,0.6,0.4,1,1.5,1.2l1.7,0.4c2.1,0.5,3,1.3,3,2.8c0,2-1.8,3.3-4.3,3.3c-2.7,0-4.3-1.3-4.5-3.3h2.4c0.2,1,0.9,1.5,2.1,1.5
			c1.2,0,1.9-0.5,1.9-1.3c0-0.6-0.4-1-1.5-1.2l-1.7-0.4c-2-0.4-3-1.4-3-2.9C632.2,159.8,633.8,158.5,636.3,158.5z"/>
		<path class="st0" d="M645.4,156.3v2.4h2v1.9h-2v5.4c0,0.8,0.4,1.2,1.2,1.2c0.2,0,0.5,0,0.7,0v1.9c-0.3,0.1-0.7,0.1-1.3,0.1
			c-2.2,0-3.1-0.8-3.1-2.8v-5.7h-1.5v-1.9h1.5v-2.4H645.4z"/>
		<path class="st0" d="M657.9,166c-0.3,2-2.1,3.3-4.6,3.3c-3.1,0-5-2-5-5.3c0-3.3,1.9-5.4,4.9-5.4c2.9,0,4.8,2,4.8,5.2v0.8h-7.2v0.1
			c0,1.7,1,2.8,2.6,2.8c1.1,0,2-0.6,2.3-1.4H657.9z M650.8,162.9h4.8c0-1.5-1-2.5-2.4-2.5C651.9,160.4,650.9,161.4,650.8,162.9z"/>
		<path class="st0" d="M659.6,158.7h2.3v1.8h0c0.4-1.2,1.5-2,2.9-2c1.5,0,2.5,0.8,2.9,2.1h0.1c0.5-1.3,1.7-2.1,3.2-2.1
			c2,0,3.4,1.4,3.4,3.4v7.1h-2.4v-6.5c0-1.3-0.7-2-1.9-2c-1.2,0-2,0.9-2,2.1v6.4h-2.4v-6.6c0-1.2-0.7-1.9-1.8-1.9
			c-1.2,0-2,0.9-2,2.2v6.3h-2.4V158.7z"/>
	</g>
	<g>
		<path class="st0" d="M489.2,259.1h-2.5V245h5.6c3,0,4.9,1.7,4.9,4.4c0,1.9-1,3.4-2.7,4l3.1,5.7h-2.9l-2.8-5.3h-2.7V259.1z
			 M489.2,251.8h2.8c1.6,0,2.5-0.9,2.5-2.4c0-1.5-1-2.4-2.6-2.4h-2.8V251.8z"/>
		<path class="st0" d="M508,256c-0.3,2-2.1,3.3-4.6,3.3c-3.1,0-5-2-5-5.3c0-3.3,1.9-5.4,4.9-5.4c2.9,0,4.8,2,4.8,5.2v0.8h-7.2v0.1
			c0,1.7,1,2.8,2.6,2.8c1.1,0,2-0.6,2.3-1.4H508z M500.9,252.9h4.8c0-1.5-1-2.5-2.4-2.5C502,250.4,501,251.4,500.9,252.9z"/>
		<path class="st0" d="M516.8,250.5L516.8,250.5l0-1.8h2.4v13.8h-2.4v-5.2h-0.1c-0.5,1.2-1.7,1.9-3.2,1.9c-2.6,0-4.3-2.1-4.3-5.4
			c0-3.3,1.7-5.3,4.3-5.3C515.1,248.5,516.2,249.3,516.8,250.5z M516.8,253.9c0-2-1-3.3-2.6-3.3c-1.6,0-2.5,1.3-2.5,3.3
			s1,3.3,2.5,3.3C515.8,257.2,516.8,255.9,516.8,253.9z"/>
		<path class="st0" d="M530.4,259.1h-2.3v-1.8h0c-0.5,1.3-1.6,2-3.2,2c-2.2,0-3.7-1.5-3.7-3.8v-6.7h2.4v6.2c0,1.5,0.7,2.3,2.1,2.3
			c1.4,0,2.3-1,2.3-2.5v-6h2.4V259.1z"/>
		<path class="st0" d="M532.3,245.8c0-0.7,0.6-1.3,1.3-1.3c0.8,0,1.3,0.6,1.3,1.3c0,0.7-0.6,1.3-1.3,1.3
			C532.9,247.2,532.3,246.6,532.3,245.8z M532.4,248.7h2.4v10.4h-2.4V248.7z"/>
		<path class="st0" d="M536.9,248.7h2.3v1.8h0c0.4-1.3,1.3-2,2.5-2c0.3,0,0.6,0.1,0.8,0.1v2.2c-0.2-0.1-0.6-0.1-1-0.1
			c-1.4,0-2.2,0.9-2.2,2.3v6h-2.4V248.7z"/>
		<path class="st0" d="M552.5,256c-0.3,2-2.1,3.3-4.6,3.3c-3.1,0-5-2-5-5.3c0-3.3,1.9-5.4,4.9-5.4c2.9,0,4.8,2,4.8,5.2v0.8h-7.2v0.1
			c0,1.7,1,2.8,2.6,2.8c1.1,0,2-0.6,2.3-1.4H552.5z M545.4,252.9h4.8c0-1.5-1-2.5-2.4-2.5C546.5,250.4,545.5,251.4,545.4,252.9z"/>
		<path class="st0" d="M558.2,248.5c2.5,0,4.1,1.4,4.2,3.3h-2.3c-0.1-0.9-0.8-1.5-1.9-1.5c-1.1,0-1.8,0.5-1.8,1.3
			c0,0.6,0.4,1,1.5,1.2l1.7,0.4c2.1,0.5,3,1.3,3,2.8c0,2-1.8,3.3-4.3,3.3c-2.7,0-4.3-1.3-4.5-3.3h2.4c0.2,1,0.9,1.5,2.1,1.5
			c1.2,0,1.9-0.5,1.9-1.3c0-0.6-0.4-1-1.5-1.2l-1.7-0.4c-2-0.4-3-1.4-3-2.9C554,249.8,555.7,248.5,558.2,248.5z"/>
		<path class="st0" d="M575,252.4c-0.2-1.1-1-1.9-2.3-1.9c-1.5,0-2.5,1.3-2.5,3.4c0,2.2,1,3.4,2.5,3.4c1.2,0,2-0.7,2.3-1.9h2.3
			c-0.2,2.3-2,3.8-4.6,3.8c-3,0-5-2-5-5.4c0-3.3,2-5.4,5-5.4c2.7,0,4.4,1.7,4.6,3.9H575z"/>
		<path class="st0" d="M587.8,256c-0.3,2-2.1,3.3-4.6,3.3c-3.1,0-5-2-5-5.3c0-3.3,1.9-5.4,4.9-5.4c2.9,0,4.8,2,4.8,5.2v0.8h-7.2v0.1
			c0,1.7,1,2.8,2.6,2.8c1.1,0,2-0.6,2.3-1.4H587.8z M580.7,252.9h4.8c0-1.5-1-2.5-2.4-2.5C581.8,250.4,580.8,251.4,580.7,252.9z"/>
		<path class="st0" d="M589.5,248.7h2.3v1.8h0c0.4-1.3,1.3-2,2.5-2c0.3,0,0.6,0.1,0.8,0.1v2.2c-0.2-0.1-0.6-0.1-1-0.1
			c-1.4,0-2.2,0.9-2.2,2.3v6h-2.4V248.7z"/>
		<path class="st0" d="M599.5,246.3v2.4h2v1.9h-2v5.4c0,0.8,0.4,1.2,1.2,1.2c0.2,0,0.5,0,0.7,0v1.9c-0.3,0.1-0.7,0.1-1.3,0.1
			c-2.2,0-3.1-0.8-3.1-2.8v-5.7h-1.5v-1.9h1.5v-2.4H599.5z"/>
		<path class="st0" d="M602.5,256.1c0-1.8,1.4-2.9,3.9-3.1l2.7-0.2v-0.7c0-1.1-0.7-1.7-1.9-1.7c-1.2,0-1.9,0.6-2,1.4H603
			c0.1-1.9,1.8-3.3,4.4-3.3c2.6,0,4.2,1.4,4.2,3.4v7.1h-2.3v-1.7h0c-0.6,1.1-1.9,1.8-3.2,1.8C604,259.2,602.5,258,602.5,256.1z
			 M609.2,255.2v-0.8l-2.4,0.1c-1.2,0.1-1.8,0.6-1.8,1.4c0,0.8,0.7,1.4,1.8,1.4C608.1,257.4,609.2,256.5,609.2,255.2z"/>
		<path class="st0" d="M613.5,245.8c0-0.7,0.6-1.3,1.3-1.3c0.8,0,1.3,0.6,1.3,1.3c0,0.7-0.6,1.3-1.3,1.3
			C614.1,247.2,613.5,246.6,613.5,245.8z M613.6,248.7h2.4v10.4h-2.4V248.7z"/>
		<path class="st0" d="M618.1,248.7h2.3v1.8h0c0.6-1.2,1.7-2,3.3-2c2.3,0,3.6,1.5,3.6,3.9v6.7h-2.4v-6.2c0-1.5-0.7-2.3-2.1-2.3
			c-1.4,0-2.3,1-2.3,2.5v6h-2.4V248.7z"/>
		<path class="st0" d="M470.7,277.9c0,3.3-1.7,5.3-4.3,5.3c-1.5,0-2.7-0.7-3.2-1.9h0v5.1h-2.4v-13.8h2.4v1.8h0c0.6-1.2,1.8-2,3.3-2
			C469.1,272.5,470.7,274.6,470.7,277.9z M468.3,277.9c0-2-1-3.3-2.5-3.3c-1.5,0-2.5,1.3-2.5,3.3c0,2,1,3.3,2.5,3.3
			C467.3,281.2,468.3,279.9,468.3,277.9z"/>
		<path class="st0" d="M472.3,272.7h2.3v1.8h0c0.4-1.3,1.3-2,2.5-2c0.3,0,0.6,0.1,0.8,0.1v2.2c-0.2-0.1-0.6-0.1-1-0.1
			c-1.4,0-2.2,0.9-2.2,2.3v6h-2.4V272.7z"/>
		<path class="st0" d="M478.4,277.9c0-3.3,2-5.4,5-5.4s5,2,5,5.4c0,3.4-2,5.4-5,5.4S478.4,281.3,478.4,277.9z M485.9,277.9
			c0-2.2-1-3.5-2.5-3.5c-1.5,0-2.5,1.3-2.5,3.5c0,2.2,1,3.5,2.5,3.5S485.9,280.1,485.9,277.9z"/>
		<path class="st0" d="M496.8,276.4c-0.2-1.1-1-1.9-2.3-1.9c-1.5,0-2.5,1.3-2.5,3.4c0,2.2,1,3.4,2.5,3.4c1.2,0,2-0.7,2.3-1.9h2.3
			c-0.2,2.3-2,3.8-4.6,3.8c-3,0-5-2-5-5.4c0-3.3,2-5.4,5-5.4c2.7,0,4.4,1.7,4.6,3.9H496.8z"/>
		<path class="st0" d="M509.7,280c-0.3,2-2.1,3.3-4.6,3.3c-3.1,0-5-2-5-5.3c0-3.3,1.9-5.4,4.9-5.4c2.9,0,4.8,2,4.8,5.2v0.8h-7.2v0.1
			c0,1.7,1,2.8,2.6,2.8c1.1,0,2-0.6,2.3-1.4H509.7z M502.5,276.9h4.8c0-1.5-1-2.5-2.4-2.5C503.6,274.4,502.6,275.4,502.5,276.9z"/>
		<path class="st0" d="M515.3,272.5c2.5,0,4.1,1.4,4.2,3.3h-2.3c-0.1-0.9-0.8-1.5-1.9-1.5c-1.1,0-1.8,0.5-1.8,1.3
			c0,0.6,0.4,1,1.5,1.2l1.7,0.4c2.1,0.5,3,1.3,3,2.8c0,2-1.8,3.3-4.3,3.3c-2.7,0-4.3-1.3-4.5-3.3h2.4c0.2,1,0.9,1.5,2.1,1.5
			c1.2,0,1.9-0.5,1.9-1.3c0-0.6-0.4-1-1.5-1.2l-1.7-0.4c-2-0.4-3-1.4-3-2.9C511.1,273.8,512.8,272.5,515.3,272.5z"/>
		<path class="st0" d="M525.2,272.5c2.5,0,4.1,1.4,4.2,3.3h-2.3c-0.1-0.9-0.8-1.5-1.9-1.5c-1.1,0-1.8,0.5-1.8,1.3
			c0,0.6,0.4,1,1.5,1.2l1.7,0.4c2.1,0.5,3,1.3,3,2.8c0,2-1.8,3.3-4.3,3.3c-2.7,0-4.3-1.3-4.5-3.3h2.4c0.2,1,0.9,1.5,2.1,1.5
			c1.2,0,1.9-0.5,1.9-1.3c0-0.6-0.4-1-1.5-1.2l-1.7-0.4c-2-0.4-3-1.4-3-2.9C521.1,273.8,522.7,272.5,525.2,272.5z"/>
		<path class="st0" d="M531.1,269.8c0-0.7,0.6-1.3,1.3-1.3c0.8,0,1.3,0.6,1.3,1.3c0,0.7-0.6,1.3-1.3,1.3
			C531.7,271.2,531.1,270.6,531.1,269.8z M531.2,272.7h2.4v10.4h-2.4V272.7z"/>
		<path class="st0" d="M535.7,272.7h2.3v1.8h0c0.6-1.2,1.7-2,3.3-2c2.3,0,3.6,1.5,3.6,3.9v6.7h-2.4v-6.2c0-1.5-0.7-2.3-2.1-2.3
			c-1.4,0-2.3,1-2.3,2.5v6h-2.4V272.7z"/>
		<path class="st0" d="M546.8,283.9h2.4c0.3,0.8,1.2,1.3,2.3,1.3c1.6,0,2.5-0.9,2.5-2.2v-1.7h-0.1c-0.5,1.1-1.8,1.9-3.2,1.9
			c-2.6,0-4.3-2-4.3-5.2c0-3.3,1.7-5.3,4.3-5.3c1.5,0,2.7,0.8,3.3,2h0v-1.8h2.4v10.2c0,2.5-2,4.1-5,4.1
			C548.9,287,547,285.7,546.8,283.9z M554,277.9c0-2-1-3.3-2.6-3.3c-1.5,0-2.5,1.3-2.5,3.3c0,2.1,1,3.3,2.5,3.3
			C553,281.1,554,279.9,554,277.9z"/>
		<path class="st0" d="M569.2,276.4c-0.2-1.1-1-1.9-2.3-1.9c-1.5,0-2.5,1.3-2.5,3.4c0,2.2,1,3.4,2.5,3.4c1.2,0,2-0.7,2.3-1.9h2.3
			c-0.2,2.3-2,3.8-4.6,3.8c-3,0-5-2-5-5.4c0-3.3,2-5.4,5-5.4c2.7,0,4.4,1.7,4.6,3.9H569.2z"/>
		<path class="st0" d="M572.6,277.9c0-3.3,2-5.4,5-5.4s5,2,5,5.4c0,3.4-2,5.4-5,5.4S572.6,281.3,572.6,277.9z M580.1,277.9
			c0-2.2-1-3.5-2.5-3.5c-1.5,0-2.5,1.3-2.5,3.5c0,2.2,1,3.5,2.5,3.5S580.1,280.1,580.1,277.9z"/>
		<path class="st0" d="M584.1,272.7h2.3v1.8h0c0.6-1.2,1.7-2,3.3-2c2.3,0,3.6,1.5,3.6,3.9v6.7h-2.4v-6.2c0-1.5-0.7-2.3-2.1-2.3
			c-1.4,0-2.3,1-2.3,2.5v6h-2.4V272.7z"/>
		<path class="st0" d="M594.9,277.9c0-3.3,1.7-5.3,4.3-5.3c1.5,0,2.7,0.8,3.2,1.9h0.1V269h2.4v14.1h-2.4v-1.8h0
			c-0.6,1.2-1.8,1.9-3.3,1.9C596.6,283.2,594.9,281.2,594.9,277.9z M597.4,277.9c0,2.1,1,3.3,2.5,3.3c1.5,0,2.5-1.3,2.5-3.3
			c0-2-1-3.3-2.5-3.3C598.3,274.5,597.4,275.8,597.4,277.9z"/>
		<path class="st0" d="M606.8,269.8c0-0.7,0.6-1.3,1.3-1.3c0.8,0,1.3,0.6,1.3,1.3c0,0.7-0.6,1.3-1.3,1.3
			C607.4,271.2,606.8,270.6,606.8,269.8z M607,272.7h2.4v10.4H607V272.7z"/>
		<path class="st0" d="M614.5,270.3v2.4h2v1.9h-2v5.4c0,0.8,0.4,1.2,1.2,1.2c0.2,0,0.5,0,0.7,0v1.9c-0.3,0.1-0.7,0.1-1.3,0.1
			c-2.2,0-3.1-0.8-3.1-2.8v-5.7h-1.5v-1.9h1.5v-2.4H614.5z"/>
		<path class="st0" d="M618.1,269.8c0-0.7,0.6-1.3,1.3-1.3c0.8,0,1.3,0.6,1.3,1.3c0,0.7-0.6,1.3-1.3,1.3
			C618.7,271.2,618.1,270.6,618.1,269.8z M618.2,272.7h2.4v10.4h-2.4V272.7z"/>
		<path class="st0" d="M622.3,277.9c0-3.3,2-5.4,5-5.4s5,2,5,5.4c0,3.4-2,5.4-5,5.4S622.3,281.3,622.3,277.9z M629.8,277.9
			c0-2.2-1-3.5-2.5-3.5c-1.5,0-2.5,1.3-2.5,3.5c0,2.2,1,3.5,2.5,3.5S629.8,280.1,629.8,277.9z"/>
		<path class="st0" d="M633.8,272.7h2.3v1.8h0c0.6-1.2,1.7-2,3.3-2c2.3,0,3.6,1.5,3.6,3.9v6.7h-2.4v-6.2c0-1.5-0.7-2.3-2.1-2.3
			c-1.4,0-2.3,1-2.3,2.5v6h-2.4V272.7z"/>
		<path class="st0" d="M649,272.5c2.5,0,4.1,1.4,4.2,3.3h-2.3c-0.1-0.9-0.8-1.5-1.9-1.5c-1.1,0-1.8,0.5-1.8,1.3c0,0.6,0.4,1,1.5,1.2
			l1.7,0.4c2.1,0.5,3,1.3,3,2.8c0,2-1.8,3.3-4.3,3.3c-2.7,0-4.3-1.3-4.5-3.3h2.4c0.2,1,0.9,1.5,2.1,1.5c1.2,0,1.9-0.5,1.9-1.3
			c0-0.6-0.4-1-1.5-1.2l-1.7-0.4c-2-0.4-3-1.4-3-2.9C644.8,273.8,646.5,272.5,649,272.5z"/>
	</g>
	<g>
		<path class="st0" d="M548.5,373.1v-6.1h-6.9v6.1h-2.5V359h2.5v5.9h6.9V359h2.5v14.1H548.5z"/>
		<path class="st0" d="M553.2,359.8c0-0.7,0.6-1.3,1.3-1.3c0.8,0,1.3,0.6,1.3,1.3c0,0.7-0.6,1.3-1.3,1.3
			C553.8,361.1,553.2,360.5,553.2,359.8z M553.3,362.7h2.4v10.4h-2.4V362.7z"/>
		<path class="st0" d="M557.7,373.8h2.4c0.3,0.8,1.2,1.3,2.3,1.3c1.6,0,2.5-0.9,2.5-2.2v-1.7h-0.1c-0.5,1.1-1.8,1.9-3.2,1.9
			c-2.6,0-4.3-2-4.3-5.2c0-3.3,1.7-5.3,4.3-5.3c1.5,0,2.7,0.8,3.3,2h0v-1.8h2.4v10.2c0,2.5-2,4.1-5,4.1
			C559.8,377,558,375.7,557.7,373.8z M564.9,367.9c0-2-1-3.3-2.6-3.3c-1.5,0-2.5,1.3-2.5,3.3c0,2.1,1,3.3,2.5,3.3
			C563.9,371.1,564.9,369.9,564.9,367.9z"/>
		<path class="st0" d="M569.4,359h2.4v5.5h0c0.6-1.3,1.7-2,3.3-2c2.3,0,3.6,1.5,3.6,3.9v6.7h-2.4v-6.2c0-1.4-0.7-2.3-2.1-2.3
			c-1.5,0-2.4,1-2.4,2.5v5.9h-2.4V359z"/>
	</g>
	<g>
		<path class="st0" d="M850.8,144c2.8,0,4.7,1.9,4.7,4.7s-2,4.7-4.9,4.7h-2.9v4.7h-2.5V144H850.8z M847.9,151.4h2.3
			c1.8,0,2.9-1,2.9-2.7c0-1.7-1-2.7-2.9-2.7h-2.3V151.4z"/>
		<path class="st0" d="M856.4,152.9c0-3.3,2-5.4,5-5.4s5,2,5,5.4c0,3.4-2,5.4-5,5.4S856.4,156.2,856.4,152.9z M863.9,152.9
			c0-2.2-1-3.5-2.5-3.5c-1.5,0-2.5,1.3-2.5,3.5c0,2.2,1,3.5,2.5,3.5S863.9,155.1,863.9,152.9z"/>
		<path class="st0" d="M871.9,147.5c2.5,0,4.1,1.4,4.2,3.3h-2.3c-0.1-0.9-0.8-1.5-1.9-1.5c-1.1,0-1.8,0.5-1.8,1.3
			c0,0.6,0.4,1,1.5,1.2l1.7,0.4c2.1,0.5,3,1.3,3,2.8c0,2-1.8,3.3-4.3,3.3c-2.7,0-4.3-1.3-4.5-3.3h2.4c0.2,1,0.9,1.5,2.1,1.5
			c1.2,0,1.9-0.5,1.9-1.3c0-0.6-0.4-1-1.5-1.2l-1.7-0.4c-2-0.4-3-1.4-3-2.9C867.7,148.8,869.4,147.5,871.9,147.5z"/>
		<path class="st0" d="M881.8,147.5c2.5,0,4.1,1.4,4.2,3.3h-2.3c-0.1-0.9-0.8-1.5-1.9-1.5c-1.1,0-1.8,0.5-1.8,1.3
			c0,0.6,0.4,1,1.5,1.2l1.7,0.4c2.1,0.5,3,1.3,3,2.8c0,2-1.8,3.3-4.3,3.3c-2.7,0-4.3-1.3-4.5-3.3h2.4c0.2,1,0.9,1.5,2.1,1.5
			c1.2,0,1.9-0.5,1.9-1.3c0-0.6-0.4-1-1.5-1.2l-1.7-0.4c-2-0.4-3-1.4-3-2.9C877.7,148.8,879.3,147.5,881.8,147.5z"/>
		<path class="st0" d="M887.7,144.8c0-0.7,0.6-1.3,1.3-1.3c0.8,0,1.3,0.6,1.3,1.3c0,0.7-0.6,1.3-1.3,1.3
			C888.3,146.1,887.7,145.5,887.7,144.8z M887.9,147.7h2.4v10.4h-2.4V147.7z"/>
		<path class="st0" d="M894.8,156.3L894.8,156.3l0,1.8h-2.4V144h2.4v5.5h0.1c0.6-1.2,1.8-2,3.2-2c2.6,0,4.3,2,4.3,5.4
			s-1.7,5.3-4.3,5.3C896.6,158.2,895.4,157.5,894.8,156.3z M894.8,152.9c0,2,1,3.3,2.5,3.3c1.6,0,2.5-1.3,2.5-3.3
			c0-2.1-1-3.3-2.5-3.3C895.9,149.5,894.8,150.9,894.8,152.9z"/>
		<path class="st0" d="M904,144h2.4v14.1H904V144z"/>
		<path class="st0" d="M917.7,155c-0.3,2-2.1,3.3-4.6,3.3c-3.1,0-5-2-5-5.3c0-3.3,1.9-5.4,4.9-5.4c2.9,0,4.8,2,4.8,5.2v0.8h-7.2v0.1
			c0,1.7,1,2.8,2.6,2.8c1.1,0,2-0.6,2.3-1.4H917.7z M910.5,151.9h4.8c0-1.5-1-2.5-2.4-2.5C911.6,149.4,910.6,150.4,910.5,151.9z"/>
		<path class="st0" d="M925.8,158.5c0,2.1-1.2,3.1-3.5,3.1c-0.1,0-0.5,0-0.6,0v-1.9c0,0,0.3,0,0.3,0c1,0,1.4-0.4,1.4-1.3v-10.8h2.4
			V158.5z M923.3,144.8c0-0.7,0.6-1.3,1.3-1.3c0.8,0,1.3,0.6,1.3,1.3c0,0.7-0.6,1.3-1.3,1.3C923.9,146.1,923.3,145.5,923.3,144.8z"
			/>
		<path class="st0" d="M937,158.1h-2.3v-1.8h0c-0.5,1.3-1.6,2-3.2,2c-2.2,0-3.7-1.5-3.7-3.8v-6.7h2.4v6.2c0,1.5,0.7,2.3,2.1,2.3
			c1.4,0,2.3-1,2.3-2.5v-6h2.4V158.1z"/>
		<path class="st0" d="M943,147.5c2.5,0,4.1,1.4,4.2,3.3h-2.3c-0.1-0.9-0.8-1.5-1.9-1.5c-1.1,0-1.8,0.5-1.8,1.3c0,0.6,0.4,1,1.5,1.2
			l1.7,0.4c2.1,0.5,3,1.3,3,2.8c0,2-1.8,3.3-4.3,3.3c-2.7,0-4.3-1.3-4.5-3.3h2.4c0.2,1,0.9,1.5,2.1,1.5c1.2,0,1.9-0.5,1.9-1.3
			c0-0.6-0.4-1-1.5-1.2l-1.7-0.4c-2-0.4-3-1.4-3-2.9C938.8,148.8,940.5,147.5,943,147.5z"/>
		<path class="st0" d="M952.1,145.3v2.4h2v1.9h-2v5.4c0,0.8,0.4,1.2,1.2,1.2c0.2,0,0.5,0,0.7,0v1.9c-0.3,0.1-0.7,0.1-1.3,0.1
			c-2.2,0-3.1-0.8-3.1-2.8v-5.7h-1.5v-1.9h1.5v-2.4H952.1z"/>
		<path class="st0" d="M970.9,158.1h-2.6l-2-7.6h0l-2,7.6h-2.5l-2.8-10.4h2.4l1.7,7.9h0l2-7.9h2.3l2,7.9h0.1l1.7-7.9h2.4
			L970.9,158.1z"/>
		<path class="st0" d="M974.8,144.8c0-0.7,0.6-1.3,1.3-1.3c0.8,0,1.3,0.6,1.3,1.3c0,0.7-0.6,1.3-1.3,1.3
			C975.4,146.1,974.8,145.5,974.8,144.8z M975,147.7h2.4v10.4H975V147.7z"/>
		<path class="st0" d="M982.6,145.3v2.4h2v1.9h-2v5.4c0,0.8,0.4,1.2,1.2,1.2c0.2,0,0.5,0,0.7,0v1.9c-0.3,0.1-0.7,0.1-1.3,0.1
			c-2.2,0-3.1-0.8-3.1-2.8v-5.7h-1.5v-1.9h1.5v-2.4H982.6z"/>
		<path class="st0" d="M986.2,144h2.4v5.5h0c0.6-1.3,1.7-2,3.3-2c2.3,0,3.6,1.5,3.6,3.9v6.7h-2.4v-6.2c0-1.4-0.7-2.3-2.1-2.3
			c-1.5,0-2.4,1-2.4,2.5v5.9h-2.4V144z"/>
		<path class="st0" d="M824.2,180.3L824.2,180.3l0,1.8h-2.4V168h2.4v5.5h0.1c0.6-1.2,1.8-2,3.2-2c2.6,0,4.3,2,4.3,5.4
			s-1.7,5.3-4.3,5.3C825.9,182.2,824.8,181.5,824.2,180.3z M824.1,176.9c0,2,1,3.3,2.5,3.3c1.6,0,2.5-1.3,2.5-3.3
			c0-2.1-1-3.3-2.5-3.3C825.2,173.5,824.1,174.9,824.1,176.9z"/>
		<path class="st0" d="M833.3,168h2.4v14.1h-2.4V168z"/>
		<path class="st0" d="M837.4,176.9c0-3.3,2-5.4,5-5.4s5,2,5,5.4c0,3.4-2,5.4-5,5.4S837.4,180.2,837.4,176.9z M845,176.9
			c0-2.2-1-3.5-2.5-3.5c-1.5,0-2.5,1.3-2.5,3.5c0,2.2,1,3.5,2.5,3.5S845,179.1,845,176.9z"/>
		<path class="st0" d="M855.8,175.4c-0.2-1.1-1-1.9-2.3-1.9c-1.5,0-2.5,1.3-2.5,3.4c0,2.2,1,3.4,2.5,3.4c1.2,0,2-0.7,2.3-1.9h2.3
			c-0.2,2.3-2,3.8-4.6,3.8c-3,0-5-2-5-5.4c0-3.3,2-5.4,5-5.4c2.7,0,4.4,1.7,4.6,3.9H855.8z"/>
		<path class="st0" d="M866,171.7h2.8l-4.1,4.5l4.3,5.9h-2.8l-3.3-4.4l-0.8,0.8v3.6h-2.4V168h2.4v8.1h0L866,171.7z"/>
		<path class="st0" d="M876.3,175.4c-0.2-1.1-1-1.9-2.3-1.9c-1.5,0-2.5,1.3-2.5,3.4c0,2.2,1,3.4,2.5,3.4c1.2,0,2-0.7,2.3-1.9h2.3
			c-0.2,2.3-2,3.8-4.6,3.8c-3,0-5-2-5-5.4c0-3.3,2-5.4,5-5.4c2.7,0,4.4,1.7,4.6,3.9H876.3z"/>
		<path class="st0" d="M880.1,168h2.4v5.5h0c0.6-1.3,1.7-2,3.3-2c2.3,0,3.6,1.5,3.6,3.9v6.7H887v-6.2c0-1.4-0.7-2.3-2.1-2.3
			c-1.5,0-2.4,1-2.4,2.5v5.9h-2.4V168z"/>
		<path class="st0" d="M891,179.1c0-1.8,1.4-2.9,3.9-3.1l2.7-0.2v-0.7c0-1.1-0.7-1.7-1.9-1.7c-1.2,0-1.9,0.6-2,1.4h-2.3
			c0.1-1.9,1.8-3.3,4.4-3.3c2.6,0,4.2,1.4,4.2,3.4v7.1h-2.3v-1.7h0c-0.6,1.1-1.9,1.8-3.2,1.8C892.4,182.2,891,181,891,179.1z
			 M897.7,178.2v-0.8l-2.4,0.1c-1.2,0.1-1.8,0.6-1.8,1.4c0,0.8,0.7,1.4,1.8,1.4C896.6,180.4,897.7,179.5,897.7,178.2z"/>
		<path class="st0" d="M901.9,168.8c0-0.7,0.6-1.3,1.3-1.3c0.8,0,1.3,0.6,1.3,1.3c0,0.7-0.6,1.3-1.3,1.3
			C902.5,170.1,901.9,169.5,901.9,168.8z M902.1,171.7h2.4v10.4h-2.4V171.7z"/>
		<path class="st0" d="M906.5,171.7h2.3v1.8h0c0.6-1.2,1.7-2,3.3-2c2.3,0,3.6,1.5,3.6,3.9v6.7h-2.4v-6.2c0-1.5-0.7-2.3-2.1-2.3
			c-1.4,0-2.3,1-2.3,2.5v6h-2.4V171.7z"/>
		<path class="st0" d="M924.8,169.3v2.4h2v1.9h-2v5.4c0,0.8,0.4,1.2,1.2,1.2c0.2,0,0.5,0,0.7,0v1.9c-0.3,0.1-0.7,0.1-1.3,0.1
			c-2.2,0-3.1-0.8-3.1-2.8v-5.7h-1.5v-1.9h1.5v-2.4H924.8z"/>
		<path class="st0" d="M937.4,179c-0.3,2-2.1,3.3-4.6,3.3c-3.1,0-5-2-5-5.3c0-3.3,1.9-5.4,4.9-5.4c2.9,0,4.8,2,4.8,5.2v0.8h-7.2v0.1
			c0,1.7,1,2.8,2.6,2.8c1.1,0,2-0.6,2.3-1.4H937.4z M930.2,175.9h4.8c0-1.5-1-2.5-2.4-2.5C931.3,173.4,930.3,174.4,930.2,175.9z"/>
		<path class="st0" d="M945.8,175.4c-0.2-1.1-1-1.9-2.3-1.9c-1.5,0-2.5,1.3-2.5,3.4c0,2.2,1,3.4,2.5,3.4c1.2,0,2-0.7,2.3-1.9h2.3
			c-0.2,2.3-2,3.8-4.6,3.8c-3,0-5-2-5-5.4c0-3.3,2-5.4,5-5.4c2.7,0,4.4,1.7,4.6,3.9H945.8z"/>
		<path class="st0" d="M949.7,168h2.4v5.5h0c0.6-1.3,1.7-2,3.3-2c2.3,0,3.6,1.5,3.6,3.9v6.7h-2.4v-6.2c0-1.4-0.7-2.3-2.1-2.3
			c-1.5,0-2.4,1-2.4,2.5v5.9h-2.4V168z"/>
		<path class="st0" d="M960.9,171.7h2.3v1.8h0c0.6-1.2,1.7-2,3.3-2c2.3,0,3.6,1.5,3.6,3.9v6.7h-2.4v-6.2c0-1.5-0.7-2.3-2.1-2.3
			c-1.4,0-2.3,1-2.3,2.5v6h-2.4V171.7z"/>
		<path class="st0" d="M971.7,176.9c0-3.3,2-5.4,5-5.4s5,2,5,5.4c0,3.4-2,5.4-5,5.4S971.7,180.2,971.7,176.9z M979.2,176.9
			c0-2.2-1-3.5-2.5-3.5c-1.5,0-2.5,1.3-2.5,3.5c0,2.2,1,3.5,2.5,3.5S979.2,179.1,979.2,176.9z"/>
		<path class="st0" d="M983.3,168h2.4v14.1h-2.4V168z"/>
		<path class="st0" d="M987.4,176.9c0-3.3,2-5.4,5-5.4s5,2,5,5.4c0,3.4-2,5.4-5,5.4S987.4,180.2,987.4,176.9z M995,176.9
			c0-2.2-1-3.5-2.5-3.5c-1.5,0-2.5,1.3-2.5,3.5c0,2.2,1,3.5,2.5,3.5S995,179.1,995,176.9z"/>
		<path class="st0" d="M998.9,182.8h2.4c0.3,0.8,1.2,1.3,2.3,1.3c1.6,0,2.5-0.9,2.5-2.2v-1.7h-0.1c-0.5,1.1-1.8,1.9-3.2,1.9
			c-2.6,0-4.3-2-4.3-5.2c0-3.3,1.7-5.3,4.3-5.3c1.5,0,2.7,0.8,3.3,2h0v-1.8h2.4v10.2c0,2.5-2,4.1-5,4.1
			C1001,186,999.2,184.7,998.9,182.8z M1006.1,176.9c0-2-1-3.3-2.6-3.3c-1.5,0-2.5,1.3-2.5,3.3c0,2.1,1,3.3,2.5,3.3
			C1005.1,180.1,1006.1,178.9,1006.1,176.9z"/>
		<path class="st0" d="M1010.7,185.9v-1.9c0.1,0,0.6,0,0.7,0c1,0,1.5-0.4,1.8-1.3c0,0,0.2-0.5,0.1-0.6l-3.7-10.4h2.7l2.4,8.3h0
			l2.4-8.3h2.6l-3.8,10.8c-0.9,2.6-2,3.4-4.4,3.4C1011.5,185.9,1010.9,185.9,1010.7,185.9z"/>
	</g>
	<g>
		<path class="st0" d="M838,255.4h-5.2l-1.2,3.6H829l5-14.1h2.8l5,14.1h-2.7L838,255.4z M833.4,253.5h4l-2-6h-0.1L833.4,253.5z"/>
		<path class="st0" d="M853.1,253.9c0,3.3-1.7,5.3-4.3,5.3c-1.5,0-2.7-0.7-3.2-1.9h0v5.1h-2.4v-13.8h2.4v1.8h0c0.6-1.2,1.8-2,3.3-2
			C851.4,248.5,853.1,250.6,853.1,253.9z M850.6,253.9c0-2-1-3.3-2.5-3.3c-1.5,0-2.5,1.3-2.5,3.3c0,2,1,3.3,2.5,3.3
			C849.6,257.2,850.6,255.9,850.6,253.9z"/>
		<path class="st0" d="M864.6,253.9c0,3.3-1.7,5.3-4.3,5.3c-1.5,0-2.7-0.7-3.2-1.9h0v5.1h-2.4v-13.8h2.4v1.8h0c0.6-1.2,1.8-2,3.3-2
			C863,248.5,864.6,250.6,864.6,253.9z M862.1,253.9c0-2-1-3.3-2.5-3.3c-1.5,0-2.5,1.3-2.5,3.3c0,2,1,3.3,2.5,3.3
			C861.2,257.2,862.1,255.9,862.1,253.9z"/>
		<path class="st0" d="M866.2,248.7h2.3v1.8h0c0.4-1.3,1.3-2,2.5-2c0.3,0,0.6,0.1,0.8,0.1v2.2c-0.2-0.1-0.6-0.1-1-0.1
			c-1.4,0-2.2,0.9-2.2,2.3v6h-2.4V248.7z"/>
		<path class="st0" d="M872.2,253.9c0-3.3,2-5.4,5-5.4s5,2,5,5.4c0,3.4-2,5.4-5,5.4S872.2,257.3,872.2,253.9z M879.8,253.9
			c0-2.2-1-3.5-2.5-3.5c-1.5,0-2.5,1.3-2.5,3.5c0,2.2,1,3.5,2.5,3.5S879.8,256.1,879.8,253.9z"/>
		<path class="st0" d="M883.4,256.1c0-1.8,1.4-2.9,3.9-3.1l2.7-0.2v-0.7c0-1.1-0.7-1.7-1.9-1.7c-1.2,0-1.9,0.6-2,1.4h-2.3
			c0.1-1.9,1.8-3.3,4.4-3.3c2.6,0,4.2,1.4,4.2,3.4v7.1h-2.3v-1.7h0c-0.6,1.1-1.9,1.8-3.2,1.8C884.9,259.2,883.4,258,883.4,256.1z
			 M890.1,255.2v-0.8l-2.4,0.1c-1.2,0.1-1.8,0.6-1.8,1.4c0,0.8,0.7,1.4,1.8,1.4C889,257.4,890.1,256.5,890.1,255.2z"/>
		<path class="st0" d="M901.3,252.4c-0.2-1.1-1-1.9-2.3-1.9c-1.5,0-2.5,1.3-2.5,3.4c0,2.2,1,3.4,2.5,3.4c1.2,0,2-0.7,2.3-1.9h2.3
			c-0.2,2.3-2,3.8-4.6,3.8c-3,0-5-2-5-5.4c0-3.3,2-5.4,5-5.4c2.7,0,4.4,1.7,4.6,3.9H901.3z"/>
		<path class="st0" d="M905.1,245h2.4v5.5h0c0.6-1.3,1.7-2,3.3-2c2.3,0,3.6,1.5,3.6,3.9v6.7H912v-6.2c0-1.4-0.7-2.3-2.1-2.3
			c-1.5,0-2.4,1-2.4,2.5v5.9h-2.4V245z"/>
		<path class="st0" d="M925.5,256c-0.3,2-2.1,3.3-4.6,3.3c-3.1,0-5-2-5-5.3c0-3.3,1.9-5.4,4.9-5.4c2.9,0,4.8,2,4.8,5.2v0.8h-7.2v0.1
			c0,1.7,1,2.8,2.6,2.8c1.1,0,2-0.6,2.3-1.4H925.5z M918.4,252.9h4.8c0-1.5-1-2.5-2.4-2.5C919.5,250.4,918.5,251.4,918.4,252.9z"/>
		<path class="st0" d="M926.7,253.9c0-3.3,1.7-5.3,4.3-5.3c1.5,0,2.7,0.8,3.2,1.9h0.1V245h2.4v14.1h-2.4v-1.8h0
			c-0.6,1.2-1.8,1.9-3.3,1.9C928.4,259.2,926.7,257.2,926.7,253.9z M929.2,253.9c0,2.1,1,3.3,2.5,3.3c1.5,0,2.5-1.3,2.5-3.3
			c0-2-1-3.3-2.5-3.3C930.2,250.5,929.2,251.8,929.2,253.9z"/>
		<path class="st0" d="M942.7,245.8c0-0.7,0.6-1.3,1.3-1.3c0.8,0,1.3,0.6,1.3,1.3c0,0.7-0.6,1.3-1.3,1.3
			C943.3,247.2,942.7,246.6,942.7,245.8z M942.8,248.7h2.4v10.4h-2.4V248.7z"/>
		<path class="st0" d="M947.3,248.7h2.3v1.8h0c0.6-1.2,1.7-2,3.3-2c2.3,0,3.6,1.5,3.6,3.9v6.7h-2.4v-6.2c0-1.5-0.7-2.3-2.1-2.3
			c-1.4,0-2.3,1-2.3,2.5v6h-2.4V248.7z"/>
		<path class="st0" d="M962.5,248.7h2.3v1.8h0c0.4-1.3,1.3-2,2.5-2c0.3,0,0.6,0.1,0.8,0.1v2.2c-0.2-0.1-0.6-0.1-1-0.1
			c-1.4,0-2.2,0.9-2.2,2.3v6h-2.4V248.7z"/>
		<path class="st0" d="M978.1,256c-0.3,2-2.1,3.3-4.6,3.3c-3.1,0-5-2-5-5.3c0-3.3,1.9-5.4,4.9-5.4c2.9,0,4.8,2,4.8,5.2v0.8h-7.2v0.1
			c0,1.7,1,2.8,2.6,2.8c1.1,0,2-0.6,2.3-1.4H978.1z M971,252.9h4.8c0-1.5-1-2.5-2.4-2.5C972,250.4,971.1,251.4,971,252.9z"/>
		<path class="st0" d="M985.1,259.1h-2.7l-3.7-10.4h2.6l2.4,8.1h0l2.4-8.1h2.5L985.1,259.1z"/>
		<path class="st0" d="M998.7,256c-0.3,2-2.1,3.3-4.6,3.3c-3.1,0-5-2-5-5.3c0-3.3,1.9-5.4,4.9-5.4c2.9,0,4.8,2,4.8,5.2v0.8h-7.2v0.1
			c0,1.7,1,2.8,2.6,2.8c1.1,0,2-0.6,2.3-1.4H998.7z M991.6,252.9h4.8c0-1.5-1-2.5-2.4-2.5C992.7,250.4,991.7,251.4,991.6,252.9z"/>
		<path class="st0" d="M1000.4,248.7h2.3v1.8h0c0.4-1.3,1.3-2,2.5-2c0.3,0,0.6,0.1,0.8,0.1v2.2c-0.2-0.1-0.6-0.1-1-0.1
			c-1.4,0-2.2,0.9-2.2,2.3v6h-2.4V248.7z"/>
		<path class="st0" d="M1011.2,248.5c2.5,0,4.1,1.4,4.2,3.3h-2.3c-0.1-0.9-0.8-1.5-1.9-1.5c-1.1,0-1.8,0.5-1.8,1.3
			c0,0.6,0.4,1,1.5,1.2l1.7,0.4c2.1,0.5,3,1.3,3,2.8c0,2-1.8,3.3-4.3,3.3c-2.7,0-4.3-1.3-4.5-3.3h2.4c0.2,1,0.9,1.5,2.1,1.5
			c1.2,0,1.9-0.5,1.9-1.3c0-0.6-0.4-1-1.5-1.2l-1.7-0.4c-2-0.4-3-1.4-3-2.9C1007.1,249.8,1008.7,248.5,1011.2,248.5z"/>
		<path class="st0" d="M1026.3,256c-0.3,2-2.1,3.3-4.6,3.3c-3.1,0-5-2-5-5.3c0-3.3,1.9-5.4,4.9-5.4c2.9,0,4.8,2,4.8,5.2v0.8h-7.2
			v0.1c0,1.7,1,2.8,2.6,2.8c1.1,0,2-0.6,2.3-1.4H1026.3z M1019.2,252.9h4.8c0-1.5-1-2.5-2.4-2.5
			C1020.3,250.4,1019.3,251.4,1019.2,252.9z"/>
		<path class="st0" d="M850.5,276.4c-0.2-1.1-1-1.9-2.3-1.9c-1.5,0-2.5,1.3-2.5,3.4c0,2.2,1,3.4,2.5,3.4c1.2,0,2-0.7,2.3-1.9h2.3
			c-0.2,2.3-2,3.8-4.6,3.8c-3,0-5-2-5-5.4c0-3.3,2-5.4,5-5.4c2.7,0,4.4,1.7,4.6,3.9H850.5z"/>
		<path class="st0" d="M854.3,269h2.4v5.5h0c0.6-1.3,1.7-2,3.3-2c2.3,0,3.6,1.5,3.6,3.9v6.7h-2.4v-6.2c0-1.4-0.7-2.3-2.1-2.3
			c-1.5,0-2.4,1-2.4,2.5v5.9h-2.4V269z"/>
		<path class="st0" d="M865.6,272.7h2.3v1.8h0c0.4-1.3,1.3-2,2.5-2c0.3,0,0.6,0.1,0.8,0.1v2.2c-0.2-0.1-0.6-0.1-1-0.1
			c-1.4,0-2.2,0.9-2.2,2.3v6h-2.4V272.7z"/>
		<path class="st0" d="M871.7,277.9c0-3.3,2-5.4,5-5.4s5,2,5,5.4c0,3.4-2,5.4-5,5.4S871.7,281.3,871.7,277.9z M879.2,277.9
			c0-2.2-1-3.5-2.5-3.5c-1.5,0-2.5,1.3-2.5,3.5c0,2.2,1,3.5,2.5,3.5S879.2,280.1,879.2,277.9z"/>
		<path class="st0" d="M883.2,272.7h2.3v1.8h0c0.6-1.2,1.7-2,3.3-2c2.3,0,3.6,1.5,3.6,3.9v6.7H890v-6.2c0-1.5-0.7-2.3-2.1-2.3
			c-1.4,0-2.3,1-2.3,2.5v6h-2.4V272.7z"/>
		<path class="st0" d="M894,277.9c0-3.3,2-5.4,5-5.4s5,2,5,5.4c0,3.4-2,5.4-5,5.4S894,281.3,894,277.9z M901.5,277.9
			c0-2.2-1-3.5-2.5-3.5c-1.5,0-2.5,1.3-2.5,3.5c0,2.2,1,3.5,2.5,3.5S901.5,280.1,901.5,277.9z"/>
		<path class="st0" d="M905.6,269h2.4v14.1h-2.4V269z"/>
		<path class="st0" d="M909.7,277.9c0-3.3,2-5.4,5-5.4s5,2,5,5.4c0,3.4-2,5.4-5,5.4S909.7,281.3,909.7,277.9z M917.2,277.9
			c0-2.2-1-3.5-2.5-3.5c-1.5,0-2.5,1.3-2.5,3.5c0,2.2,1,3.5,2.5,3.5S917.2,280.1,917.2,277.9z"/>
		<path class="st0" d="M921.2,283.9h2.4c0.3,0.8,1.2,1.3,2.3,1.3c1.6,0,2.5-0.9,2.5-2.2v-1.7h-0.1c-0.5,1.1-1.8,1.9-3.2,1.9
			c-2.6,0-4.3-2-4.3-5.2c0-3.3,1.7-5.3,4.3-5.3c1.5,0,2.7,0.8,3.3,2h0v-1.8h2.4v10.2c0,2.5-2,4.1-5,4.1
			C923.3,287,921.4,285.7,921.2,283.9z M928.4,277.9c0-2-1-3.3-2.6-3.3c-1.5,0-2.5,1.3-2.5,3.3c0,2.1,1,3.3,2.5,3.3
			C927.4,281.1,928.4,279.9,928.4,277.9z"/>
		<path class="st0" d="M932.8,269.8c0-0.7,0.6-1.3,1.3-1.3c0.8,0,1.3,0.6,1.3,1.3c0,0.7-0.6,1.3-1.3,1.3
			C933.3,271.2,932.8,270.6,932.8,269.8z M932.9,272.7h2.4v10.4h-2.4V272.7z"/>
		<path class="st0" d="M944.2,276.4c-0.2-1.1-1-1.9-2.3-1.9c-1.5,0-2.5,1.3-2.5,3.4c0,2.2,1,3.4,2.5,3.4c1.2,0,2-0.7,2.3-1.9h2.3
			c-0.2,2.3-2,3.8-4.6,3.8c-3,0-5-2-5-5.4c0-3.3,2-5.4,5-5.4c2.7,0,4.4,1.7,4.6,3.9H944.2z"/>
		<path class="st0" d="M947.5,280.1c0-1.8,1.4-2.9,3.9-3.1l2.7-0.2v-0.7c0-1.1-0.7-1.7-1.9-1.7c-1.2,0-1.9,0.6-2,1.4H948
			c0.1-1.9,1.8-3.3,4.4-3.3c2.6,0,4.2,1.4,4.2,3.4v7.1h-2.3v-1.7h0c-0.6,1.1-1.9,1.8-3.2,1.8C949,283.2,947.5,282,947.5,280.1z
			 M954.2,279.2v-0.8l-2.4,0.1c-1.2,0.1-1.8,0.6-1.8,1.4c0,0.8,0.7,1.4,1.8,1.4C953.1,281.4,954.2,280.5,954.2,279.2z"/>
		<path class="st0" d="M958.6,269h2.4v14.1h-2.4V269z"/>
		<path class="st0" d="M966.7,277.9c0-3.3,2-5.4,5-5.4s5,2,5,5.4c0,3.4-2,5.4-5,5.4S966.7,281.3,966.7,277.9z M974.2,277.9
			c0-2.2-1-3.5-2.5-3.5c-1.5,0-2.5,1.3-2.5,3.5c0,2.2,1,3.5,2.5,3.5S974.2,280.1,974.2,277.9z"/>
		<path class="st0" d="M978.3,272.7h2.3v1.8h0c0.4-1.3,1.3-2,2.5-2c0.3,0,0.6,0.1,0.8,0.1v2.2c-0.2-0.1-0.6-0.1-1-0.1
			c-1.4,0-2.2,0.9-2.2,2.3v6h-2.4V272.7z"/>
		<path class="st0" d="M984.3,277.9c0-3.3,1.7-5.3,4.3-5.3c1.5,0,2.7,0.8,3.2,1.9h0.1V269h2.4v14.1h-2.4v-1.8h0
			c-0.6,1.2-1.8,1.9-3.3,1.9C986,283.2,984.3,281.2,984.3,277.9z M986.8,277.9c0,2.1,1,3.3,2.5,3.3c1.5,0,2.5-1.3,2.5-3.3
			c0-2-1-3.3-2.5-3.3C987.8,274.5,986.8,275.8,986.8,277.9z"/>
		<path class="st0" d="M1005.5,280c-0.3,2-2.1,3.3-4.6,3.3c-3.1,0-5-2-5-5.3c0-3.3,1.9-5.4,4.9-5.4c2.9,0,4.8,2,4.8,5.2v0.8h-7.2
			v0.1c0,1.7,1,2.8,2.6,2.8c1.1,0,2-0.6,2.3-1.4H1005.5z M998.4,276.9h4.8c0-1.5-1-2.5-2.4-2.5C999.5,274.4,998.5,275.4,998.4,276.9
			z"/>
		<path class="st0" d="M1007.1,272.7h2.3v1.8h0c0.4-1.3,1.3-2,2.5-2c0.3,0,0.6,0.1,0.8,0.1v2.2c-0.2-0.1-0.6-0.1-1-0.1
			c-1.4,0-2.2,0.9-2.2,2.3v6h-2.4V272.7z"/>
	</g>
	<g>
		<path class="st0" d="M915,373h-8.9V359h2.5v12h6.4V373z"/>
		<path class="st0" d="M916,367.9c0-3.3,2-5.4,5-5.4s5,2,5,5.4c0,3.4-2,5.4-5,5.4S916,371.2,916,367.9z M923.5,367.9
			c0-2.2-1-3.5-2.5-3.5c-1.5,0-2.5,1.3-2.5,3.5c0,2.2,1,3.5,2.5,3.5S923.5,370.1,923.5,367.9z"/>
		<path class="st0" d="M938.7,373h-2.6l-2-7.6h0l-2,7.6h-2.5l-2.8-10.4h2.4l1.7,7.9h0l2-7.9h2.3l2,7.9h0.1l1.7-7.9h2.4L938.7,373z"
			/>
	</g>
	<g>
		<path class="st0" d="M157.8,259v-10h-0.1l-4.1,10h-1.7l-4.1-10h-0.1v10h-2.3v-14.1h2.9l4.3,10.8h0.1l4.3-10.8h2.9V259H157.8z"/>
		<path class="st0" d="M171.4,255.9c-0.3,2-2.1,3.3-4.6,3.3c-3.1,0-5-2-5-5.3c0-3.3,1.9-5.4,4.9-5.4c2.9,0,4.8,2,4.8,5.2v0.8h-7.2
			v0.1c0,1.7,1,2.8,2.6,2.8c1.1,0,2-0.6,2.3-1.4H171.4z M164.3,252.8h4.8c0-1.5-1-2.5-2.4-2.5C165.4,250.4,164.4,251.4,164.3,252.8z
			"/>
		<path class="st0" d="M176.2,246.3v2.4h2v1.9h-2v5.4c0,0.8,0.4,1.2,1.2,1.2c0.2,0,0.5,0,0.7,0v1.9c-0.3,0.1-0.7,0.1-1.3,0.1
			c-2.2,0-3.1-0.8-3.1-2.8v-5.7h-1.5v-1.9h1.5v-2.4H176.2z"/>
		<path class="st0" d="M179.9,244.9h2.4v5.5h0c0.6-1.3,1.7-2,3.3-2c2.3,0,3.6,1.5,3.6,3.9v6.7h-2.4v-6.2c0-1.4-0.7-2.3-2.1-2.3
			c-1.5,0-2.4,1-2.4,2.5v5.9h-2.4V244.9z"/>
		<path class="st0" d="M190.7,253.9c0-3.3,2-5.4,5-5.4s5,2,5,5.4c0,3.4-2,5.4-5,5.4S190.7,257.2,190.7,253.9z M198.3,253.9
			c0-2.2-1-3.5-2.5-3.5c-1.5,0-2.5,1.3-2.5,3.5c0,2.2,1,3.5,2.5,3.5S198.3,256.1,198.3,253.9z"/>
		<path class="st0" d="M201.9,253.9c0-3.3,1.7-5.3,4.3-5.3c1.5,0,2.7,0.8,3.2,1.9h0.1v-5.5h2.4V259h-2.4v-1.8h0
			c-0.6,1.2-1.8,1.9-3.3,1.9C203.6,259.2,201.9,257.1,201.9,253.9z M204.4,253.9c0,2.1,1,3.3,2.5,3.3c1.5,0,2.5-1.3,2.5-3.3
			c0-2-1-3.3-2.5-3.3C205.3,250.5,204.4,251.8,204.4,253.9z"/>
		<path class="st0" d="M218.6,250.6h-1.4v-1.8h1.4v-0.9c0-2,1-3,3.2-3c0.5,0,1,0,1.3,0.1v1.7c-0.2,0-0.5-0.1-0.8-0.1
			c-0.9,0-1.3,0.4-1.3,1.3v0.8h2.1v1.8h-2v8.5h-2.4V250.6z"/>
		<path class="st0" d="M223.8,253.9c0-3.3,2-5.4,5-5.4s5,2,5,5.4c0,3.4-2,5.4-5,5.4S223.8,257.2,223.8,253.9z M231.4,253.9
			c0-2.2-1-3.5-2.5-3.5c-1.5,0-2.5,1.3-2.5,3.5c0,2.2,1,3.5,2.5,3.5S231.4,256.1,231.4,253.9z"/>
		<path class="st0" d="M235.4,248.7h2.3v1.8h0c0.4-1.3,1.3-2,2.5-2c0.3,0,0.6,0.1,0.8,0.1v2.2c-0.2-0.1-0.6-0.1-1-0.1
			c-1.4,0-2.2,0.9-2.2,2.3v6h-2.4V248.7z"/>
		<path class="st0" d="M105.5,283.3c-4.1,0-6.7-2.8-6.7-7.3c0-4.5,2.5-7.2,6.6-7.2c3.2,0,5.6,1.9,6.1,4.7H109
			c-0.5-1.6-1.8-2.6-3.5-2.6c-2.5,0-4.1,1.9-4.1,5.1c0,3.2,1.6,5.2,4.1,5.2c2.1,0,3.6-1.3,3.6-3.3l0-0.2h-3.4v-1.9h5.9v1.5
			C111.6,281,109.3,283.3,105.5,283.3z"/>
		<path class="st0" d="M113,280.1c0-1.8,1.4-2.9,3.9-3.1l2.7-0.2v-0.7c0-1.1-0.7-1.7-1.9-1.7c-1.2,0-1.9,0.6-2,1.4h-2.3
			c0.1-1.9,1.8-3.3,4.4-3.3c2.6,0,4.2,1.4,4.2,3.4v7.1h-2.3v-1.7h0c-0.6,1.1-1.9,1.8-3.2,1.8C114.4,283.2,113,281.9,113,280.1z
			 M119.6,279.2v-0.8l-2.4,0.1c-1.2,0.1-1.8,0.6-1.8,1.4c0,0.8,0.7,1.4,1.8,1.4C118.5,281.4,119.6,280.5,119.6,279.2z"/>
		<path class="st0" d="M127.1,270.3v2.4h2v1.9h-2v5.4c0,0.8,0.4,1.2,1.2,1.2c0.2,0,0.5,0,0.7,0v1.9c-0.3,0.1-0.7,0.1-1.3,0.1
			c-2.2,0-3.1-0.8-3.1-2.8v-5.7h-1.5v-1.9h1.5v-2.4H127.1z"/>
		<path class="st0" d="M130.8,268.9h2.4v5.5h0c0.6-1.3,1.7-2,3.3-2c2.3,0,3.6,1.5,3.6,3.9v6.7h-2.4v-6.2c0-1.4-0.7-2.3-2.1-2.3
			c-1.5,0-2.4,1-2.4,2.5v5.9h-2.4V268.9z"/>
		<path class="st0" d="M151.2,279.9c-0.3,2-2.1,3.3-4.6,3.3c-3.1,0-5-2-5-5.3c0-3.3,1.9-5.4,4.9-5.4c2.9,0,4.8,2,4.8,5.2v0.8H144
			v0.1c0,1.7,1,2.8,2.6,2.8c1.1,0,2-0.6,2.3-1.4H151.2z M144.1,276.8h4.8c0-1.5-1-2.5-2.4-2.5C145.1,274.4,144.2,275.4,144.1,276.8z
			"/>
		<path class="st0" d="M152.8,272.7h2.3v1.8h0c0.4-1.3,1.3-2,2.5-2c0.3,0,0.6,0.1,0.8,0.1v2.2c-0.2-0.1-0.6-0.1-1-0.1
			c-1.4,0-2.2,0.9-2.2,2.3v6h-2.4V272.7z"/>
		<path class="st0" d="M159.6,269.8c0-0.7,0.6-1.3,1.3-1.3c0.8,0,1.3,0.6,1.3,1.3c0,0.7-0.6,1.3-1.3,1.3
			C160.2,271.1,159.6,270.5,159.6,269.8z M159.8,272.7h2.4V283h-2.4V272.7z"/>
		<path class="st0" d="M164.2,272.7h2.3v1.8h0c0.6-1.2,1.7-2,3.3-2c2.3,0,3.6,1.5,3.6,3.9v6.7H171v-6.2c0-1.5-0.7-2.3-2.1-2.3
			c-1.4,0-2.3,1-2.3,2.5v6h-2.4V272.7z"/>
		<path class="st0" d="M175.3,283.8h2.4c0.3,0.8,1.2,1.3,2.3,1.3c1.6,0,2.5-0.9,2.5-2.2v-1.7h-0.1c-0.5,1.1-1.8,1.9-3.2,1.9
			c-2.6,0-4.3-2-4.3-5.2c0-3.3,1.7-5.3,4.3-5.3c1.5,0,2.7,0.8,3.3,2h0v-1.8h2.4v10.2c0,2.5-2,4.1-5,4.1
			C177.4,286.9,175.6,285.6,175.3,283.8z M182.5,277.8c0-2-1-3.3-2.6-3.3c-1.5,0-2.5,1.3-2.5,3.3c0,2.1,1,3.3,2.5,3.3
			C181.5,281.1,182.5,279.9,182.5,277.8z"/>
		<path class="st0" d="M191.2,283v-14.1h2.5V283H191.2z"/>
		<path class="st0" d="M196,272.7h2.3v1.8h0c0.6-1.2,1.7-2,3.3-2c2.3,0,3.6,1.5,3.6,3.9v6.7h-2.4v-6.2c0-1.5-0.7-2.3-2.1-2.3
			c-1.4,0-2.3,1-2.3,2.5v6H196V272.7z"/>
		<path class="st0" d="M207.8,274.6h-1.4v-1.8h1.4v-0.9c0-2,1-3,3.2-3c0.5,0,1,0,1.3,0.1v1.7c-0.2,0-0.5-0.1-0.8-0.1
			c-0.9,0-1.3,0.4-1.3,1.3v0.8h2.1v1.8h-2v8.5h-2.4V274.6z"/>
		<path class="st0" d="M213.1,277.9c0-3.3,2-5.4,5-5.4s5,2,5,5.4c0,3.4-2,5.4-5,5.4S213.1,281.2,213.1,277.9z M220.6,277.9
			c0-2.2-1-3.5-2.5-3.5c-1.5,0-2.5,1.3-2.5,3.5c0,2.2,1,3.5,2.5,3.5S220.6,280.1,220.6,277.9z"/>
		<path class="st0" d="M224.6,272.7h2.3v1.8h0c0.4-1.3,1.3-2,2.5-2c0.3,0,0.6,0.1,0.8,0.1v2.2c-0.2-0.1-0.6-0.1-1-0.1
			c-1.4,0-2.2,0.9-2.2,2.3v6h-2.4V272.7z"/>
		<path class="st0" d="M231.5,272.7h2.3v1.8h0c0.4-1.2,1.5-2,2.9-2c1.5,0,2.5,0.8,2.9,2.1h0.1c0.5-1.3,1.7-2.1,3.2-2.1
			c2,0,3.4,1.4,3.4,3.4v7.1H244v-6.5c0-1.3-0.7-2-1.9-2c-1.2,0-2,0.9-2,2.1v6.4h-2.4v-6.6c0-1.2-0.7-1.9-1.8-1.9c-1.2,0-2,0.9-2,2.2
			v6.3h-2.4V272.7z"/>
		<path class="st0" d="M247.9,280.1c0-1.8,1.4-2.9,3.9-3.1l2.7-0.2v-0.7c0-1.1-0.7-1.7-1.9-1.7c-1.2,0-1.9,0.6-2,1.4h-2.3
			c0.1-1.9,1.8-3.3,4.4-3.3c2.6,0,4.2,1.4,4.2,3.4v7.1h-2.3v-1.7h0c-0.6,1.1-1.9,1.8-3.2,1.8C249.4,283.2,247.9,281.9,247.9,280.1z
			 M254.6,279.2v-0.8l-2.4,0.1c-1.2,0.1-1.8,0.6-1.8,1.4c0,0.8,0.7,1.4,1.8,1.4C253.5,281.4,254.6,280.5,254.6,279.2z"/>
		<path class="st0" d="M262.1,270.3v2.4h2v1.9h-2v5.4c0,0.8,0.4,1.2,1.2,1.2c0.2,0,0.5,0,0.7,0v1.9c-0.3,0.1-0.7,0.1-1.3,0.1
			c-2.2,0-3.1-0.8-3.1-2.8v-5.7h-1.5v-1.9h1.5v-2.4H262.1z"/>
		<path class="st0" d="M265.6,269.8c0-0.7,0.6-1.3,1.3-1.3c0.8,0,1.3,0.6,1.3,1.3c0,0.7-0.6,1.3-1.3,1.3
			C266.2,271.1,265.6,270.5,265.6,269.8z M265.7,272.7h2.4V283h-2.4V272.7z"/>
		<path class="st0" d="M269.8,277.9c0-3.3,2-5.4,5-5.4s5,2,5,5.4c0,3.4-2,5.4-5,5.4S269.8,281.2,269.8,277.9z M277.3,277.9
			c0-2.2-1-3.5-2.5-3.5c-1.5,0-2.5,1.3-2.5,3.5c0,2.2,1,3.5,2.5,3.5S277.3,280.1,277.3,277.9z"/>
		<path class="st0" d="M281.4,272.7h2.3v1.8h0c0.6-1.2,1.7-2,3.3-2c2.3,0,3.6,1.5,3.6,3.9v6.7h-2.4v-6.2c0-1.5-0.7-2.3-2.1-2.3
			c-1.4,0-2.3,1-2.3,2.5v6h-2.4V272.7z"/>
	</g>
	<g>
		<path class="st0" d="M72.5,361.5H70v-14.1h5.6c3,0,4.9,1.7,4.9,4.4c0,1.9-1,3.4-2.7,4l3.1,5.7H78l-2.8-5.3h-2.7V361.5z
			 M72.5,354.2h2.8c1.6,0,2.5-0.9,2.5-2.4c0-1.5-1-2.4-2.6-2.4h-2.8V354.2z"/>
		<path class="st0" d="M91.3,358.4c-0.3,2-2.1,3.3-4.6,3.3c-3.1,0-5-2-5-5.3c0-3.3,1.9-5.4,4.9-5.4c2.9,0,4.8,2,4.8,5.2v0.8h-7.2
			v0.1c0,1.7,1,2.8,2.6,2.8c1.1,0,2-0.6,2.3-1.4H91.3z M84.2,355.3h4.8c0-1.5-1-2.5-2.4-2.5C85.3,352.8,84.3,353.8,84.2,355.3z"/>
		<path class="st0" d="M100.1,352.9L100.1,352.9l0-1.8h2.4v13.8h-2.4v-5.2h-0.1c-0.5,1.2-1.7,1.9-3.2,1.9c-2.6,0-4.3-2.1-4.3-5.4
			c0-3.3,1.7-5.3,4.3-5.3C98.4,350.9,99.5,351.7,100.1,352.9z M100.1,356.3c0-2-1-3.3-2.6-3.3c-1.6,0-2.5,1.3-2.5,3.3s1,3.3,2.5,3.3
			C99.1,359.6,100.1,358.3,100.1,356.3z"/>
		<path class="st0" d="M113.7,361.5h-2.3v-1.8h0c-0.5,1.3-1.6,2-3.2,2c-2.2,0-3.7-1.5-3.7-3.8v-6.7h2.4v6.2c0,1.5,0.7,2.3,2.1,2.3
			c1.4,0,2.3-1,2.3-2.5v-6h2.4V361.5z"/>
		<path class="st0" d="M115.6,348.2c0-0.7,0.6-1.3,1.3-1.3c0.8,0,1.3,0.6,1.3,1.3c0,0.7-0.6,1.3-1.3,1.3
			C116.2,349.6,115.6,349,115.6,348.2z M115.8,351.1h2.4v10.4h-2.4V351.1z"/>
		<path class="st0" d="M120.2,351.1h2.3v1.8h0c0.4-1.3,1.3-2,2.5-2c0.3,0,0.6,0.1,0.8,0.1v2.2c-0.2-0.1-0.6-0.1-1-0.1
			c-1.4,0-2.2,0.9-2.2,2.3v6h-2.4V351.1z"/>
		<path class="st0" d="M135.9,358.4c-0.3,2-2.1,3.3-4.6,3.3c-3.1,0-5-2-5-5.3c0-3.3,1.9-5.4,4.9-5.4c2.9,0,4.8,2,4.8,5.2v0.8h-7.2
			v0.1c0,1.7,1,2.8,2.6,2.8c1.1,0,2-0.6,2.3-1.4H135.9z M128.7,355.3h4.8c0-1.5-1-2.5-2.4-2.5C129.8,352.8,128.8,353.8,128.7,355.3z
			"/>
		<path class="st0" d="M137.1,356.3c0-3.3,1.7-5.3,4.3-5.3c1.5,0,2.7,0.8,3.2,1.9h0.1v-5.5h2.4v14.1h-2.4v-1.8h0
			c-0.6,1.2-1.8,1.9-3.3,1.9C138.8,361.6,137.1,359.6,137.1,356.3z M139.6,356.3c0,2.1,1,3.3,2.5,3.3c1.5,0,2.5-1.3,2.5-3.3
			c0-2-1-3.3-2.5-3.3C140.6,353,139.6,354.2,139.6,356.3z"/>
		<path class="st0" d="M155.2,357.5c0.2,1.3,1.5,2.1,3.2,2.1c1.7,0,2.9-0.8,2.9-2c0-1-0.7-1.6-2.5-2l-1.5-0.3
			c-2.8-0.6-4.1-1.9-4.1-4c0-2.5,2.2-4.2,5.2-4.2c3.1,0,5.2,1.7,5.2,4.2h-2.4c-0.1-1.3-1.2-2.1-2.8-2.1c-1.6,0-2.7,0.7-2.7,1.9
			c0,1,0.7,1.6,2.5,1.9l1.5,0.3c3,0.6,4.2,1.8,4.2,3.9c0,2.7-2.1,4.4-5.5,4.4c-3.3,0-5.4-1.6-5.5-4.2H155.2z"/>
		<path class="st0" d="M165.7,365.3v-1.9c0.1,0,0.6,0,0.7,0c1,0,1.5-0.4,1.8-1.3c0,0,0.2-0.5,0.1-0.6l-3.7-10.4h2.7l2.4,8.3h0
			l2.4-8.3h2.6l-3.8,10.8c-0.9,2.6-2,3.4-4.4,3.4C166.5,365.3,165.8,365.3,165.7,365.3z"/>
		<path class="st0" d="M179.8,350.9c2.5,0,4.1,1.4,4.2,3.3h-2.3c-0.1-0.9-0.8-1.5-1.9-1.5c-1.1,0-1.8,0.5-1.8,1.3
			c0,0.6,0.4,1,1.5,1.2l1.7,0.4c2.1,0.5,3,1.3,3,2.8c0,2-1.8,3.3-4.3,3.3c-2.7,0-4.3-1.3-4.5-3.3h2.4c0.2,1,0.9,1.5,2.1,1.5
			c1.2,0,1.9-0.5,1.9-1.3c0-0.6-0.4-1-1.5-1.2l-1.7-0.4c-2-0.4-3-1.4-3-2.9C175.7,352.2,177.3,350.9,179.8,350.9z"/>
		<path class="st0" d="M188.9,348.7v2.4h2v1.9h-2v5.4c0,0.8,0.4,1.2,1.2,1.2c0.2,0,0.5,0,0.7,0v1.9c-0.3,0.1-0.7,0.1-1.3,0.1
			c-2.2,0-3.1-0.8-3.1-2.8V353H185v-1.9h1.5v-2.4H188.9z"/>
		<path class="st0" d="M201.5,358.4c-0.3,2-2.1,3.3-4.6,3.3c-3.1,0-5-2-5-5.3c0-3.3,1.9-5.4,4.9-5.4c2.9,0,4.8,2,4.8,5.2v0.8h-7.2
			v0.1c0,1.7,1,2.8,2.6,2.8c1.1,0,2-0.6,2.3-1.4H201.5z M194.3,355.3h4.8c0-1.5-1-2.5-2.4-2.5C195.4,352.8,194.4,353.8,194.3,355.3z
			"/>
		<path class="st0" d="M203.1,351.1h2.3v1.8h0c0.4-1.2,1.5-2,2.9-2c1.5,0,2.5,0.8,2.9,2.1h0.1c0.5-1.3,1.7-2.1,3.2-2.1
			c2,0,3.4,1.4,3.4,3.4v7.1h-2.4V355c0-1.3-0.7-2-1.9-2c-1.2,0-2,0.9-2,2.1v6.4h-2.4v-6.6c0-1.2-0.7-1.9-1.8-1.9c-1.2,0-2,0.9-2,2.2
			v6.3h-2.4V351.1z"/>
		<path class="st0" d="M226.7,361.5h-2.5v-14.1h5.6c3,0,4.9,1.7,4.9,4.4c0,1.9-1,3.4-2.7,4l3.1,5.7h-2.9l-2.8-5.3h-2.7V361.5z
			 M226.7,354.2h2.8c1.6,0,2.5-0.9,2.5-2.4c0-1.5-1-2.4-2.6-2.4h-2.8V354.2z"/>
		<path class="st0" d="M245.5,358.4c-0.3,2-2.1,3.3-4.6,3.3c-3.1,0-5-2-5-5.3c0-3.3,1.9-5.4,4.9-5.4c2.9,0,4.8,2,4.8,5.2v0.8h-7.2
			v0.1c0,1.7,1,2.8,2.6,2.8c1.1,0,2-0.6,2.3-1.4H245.5z M238.4,355.3h4.8c0-1.5-1-2.5-2.4-2.5C239.5,352.8,238.5,353.8,238.4,355.3z
			"/>
		<path class="st0" d="M251.1,350.9c2.5,0,4.1,1.4,4.2,3.3h-2.3c-0.1-0.9-0.8-1.5-1.9-1.5c-1.1,0-1.8,0.5-1.8,1.3
			c0,0.6,0.4,1,1.5,1.2l1.7,0.4c2.1,0.5,3,1.3,3,2.8c0,2-1.8,3.3-4.3,3.3c-2.7,0-4.3-1.3-4.5-3.3h2.4c0.2,1,0.9,1.5,2.1,1.5
			c1.2,0,1.9-0.5,1.9-1.3c0-0.6-0.4-1-1.5-1.2L250,357c-2-0.4-3-1.4-3-2.9C247,352.2,248.6,350.9,251.1,350.9z"/>
		<path class="st0" d="M256.7,356.3c0-3.3,2-5.4,5-5.4s5,2,5,5.4c0,3.4-2,5.4-5,5.4S256.7,359.7,256.7,356.3z M264.2,356.3
			c0-2.2-1-3.5-2.5-3.5c-1.5,0-2.5,1.3-2.5,3.5c0,2.2,1,3.5,2.5,3.5S264.2,358.5,264.2,356.3z"/>
		<path class="st0" d="M277.4,361.5h-2.3v-1.8h0c-0.5,1.3-1.6,2-3.2,2c-2.2,0-3.7-1.5-3.7-3.8v-6.7h2.4v6.2c0,1.5,0.7,2.3,2.1,2.3
			c1.4,0,2.3-1,2.3-2.5v-6h2.4V361.5z"/>
		<path class="st0" d="M279.4,351.1h2.3v1.8h0c0.4-1.3,1.3-2,2.5-2c0.3,0,0.6,0.1,0.8,0.1v2.2c-0.2-0.1-0.6-0.1-1-0.1
			c-1.4,0-2.2,0.9-2.2,2.3v6h-2.4V351.1z"/>
		<path class="st0" d="M292.7,354.8c-0.2-1.1-1-1.9-2.3-1.9c-1.5,0-2.5,1.3-2.5,3.4c0,2.2,1,3.4,2.5,3.4c1.2,0,2-0.7,2.3-1.9h2.3
			c-0.2,2.3-2,3.8-4.6,3.8c-3,0-5-2-5-5.4c0-3.3,2-5.4,5-5.4c2.7,0,4.4,1.7,4.6,3.9H292.7z"/>
		<path class="st0" d="M305.6,358.4c-0.3,2-2.1,3.3-4.6,3.3c-3.1,0-5-2-5-5.3c0-3.3,1.9-5.4,4.9-5.4c2.9,0,4.8,2,4.8,5.2v0.8h-7.2
			v0.1c0,1.7,1,2.8,2.6,2.8c1.1,0,2-0.6,2.3-1.4H305.6z M298.5,355.3h4.8c0-1.5-1-2.5-2.4-2.5C299.6,352.8,298.6,353.8,298.5,355.3z
			"/>
		<path class="st0" d="M311.2,350.9c2.5,0,4.1,1.4,4.2,3.3h-2.3c-0.1-0.9-0.8-1.5-1.9-1.5c-1.1,0-1.8,0.5-1.8,1.3
			c0,0.6,0.4,1,1.5,1.2l1.7,0.4c2.1,0.5,3,1.3,3,2.8c0,2-1.8,3.3-4.3,3.3c-2.7,0-4.3-1.3-4.5-3.3h2.4c0.2,1,0.9,1.5,2.1,1.5
			c1.2,0,1.9-0.5,1.9-1.3c0-0.6-0.4-1-1.5-1.2l-1.7-0.4c-2-0.4-3-1.4-3-2.9C307.1,352.2,308.7,350.9,311.2,350.9z"/>
		<path class="st0" d="M104.5,371.4h2.2c-1.4,1.7-2.5,5.3-2.5,8.5s1.1,6.9,2.5,8.6h-2.2c-2-2.4-2.9-5.1-2.9-8.6
			C101.6,376.5,102.5,373.8,104.5,371.4z"/>
		<path class="st0" d="M108.3,385.5v-14.1h2.5v14.1H108.3z"/>
		<path class="st0" d="M113,375.1h2.3v1.8h0c0.6-1.2,1.7-2,3.3-2c2.3,0,3.6,1.5,3.6,3.9v6.7h-2.4v-6.2c0-1.5-0.7-2.3-2.1-2.3
			c-1.4,0-2.3,1-2.3,2.5v6H113V375.1z"/>
		<path class="st0" d="M131,378.8c-0.2-1.1-1-1.9-2.3-1.9c-1.5,0-2.5,1.3-2.5,3.4c0,2.2,1,3.4,2.5,3.4c1.2,0,2-0.7,2.3-1.9h2.3
			c-0.2,2.3-2,3.8-4.6,3.8c-3,0-5-2-5-5.4c0-3.3,2-5.4,5-5.4c2.7,0,4.4,1.7,4.6,3.9H131z"/>
		<path class="st0" d="M134.8,371.4h2.4v14.1h-2.4V371.4z"/>
		<path class="st0" d="M148.5,385.5h-2.3v-1.8h0c-0.5,1.3-1.6,2-3.2,2c-2.2,0-3.7-1.5-3.7-3.8v-6.7h2.4v6.2c0,1.5,0.7,2.3,2.1,2.3
			c1.4,0,2.3-1,2.3-2.5v-6h2.4V385.5z"/>
		<path class="st0" d="M150.1,380.3c0-3.3,1.7-5.3,4.3-5.3c1.5,0,2.7,0.8,3.2,1.9h0.1v-5.5h2.4v14.1h-2.4v-1.8h0
			c-0.6,1.2-1.8,1.9-3.3,1.9C151.8,385.6,150.1,383.6,150.1,380.3z M152.6,380.3c0,2.1,1,3.3,2.5,3.3c1.5,0,2.5-1.3,2.5-3.3
			c0-2-1-3.3-2.5-3.3C153.5,377,152.6,378.2,152.6,380.3z"/>
		<path class="st0" d="M162,372.2c0-0.7,0.6-1.3,1.3-1.3c0.8,0,1.3,0.6,1.3,1.3c0,0.7-0.6,1.3-1.3,1.3
			C162.6,373.6,162,373,162,372.2z M162.2,375.1h2.4v10.4h-2.4V375.1z"/>
		<path class="st0" d="M166.6,375.1h2.3v1.8h0c0.6-1.2,1.7-2,3.3-2c2.3,0,3.6,1.5,3.6,3.9v6.7h-2.4v-6.2c0-1.5-0.7-2.3-2.1-2.3
			c-1.4,0-2.3,1-2.3,2.5v6h-2.4V375.1z"/>
		<path class="st0" d="M177.7,386.3h2.4c0.3,0.8,1.2,1.3,2.3,1.3c1.6,0,2.5-0.9,2.5-2.2v-1.7h-0.1c-0.5,1.1-1.8,1.9-3.2,1.9
			c-2.6,0-4.3-2-4.3-5.2c0-3.3,1.7-5.3,4.3-5.3c1.5,0,2.7,0.8,3.3,2h0v-1.8h2.4v10.2c0,2.5-2,4.1-5,4.1
			C179.8,389.4,178,388.1,177.7,386.3z M184.9,380.3c0-2-1-3.3-2.6-3.3c-1.5,0-2.5,1.3-2.5,3.3c0,2.1,1,3.3,2.5,3.3
			C183.9,383.6,184.9,382.3,184.9,380.3z"/>
		<path class="st0" d="M202.7,385.5h-9.1v-14.1h9.1v2.1h-6.6v3.8h6.2v2h-6.2v4h6.6V385.5z"/>
		<path class="st0" d="M208.7,381.8l-2.1,3.7h-2.6l3.3-5.2l-3.3-5.2h2.7l2.1,3.6h0l2.1-3.6h2.7l-3.3,5.1l3.3,5.2h-2.7L208.7,381.8
			L208.7,381.8z"/>
		<path class="st0" d="M224.8,380.3c0,3.3-1.7,5.3-4.3,5.3c-1.5,0-2.7-0.7-3.2-1.9h0v5.1h-2.4v-13.8h2.4v1.8h0c0.6-1.2,1.8-2,3.3-2
			C223.1,374.9,224.8,377,224.8,380.3z M222.3,380.3c0-2-1-3.3-2.5-3.3c-1.5,0-2.5,1.3-2.5,3.3c0,2,1,3.3,2.5,3.3
			C221.3,383.6,222.3,382.4,222.3,380.3z"/>
		<path class="st0" d="M235.5,382.4c-0.3,2-2.1,3.3-4.6,3.3c-3.1,0-5-2-5-5.3c0-3.3,1.9-5.4,4.9-5.4c2.9,0,4.8,2,4.8,5.2v0.8h-7.2
			v0.1c0,1.7,1,2.8,2.6,2.8c1.1,0,2-0.6,2.3-1.4H235.5z M228.3,379.3h4.8c0-1.5-1-2.5-2.4-2.5C229.4,376.8,228.4,377.8,228.3,379.3z
			"/>
		<path class="st0" d="M237.1,375.1h2.3v1.8h0c0.6-1.2,1.7-2,3.3-2c2.3,0,3.6,1.5,3.6,3.9v6.7h-2.4v-6.2c0-1.5-0.7-2.3-2.1-2.3
			c-1.4,0-2.3,1-2.3,2.5v6h-2.4V375.1z"/>
		<path class="st0" d="M252.3,374.9c2.5,0,4.1,1.4,4.2,3.3h-2.3c-0.1-0.9-0.8-1.5-1.9-1.5c-1.1,0-1.8,0.5-1.8,1.3
			c0,0.6,0.4,1,1.5,1.2l1.7,0.4c2.1,0.5,3,1.3,3,2.8c0,2-1.8,3.3-4.3,3.3c-2.7,0-4.3-1.3-4.5-3.3h2.4c0.2,1,0.9,1.5,2.1,1.5
			c1.2,0,1.9-0.5,1.9-1.3c0-0.6-0.4-1-1.5-1.2l-1.7-0.4c-2-0.4-3-1.4-3-2.9C248.1,376.2,249.8,374.9,252.3,374.9z"/>
		<path class="st0" d="M267.3,382.4c-0.3,2-2.1,3.3-4.6,3.3c-3.1,0-5-2-5-5.3c0-3.3,1.9-5.4,4.9-5.4c2.9,0,4.8,2,4.8,5.2v0.8h-7.2
			v0.1c0,1.7,1,2.8,2.6,2.8c1.1,0,2-0.6,2.3-1.4H267.3z M260.2,379.3h4.8c0-1.5-1-2.5-2.4-2.5C261.3,376.8,260.3,377.8,260.2,379.3z
			"/>
		<path class="st0" d="M273,374.9c2.5,0,4.1,1.4,4.2,3.3h-2.3c-0.1-0.9-0.8-1.5-1.9-1.5c-1.1,0-1.8,0.5-1.8,1.3c0,0.6,0.4,1,1.5,1.2
			l1.7,0.4c2.1,0.5,3,1.3,3,2.8c0,2-1.8,3.3-4.3,3.3c-2.7,0-4.3-1.3-4.5-3.3h2.4c0.2,1,0.9,1.5,2.1,1.5c1.2,0,1.9-0.5,1.9-1.3
			c0-0.6-0.4-1-1.5-1.2l-1.7-0.4c-2-0.4-3-1.4-3-2.9C268.8,376.2,270.5,374.9,273,374.9z"/>
		<path class="st0" d="M280.5,388.5h-2.2c1.4-1.7,2.5-5.3,2.5-8.5s-1.1-6.9-2.5-8.6h2.2c1.9,2.4,2.9,5.1,2.9,8.6
			C283.3,383.4,282.4,386.1,280.5,388.5z"/>
	</g>
	<g>
		<path class="st0" d="M517.4,59.3c0,6.5-4.7,10.9-12.7,10.9c-1,0-3.1-0.1-4.5-0.1c-2,0-4.1,0-5.2,0.1v-0.6c1.8-0.1,2.1-0.4,2.1-2.6
			V52.1c0-2.2-0.3-2.5-2.1-2.6V49c0.9,0,2.5,0.1,4.1,0.1c0.4,0,0.7,0,1.1,0c1.5,0,3.6-0.1,4.8-0.1C513.4,49,517.4,52.7,517.4,59.3z
			 M503.2,52.1v15c0,2.1,0.4,2.6,2.3,2.6c4.1,0,5.6-3.7,5.6-10.2c0-6.7-1.7-10-5.6-10C503.6,49.5,503.2,50,503.2,52.1z"/>
		<path class="st0" d="M531.3,55.7c0.8,0.9,1,2.1,1,4.2v8c0,1,0.1,1.3,0.5,1.3c0.4,0,0.7-0.2,0.9-0.4l0.3,0.5
			c-1,0.8-2.2,1.1-3.9,1.1c-2.3,0-3.1-1.1-3.1-2.3c-0.8,1.4-2.4,2.3-4.3,2.3c-2.4,0-3.8-1.4-3.8-3.4c0-2,1.2-3.4,3.8-4.2
			c2.3-0.8,4.2-1.4,4.2-2.8v-2.7c0-0.9-0.3-2.5-2.2-2.5c-0.5,0-1.1,0.2-1.6,0.5c1.3,0.5,2,1.3,2,2.7c0,1.4-1.1,2.5-2.9,2.5
			c-1.5,0-2.5-1.1-2.5-2.6c0-1.3,0.8-2.2,1.9-2.8c1.2-0.6,2.7-1,4.8-1S530.1,54.5,531.3,55.7z M526.9,61.2c-0.2,0.4-0.7,0.9-1.2,1.3
			c-0.9,0.9-1.5,1.9-1.5,3.4c0,1.6,0.7,2.1,1.5,2.1c0.4,0,0.7-0.1,1.1-0.5V61.2z"/>
		<path class="st0" d="M544.7,54.7v0.6h-2.9v12.4c0,0.8,0.2,1.1,0.9,1.1c0.4,0,1.1-0.2,1.6-0.9l0.5,0.4c-0.8,1.4-2.2,2.4-4.3,2.4
			c-1.3,0-2.4-0.3-3.1-1c-0.9-0.9-1-2.1-1-4.2V55.3H534v-0.6h2.3v-3.6c2.1,0,3.8-0.4,5.4-1.3v4.9H544.7z"/>
		<path class="st0" d="M557.7,55.7c0.8,0.9,1,2.1,1,4.2v8c0,1,0.1,1.3,0.5,1.3c0.4,0,0.7-0.2,0.9-0.4l0.3,0.5
			c-1,0.8-2.2,1.1-3.9,1.1c-2.3,0-3.1-1.1-3.1-2.3c-0.8,1.4-2.4,2.3-4.3,2.3c-2.4,0-3.8-1.4-3.8-3.4c0-2,1.2-3.4,3.8-4.2
			c2.3-0.8,4.2-1.4,4.2-2.8v-2.7c0-0.9-0.3-2.5-2.2-2.5c-0.5,0-1.1,0.2-1.6,0.5c1.3,0.5,2,1.3,2,2.7c0,1.4-1.1,2.5-2.9,2.5
			c-1.5,0-2.5-1.1-2.5-2.6c0-1.3,0.8-2.2,1.9-2.8c1.2-0.6,2.7-1,4.8-1S556.6,54.5,557.7,55.7z M553.3,61.2c-0.2,0.4-0.7,0.9-1.2,1.3
			c-0.9,0.9-1.5,1.9-1.5,3.4c0,1.6,0.7,2.1,1.5,2.1c0.4,0,0.7-0.1,1.1-0.5V61.2z"/>
		<path class="st0" d="M577.6,61.7c0,6.8-3.2,8.9-7,8.9c-1.1,0-2.1,0-2.9-0.4c-0.7-0.3-1.5-0.4-2.2-0.4c-1.2,0-2.3,0.4-2.9,0.9
			l-0.4-0.3c0.2-0.5,0.2-1.1,0.2-1.6V50.3c0-1.8-0.4-2.6-1.7-2.6v-0.6c0.6,0.1,1.3,0.1,1.9,0.1c2,0,3.7-0.1,5.2-0.4v9.7
			c0.9-1.5,2.5-2.3,4.6-2.3C575.4,54.2,577.6,56.6,577.6,61.7z M572,62.4c0-5.3-0.9-6.7-2-6.7s-2.2,0.9-2.2,2.2v11.7
			c0.5,0.2,1,0.4,1.4,0.4C571.1,70,572,67.5,572,62.4z"/>
		<path class="st0" d="M591.7,55.7c0.8,0.9,1,2.1,1,4.2v8c0,1,0.1,1.3,0.5,1.3c0.4,0,0.7-0.2,0.9-0.4l0.3,0.5
			c-1,0.8-2.2,1.1-3.9,1.1c-2.3,0-3.1-1.1-3.1-2.3c-0.8,1.4-2.4,2.3-4.3,2.3c-2.4,0-3.8-1.4-3.8-3.4c0-2,1.2-3.4,3.8-4.2
			c2.3-0.8,4.2-1.4,4.2-2.8v-2.7c0-0.9-0.3-2.5-2.2-2.5c-0.5,0-1.1,0.2-1.6,0.5c1.3,0.5,2,1.3,2,2.7c0,1.4-1.1,2.5-2.9,2.5
			c-1.5,0-2.5-1.1-2.5-2.6c0-1.3,0.8-2.2,1.9-2.8c1.2-0.6,2.7-1,4.8-1S590.5,54.5,591.7,55.7z M587.3,61.2c-0.2,0.4-0.7,0.9-1.2,1.3
			c-0.9,0.9-1.5,1.9-1.5,3.4c0,1.6,0.7,2.1,1.5,2.1c0.4,0,0.7-0.1,1.1-0.5V61.2z"/>
		<path class="st0" d="M605.2,55c0.2,0.1,0.4,0.2,0.5,0.2c0.4,0,0.6-0.3,0.7-1h0.6c-0.1,1.2-0.1,2.7-0.1,5.4h-0.6
			c-0.3-2.2-1.2-4.7-3.7-4.7c-1,0-1.8,0.6-1.8,1.7c0,1.8,1.9,2.9,3.6,4.3c1.8,1.5,3.2,2.8,3.2,5.1c0,2.7-2.7,4.6-6,4.6
			c-1.4,0-2.5-0.4-3.1-0.8c-0.6-0.3-1.1-0.5-1.5-0.5c-0.4,0-0.7,0.5-0.8,1h-0.6c0.1-1.3,0.1-3,0.1-6h0.6c0.4,3.2,1.8,5.4,4,5.4
			c0.9,0,1.7-0.5,1.7-1.6c0-1.8-1.2-2.8-2.8-4.2c-1.8-1.7-3.5-3.1-3.5-5.5c0-2.7,2.7-4.3,5.6-4.3C603.2,54.2,604.6,54.7,605.2,55z"
			/>
		<path class="st0" d="M622.3,65.3l0.5,0.2c-0.8,2.4-2.7,5.1-6.3,5.1c-3.9,0-6.9-2.1-6.9-8.2c0-5.8,3.4-8.2,7.7-8.2
			c3.5,0,5.7,1.9,5.7,6.7h-7.7c0,0.4,0,0.7,0,1.1c0,4.2,1.8,5.3,3.5,5.3C619.5,67.3,621,67.2,622.3,65.3z M615.2,60.4h3.5
			c0-2.9-0.4-5.4-1.5-5.4C616.1,54.9,615.4,56.4,615.2,60.4z"/>
	</g>
	<g>
		<path class="st0" d="M180.3,54.9c0,0.8,0,1.6,0.1,2.2h-0.7c-1.4-5.6-3.8-7.4-5.9-7.4h0v17.2c0,2.5,0.6,2.8,3.3,2.8v0.6
			c-1.4,0-4-0.1-6.6-0.1c-2.5,0-4.8,0.1-6.2,0.1v-0.6c2.8,0,3.3-0.3,3.3-2.8V49.6h0c-2.2,0-4.5,1.7-5.9,7.4h-0.7
			c0.1-0.5,0.1-1.3,0.1-2.2c0-1.2-0.1-3.6-0.2-5.9c2.9,0.1,7,0.1,9.8,0.1c2.8,0,6.9,0,9.8-0.1C180.4,51.3,180.3,53.7,180.3,54.9z"/>
		<path class="st0" d="M197,54.6v0.6c-0.7,0.3-1.5,1-2.1,2.9l-3.8,11.2l-1.3,3.6c-0.4,1-0.7,1.7-1.3,2.2c-0.5,0.4-1.3,0.7-2.8,0.7
			c-1.6,0-4.1-0.7-4.1-2.8c0-1.4,1.2-2.3,2.9-2.3c1.7,0,2.7,0.7,2.7,2.2c0,0.9-0.6,1.9-1.9,2.3c0.3,0.1,0.8,0.1,1,0.1
			c1.3,0,2.3-0.7,2.9-2.4l0.2-0.5l-7-15.5c-0.7-1.5-1.3-1.7-1.7-1.7v-0.6c1.6,0.1,3.4,0.2,4.9,0.2c1.9,0,3.1-0.1,4.4-0.2v0.6
			c-0.9,0-1.8,0-1.8,0.7c0,0.1,0,0.3,0.1,0.5l3.7,8.8l1.2-3.8c0.4-1.2,0.6-2.2,0.6-3.1c0-2-1-2.9-2.2-3v-0.6
			c0.8,0.1,2.4,0.1,3.2,0.1C195.4,54.7,196.5,54.7,197,54.6z"/>
		<path class="st0" d="M214.5,61.7c0,6.8-3.2,8.9-7,8.9c-1,0-2-0.1-2.8-0.6v2.5c0,1.9,1,2.5,2.6,2.5v0.6c-1.1,0-3.3-0.1-5.5-0.1
			c-1.6,0-3.3,0.1-4.1,0.1V75c1.2,0,1.7-0.5,1.7-2.2V57.9c0-1.8-0.4-2.6-1.7-2.6v-0.6c0.6,0.1,1.3,0.1,1.9,0.1c2,0,3.7-0.1,5.2-0.4
			v2.1c0.9-1.5,2.5-2.3,4.6-2.3C212.3,54.2,214.5,56.6,214.5,61.7z M208.9,62.4c0-5.3-0.9-6.7-2-6.7c-1.1,0-2.2,0.9-2.2,2.2v11.5
			c0.3,0.2,0.7,0.2,1.1,0.2C208,69.7,208.9,67.3,208.9,62.4z"/>
		<path class="st0" d="M229.1,65.3l0.5,0.2c-0.8,2.4-2.7,5.1-6.3,5.1c-3.9,0-6.9-2.1-6.9-8.2c0-5.8,3.4-8.2,7.7-8.2
			c3.5,0,5.7,1.9,5.7,6.7H222c0,0.4,0,0.7,0,1.1c0,4.2,1.8,5.3,3.5,5.3C226.3,67.3,227.8,67.2,229.1,65.3z M221.9,60.4h3.5
			c0-2.9-0.4-5.4-1.5-5.4C222.8,54.9,222.1,56.4,221.9,60.4z"/>
	</g>
	<g>
		<path class="st0" d="M863.6,49v0.6c-0.9,0.5-2.1,1.7-3,4.2l-5.8,16.4c-0.5,0-1.1-0.1-1.6-0.1s-1.1,0-1.6,0.1l-7.9-18.7
			c-0.6-1.4-1.2-1.9-1.8-1.9V49c1.5,0.1,3.5,0.1,5.5,0.1c2,0,4,0,5-0.1v0.6c-1.3,0.1-2.1,0.2-2.1,1.1c0,0.4,0.1,0.8,0.4,1.4
			l5.2,12.8l2.9-8.2c0.7-1.9,1-3.4,1-4.5c0-1.9-0.9-2.6-2.4-2.7V49c1.5,0.1,2.5,0.1,3.9,0.1C862.1,49,863,49,863.6,49z"/>
		<path class="st0" d="M874.4,49.6c-1.8,0.1-2.1,0.4-2.1,2.6V67c0,2.2,0.3,2.5,2.1,2.6v0.6c-1.2-0.1-3.1-0.1-5-0.1
			c-2.2,0-4.2,0-5.3,0.1v-0.6c1.8-0.1,2.1-0.4,2.1-2.6V52.1c0-2.2-0.3-2.5-2.1-2.6V49c1.1,0.1,3.2,0.1,5.3,0.1c1.9,0,3.8,0,5-0.1
			V49.6z"/>
		<path class="st0" d="M894.5,67.7c0.5,1.4,1.2,1.9,1.8,1.9v0.6c-1.5-0.1-3.5-0.1-5.5-0.1c-2,0-4,0-5,0.1v-0.6
			c1.4-0.1,2.1-0.3,2.1-1.1c0-0.4-0.1-0.8-0.4-1.4l-1.8-4.9h-6l-0.5,1.3c-0.7,1.8-1,3-1,3.9c0,1.8,1.1,2.1,2.7,2.2v0.6
			c-1.5-0.1-2.5-0.1-3.9-0.1c-0.8,0-1.7,0-2.3,0.1v-0.6c0.9-0.1,1.8-1,2.8-3.5l6.7-17.1c0.5,0,1,0.1,1.6,0.1s1.1,0,1.6-0.1
			L894.5,67.7z M882.8,54.1l-2.9,7.5h5.6L882.8,54.1z"/>
		<path class="st0" d="M920.7,50.5c0.2,0.2,0.4,0.3,0.6,0.3c0.4,0,0.7-0.6,0.8-1.8h0.7c-0.1,1.6-0.1,3.7-0.1,7.5h-0.7
			c-0.3-2.9-0.8-4.8-2.8-6.1c-0.8-0.5-1.8-0.9-2.8-0.9c-4.6,0-5.6,5.7-5.6,10.2s1,10.2,5.6,10.2c1,0,1.9-0.4,2.8-0.9
			c2-1.2,2.5-3.2,2.8-6.5h0.7c0,3.9,0,6.1,0.1,7.8H922c-0.1-1.2-0.3-1.8-0.7-1.8c-0.2,0-0.4,0.1-0.6,0.2c-1.5,1-3,1.9-5.6,1.9
			c-6.8,0-11.3-4-11.3-10.9c0-6.7,4.7-11.2,11.3-11.2C917.8,48.5,919.4,49.5,920.7,50.5z"/>
		<path class="st0" d="M948.3,49.6c-1.8,0.1-2.1,0.4-2.1,2.6V67c0,2.2,0.3,2.5,2.1,2.6v0.6c-1.1-0.1-3-0.1-5-0.1c-2,0-4.1,0-5.3,0.1
			v-0.6c1.8-0.1,2.1-0.4,2.1-2.6v-7.2h-6.8V67c0,2.2,0.3,2.5,2.1,2.6v0.6c-1.2-0.1-3.1-0.1-5-0.1c-2.2,0-4.2,0-5.3,0.1v-0.6
			c1.8-0.1,2.1-0.4,2.1-2.6V52.1c0-2.2-0.3-2.5-2.1-2.6V49c1.1,0.1,3.2,0.1,5.3,0.1c1.9,0,3.8,0,5-0.1v0.6c-1.8,0.1-2.1,0.4-2.1,2.6
			v7.1h6.8v-7.1c0-2.2-0.3-2.5-2.1-2.6V49c1.2,0.1,3.3,0.1,5.3,0.1c2.1,0,4,0,5-0.1V49.6z"/>
		<path class="st0" d="M968.3,67.7c0.5,1.4,1.2,1.9,1.8,1.9v0.6c-1.5-0.1-3.5-0.1-5.5-0.1c-2,0-4,0-5,0.1v-0.6
			c1.4-0.1,2.1-0.3,2.1-1.1c0-0.4-0.1-0.8-0.4-1.4l-1.8-4.9h-6l-0.5,1.3c-0.7,1.8-1,3-1,3.9c0,1.8,1.1,2.1,2.7,2.2v0.6
			c-1.5-0.1-2.5-0.1-3.9-0.1c-0.8,0-1.7,0-2.3,0.1v-0.6c0.9-0.1,1.8-1,2.8-3.5l6.7-17.1c0.5,0,1,0.1,1.6,0.1s1.1,0,1.6-0.1
			L968.3,67.7z M956.6,54.1l-2.9,7.5h5.6L956.6,54.1z"/>
		<path class="st0" d="M980.5,49.6c-1.8,0.1-2.1,0.4-2.1,2.6V67c0,2.2,0.3,2.5,2.1,2.6v0.6c-1.2-0.1-3.1-0.1-5-0.1
			c-2.2,0-4.2,0-5.3,0.1v-0.6c1.8-0.1,2.1-0.4,2.1-2.6V52.1c0-2.2-0.3-2.5-2.1-2.6V49c1.1,0.1,3.2,0.1,5.3,0.1c1.9,0,3.8,0,5-0.1
			V49.6z"/>
		<path class="st0" d="M1002.5,49.6c-1.8,0.4-2.1,1.3-2.1,4.7v16c-0.3,0-0.6,0-1,0c-0.4,0-0.7,0-1.1,0L985,55.7v8.6
			c0,4,0.2,4.9,3,5.3v0.6c-0.8-0.1-2.3-0.1-3.4-0.1c-0.9,0-1.9,0-2.5,0.1v-0.6c1.8-0.4,2.1-1.3,2.1-4.7V52.1c0-2.2-0.3-2.5-2.1-2.6
			V49c0.6,0.1,1.6,0.1,2.5,0.1c1,0,2,0,2.8-0.1l12.3,13v-7.1c0-4-0.2-4.9-3-5.3V49c0.8,0.1,2.2,0.1,3.4,0.1c0.9,0,1.9,0,2.5-0.1
			V49.6z"/>
	</g>
	<g>
		<path class="st0" d="M1098.8,17.4v394h-351v-394H1098.8 M1105.8,10.4h-365v408h365V10.4L1105.8,10.4z"/>
	</g>
</g>
</svg>
