<svg id="Layer_1" data-name="Layer 1" xmlns="http://www.w3.org/2000/svg" viewBox="0 0 27 17.98"><defs><style>.cls-1{fill:#fff;}</style></defs><title>Pattern</title><path class="cls-1" d="M.54,12.87,0,11.94v1.87C.2,13.47.37,13.18.54,12.87Z"/><path class="cls-1" d="M5.18,17.49a.15.15,0,0,0-.13,0L4.17,18H6.05Z"/><path class="cls-1" d="M26.5,12.81a.15.15,0,0,0,0,.13c.15.28.31.56.5.88h0V11.94h0C26.81,12.25,26.65,12.53,26.5,12.81Z"/><path class="cls-1" d="M21.88,17.44,21,18h1.86Z"/><path class="cls-1" d="M5.11.55,6.06,0H4.17Z"/><path class="cls-1" d="M0,6.05l.53-.93C.37,4.81.2,4.52,0,4.18V6Z"/><path class="cls-1" d="M13,3.82A.15.15,0,0,0,13,4c.15.28.31.56.5.88.2-.35.37-.64.54-1l-.54-.94C13.31,3.27,13.15,3.54,13,3.82Z"/><path class="cls-1" d="M7.44,9l1,.54L9.33,9l-.95-.54Z"/><path class="cls-1" d="M18.55,8.5,17.67,9l.94.55L19.56,9l-.88-.49A.15.15,0,0,0,18.55,8.5Z"/><path class="cls-1" d="M13,14.05a.14.14,0,0,0,0,.11,8.39,8.39,0,0,0,.52.88l.53-.93c-.17-.31-.35-.6-.54-.94C13.31,13.49,13.15,13.77,13,14.05Z"/><path class="cls-1" d="M21.89.55,22.83,0H20.94Z"/><path class="cls-1" d="M26.5,5.06a.14.14,0,0,0,0,.11A8.9,8.9,0,0,0,27,6V4.18h0C26.81,4.5,26.65,4.78,26.5,5.06Z"/></svg>