<svg id="Layer_1" data-name="Layer 1" xmlns="http://www.w3.org/2000/svg" viewBox="0 0 1237 258"><defs><style>.cls-1{fill:#fff;}.cls-2,.cls-3{fill:none;stroke:#000;stroke-linecap:round;}.cls-2{stroke-linejoin:round;stroke-width:2px;}.cls-3{stroke-miterlimit:10;stroke-width:2.05px;}</style></defs><title>ele</title><rect class="cls-1" x="-0.44" y="-0.5" width="1237.34" height="258.26"/><path class="cls-2" d="M114.51,174.67c5.79.68,7,5.4,10.92,8.76,5.63,4.76,10.81-3.45,11.07-8.67.1-2-.31-4.68-2.41-5.72s-4.52.31-2.89,2.67,8.34,7.91,11.35,4.93c2.46-2.44,2.74-6.81,3-10,.38-4.08.29-8.14.45-12.23.28-7.35,2.5-14.19,9.32-17.86,4.57-2.45,10.49-4,13.59,1.37,3.86,6.73-6.19,9.94-11.08,10.29-2.56.18-6.15.19-8-2-2.1-2.5.61-5.64,2.38-7.37a1,1,0,0,1,1.49,0,5.06,5.06,0,0,0,2.69,1.36c.38.11.75.22,1.12.36a2.5,2.5,0,0,1,.8.4,1.7,1.7,0,0,1,.47.69c.16.46.18,1.19-.36,1.38a1,1,0,0,1-.94-.29A2.38,2.38,0,0,1,157,142a2.15,2.15,0,0,1-.14-.91c0-.24,0-.49,0-.73a9.16,9.16,0,0,1,.23-1.39,8.57,8.57,0,0,1,1.08-2.48,10.51,10.51,0,0,1,1.74-2.08,14.75,14.75,0,0,1,2.24-1.71,19.66,19.66,0,0,1,2.58-1.33,24,24,0,0,1,2.73-1,27.37,27.37,0,0,1,2.71-.64l.94-.15c7.35-1,14.9.24,18.32,7.63"/><path class="cls-2" d="M437.51,174.67c5.79.68,7,5.4,10.92,8.76,5.63,4.76,10.81-3.45,11.07-8.67.1-2-.31-4.68-2.41-5.72-1.95-1-4.52.31-2.89,2.67s8.34,7.91,11.35,4.93c2.46-2.44,2.74-6.81,3-10,.38-4.08.29-8.14.45-12.23.28-7.35,2.5-14.19,9.32-17.86,4.57-2.45,10.49-4,13.59,1.37,3.86,6.73-6.19,9.94-11.08,10.29-2.56.18-6.15.19-8-2-2.1-2.5.61-5.64,2.38-7.37a1,1,0,0,1,1.49,0,5.06,5.06,0,0,0,2.69,1.36c.38.11.75.22,1.12.36a2.5,2.5,0,0,1,.8.4,1.7,1.7,0,0,1,.47.69c.16.46.18,1.19-.36,1.38a1,1,0,0,1-.94-.29A2.38,2.38,0,0,1,480,142a2.15,2.15,0,0,1-.14-.91c0-.24,0-.49,0-.73a9.16,9.16,0,0,1,.23-1.39,8.57,8.57,0,0,1,1.08-2.48,10.51,10.51,0,0,1,1.74-2.08,14.75,14.75,0,0,1,2.24-1.71,19.66,19.66,0,0,1,2.58-1.33,24,24,0,0,1,2.73-1,27.37,27.37,0,0,1,2.71-.64l.94-.15c7.35-1,14.9.24,18.32,7.63,5.54,12-2.7,25.91-9.36,35.64-7.7,11.24-16.66,24.58-30,29.43-16.33,6-31.15-3.36-41.46-15.72-9.77-11.72-19.37-28.19-15.38-44a1.07,1.07,0,0,1,1.93-.25"/><path class="cls-2" d="M755.51,174.67c5.79.68,7,5.4,10.92,8.76,5.63,4.76,10.81-3.45,11.07-8.67.1-2-.31-4.68-2.41-5.72s-4.52.31-2.89,2.67,8.34,7.91,11.35,4.93c2.46-2.44,2.74-6.81,3-10,.38-4.08.29-8.14.45-12.23.28-7.35,2.5-14.19,9.32-17.86,4.57-2.45,10.49-4,13.59,1.37,3.86,6.73-6.19,9.94-11.08,10.29-2.56.18-6.15.19-8-2-2.1-2.5.61-5.64,2.38-7.37a1,1,0,0,1,1.49,0,5.06,5.06,0,0,0,2.69,1.36c.38.11.75.22,1.12.36a2.5,2.5,0,0,1,.8.4,1.7,1.7,0,0,1,.47.69c.16.46.18,1.19-.36,1.38a1,1,0,0,1-.94-.29A2.38,2.38,0,0,1,798,142a2.15,2.15,0,0,1-.14-.91c0-.24,0-.49,0-.73a9.16,9.16,0,0,1,.23-1.39,8.57,8.57,0,0,1,1.08-2.48,10.51,10.51,0,0,1,1.74-2.08,14.75,14.75,0,0,1,2.24-1.71,19.66,19.66,0,0,1,2.58-1.33,24,24,0,0,1,2.73-1,27.37,27.37,0,0,1,2.71-.64l.94-.15c7.35-1,14.9.24,18.32,7.63,5.54,12-2.7,25.91-9.36,35.64-7.7,11.24-16.66,24.58-30,29.43-16.33,6-31.15-3.36-41.46-15.72-9.77-11.72-19.37-28.19-15.38-44a1.07,1.07,0,0,1,1.93-.25c12.09,17-15.38,25.82-28,21-6.67-2.57-10.94-10.86-10.39-17.81.65-8.19,6.81-9.94,13.6-7l.32.15c1.19.73.49,2.52-.73,2l-.2-.11c-5.08-3.1-11.14-5.31-15.3-9.69-3.16-3.33-5.95-8.72-4.32-13.43a9.06,9.06,0,0,1,6.32-5.93,14.26,14.26,0,0,1,8.88.83,15.94,15.94,0,0,1,2.26,1.14,7.61,7.61,0,0,1,2.25,1.77c.38.48.74,1.2.19,1.68-1.6,1.44-2.71-2-2.92-2.89-.15-.69-.32-1.38-.47-2.06a38.58,38.58,0,0,1-.75-4.25,4.75,4.75,0,0,1,.38-2.93,2.53,2.53,0,0,1,2.6-1l.28,0"/><path class="cls-2" d="M1080.51,174.67c5.79.68,7,5.4,10.92,8.76,5.63,4.76,10.81-3.45,11.07-8.67.1-2-.31-4.68-2.41-5.72-1.95-1-4.52.31-2.89,2.67s8.34,7.91,11.35,4.93c2.46-2.44,2.74-6.81,3-10,.38-4.08.29-8.14.45-12.23.28-7.35,2.5-14.19,9.32-17.86,4.57-2.45,10.49-4,13.59,1.37,3.86,6.73-6.19,9.94-11.08,10.29-2.56.18-6.15.19-8-2-2.1-2.5.61-5.64,2.38-7.37a1,1,0,0,1,1.49,0,5.06,5.06,0,0,0,2.69,1.36c.38.11.75.22,1.12.36a2.5,2.5,0,0,1,.8.4,1.7,1.7,0,0,1,.47.69c.16.46.18,1.19-.36,1.38a1,1,0,0,1-.94-.29,2.38,2.38,0,0,1-.55-.71,2.15,2.15,0,0,1-.14-.91c0-.24,0-.49,0-.73a9.16,9.16,0,0,1,.23-1.39,8.57,8.57,0,0,1,1.08-2.48,10.51,10.51,0,0,1,1.74-2.08,14.75,14.75,0,0,1,2.24-1.71,19.66,19.66,0,0,1,2.58-1.33,24,24,0,0,1,2.73-1,27.37,27.37,0,0,1,2.71-.64l.94-.15c7.35-1,14.9.24,18.32,7.63,5.54,12-2.7,25.91-9.36,35.64-7.7,11.24-16.66,24.58-30,29.43-16.33,6-31.15-3.36-41.46-15.72-9.77-11.72-19.37-28.19-15.38-44a1.07,1.07,0,0,1,1.93-.25c12.09,17-15.38,25.82-28,21-6.67-2.57-10.94-10.86-10.39-17.81.65-8.19,6.81-9.94,13.6-7l.32.15c1.19.73.49,2.52-.73,2l-.2-.11c-5.08-3.1-11.14-5.31-15.3-9.69-3.16-3.33-5.95-8.72-4.32-13.43a9.06,9.06,0,0,1,6.32-5.93,14.26,14.26,0,0,1,8.88.83,15.94,15.94,0,0,1,2.26,1.14,7.61,7.61,0,0,1,2.25,1.77c.38.48.74,1.2.19,1.68-1.6,1.44-2.71-2-2.92-2.89-.15-.69-.32-1.38-.47-2.06a38.58,38.58,0,0,1-.75-4.25,4.75,4.75,0,0,1,.38-2.93,2.53,2.53,0,0,1,2.6-1l.28,0c1.13.29.92,2.21-.28,2.07l-.28,0c-3.5-.89-6.56-3-5.21-6.94a11.28,11.28,0,0,1,3.26-4.57,21.17,21.17,0,0,1,2.67-2,9.85,9.85,0,0,1,2.68-1.37c.84-.22,2.21-.11,2.31,1a1.07,1.07,0,0,1-1,1.12,2.42,2.42,0,0,1-1.82-.53c-.37-.23-.74-.48-1.09-.74A17.16,17.16,0,0,1,1034.4,90a13.56,13.56,0,0,1-3-4.59,7.09,7.09,0,0,1-.14-5,6.13,6.13,0,0,1,.46-1,9.28,9.28,0,0,1,6-4.31,30.75,30.75,0,0,0,9-3.36c4.61-2.81,10-5.79,15.51-5.94,5.94-.17,10.31,3.24,13.23,8.27l.13.22c.68,1.18-1.34,1.73-2,.55-12.11-20.94,27.88-43.86,39-21.74,4.6,9.1,5.7,22.57-.73,31.13-2,2.68-7,6.33-10.67,4.82-3.34-1.4-2.62-5.54-1.69-8.34a44.67,44.67,0,0,1,7.37-13.49c4-5.11,10.2-7.39,16.49-8.59a56.23,56.23,0,0,1,14.3-1c2.92.21,6.07.56,8.43,2.49,4.74,3.86,4.76,10.9,6.89,16.22a1.05,1.05,0,0,1-1,1.33,1.8,1.8,0,0,1-2-1.71c-.17-.83.73-1.77,1.55-1.19,4.78,3.31,9.32,7,14.21,10.13a71.82,71.82,0,0,0,14.32,6.9c6.44,2.36,14.74,5.65,16.27,13.24,2,9.86-9.81,12.14-17.18,11.23-4.27-.53-14.91-3.5-10.16-9.8,5.16-6.86,16.37,2.88,19.51,7.46,2,2.94,3.58,7.13,1,10.25-3.37,4-12.47,3.08-13.66,8.72s4.23,14.13-1,18.74c-3.72,3.24-10.2,2.59-11.17-2.88a1.08,1.08,0,0,1,1-1.34c21.78-2.1,5.12,48.35-9.42,27.3"/><rect class="cls-3" x="37.63" y="25.62" width="206.78" height="206.78"/><rect class="cls-3" x="359.39" y="25.62" width="206.78" height="206.78"/><rect class="cls-3" x="681.16" y="25.62" width="206.78" height="206.78"/><rect class="cls-3" x="1002.92" y="25.62" width="206.78" height="206.78"/><line class="cls-3" x1="334.69" y1="129.01" x2="266.29" y2="129.01"/><polyline class="cls-3" points="323.52 115.05 336.09 129.01 323.52 142.97"/><line class="cls-3" x1="650.18" y1="129.01" x2="581.78" y2="129.01"/><polyline class="cls-3" points="639.01 115.05 651.57 129.01 639.01 142.97"/><line class="cls-3" x1="979.62" y1="129.01" x2="911.22" y2="129.01"/><polyline class="cls-3" points="968.46 115.05 981.02 129.01 968.46 142.97"/></svg>