<?xml version="1.0" encoding="utf-8"?>
<!-- Generator: Adobe Illustrator 23.0.2, SVG Export Plug-In . SVG Version: 6.00 Build 0)  -->
<svg version="1.1" id="Layer_1" xmlns="http://www.w3.org/2000/svg" xmlns:xlink="http://www.w3.org/1999/xlink" x="0px" y="0px"
	 viewBox="0 0 697.5 1038" style="enable-background:new 0 0 697.5 1038;" xml:space="preserve">
<style type="text/css">
	.st0{fill:#FFFFFF;}
	.st1{fill:none;}
</style>
<title>ele</title>
<rect x="536.8" class="st0" width="160.7" height="1038"/>
<g>
	<g>
		<path d="M397.9,1012.2c-0.5,0-0.9-0.4-0.9-0.9V26.8c0-0.5,0.4-0.9,0.9-0.9s0.9,0.4,0.9,0.9v984.5
			C398.8,1011.8,398.4,1012.2,397.9,1012.2z"/>
	</g>
	<g>
		<circle cx="397.9" cy="63.8" r="10.5"/>
	</g>
	<g>
		<circle cx="398.4" cy="156.8" r="10.5"/>
	</g>
	<g>
		<circle class="st1" cx="397.9" cy="249.8" r="10.5"/>
	</g>
	<g>
		<circle cx="398.4" cy="342.8" r="10.5"/>
	</g>
	<g>
		<circle class="st1" cx="397.9" cy="435.8" r="10.5"/>
	</g>
	<g>
		<circle cx="398.4" cy="528.8" r="10.5"/>
	</g>
	<g>
		<circle class="st1" cx="397.9" cy="621.8" r="10.5"/>
	</g>
	<g>
		<circle class="st1" cx="398.4" cy="714.8" r="10.5"/>
	</g>
	<g>
		<circle cx="397.9" cy="807.8" r="10.5"/>
	</g>
	<g>
		<circle class="st1" cx="398.4" cy="900.8" r="10.5"/>
	</g>
	<g>
		<path d="M58.6,63.4c0.2,1.5,1.6,2.3,3.6,2.3c1.9,0,3.2-1,3.2-2.3c0-1.1-0.8-1.9-2.8-2.3L61,60.8c-3-0.6-4.3-2-4.3-4.1
			c0-2.5,2.2-4.3,5.4-4.3c3.1,0,5.3,1.8,5.4,4.4h-2.2c-0.1-1.5-1.4-2.4-3.2-2.4c-1.7,0-3,0.8-3,2.2c0,1.1,0.8,1.8,2.7,2.2l1.6,0.3
			c3.1,0.7,4.4,1.9,4.4,4c0,2.8-2.2,4.5-5.6,4.5c-3.3,0-5.6-1.7-5.7-4.3H58.6z"/>
		<path d="M72.3,54.1v2.6h2.1v1.8h-2.1v5.9c0,0.9,0.4,1.4,1.3,1.4c0.2,0,0.6,0,0.7-0.1v1.8c-0.2,0.1-0.7,0.1-1.2,0.1
			c-2.2,0-3-0.8-3-2.9v-6.2h-1.6v-1.8h1.6v-2.6H72.3z"/>
		<path d="M75.6,64.4c0-1.9,1.4-3,4-3.2l3-0.2v-0.8c0-1.2-0.8-1.9-2.2-1.9c-1.3,0-2.1,0.6-2.3,1.6H76c0.1-1.9,1.8-3.4,4.5-3.4
			c2.6,0,4.3,1.4,4.3,3.5v7.4h-2.1v-1.8h-0.1c-0.6,1.2-2,2-3.4,2C77.1,67.6,75.6,66.3,75.6,64.4z M82.6,63.4v-0.9l-2.7,0.2
			c-1.3,0.1-2.1,0.7-2.1,1.6c0,0.9,0.8,1.6,2,1.6C81.4,65.9,82.6,64.8,82.6,63.4z"/>
		<path d="M86.9,56.7H89v1.8h0.1c0.4-1.3,1.3-2,2.6-2c0.3,0,0.6,0.1,0.8,0.1v2.1c-0.2-0.1-0.6-0.1-1-0.1c-1.4,0-2.3,1-2.3,2.5v6.5
			h-2.2V56.7z"/>
		<path d="M96.7,54.1v2.6h2.1v1.8h-2.1v5.9c0,0.9,0.4,1.4,1.3,1.4c0.2,0,0.6,0,0.7-0.1v1.8c-0.2,0.1-0.7,0.1-1.2,0.1
			c-2.2,0-3-0.8-3-2.9v-6.2h-1.6v-1.8h1.6v-2.6H96.7z"/>
		<path d="M105.1,67.5V52.7h5.9c2.6,0,4.3,1.5,4.3,3.7c0,1.6-1.2,3-2.6,3.2v0.1c2,0.2,3.4,1.7,3.4,3.6c0,2.6-1.9,4.2-5,4.2H105.1z
			 M107.4,59h2.6c2,0,3.1-0.8,3.1-2.3c0-1.4-0.9-2.1-2.6-2.1h-3.1V59z M110.5,65.6c2.1,0,3.2-0.9,3.2-2.5s-1.1-2.4-3.3-2.4h-3v4.9
			H110.5z"/>
		<path d="M127,67.5h-2.1v-1.8h-0.1c-0.6,1.3-1.7,2-3.3,2c-2.3,0-3.8-1.5-3.8-4v-7h2.2v6.6c0,1.6,0.8,2.5,2.3,2.5
			c1.6,0,2.6-1.1,2.6-2.8v-6.3h2.2V67.5z"/>
		<path d="M129.1,53.7c0-0.7,0.6-1.3,1.3-1.3c0.7,0,1.3,0.6,1.3,1.3c0,0.7-0.6,1.3-1.3,1.3C129.7,54.9,129.1,54.4,129.1,53.7z
			 M129.3,56.7h2.2v10.8h-2.2V56.7z"/>
		<path d="M133.8,52.7h2.2v14.8h-2.2V52.7z"/>
		<path d="M137.8,62.1c0-3.4,1.8-5.6,4.5-5.6c1.5,0,2.8,0.8,3.4,2h0v-5.8h2.2v14.8h-2.2v-1.8h0c-0.6,1.2-1.9,2-3.4,2
			C139.6,67.6,137.8,65.5,137.8,62.1z M140.1,62.1c0,2.3,1.1,3.7,2.9,3.7c1.7,0,2.8-1.4,2.8-3.7c0-2.2-1.1-3.7-2.8-3.7
			C141.2,58.4,140.1,59.8,140.1,62.1z"/>
		<path d="M150.2,53.7c0-0.7,0.6-1.3,1.3-1.3s1.3,0.6,1.3,1.3c0,0.7-0.6,1.3-1.3,1.3S150.2,54.4,150.2,53.7z M150.3,56.7h2.2v10.8
			h-2.2V56.7z"/>
		<path d="M154.8,56.7h2.1v1.8h0.1c0.6-1.2,1.7-2,3.4-2c2.4,0,3.7,1.5,3.7,4v7h-2.2v-6.6c0-1.6-0.8-2.5-2.3-2.5
			c-1.6,0-2.6,1.1-2.6,2.8v6.3h-2.2V56.7z"/>
		<path d="M166.2,68.3h2.2c0.3,0.9,1.3,1.5,2.6,1.5c1.7,0,2.8-1,2.8-2.5v-1.8h0c-0.6,1.2-1.9,1.9-3.4,1.9c-2.7,0-4.5-2.1-4.5-5.5
			c0-3.4,1.8-5.5,4.5-5.5c1.5,0,2.8,0.8,3.4,2h0v-1.8h2.2v10.6c0,2.6-2,4.3-5.1,4.3C168.3,71.5,166.4,70.2,166.2,68.3z M173.7,62
			c0-2.2-1.1-3.7-2.9-3.7c-1.7,0-2.8,1.4-2.8,3.7c0,2.3,1.1,3.6,2.8,3.6C172.6,65.7,173.7,64.3,173.7,62z"/>
		<path d="M182.6,67.5V52.7h5.9c2.6,0,4.3,1.5,4.3,3.7c0,1.6-1.2,3-2.6,3.2v0.1c2,0.2,3.4,1.7,3.4,3.6c0,2.6-1.9,4.2-5,4.2H182.6z
			 M184.9,59h2.6c2,0,3.1-0.8,3.1-2.3c0-1.4-0.9-2.1-2.6-2.1h-3.1V59z M188.1,65.6c2.1,0,3.2-0.9,3.2-2.5s-1.1-2.4-3.3-2.4h-3v4.9
			H188.1z"/>
		<path d="M195.4,52.7h2.2v14.8h-2.2V52.7z"/>
		<path d="M199.4,62.1c0-3.5,2-5.6,5.1-5.6s5.1,2.1,5.1,5.6c0,3.5-2,5.6-5.1,5.6S199.4,65.5,199.4,62.1z M207.4,62.1
			c0-2.4-1.1-3.8-2.9-3.8s-2.9,1.4-2.9,3.8c0,2.4,1.1,3.8,2.9,3.8C206.3,65.8,207.4,64.5,207.4,62.1z"/>
		<path d="M218.5,60.4c-0.2-1.1-1.1-2.1-2.5-2.1c-1.7,0-2.8,1.4-2.8,3.7c0,2.4,1.1,3.7,2.9,3.7c1.4,0,2.3-0.7,2.5-2h2.1
			c-0.2,2.3-2.1,3.9-4.7,3.9c-3.1,0-5.1-2.1-5.1-5.6c0-3.4,2-5.6,5.1-5.6c2.8,0,4.5,1.8,4.7,3.9H218.5z"/>
		<path d="M228.9,56.7h2.6l-4.5,4.6l4.6,6.1h-2.6l-3.7-4.8l-0.9,0.9v3.9h-2.2V52.7h2.2v8.6h0L228.9,56.7z"/>
		<path d="M239.4,60.4c-0.2-1.1-1.1-2.1-2.5-2.1c-1.7,0-2.8,1.4-2.8,3.7c0,2.4,1.1,3.7,2.9,3.7c1.4,0,2.3-0.7,2.5-2h2.1
			c-0.2,2.3-2.1,3.9-4.7,3.9c-3.1,0-5.1-2.1-5.1-5.6c0-3.4,2-5.6,5.1-5.6c2.8,0,4.5,1.8,4.7,3.9H239.4z"/>
		<path d="M243.2,52.7h2.2v5.8h0.1c0.6-1.3,1.8-2,3.4-2c2.4,0,3.8,1.6,3.8,4v7h-2.2v-6.5c0-1.6-0.8-2.5-2.4-2.5
			c-1.6,0-2.6,1.1-2.6,2.8v6.2h-2.2V52.7z"/>
		<path d="M254.4,64.4c0-1.9,1.4-3,4-3.2l3-0.2v-0.8c0-1.2-0.8-1.9-2.2-1.9c-1.3,0-2.1,0.6-2.3,1.6h-2.1c0.1-1.9,1.8-3.4,4.5-3.4
			c2.6,0,4.3,1.4,4.3,3.5v7.4h-2.1v-1.8h-0.1c-0.6,1.2-2,2-3.4,2C255.9,67.6,254.4,66.3,254.4,64.4z M261.3,63.4v-0.9l-2.7,0.2
			c-1.3,0.1-2.1,0.7-2.1,1.6c0,0.9,0.8,1.6,2,1.6C260.1,65.9,261.3,64.8,261.3,63.4z"/>
		<path d="M265.6,53.7c0-0.7,0.6-1.3,1.3-1.3s1.3,0.6,1.3,1.3c0,0.7-0.6,1.3-1.3,1.3S265.6,54.4,265.6,53.7z M265.8,56.7h2.2v10.8
			h-2.2V56.7z"/>
		<path d="M270.2,56.7h2.1v1.8h0.1c0.6-1.2,1.7-2,3.4-2c2.4,0,3.7,1.5,3.7,4v7h-2.2v-6.6c0-1.6-0.8-2.5-2.3-2.5
			c-1.6,0-2.6,1.1-2.6,2.8v6.3h-2.2V56.7z"/>
		<path d="M291.7,52.7c2.9,0,4.9,2,4.9,4.9c0,2.9-2,4.9-4.9,4.9h-3.2v5.1h-2.3V52.7H291.7z M288.5,60.5h2.6c2,0,3.1-1.1,3.1-2.9
			s-1.1-2.9-3.1-2.9h-2.6V60.5z"/>
		<path d="M298.4,56.7h2.1v1.8h0.1c0.4-1.3,1.3-2,2.6-2c0.3,0,0.6,0.1,0.8,0.1v2.1c-0.2-0.1-0.6-0.1-1-0.1c-1.4,0-2.3,1-2.3,2.5v6.5
			h-2.2V56.7z"/>
		<path d="M304.3,62.1c0-3.5,2-5.6,5.1-5.6s5.1,2.1,5.1,5.6c0,3.5-2,5.6-5.1,5.6S304.3,65.5,304.3,62.1z M312.3,62.1
			c0-2.4-1.1-3.8-2.9-3.8s-2.9,1.4-2.9,3.8c0,2.4,1.1,3.8,2.9,3.8C311.2,65.8,312.3,64.5,312.3,62.1z"/>
		<path d="M319.1,54.1v2.6h2.1v1.8h-2.1v5.9c0,0.9,0.4,1.4,1.3,1.4c0.2,0,0.6,0,0.7-0.1v1.8c-0.2,0.1-0.7,0.1-1.2,0.1
			c-2.2,0-3-0.8-3-2.9v-6.2h-1.6v-1.8h1.6v-2.6H319.1z"/>
		<path d="M322.2,62.1c0-3.5,2-5.6,5.1-5.6s5.1,2.1,5.1,5.6c0,3.5-2,5.6-5.1,5.6S322.2,65.5,322.2,62.1z M330.2,62.1
			c0-2.4-1.1-3.8-2.9-3.8s-2.9,1.4-2.9,3.8c0,2.4,1.1,3.8,2.9,3.8C329.1,65.8,330.2,64.5,330.2,62.1z"/>
		<path d="M341.3,60.4c-0.2-1.1-1.1-2.1-2.5-2.1c-1.7,0-2.8,1.4-2.8,3.7c0,2.4,1.1,3.7,2.9,3.7c1.4,0,2.3-0.7,2.5-2h2.1
			c-0.2,2.3-2.1,3.9-4.7,3.9c-3.1,0-5.1-2.1-5.1-5.6c0-3.4,2-5.6,5.1-5.6c2.8,0,4.5,1.8,4.7,3.9H341.3z"/>
		<path d="M344.6,62.1c0-3.5,2-5.6,5.1-5.6s5.1,2.1,5.1,5.6c0,3.5-2,5.6-5.1,5.6S344.6,65.5,344.6,62.1z M352.5,62.1
			c0-2.4-1.1-3.8-2.9-3.8s-2.9,1.4-2.9,3.8c0,2.4,1.1,3.8,2.9,3.8C351.4,65.8,352.5,64.5,352.5,62.1z"/>
		<path d="M356.6,52.7h2.2v14.8h-2.2V52.7z"/>
	</g>
	<g>
		<path d="M75.9,154.1c0-4.7,2.6-7.6,6.8-7.6c3.4,0,5.9,2.1,6.3,5.1h-2.3c-0.4-1.9-2-3.1-4-3.1c-2.7,0-4.4,2.2-4.4,5.6
			c0,3.5,1.7,5.6,4.4,5.6c2.1,0,3.5-1.1,4-2.8H89c-0.6,3.1-2.9,4.8-6.3,4.8C78.6,161.7,75.9,158.8,75.9,154.1z"/>
		<path d="M90.3,156.1c0-3.5,2-5.6,5.1-5.6s5.1,2.1,5.1,5.6c0,3.5-2,5.6-5.1,5.6S90.3,159.5,90.3,156.1z M98.3,156.1
			c0-2.4-1.1-3.8-2.9-3.8s-2.9,1.4-2.9,3.8c0,2.4,1.1,3.8,2.9,3.8C97.2,159.8,98.3,158.5,98.3,156.1z"/>
		<path d="M102.3,150.7h2.1v1.8h0.1c0.5-1.2,1.6-2,3.1-2c1.5,0,2.6,0.8,3,2.1h0.1c0.6-1.3,1.8-2.1,3.4-2.1c2.1,0,3.5,1.4,3.5,3.6
			v7.4h-2.2v-6.9c0-1.4-0.7-2.2-2.1-2.2s-2.2,1-2.2,2.3v6.7h-2.2v-7c0-1.2-0.8-2-2-2c-1.3,0-2.2,1-2.2,2.4v6.7h-2.2V150.7z"/>
		<path d="M129.8,156.1c0,3.4-1.8,5.6-4.5,5.6c-1.5,0-2.8-0.8-3.4-2h-0.1v5.3h-2.2v-14.4h2.1v1.9h0c0.6-1.2,1.9-2,3.4-2
			C127.9,150.5,129.8,152.6,129.8,156.1z M127.5,156.1c0-2.3-1.1-3.7-2.9-3.7c-1.7,0-2.8,1.5-2.8,3.7c0,2.2,1.1,3.7,2.8,3.7
			C126.4,159.8,127.5,158.3,127.5,156.1z"/>
		<path d="M131.5,146.7h2.2v14.8h-2.2V146.7z"/>
		<path d="M145.3,158.3c-0.3,2-2.2,3.4-4.6,3.4c-3.2,0-5.1-2.1-5.1-5.5c0-3.4,1.9-5.6,5-5.6c3,0,4.9,2.1,4.9,5.4v0.8h-7.6v0.1
			c0,1.9,1.1,3.1,2.9,3.1c1.3,0,2.2-0.6,2.5-1.6H145.3z M137.8,155.1h5.4c-0.1-1.7-1.1-2.8-2.6-2.8S137.9,153.4,137.8,155.1z"/>
		<path d="M150,148.1v2.6h2.1v1.8H150v5.9c0,0.9,0.4,1.4,1.3,1.4c0.2,0,0.6,0,0.7-0.1v1.8c-0.2,0.1-0.7,0.1-1.2,0.1
			c-2.2,0-3-0.8-3-2.9v-6.2h-1.6v-1.8h1.6v-2.6H150z"/>
		<path d="M162.8,158.3c-0.3,2-2.2,3.4-4.6,3.4c-3.2,0-5.1-2.1-5.1-5.5c0-3.4,1.9-5.6,5-5.6c3,0,4.9,2.1,4.9,5.4v0.8h-7.6v0.1
			c0,1.9,1.1,3.1,2.9,3.1c1.3,0,2.2-0.6,2.5-1.6H162.8z M155.4,155.1h5.4c-0.1-1.7-1.1-2.8-2.6-2.8
			C156.6,152.3,155.5,153.4,155.4,155.1z"/>
		<path d="M169.2,161.5v-14.8h5.9c2.6,0,4.3,1.5,4.3,3.7c0,1.6-1.2,3-2.6,3.2v0.1c2,0.2,3.4,1.7,3.4,3.6c0,2.6-1.9,4.2-5,4.2H169.2z
			 M171.5,153h2.6c2,0,3.1-0.8,3.1-2.3c0-1.4-0.9-2.1-2.6-2.1h-3.1V153z M174.7,159.6c2.1,0,3.2-0.9,3.2-2.5s-1.1-2.4-3.3-2.4h-3
			v4.9H174.7z"/>
		<path d="M182,146.7h2.2v14.8H182V146.7z"/>
		<path d="M186,156.1c0-3.5,2-5.6,5.1-5.6s5.1,2.1,5.1,5.6c0,3.5-2,5.6-5.1,5.6C188,161.7,186,159.5,186,156.1z M194,156.1
			c0-2.4-1.1-3.8-2.9-3.8c-1.7,0-2.9,1.4-2.9,3.8c0,2.4,1.1,3.8,2.9,3.8C192.8,159.8,194,158.5,194,156.1z"/>
		<path d="M205.1,154.4c-0.2-1.1-1.1-2.1-2.5-2.1c-1.7,0-2.8,1.4-2.8,3.7c0,2.4,1.1,3.7,2.9,3.7c1.4,0,2.3-0.7,2.5-2h2.1
			c-0.2,2.3-2.1,3.9-4.7,3.9c-3.1,0-5.1-2.1-5.1-5.6c0-3.4,2-5.6,5.1-5.6c2.8,0,4.5,1.8,4.7,3.9H205.1z"/>
		<path d="M215.5,150.7h2.6l-4.5,4.6l4.6,6.1h-2.6l-3.7-4.8l-0.9,0.9v3.9h-2.2v-14.8h2.2v8.6h0L215.5,150.7z"/>
		<path d="M226,154.4c-0.2-1.1-1.1-2.1-2.5-2.1c-1.7,0-2.8,1.4-2.8,3.7c0,2.4,1.1,3.7,2.9,3.7c1.4,0,2.3-0.7,2.5-2h2.1
			c-0.2,2.3-2.1,3.9-4.7,3.9c-3.1,0-5.1-2.1-5.1-5.6c0-3.4,2-5.6,5.1-5.6c2.8,0,4.5,1.8,4.7,3.9H226z"/>
		<path d="M229.8,146.7h2.2v5.8h0.1c0.6-1.3,1.8-2,3.4-2c2.4,0,3.8,1.6,3.8,4v7H237v-6.5c0-1.6-0.8-2.5-2.4-2.5
			c-1.6,0-2.6,1.1-2.6,2.8v6.2h-2.2V146.7z"/>
		<path d="M240.9,158.4c0-1.9,1.4-3,4-3.2l3-0.2v-0.8c0-1.2-0.8-1.9-2.2-1.9c-1.3,0-2.1,0.6-2.3,1.6h-2.1c0.1-1.9,1.8-3.4,4.5-3.4
			c2.6,0,4.3,1.4,4.3,3.5v7.4H248v-1.8h-0.1c-0.6,1.2-2,2-3.4,2C242.4,161.6,240.9,160.3,240.9,158.4z M247.9,157.4v-0.9l-2.7,0.2
			c-1.3,0.1-2.1,0.7-2.1,1.6c0,0.9,0.8,1.6,2,1.6C246.7,159.9,247.9,158.8,247.9,157.4z"/>
		<path d="M252.1,147.7c0-0.7,0.6-1.3,1.3-1.3c0.7,0,1.3,0.6,1.3,1.3c0,0.7-0.6,1.3-1.3,1.3C252.7,148.9,252.1,148.4,252.1,147.7z
			 M252.3,150.7h2.2v10.8h-2.2V150.7z"/>
		<path d="M256.8,150.7h2.1v1.8h0.1c0.6-1.2,1.7-2,3.4-2c2.4,0,3.7,1.5,3.7,4v7h-2.2v-6.6c0-1.6-0.8-2.5-2.3-2.5
			c-1.6,0-2.6,1.1-2.6,2.8v6.3h-2.2V150.7z"/>
		<path d="M278.3,146.7c2.9,0,4.9,2,4.9,4.9c0,2.9-2,4.9-4.9,4.9H275v5.1h-2.3v-14.8H278.3z M275,154.5h2.6c2,0,3.1-1.1,3.1-2.9
			s-1.1-2.9-3.1-2.9H275V154.5z"/>
		<path d="M284.9,150.7h2.1v1.8h0.1c0.4-1.3,1.3-2,2.6-2c0.3,0,0.6,0.1,0.8,0.1v2.1c-0.2-0.1-0.6-0.1-1-0.1c-1.4,0-2.3,1-2.3,2.5
			v6.5h-2.2V150.7z"/>
		<path d="M290.9,156.1c0-3.5,2-5.6,5.1-5.6s5.1,2.1,5.1,5.6c0,3.5-2,5.6-5.1,5.6C292.9,161.7,290.9,159.5,290.9,156.1z
			 M298.8,156.1c0-2.4-1.1-3.8-2.9-3.8c-1.7,0-2.9,1.4-2.9,3.8c0,2.4,1.1,3.8,2.9,3.8C297.7,159.8,298.8,158.5,298.8,156.1z"/>
		<path d="M305.7,148.1v2.6h2.1v1.8h-2.1v5.9c0,0.9,0.4,1.4,1.3,1.4c0.2,0,0.6,0,0.7-0.1v1.8c-0.2,0.1-0.7,0.1-1.2,0.1
			c-2.2,0-3-0.8-3-2.9v-6.2h-1.6v-1.8h1.6v-2.6H305.7z"/>
		<path d="M308.8,156.1c0-3.5,2-5.6,5.1-5.6s5.1,2.1,5.1,5.6c0,3.5-2,5.6-5.1,5.6C310.8,161.7,308.8,159.5,308.8,156.1z
			 M316.8,156.1c0-2.4-1.1-3.8-2.9-3.8c-1.7,0-2.9,1.4-2.9,3.8c0,2.4,1.1,3.8,2.9,3.8C315.7,159.8,316.8,158.5,316.8,156.1z"/>
		<path d="M323.6,148.1v2.6h2.1v1.8h-2.1v5.9c0,0.9,0.4,1.4,1.3,1.4c0.2,0,0.6,0,0.7-0.1v1.8c-0.2,0.1-0.7,0.1-1.2,0.1
			c-2.2,0-3-0.8-3-2.9v-6.2h-1.6v-1.8h1.6v-2.6H323.6z"/>
		<path d="M327.7,165.4v-1.8c0.2,0,0.5,0,0.7,0c1,0,1.6-0.4,1.9-1.5c0,0,0.2-0.7,0.2-0.7l-3.9-10.8h2.4l2.7,8.8h0l2.7-8.8h2.3
			l-4,11.4c-0.9,2.6-2,3.5-4.2,3.5C328.4,165.5,327.8,165.5,327.7,165.4z"/>
		<path d="M348.3,156.1c0,3.4-1.8,5.6-4.5,5.6c-1.5,0-2.8-0.8-3.4-2h-0.1v5.3h-2.2v-14.4h2.1v1.9h0c0.6-1.2,1.9-2,3.4-2
			C346.5,150.5,348.3,152.6,348.3,156.1z M346,156.1c0-2.3-1.1-3.7-2.9-3.7c-1.7,0-2.8,1.5-2.8,3.7c0,2.2,1.1,3.7,2.8,3.7
			C344.9,159.8,346,158.3,346,156.1z"/>
		<path d="M359.2,158.3c-0.3,2-2.2,3.4-4.6,3.4c-3.2,0-5.1-2.1-5.1-5.5c0-3.4,1.9-5.6,5-5.6c3,0,4.9,2.1,4.9,5.4v0.8h-7.6v0.1
			c0,1.9,1.1,3.1,2.9,3.1c1.3,0,2.2-0.6,2.5-1.6H359.2z M351.8,155.1h5.4c-0.1-1.7-1.1-2.8-2.6-2.8
			C353,152.3,351.9,153.4,351.8,155.1z"/>
	</g>
	<g>
		<path d="M188.7,348.5h-9.2v-14.8h2.3v12.8h6.9V348.5z"/>
		<path d="M189.9,345.4c0-1.9,1.4-3,4-3.2l3-0.2v-0.8c0-1.2-0.8-1.9-2.2-1.9c-1.3,0-2.1,0.6-2.3,1.6h-2.1c0.1-1.9,1.8-3.4,4.5-3.4
			c2.6,0,4.3,1.4,4.3,3.5v7.4H197v-1.8h-0.1c-0.6,1.2-2,2-3.4,2C191.4,348.6,189.9,347.3,189.9,345.4z M196.9,344.4v-0.9l-2.7,0.2
			c-1.3,0.1-2.1,0.7-2.1,1.6c0,0.9,0.8,1.6,2,1.6C195.7,346.9,196.9,345.8,196.9,344.4z"/>
		<path d="M210.5,348.5h-2.1v-1.8h-0.1c-0.6,1.3-1.7,2-3.3,2c-2.3,0-3.8-1.5-3.8-4v-7h2.2v6.6c0,1.6,0.8,2.5,2.3,2.5
			c1.6,0,2.6-1.1,2.6-2.8v-6.3h2.2V348.5z"/>
		<path d="M212.7,337.7h2.1v1.8h0.1c0.6-1.2,1.7-2,3.4-2c2.4,0,3.7,1.5,3.7,4v7h-2.2v-6.6c0-1.6-0.8-2.5-2.3-2.5
			c-1.6,0-2.6,1.1-2.6,2.8v6.3h-2.2V337.7z"/>
		<path d="M231.3,341.4c-0.2-1.1-1.1-2.1-2.5-2.1c-1.7,0-2.8,1.4-2.8,3.7c0,2.4,1.1,3.7,2.9,3.7c1.4,0,2.3-0.7,2.5-2h2.1
			c-0.2,2.3-2.1,3.9-4.7,3.9c-3.1,0-5.1-2.1-5.1-5.6c0-3.4,2-5.6,5.1-5.6c2.8,0,4.5,1.8,4.7,3.9H231.3z"/>
		<path d="M235,333.7h2.2v5.8h0.1c0.6-1.3,1.8-2,3.4-2c2.4,0,3.8,1.6,3.8,4v7h-2.2v-6.5c0-1.6-0.8-2.5-2.4-2.5
			c-1.6,0-2.6,1.1-2.6,2.8v6.2H235V333.7z"/>
		<path d="M259.4,344.5h-5.6l-1.4,4H250l5.3-14.8h2.5l5.3,14.8h-2.4L259.4,344.5z M254.4,342.6h4.5l-2.2-6.5h-0.1L254.4,342.6z"/>
		<path d="M264.6,337.7h2.1v1.8h0.1c0.4-1.3,1.3-2,2.6-2c0.3,0,0.6,0.1,0.8,0.1v2.1c-0.2-0.1-0.6-0.1-1-0.1c-1.4,0-2.3,1-2.3,2.5
			v6.5h-2.2V337.7z"/>
		<path d="M274.3,335.1v2.6h2.1v1.8h-2.1v5.9c0,0.9,0.4,1.4,1.3,1.4c0.2,0,0.6,0,0.7-0.1v1.8c-0.2,0.1-0.7,0.1-1.2,0.1
			c-2.2,0-3-0.8-3-2.9v-6.2h-1.6v-1.8h1.6v-2.6H274.3z"/>
		<path d="M278.2,337.7h2.1v1.8h0.1c0.6-1.2,1.7-2,3.4-2c2.4,0,3.7,1.5,3.7,4v7h-2.2v-6.6c0-1.6-0.8-2.5-2.3-2.5
			c-1.6,0-2.6,1.1-2.6,2.8v6.3h-2.2V337.7z"/>
		<path d="M289.2,343.1c0-3.5,2-5.6,5.1-5.6s5.1,2.1,5.1,5.6c0,3.5-2,5.6-5.1,5.6C291.2,348.7,289.2,346.5,289.2,343.1z
			 M297.1,343.1c0-2.4-1.1-3.8-2.9-3.8c-1.7,0-2.9,1.4-2.9,3.8c0,2.4,1.1,3.8,2.9,3.8C296,346.8,297.1,345.5,297.1,343.1z"/>
		<path d="M304,335.1v2.6h2.1v1.8H304v5.9c0,0.9,0.4,1.4,1.3,1.4c0.2,0,0.6,0,0.7-0.1v1.8c-0.2,0.1-0.7,0.1-1.2,0.1
			c-2.2,0-3-0.8-3-2.9v-6.2h-1.6v-1.8h1.6v-2.6H304z"/>
		<path d="M316.8,345.3c-0.3,2-2.2,3.4-4.6,3.4c-3.2,0-5.1-2.1-5.1-5.5c0-3.4,1.9-5.6,5-5.6c3,0,4.9,2.1,4.9,5.4v0.8h-7.6v0.1
			c0,1.9,1.1,3.1,2.9,3.1c1.3,0,2.2-0.6,2.5-1.6H316.8z M309.3,342.1h5.4c-0.1-1.7-1.1-2.8-2.6-2.8
			C310.5,339.3,309.5,340.4,309.3,342.1z"/>
		<path d="M328.3,348.5h-2.4l-3.9-10.8h2.4l2.7,8.6h0l2.7-8.6h2.3L328.3,348.5z"/>
		<path d="M337.2,335.9L337.2,335.9l-3.9,2.7v-2.2l3.9-2.8h2.3v14.8h-2.2V335.9z"/>
		<path d="M342.9,347.2c0-0.7,0.6-1.3,1.3-1.3c0.7,0,1.3,0.6,1.3,1.3s-0.6,1.3-1.3,1.3C343.5,348.6,342.9,348,342.9,347.2z"/>
		<path d="M347.8,341c0-4.7,2.1-7.7,5.7-7.7c3.5,0,5.6,3,5.6,7.6c0,4.7-2.1,7.7-5.6,7.7C349.9,348.7,347.8,345.8,347.8,341z
			 M356.8,341c0-3.5-1.2-5.7-3.3-5.7c-2.1,0-3.3,2.2-3.3,5.7c0,3.6,1.2,5.8,3.3,5.8C355.6,346.8,356.8,344.6,356.8,341z"/>
	</g>
	<g>
		<path d="M185.3,535.5h-9.2v-14.8h2.3v12.8h6.9V535.5z"/>
		<path d="M186.5,532.4c0-1.9,1.4-3,4-3.2l3-0.2v-0.8c0-1.2-0.8-1.9-2.2-1.9c-1.3,0-2.1,0.6-2.3,1.6H187c0.1-1.9,1.8-3.4,4.5-3.4
			c2.6,0,4.3,1.4,4.3,3.5v7.4h-2.1v-1.8h-0.1c-0.6,1.2-2,2-3.4,2C188,535.6,186.5,534.3,186.5,532.4z M193.5,531.4v-0.9l-2.7,0.2
			c-1.3,0.1-2.1,0.7-2.1,1.6c0,0.9,0.8,1.6,2,1.6C192.3,533.9,193.5,532.8,193.5,531.4z"/>
		<path d="M207.1,535.5H205v-1.8h-0.1c-0.6,1.3-1.7,2-3.3,2c-2.3,0-3.8-1.5-3.8-4v-7h2.2v6.6c0,1.6,0.8,2.5,2.3,2.5
			c1.6,0,2.6-1.1,2.6-2.8v-6.3h2.2V535.5z"/>
		<path d="M209.3,524.7h2.1v1.8h0.1c0.6-1.2,1.7-2,3.4-2c2.4,0,3.7,1.5,3.7,4v7h-2.2v-6.6c0-1.6-0.8-2.5-2.3-2.5
			c-1.6,0-2.6,1.1-2.6,2.8v6.3h-2.2V524.7z"/>
		<path d="M227.9,528.4c-0.2-1.1-1.1-2.1-2.5-2.1c-1.7,0-2.8,1.4-2.8,3.7c0,2.4,1.1,3.7,2.9,3.7c1.4,0,2.3-0.7,2.5-2h2.1
			c-0.2,2.3-2.1,3.9-4.7,3.9c-3.1,0-5.1-2.1-5.1-5.6c0-3.4,2-5.6,5.1-5.6c2.8,0,4.5,1.8,4.7,3.9H227.9z"/>
		<path d="M231.6,520.7h2.2v5.8h0.1c0.6-1.3,1.8-2,3.4-2c2.4,0,3.8,1.6,3.8,4v7h-2.2v-6.5c0-1.6-0.8-2.5-2.4-2.5
			c-1.6,0-2.6,1.1-2.6,2.8v6.2h-2.2V520.7z"/>
		<path d="M256,531.5h-5.6l-1.4,4h-2.4l5.3-14.8h2.5l5.3,14.8h-2.4L256,531.5z M251,529.6h4.5l-2.2-6.5h-0.1L251,529.6z"/>
		<path d="M261.2,524.7h2.1v1.8h0.1c0.4-1.3,1.3-2,2.6-2c0.3,0,0.6,0.1,0.8,0.1v2.1c-0.2-0.1-0.6-0.1-1-0.1c-1.4,0-2.3,1-2.3,2.5
			v6.5h-2.2V524.7z"/>
		<path d="M270.9,522.1v2.6h2.1v1.8h-2.1v5.9c0,0.9,0.4,1.4,1.3,1.4c0.2,0,0.6,0,0.7-0.1v1.8c-0.2,0.1-0.7,0.1-1.2,0.1
			c-2.2,0-3-0.8-3-2.9v-6.2h-1.6v-1.8h1.6v-2.6H270.9z"/>
		<path d="M274.8,524.7h2.1v1.8h0.1c0.6-1.2,1.7-2,3.4-2c2.4,0,3.7,1.5,3.7,4v7h-2.2v-6.6c0-1.6-0.8-2.5-2.3-2.5
			c-1.6,0-2.6,1.1-2.6,2.8v6.3h-2.2V524.7z"/>
		<path d="M285.7,530.1c0-3.5,2-5.6,5.1-5.6s5.1,2.1,5.1,5.6c0,3.5-2,5.6-5.1,5.6C287.8,535.7,285.7,533.5,285.7,530.1z
			 M293.7,530.1c0-2.4-1.1-3.8-2.9-3.8c-1.7,0-2.9,1.4-2.9,3.8c0,2.4,1.1,3.8,2.9,3.8C292.6,533.8,293.7,532.5,293.7,530.1z"/>
		<path d="M300.6,522.1v2.6h2.1v1.8h-2.1v5.9c0,0.9,0.4,1.4,1.3,1.4c0.2,0,0.6,0,0.7-0.1v1.8c-0.2,0.1-0.7,0.1-1.2,0.1
			c-2.2,0-3-0.8-3-2.9v-6.2h-1.6v-1.8h1.6v-2.6H300.6z"/>
		<path d="M313.4,532.3c-0.3,2-2.2,3.4-4.6,3.4c-3.2,0-5.1-2.1-5.1-5.5c0-3.4,1.9-5.6,5-5.6c3,0,4.9,2.1,4.9,5.4v0.8h-7.6v0.1
			c0,1.9,1.1,3.1,2.9,3.1c1.3,0,2.2-0.6,2.5-1.6H313.4z M305.9,529.1h5.4c-0.1-1.7-1.1-2.8-2.6-2.8
			C307.1,526.3,306,527.4,305.9,529.1z"/>
		<path d="M324.9,535.5h-2.4l-3.9-10.8h2.4l2.7,8.6h0l2.7-8.6h2.3L324.9,535.5z"/>
		<path d="M335.1,520.4c2.9,0,4.9,1.9,4.9,4.2c0,1.7-0.8,2.9-3.4,5.5l-3.4,3.4v0.1h7v1.9H330v-1.6l5.2-5.3c1.9-2,2.4-2.7,2.4-3.9
			c0-1.4-1-2.4-2.6-2.4c-1.7,0-3,1.2-3,2.7h-2.2C329.9,522.3,332.1,520.4,335.1,520.4z"/>
		<path d="M342.5,534.2c0-0.7,0.6-1.3,1.3-1.3c0.7,0,1.3,0.6,1.3,1.3s-0.6,1.3-1.3,1.3C343.1,535.6,342.5,535,342.5,534.2z"/>
		<path d="M347.3,528c0-4.7,2.1-7.7,5.7-7.7c3.5,0,5.6,3,5.6,7.6c0,4.7-2.1,7.7-5.6,7.7C349.5,535.7,347.3,532.8,347.3,528z
			 M356.4,528c0-3.5-1.2-5.7-3.3-5.7c-2.1,0-3.3,2.2-3.3,5.7c0,3.6,1.2,5.8,3.3,5.8C355.2,533.8,356.4,531.6,356.4,528z"/>
	</g>
	<g>
		<path d="M92.7,815.5h-9.2v-14.8h2.3v12.8h6.9V815.5z"/>
		<path d="M93.9,812.4c0-1.9,1.4-3,4-3.2l3-0.2v-0.8c0-1.2-0.8-1.9-2.2-1.9c-1.3,0-2.1,0.6-2.3,1.6h-2.1c0.1-1.9,1.8-3.4,4.5-3.4
			c2.6,0,4.3,1.4,4.3,3.5v7.4H101v-1.8h-0.1c-0.6,1.2-2,2-3.4,2C95.4,815.6,93.9,814.3,93.9,812.4z M100.9,811.4v-0.9l-2.7,0.2
			c-1.3,0.1-2.1,0.7-2.1,1.6c0,0.9,0.8,1.6,2,1.6C99.7,813.9,100.9,812.8,100.9,811.4z"/>
		<path d="M114.5,815.5h-2.1v-1.8h-0.1c-0.6,1.3-1.7,2-3.3,2c-2.3,0-3.8-1.5-3.8-4v-7h2.2v6.6c0,1.6,0.8,2.5,2.3,2.5
			c1.6,0,2.6-1.1,2.6-2.8v-6.3h2.2V815.5z"/>
		<path d="M116.7,804.7h2.1v1.8h0.1c0.6-1.2,1.7-2,3.4-2c2.4,0,3.7,1.5,3.7,4v7h-2.2v-6.6c0-1.6-0.8-2.5-2.3-2.5
			c-1.6,0-2.6,1.1-2.6,2.8v6.3h-2.2V804.7z"/>
		<path d="M135.3,808.4c-0.2-1.1-1.1-2.1-2.5-2.1c-1.7,0-2.8,1.4-2.8,3.7c0,2.4,1.1,3.7,2.9,3.7c1.4,0,2.3-0.7,2.5-2h2.1
			c-0.2,2.3-2.1,3.9-4.7,3.9c-3.1,0-5.1-2.1-5.1-5.6c0-3.4,2-5.6,5.1-5.6c2.8,0,4.5,1.8,4.7,3.9H135.3z"/>
		<path d="M139,800.7h2.2v5.8h0.1c0.6-1.3,1.8-2,3.4-2c2.4,0,3.8,1.6,3.8,4v7h-2.2v-6.5c0-1.6-0.8-2.5-2.4-2.5
			c-1.6,0-2.6,1.1-2.6,2.8v6.2H139V800.7z"/>
		<path d="M163.4,811.5h-5.6l-1.4,4H154l5.3-14.8h2.5l5.3,14.8h-2.4L163.4,811.5z M158.4,809.6h4.5l-2.2-6.5h-0.1L158.4,809.6z"/>
		<path d="M168.6,804.7h2.1v1.8h0.1c0.4-1.3,1.3-2,2.6-2c0.3,0,0.6,0.1,0.8,0.1v2.1c-0.2-0.1-0.6-0.1-1-0.1c-1.4,0-2.3,1-2.3,2.5
			v6.5h-2.2V804.7z"/>
		<path d="M178.3,802.1v2.6h2.1v1.8h-2.1v5.9c0,0.9,0.4,1.4,1.3,1.4c0.2,0,0.6,0,0.7-0.1v1.8c-0.2,0.1-0.7,0.1-1.2,0.1
			c-2.2,0-3-0.8-3-2.9v-6.2h-1.6v-1.8h1.6v-2.6H178.3z"/>
		<path d="M190.4,815.5v-12.8h-4.5v-2h11.4v2h-4.5v12.8H190.4z"/>
		<path d="M196.8,804.7h2.1v1.8h0.1c0.4-1.3,1.3-2,2.6-2c0.3,0,0.6,0.1,0.8,0.1v2.1c-0.2-0.1-0.6-0.1-1-0.1c-1.4,0-2.3,1-2.3,2.5
			v6.5h-2.2V804.7z"/>
		<path d="M203,812.4c0-1.9,1.4-3,4-3.2l3-0.2v-0.8c0-1.2-0.8-1.9-2.2-1.9c-1.3,0-2.1,0.6-2.3,1.6h-2.1c0.1-1.9,1.8-3.4,4.5-3.4
			c2.6,0,4.3,1.4,4.3,3.5v7.4h-2.1v-1.8H210c-0.6,1.2-2,2-3.4,2C204.5,815.6,203,814.3,203,812.4z M210,811.4v-0.9l-2.7,0.2
			c-1.3,0.1-2.1,0.7-2.1,1.6c0,0.9,0.8,1.6,2,1.6C208.8,813.9,210,812.8,210,811.4z"/>
		<path d="M213.9,810.1c0-3.4,1.8-5.6,4.5-5.6c1.5,0,2.8,0.8,3.4,2h0v-5.8h2.2v14.8h-2.2v-1.8h0c-0.6,1.2-1.9,2-3.4,2
			C215.7,815.6,213.9,813.5,213.9,810.1z M216.1,810.1c0,2.3,1.1,3.7,2.9,3.7c1.7,0,2.8-1.4,2.8-3.7c0-2.2-1.1-3.7-2.8-3.7
			C217.2,806.4,216.1,807.8,216.1,810.1z"/>
		<path d="M235.5,812.3c-0.3,2-2.2,3.4-4.6,3.4c-3.2,0-5.1-2.1-5.1-5.5c0-3.4,1.9-5.6,5-5.6c3,0,4.9,2.1,4.9,5.4v0.8H228v0.1
			c0,1.9,1.1,3.1,2.9,3.1c1.3,0,2.2-0.6,2.5-1.6H235.5z M228.1,809.1h5.4c-0.1-1.7-1.1-2.8-2.6-2.8
			C229.3,806.3,228.2,807.4,228.1,809.1z"/>
		<path d="M247.4,800.7c2.9,0,4.9,2,4.9,4.9c0,2.9-2,4.9-4.9,4.9h-3.2v5.1h-2.3v-14.8H247.4z M244.2,808.5h2.6c2,0,3.1-1.1,3.1-2.9
			s-1.1-2.9-3.1-2.9h-2.6V808.5z"/>
		<path d="M254.1,800.7h2.2v14.8h-2.2V800.7z"/>
		<path d="M258.2,812.4c0-1.9,1.4-3,4-3.2l3-0.2v-0.8c0-1.2-0.8-1.9-2.2-1.9c-1.3,0-2.1,0.6-2.3,1.6h-2.1c0.1-1.9,1.8-3.4,4.5-3.4
			c2.6,0,4.3,1.4,4.3,3.5v7.4h-2.1v-1.8h-0.1c-0.6,1.2-2,2-3.4,2C259.7,815.6,258.2,814.3,258.2,812.4z M265.2,811.4v-0.9l-2.7,0.2
			c-1.3,0.1-2.1,0.7-2.1,1.6c0,0.9,0.8,1.6,2,1.6C264,813.9,265.2,812.8,265.2,811.4z"/>
		<path d="M272.4,802.1v2.6h2.1v1.8h-2.1v5.9c0,0.9,0.4,1.4,1.3,1.4c0.2,0,0.6,0,0.7-0.1v1.8c-0.2,0.1-0.7,0.1-1.2,0.1
			c-2.2,0-3-0.8-3-2.9v-6.2h-1.6v-1.8h1.6v-2.6H272.4z"/>
		<path d="M276.9,806.4h-1.5v-1.7h1.5v-1.1c0-2.1,1-3.1,3.2-3.1c0.5,0,1,0.1,1.2,0.1v1.6c-0.2,0-0.5-0.1-0.8-0.1
			c-1,0-1.4,0.5-1.4,1.4v1h2.2v1.7h-2.2v9h-2.2V806.4z"/>
		<path d="M282.1,810.1c0-3.5,2-5.6,5.1-5.6s5.1,2.1,5.1,5.6c0,3.5-2,5.6-5.1,5.6S282.1,813.5,282.1,810.1z M290.1,810.1
			c0-2.4-1.1-3.8-2.9-3.8s-2.9,1.4-2.9,3.8c0,2.4,1.1,3.8,2.9,3.8C289,813.8,290.1,812.5,290.1,810.1z"/>
		<path d="M294,804.7h2.1v1.8h0.1c0.4-1.3,1.3-2,2.6-2c0.3,0,0.6,0.1,0.8,0.1v2.1c-0.2-0.1-0.6-0.1-1-0.1c-1.4,0-2.3,1-2.3,2.5v6.5
			H294V804.7z"/>
		<path d="M300.9,804.7h2.1v1.8h0.1c0.5-1.2,1.6-2,3.1-2c1.5,0,2.6,0.8,3,2.1h0.1c0.6-1.3,1.8-2.1,3.4-2.1c2.1,0,3.5,1.4,3.5,3.6
			v7.4h-2.2v-6.9c0-1.4-0.7-2.2-2.1-2.2s-2.2,1-2.2,2.3v6.7h-2.2v-7c0-1.2-0.8-2-2-2c-1.3,0-2.2,1-2.2,2.4v6.7h-2.2V804.7z"/>
		<path d="M327.8,815.5h-2.4l-3.9-10.8h2.4l2.7,8.6h0l2.7-8.6h2.3L327.8,815.5z"/>
		<path d="M336.8,802.9L336.8,802.9l-3.9,2.7v-2.2l3.9-2.8h2.3v14.8h-2.2V802.9z"/>
		<path d="M342.5,814.2c0-0.7,0.6-1.3,1.3-1.3s1.3,0.6,1.3,1.3s-0.6,1.3-1.3,1.3S342.5,815,342.5,814.2z"/>
		<path d="M347.3,808c0-4.7,2.1-7.7,5.7-7.7s5.6,3,5.6,7.6c0,4.7-2.1,7.7-5.6,7.7C349.5,815.7,347.3,812.8,347.3,808z M356.4,808
			c0-3.5-1.2-5.7-3.3-5.7s-3.3,2.2-3.3,5.7c0,3.6,1.2,5.8,3.3,5.8C355.2,813.8,356.4,811.6,356.4,808z"/>
	</g>
	<g>
		<path d="M463.3,55.2c-1.1,0.1-1.3,0.2-1.3,1.5v6.6c0,0.5,0,1,0,1.5c0,1.2,0,2.4-0.3,3.2c-0.5,1.7-2.4,2.9-5.1,2.9
			c-0.6,0-1.5-0.1-2-0.3c-0.7-0.3-0.9-0.8-0.9-1.3c0-0.9,0.7-1.4,1.8-1.4c1,0,1.6,0.4,1.6,1.3c0,0.5-0.3,1.1-1,1.4
			c0.1,0,0.2,0,0.3,0c0.8,0,1.4-0.5,1.6-1.1c0.4-1,0.4-2,0.4-4.5v-8.2c0-1.3-0.2-1.5-1.3-1.5v-0.4c0.7,0,1.8,0.1,3,0.1
			c1.2,0,2.5,0,3.2-0.1V55.2z"/>
		<path d="M471.2,58.9c0.5,0.5,0.6,1.3,0.6,2.5v4.8c0,0.6,0.1,0.8,0.3,0.8c0.2,0,0.4-0.1,0.6-0.3l0.2,0.3c-0.6,0.5-1.3,0.7-2.3,0.7
			c-1.4,0-1.8-0.6-1.9-1.4c-0.5,0.8-1.5,1.4-2.6,1.4c-1.4,0-2.3-0.8-2.3-2.1c0-1.2,0.7-2,2.3-2.5c1.4-0.5,2.5-0.9,2.5-1.7v-1.6
			c0-0.6-0.2-1.5-1.3-1.5c-0.3,0-0.7,0.1-0.9,0.3c0.8,0.3,1.2,0.8,1.2,1.6c0,0.8-0.7,1.5-1.7,1.5c-0.9,0-1.5-0.7-1.5-1.6
			c0-0.8,0.5-1.3,1.1-1.7c0.7-0.4,1.6-0.6,2.9-0.6S470.5,58.2,471.2,58.9z M468.5,62.2c-0.1,0.2-0.4,0.5-0.7,0.8
			c-0.5,0.5-0.9,1.2-0.9,2c0,0.9,0.4,1.3,0.9,1.3c0.3,0,0.4-0.1,0.7-0.3V62.2z"/>
		<path d="M482.4,58.7c0.4,0.4,0.5,1.1,0.5,2.3v4.9c0,1,0.3,1.3,1,1.3v0.4c-0.5,0-1.6-0.1-2.5-0.1c-1,0-2.1,0.1-2.6,0.1v-0.4
			c0.6,0,0.8-0.3,0.8-1.3v-5.9c0-0.8-0.3-1.1-0.9-1.1c-0.7,0-1.3,0.5-1.3,1.3v5.7c0,1,0.2,1.3,0.8,1.3v0.4c-0.5,0-1.4-0.1-2.4-0.1
			c-1,0-2.2,0.1-2.7,0.1v-0.4c0.7,0,1-0.3,1-1.3v-5.7c0-1.1-0.3-1.6-1-1.6v-0.4c0.4,0,0.8,0.1,1.1,0.1c1.2,0,2.2-0.1,3.1-0.2v1.3
			c0.6-1,1.6-1.4,2.9-1.4C481.5,58,482.1,58.3,482.4,58.7z"/>
		<path d="M488,65.4c0.3,0.3,0.4,1,0.4,1.7c0,1.2-0.6,2.4-1.9,3l-0.2-0.3c0.6-0.3,1.2-0.9,1.4-1.5c0.1-0.2,0.1-0.4,0.1-0.6
			c0-0.1,0-0.3,0-0.4c-0.3,0.4-0.8,0.6-1.3,0.6c-0.9,0-1.6-0.6-1.6-1.5c0-0.9,0.7-1.6,1.7-1.6C487.2,64.7,487.7,65,488,65.4z"/>
		<path d="M501.4,60.3c0,2.3-3.5,3.3-5,4.6h4.1c1,0,1.1-0.2,1.2-0.7h0.4c0,1.8,0,2.7,0.1,3.5c-0.3-0.1-1.6-0.1-2.7-0.1h-5.9v-0.4
			c1.3-1.3,4.3-3.4,4.3-6.2c0-1.2-0.5-1.8-1.6-1.8c-1.1,0-1.8,0.4-2.4,1.2l-0.3-0.2c0.8-1.3,2.2-2.2,4.6-2.2
			C500.2,58,501.4,58.8,501.4,60.3z"/>
		<path d="M514.3,62.8c0,2.9-2.2,5.1-5.4,5.1c-3,0-5.3-1.9-5.3-4.8c0-2.8,2.2-5.1,5.4-5.1C512.1,58,514.3,59.9,514.3,62.8z M507,63
			c0,3.2,0.9,4.5,2,4.5c1.1,0,1.9-1.8,1.9-4.7c0-3.2-1-4.5-2.1-4.5C507.8,58.3,507,60.1,507,63z"/>
		<path d="M520.4,65.9c0,1,0.3,1.3,1,1.3v0.4c-0.5,0-1.5-0.1-2.5-0.1c-1.3,0-2.6,0.1-3.3,0.1v-0.4c1,0,1.5-0.3,1.5-1.5v-4.4
			c0-1.7-0.4-1.9-1.5-1.9V59c2.3,0,3.6-0.3,4.8-0.9V65.9z"/>
		<path d="M531.9,63.1c0,4.8-4.6,6.9-7.7,7.2l-0.1-0.4c1.8-0.5,3.7-1.4,4.3-4.7c-0.5,0.7-1.3,0.9-2.2,0.9c-2.1,0-3.7-1.5-3.7-3.9
			c0-2.8,2.2-4.3,4.8-4.3C530.2,58,531.9,59.9,531.9,63.1z M528.5,64.5c0.1-0.5,0.1-1,0.1-1.6c0-3.4-0.8-4.6-1.4-4.6
			c-0.6,0-1.3,1.1-1.3,3.8c0,2.6,0.6,3.5,1.3,3.5C527.5,65.7,528.1,65.4,528.5,64.5z"/>
	</g>
	<g>
		<path d="M464.1,151.9c0,0.5,0,1,0.1,1.3h-0.4c-0.6-3-2-3.9-3.3-3.9h-0.2c-0.9,0-1.1,0.1-1.1,1.1v4.6h0.2c1.4,0,2.2-1.3,2.5-2.4
			h0.4c-0.1,0.8-0.1,1.3-0.1,1.7c0,0.3,0,0.6,0,0.8c0,0.6,0,1.2,0.1,2.6h-0.4c-0.2-1.3-1.2-2.4-2.5-2.4h-0.2v4.1
			c0,1.5,0.3,1.7,2,1.7v0.4c-0.8,0-2.2-0.1-3.7-0.1c-1.1,0-2.2,0-3.2,0.1v-0.4c1.1-0.1,1.3-0.2,1.3-1.5v-8.9c0-1.3-0.2-1.5-1.3-1.5
			v-0.4c2.1,0.1,5,0.1,6.3,0.1c1.1,0,2.6,0,3.8-0.1C464.2,150,464.1,151.3,464.1,151.9z"/>
		<path d="M472.4,158.7l0.3,0.1c-0.5,1.5-1.6,3.1-3.8,3.1c-2.3,0-4.2-1.3-4.2-4.9c0-3.5,2-4.9,4.6-4.9c2.1,0,3.4,1.1,3.4,4h-4.6
			c0,0.2,0,0.4,0,0.7c0,2.5,1.1,3.2,2.1,3.2C470.7,159.9,471.6,159.8,472.4,158.7z M468.1,155.7h2.1c0-1.8-0.2-3.3-0.9-3.3
			C468.6,152.4,468.2,153.3,468.1,155.7z"/>
		<path d="M483.5,156.5c0,4.1-1.9,5.3-4.2,5.3c-0.7,0-1.2,0-1.8-0.3c-0.4-0.2-0.9-0.2-1.3-0.2c-0.7,0-1.4,0.2-1.7,0.5l-0.2-0.2
			c0.1-0.3,0.1-0.6,0.1-1v-11c0-1.1-0.3-1.6-1-1.6v-0.4c0.4,0,0.8,0.1,1.1,0.1c1.2,0,2.2-0.1,3.1-0.3v5.8c0.6-0.9,1.5-1.4,2.7-1.4
			C482.1,152,483.5,153.4,483.5,156.5z M480.1,156.9c0-3.2-0.5-4-1.2-4s-1.3,0.5-1.3,1.3v7c0.3,0.1,0.6,0.2,0.8,0.2
			C479.6,161.5,480.1,160,480.1,156.9z"/>
		<path d="M487.9,159.4c0.3,0.3,0.4,1,0.4,1.7c0,1.2-0.6,2.4-1.9,3l-0.2-0.3c0.6-0.3,1.2-0.9,1.4-1.5c0.1-0.2,0.1-0.4,0.1-0.6
			c0-0.1,0-0.3,0-0.4c-0.3,0.4-0.8,0.6-1.3,0.6c-0.9,0-1.6-0.6-1.6-1.5c0-0.9,0.7-1.6,1.7-1.6C487.1,158.7,487.6,159,487.9,159.4z"
			/>
		<path d="M501.4,154.3c0,2.3-3.5,3.3-5,4.6h4.1c1,0,1.1-0.2,1.2-0.7h0.4c0,1.8,0,2.7,0.1,3.5c-0.3-0.1-1.6-0.1-2.7-0.1h-5.9v-0.4
			c1.3-1.3,4.3-3.4,4.3-6.2c0-1.2-0.5-1.8-1.6-1.8c-1.1,0-1.8,0.4-2.4,1.2l-0.3-0.2c0.8-1.3,2.2-2.2,4.6-2.2
			C500.1,152,501.4,152.8,501.4,154.3z"/>
		<path d="M514.2,156.8c0,2.9-2.2,5.1-5.4,5.1c-3,0-5.3-1.9-5.3-4.8c0-2.8,2.2-5.1,5.4-5.1C512,152,514.2,153.9,514.2,156.8z
			 M506.9,157c0,3.2,0.9,4.5,2,4.5c1.1,0,1.9-1.8,1.9-4.7c0-3.2-1-4.5-2.1-4.5C507.7,152.3,506.9,154.1,506.9,157z"/>
		<path d="M520.4,159.9c0,1,0.3,1.3,1,1.3v0.4c-0.5,0-1.5-0.1-2.5-0.1c-1.3,0-2.6,0.1-3.3,0.1v-0.4c1,0,1.5-0.3,1.5-1.5v-4.4
			c0-1.7-0.4-1.9-1.5-1.9V153c2.3,0,3.6-0.3,4.8-0.9V159.9z"/>
		<path d="M531.8,157.1c0,4.8-4.6,6.9-7.7,7.2L524,164c1.8-0.5,3.7-1.4,4.3-4.7c-0.5,0.7-1.3,0.9-2.2,0.9c-2.1,0-3.7-1.5-3.7-3.9
			c0-2.8,2.2-4.3,4.8-4.3C530.1,152,531.8,153.9,531.8,157.1z M528.4,158.5c0.1-0.5,0.1-1,0.1-1.6c0-3.4-0.8-4.6-1.4-4.6
			c-0.6,0-1.3,1.1-1.3,3.8c0,2.6,0.6,3.5,1.3,3.5C527.4,159.7,528.1,159.4,528.4,158.5z"/>
	</g>
	<g>
		<path d="M470.6,336.2c-1.1,0.1-1.3,0.2-1.3,1.5v8.9c0,1.3,0.2,1.5,1.3,1.5v0.4c-0.7,0-2-0.1-3.2-0.1c-1.3,0-2.5,0-3.2,0.1v-0.4
			c1.2-0.1,1.5-0.2,1.5-1.5v-9.2l-4.3,11.1H461l-5.1-11.6v8.1c0,2.4,0.1,2.9,1.8,3.2v0.4c-0.5,0-1.4-0.1-2-0.1c-0.5,0-1.1,0-1.5,0.1
			v-0.4c1.1-0.2,1.3-0.8,1.3-2.8v-7.7c0-1.3-0.2-1.5-1.3-1.5v-0.4c0.4,0,1,0.1,1.5,0.1c1.4,0,2.7,0,3.7-0.1l3.4,7.6l3-7.6h1.6
			c1.2,0,2.5,0,3.2-0.1V336.2z"/>
		<path d="M478.8,339.9c0.5,0.5,0.6,1.3,0.6,2.5v4.8c0,0.6,0.1,0.8,0.3,0.8c0.2,0,0.4-0.1,0.6-0.3l0.2,0.3c-0.6,0.5-1.3,0.7-2.3,0.7
			c-1.4,0-1.8-0.6-1.9-1.4c-0.5,0.8-1.5,1.4-2.6,1.4c-1.4,0-2.3-0.8-2.3-2.1c0-1.2,0.7-2,2.3-2.5c1.4-0.5,2.5-0.9,2.5-1.7v-1.6
			c0-0.6-0.2-1.5-1.3-1.5c-0.3,0-0.7,0.1-0.9,0.3c0.8,0.3,1.2,0.8,1.2,1.6c0,0.8-0.7,1.5-1.7,1.5c-0.9,0-1.5-0.7-1.5-1.6
			c0-0.8,0.5-1.3,1.1-1.7c0.7-0.4,1.6-0.6,2.9-0.6S478.1,339.2,478.8,339.9z M476.1,343.2c-0.1,0.2-0.4,0.5-0.7,0.8
			c-0.5,0.5-0.9,1.2-0.9,2c0,0.9,0.4,1.3,0.9,1.3c0.3,0,0.4-0.1,0.7-0.3V343.2z"/>
		<path d="M489.7,339.2v0.4c-0.4,0.2-0.9,0.6-1.3,1.7l-2.2,6.7l-0.8,2.2c-0.2,0.6-0.4,1-0.8,1.3c-0.3,0.3-0.8,0.4-1.7,0.4
			c-1,0-2.4-0.4-2.4-1.7c0-0.9,0.7-1.4,1.8-1.4c1,0,1.6,0.4,1.6,1.3c0,0.5-0.4,1.1-1.2,1.4c0.2,0,0.5,0,0.6,0c0.8,0,1.4-0.4,1.7-1.4
			l0.1-0.3l-4.2-9.3c-0.4-0.9-0.8-1-1-1v-0.4c1,0.1,2,0.1,2.9,0.1c1.1,0,1.9-0.1,2.6-0.1v0.4c-0.5,0-1.1,0-1.1,0.4
			c0,0.1,0,0.2,0.1,0.3l2.2,5.3l0.7-2.3c0.2-0.7,0.3-1.3,0.3-1.8c0-1.2-0.6-1.8-1.3-1.8v-0.4c0.5,0.1,1.5,0.1,1.9,0.1
			C488.8,339.3,489.5,339.3,489.7,339.2z"/>
		<path d="M492.9,346.4c0.3,0.3,0.4,1,0.4,1.7c0,1.2-0.6,2.4-1.9,3l-0.2-0.3c0.6-0.3,1.2-0.9,1.4-1.5c0.1-0.2,0.1-0.4,0.1-0.6
			c0-0.1,0-0.3,0-0.4c-0.3,0.4-0.8,0.6-1.3,0.6c-0.9,0-1.6-0.6-1.6-1.5c0-0.9,0.7-1.6,1.7-1.6C492.1,345.7,492.6,346,492.9,346.4z"
			/>
		<path d="M506.3,341.3c0,2.3-3.5,3.3-5,4.6h4.1c1,0,1.1-0.2,1.2-0.7h0.4c0,1.8,0,2.7,0.1,3.5c-0.3-0.1-1.6-0.1-2.7-0.1h-5.9v-0.4
			c1.3-1.3,4.3-3.4,4.3-6.2c0-1.2-0.5-1.8-1.6-1.8c-1.1,0-1.8,0.4-2.4,1.2l-0.3-0.2c0.8-1.3,2.2-2.2,4.6-2.2
			C505.1,339,506.3,339.8,506.3,341.3z"/>
		<path d="M519.2,343.8c0,2.9-2.2,5.1-5.4,5.1c-3,0-5.3-1.9-5.3-4.8c0-2.8,2.2-5.1,5.4-5.1C517,339,519.2,340.9,519.2,343.8z
			 M511.8,344c0,3.2,0.9,4.5,2,4.5c1.1,0,1.9-1.8,1.9-4.7c0-3.2-1-4.5-2.1-4.5C512.6,339.3,511.8,341.1,511.8,344z"/>
		<path d="M525.3,346.9c0,1,0.3,1.3,1,1.3v0.4c-0.5,0-1.5-0.1-2.5-0.1c-1.3,0-2.6,0.1-3.3,0.1v-0.4c1,0,1.5-0.3,1.5-1.5v-4.4
			c0-1.7-0.4-1.9-1.5-1.9V340c2.3,0,3.6-0.3,4.8-0.9V346.9z"/>
		<path d="M536.8,344.1c0,4.8-4.6,6.9-7.7,7.2L529,351c1.8-0.5,3.7-1.4,4.3-4.7c-0.5,0.7-1.3,0.9-2.2,0.9c-2.1,0-3.7-1.5-3.7-3.9
			c0-2.8,2.2-4.3,4.8-4.3C535.1,339,536.8,340.9,536.8,344.1z M533.4,345.5c0.1-0.5,0.1-1,0.1-1.6c0-3.4-0.8-4.6-1.4-4.6
			c-0.6,0-1.3,1.1-1.3,3.8c0,2.6,0.6,3.5,1.3,3.5C532.4,346.7,533,346.4,533.4,345.5z"/>
	</g>
	<g>
		<path d="M465.6,534.1c0.3,0.8,0.7,1.1,1.1,1.2v0.4c-0.9,0-2.1-0.1-3.3-0.1c-1.2,0-2.4,0-3,0.1v-0.4c0.9,0,1.3-0.2,1.3-0.7
			c0-0.2-0.1-0.5-0.2-0.9l-1.1-3h-3.6l-0.3,0.8c-0.4,1.1-0.6,1.8-0.6,2.3c0,1.1,0.7,1.3,1.6,1.3v0.4c-0.9,0-1.5-0.1-2.4-0.1
			c-0.5,0-1,0-1.4,0.1v-0.4c0.6-0.1,1.1-0.6,1.7-2.1l4-10.3c0.3,0,0.6,0,0.9,0s0.7,0,0.9,0L465.6,534.1z M458.6,525.9l-1.7,4.5h3.4
			L458.6,525.9z"/>
		<path d="M475.8,533.6c0,1.1,0.3,1.6,1,1.6v0.4c-0.4,0-0.8-0.1-1.1-0.1c-1.2,0-2.2,0.1-3.1,0.3v-1.3c-0.6,1-1.6,1.4-2.9,1.4
			c-1.1,0-1.7-0.3-2-0.7c-0.4-0.4-0.5-1.1-0.5-2.3v-4.6c0-1.1-0.2-1.6-1-1.6v-0.4c0.4,0,0.8,0.1,1.1,0.1c1.2,0,2.2-0.1,3.1-0.2v7.7
			c0,0.8,0.3,1.1,0.9,1.1c0.7,0,1.3-0.5,1.3-1.3v-5.4c0-1.1-0.3-1.6-1-1.6v-0.4c0.4,0,0.8,0.1,1.1,0.1c1.2,0,2.2-0.1,3.1-0.2V533.6z
			"/>
		<path d="M484.5,533.1c1.4,0,2.6,0.5,2.6,2.1c0,1.8-1.7,3.8-5.3,3.8c-3.3,0-4.2-0.8-4.2-1.5c0-1.3,2.2-0.5,3-1.4h-0.6
			c-0.7,0-2.2-0.3-2.2-1.9c0-1.2,0.6-1.9,2.3-2.7c-1.3-0.4-2.2-1.3-2.2-2.6c0-2,1.8-2.9,4.2-2.9c0.4,0,0.7,0,1.1,0.1
			c0-0.1,0-0.2,0-0.4c0-1.3,0.6-2.4,2-2.4c0.9,0,1.6,0.4,1.6,1.2c0,0.7-0.7,1.2-1.5,1.2c-0.9,0-1.3-0.3-1.6-0.9
			c-0.1,0.3-0.1,0.6-0.1,0.9c0,0.1,0,0.3,0,0.4c1.7,0.3,2.8,1.2,2.8,2.8c0,2-1.8,2.9-4.2,2.9c-0.6,0-1.2-0.1-1.7-0.2
			c-0.4,0.3-0.7,0.5-0.7,0.9c0,0.4,0.2,0.6,0.6,0.6H484.5z M484.6,536.6c0-0.4-0.2-0.6-0.8-0.6h-2.9c-0.2,0.4-0.2,1-0.2,1.2
			c0,0.9,0.5,1.4,1.6,1.4C483.7,538.7,484.6,537.8,484.6,536.6z M481.2,528.9c0,1.9,0.3,2.6,0.9,2.6c0.6,0,0.9-0.6,0.9-2.6
			s-0.3-2.6-0.9-2.6C481.6,526.3,481.2,526.9,481.2,528.9z"/>
		<path d="M491.1,533.4c0.3,0.3,0.4,1,0.4,1.7c0,1.2-0.6,2.4-1.9,3l-0.2-0.3c0.6-0.3,1.2-0.9,1.4-1.5c0.1-0.2,0.1-0.4,0.1-0.6
			c0-0.1,0-0.3,0-0.4c-0.3,0.4-0.8,0.6-1.3,0.6c-0.9,0-1.6-0.6-1.6-1.5c0-0.9,0.7-1.6,1.7-1.6C490.3,532.7,490.8,533,491.1,533.4z"
			/>
		<path d="M504.6,528.3c0,2.3-3.5,3.3-5,4.6h4.1c1,0,1.1-0.2,1.2-0.7h0.4c0,1.8,0,2.7,0.1,3.5c-0.3-0.1-1.6-0.1-2.7-0.1h-5.9v-0.4
			c1.3-1.3,4.3-3.4,4.3-6.2c0-1.2-0.5-1.8-1.6-1.8c-1.1,0-1.8,0.4-2.4,1.2l-0.3-0.2c0.8-1.3,2.2-2.2,4.6-2.2
			C503.3,526,504.6,526.8,504.6,528.3z"/>
		<path d="M517.4,530.8c0,2.9-2.2,5.1-5.4,5.1c-3,0-5.3-1.9-5.3-4.8c0-2.8,2.2-5.1,5.4-5.1C515.3,526,517.4,527.9,517.4,530.8z
			 M510.1,531c0,3.2,0.9,4.5,2,4.5c1.1,0,1.9-1.8,1.9-4.7c0-3.2-1-4.5-2.1-4.5C510.9,526.3,510.1,528.1,510.1,531z"/>
		<path d="M523.6,533.9c0,1,0.3,1.3,1,1.3v0.4c-0.5,0-1.5-0.1-2.5-0.1c-1.3,0-2.6,0.1-3.3,0.1v-0.4c1,0,1.5-0.3,1.5-1.5v-4.4
			c0-1.7-0.4-1.9-1.5-1.9V527c2.3,0,3.6-0.3,4.8-0.9V533.9z"/>
		<path d="M535.1,531.1c0,4.8-4.6,6.9-7.7,7.2l-0.1-0.4c1.8-0.5,3.7-1.4,4.3-4.7c-0.5,0.7-1.3,0.9-2.2,0.9c-2.1,0-3.7-1.5-3.7-3.9
			c0-2.8,2.2-4.3,4.8-4.3C533.3,526,535.1,527.9,535.1,531.1z M531.6,532.5c0.1-0.5,0.1-1,0.1-1.6c0-3.4-0.8-4.6-1.4-4.6
			c-0.6,0-1.3,1.1-1.3,3.8c0,2.6,0.6,3.5,1.3,3.5C530.6,533.7,531.3,533.4,531.6,532.5z"/>
	</g>
	<g>
		<path d="M467.9,809.1c0,4-2.8,6.7-6.8,6.7c-4.1,0-6.8-2.4-6.8-6.5c0-4,2.8-6.7,6.8-6.7C465.2,802.6,467.9,805,467.9,809.1z
			 M458.1,809.2c0,3.8,1.4,6.3,3.1,6.3c1.8,0,3-2.6,3-6.3c0-3.8-1.4-6.3-3.1-6.3C459.3,802.9,458.1,805.5,458.1,809.2z"/>
		<path d="M476.1,806.5c0.7,0.4,1.1,1,1.1,1.9c0,1-0.7,1.7-1.7,1.7c-1.1,0-1.7-0.7-1.7-1.6c0-0.9,0.7-1.6,1.5-1.8
			c-0.2-0.1-0.4-0.2-0.7-0.2c-1.7,0-2.1,2.4-2.1,4.2c0,2.5,1.2,3.2,2.2,3.2c0.5,0,1.4-0.1,2.2-1.2l0.3,0.1c-0.4,1.5-1.6,3.1-3.8,3.1
			c-2.4,0-4.3-1.3-4.3-4.9c0-3.5,2-4.9,4.6-4.9C474.8,806,475.6,806.2,476.1,806.5z"/>
		<path d="M483.9,806.3v0.4h-1.8v7.5c0,0.5,0.1,0.7,0.5,0.7c0.2,0,0.6-0.1,1-0.5l0.3,0.2c-0.5,0.9-1.3,1.4-2.6,1.4
			c-0.8,0-1.4-0.2-1.9-0.6c-0.5-0.5-0.6-1.3-0.6-2.5v-6.1h-1.4v-0.4h1.4v-2.1c1.3,0,2.3-0.2,3.2-0.8v2.9H483.9z"/>
		<path d="M487.8,813.4c0.3,0.3,0.4,1,0.4,1.7c0,1.2-0.6,2.4-1.9,3l-0.2-0.3c0.6-0.3,1.2-0.9,1.4-1.5c0.1-0.2,0.1-0.4,0.1-0.6
			c0-0.1,0-0.3,0-0.4c-0.3,0.4-0.8,0.6-1.3,0.6c-0.9,0-1.6-0.6-1.6-1.5c0-0.9,0.7-1.6,1.7-1.6C487,812.7,487.5,813,487.8,813.4z"/>
		<path d="M501.2,808.3c0,2.3-3.5,3.3-5,4.6h4.1c1,0,1.1-0.2,1.2-0.7h0.4c0,1.8,0,2.7,0.1,3.5c-0.3-0.1-1.6-0.1-2.7-0.1h-5.9v-0.4
			c1.3-1.3,4.3-3.4,4.3-6.2c0-1.2-0.5-1.8-1.6-1.8c-1.1,0-1.8,0.4-2.4,1.2l-0.3-0.2c0.8-1.3,2.2-2.2,4.6-2.2
			C500,806,501.2,806.8,501.2,808.3z"/>
		<path d="M514.1,810.8c0,2.9-2.2,5.1-5.4,5.1c-3,0-5.3-1.9-5.3-4.8c0-2.8,2.2-5.1,5.4-5.1C511.9,806,514.1,807.9,514.1,810.8z
			 M506.8,811c0,3.2,0.9,4.5,2,4.5c1.1,0,1.9-1.8,1.9-4.7c0-3.2-1-4.5-2.1-4.5C507.6,806.3,506.8,808.1,506.8,811z"/>
		<path d="M520.3,813.9c0,1,0.3,1.3,1,1.3v0.4c-0.5,0-1.5-0.1-2.5-0.1c-1.3,0-2.6,0.1-3.3,0.1v-0.4c1,0,1.5-0.3,1.5-1.5v-4.4
			c0-1.7-0.4-1.9-1.5-1.9V807c2.3,0,3.6-0.3,4.8-0.9V813.9z"/>
		<path d="M531.7,811.1c0,4.8-4.6,6.9-7.7,7.2l-0.1-0.4c1.8-0.5,3.7-1.4,4.3-4.7c-0.5,0.7-1.3,0.9-2.2,0.9c-2.1,0-3.7-1.5-3.7-3.9
			c0-2.8,2.2-4.3,4.8-4.3C530,806,531.7,807.9,531.7,811.1z M528.3,812.5c0.1-0.5,0.1-1,0.1-1.6c0-3.4-0.8-4.6-1.4-4.6
			c-0.6,0-1.3,1.1-1.3,3.8c0,2.6,0.6,3.5,1.3,3.5C527.3,813.7,527.9,813.4,528.3,812.5z"/>
	</g>
</g>
</svg>
