<?xml version="1.0" encoding="utf-8"?>
<!-- Generator: Adobe Illustrator 23.0.2, SVG Export Plug-In . SVG Version: 6.00 Build 0)  -->
<svg version="1.1" id="Layer_1" xmlns="http://www.w3.org/2000/svg" xmlns:xlink="http://www.w3.org/1999/xlink" x="0px" y="0px"
	 viewBox="0 0 697.5 1038" style="enable-background:new 0 0 697.5 1038;" xml:space="preserve">
<style type="text/css">
	.st0{fill:none;stroke:#000000;stroke-width:1.89;stroke-linecap:round;stroke-miterlimit:10;}
	.st1{fill:none;}
	.st2{enable-background:new    ;}
	.st3{font-family:'PlayfairDisplay-Bold';}
	.st4{font-size:18px;}
	.st5{fill:#FFFFFF;}
</style>
<title>ele</title>
<line class="st0" x1="378" y1="31.5" x2="378" y2="1016"/>
<circle cx="378" cy="68.5" r="10.5"/>
<circle cx="378.5" cy="161.5" r="10.5"/>
<circle class="st1" cx="378" cy="254.5" r="10.5"/>
<circle cx="378.5" cy="347.5" r="10.5"/>
<circle class="st1" cx="378" cy="440.5" r="10.5"/>
<circle cx="378.5" cy="533.5" r="10.5"/>
<circle class="st1" cx="378" cy="626.5" r="10.5"/>
<circle class="st1" cx="378.5" cy="719.5" r="10.5"/>
<circle cx="378" cy="812.5" r="10.5"/>
<circle class="st1" cx="378.5" cy="905.5" r="10.5"/>
<g>
	<g class="st2">
		<path d="M39.2,68.1c0.2,1.5,1.6,2.3,3.6,2.3c1.9,0,3.2-1,3.2-2.3c0-1.1-0.8-1.9-2.8-2.3l-1.6-0.3c-3-0.6-4.3-2-4.3-4.1
			c0-2.5,2.2-4.3,5.4-4.3c3.1,0,5.3,1.8,5.4,4.4h-2.2c-0.1-1.5-1.4-2.4-3.2-2.4c-1.7,0-3,0.8-3,2.2c0,1.1,0.8,1.8,2.7,2.2l1.6,0.3
			c3.1,0.7,4.4,1.9,4.4,4c0,2.8-2.2,4.5-5.6,4.5c-3.3,0-5.6-1.7-5.7-4.3H39.2z"/>
	</g>
	<g class="st2">
		<path d="M53,58.9v2.6h2.1v1.8H53v5.9c0,0.9,0.4,1.4,1.3,1.4c0.2,0,0.6,0,0.7-0.1v1.8c-0.2,0.1-0.7,0.1-1.2,0.1c-2.2,0-3-0.8-3-2.9
			v-6.2h-1.6v-1.8h1.6v-2.6H53z"/>
	</g>
	<g class="st2">
		<path d="M56.3,69.1c0-1.9,1.4-3,4-3.2l3-0.2V65c0-1.2-0.8-1.9-2.2-1.9c-1.3,0-2.1,0.6-2.3,1.6h-2.1c0.1-1.9,1.8-3.4,4.5-3.4
			c2.6,0,4.3,1.4,4.3,3.5v7.4h-2.1v-1.8h-0.1c-0.6,1.2-2,2-3.4,2C57.8,72.4,56.3,71.1,56.3,69.1z M63.2,68.2v-0.9l-2.7,0.2
			c-1.3,0.1-2.1,0.7-2.1,1.6c0,0.9,0.8,1.6,2,1.6C62,70.6,63.2,69.6,63.2,68.2z"/>
		<path d="M67.6,61.4h2.1v1.8h0.1c0.4-1.3,1.3-2,2.6-2c0.3,0,0.6,0.1,0.8,0.1v2.1c-0.2-0.1-0.6-0.1-1-0.1c-1.4,0-2.3,1-2.3,2.5v6.5
			h-2.2V61.4z"/>
		<path d="M77.3,58.9v2.6h2.1v1.8h-2.1v5.9c0,0.9,0.4,1.4,1.3,1.4c0.2,0,0.6,0,0.7-0.1v1.8c-0.2,0.1-0.7,0.1-1.2,0.1
			c-2.2,0-3-0.8-3-2.9v-6.2h-1.6v-1.8h1.6v-2.6H77.3z"/>
		<path d="M85.7,72.2V57.4h5.9c2.6,0,4.3,1.5,4.3,3.7c0,1.6-1.2,3-2.6,3.2v0.1c2,0.2,3.4,1.7,3.4,3.6c0,2.6-1.9,4.2-5,4.2H85.7z
			 M88,63.7h2.6c2,0,3.1-0.8,3.1-2.3c0-1.4-0.9-2.1-2.6-2.1H88V63.7z M91.2,70.3c2.1,0,3.2-0.9,3.2-2.5s-1.1-2.4-3.3-2.4h-3v4.9
			H91.2z"/>
		<path d="M107.7,72.2h-2.1v-1.8h-0.1c-0.6,1.3-1.7,2-3.3,2c-2.3,0-3.8-1.5-3.8-4v-7h2.2V68c0,1.6,0.8,2.5,2.3,2.5
			c1.6,0,2.6-1.1,2.6-2.8v-6.3h2.2V72.2z"/>
		<path d="M109.8,58.4c0-0.7,0.6-1.3,1.3-1.3s1.3,0.6,1.3,1.3c0,0.7-0.6,1.3-1.3,1.3S109.8,59.1,109.8,58.4z M109.9,61.4h2.2v10.8
			h-2.2V61.4z"/>
		<path d="M114.5,57.4h2.2v14.8h-2.2V57.4z"/>
		<path d="M118.5,66.8c0-3.4,1.8-5.6,4.5-5.6c1.5,0,2.8,0.8,3.4,2h0v-5.8h2.2v14.8h-2.2v-1.8h0c-0.6,1.2-1.9,2-3.4,2
			C120.3,72.4,118.5,70.2,118.5,66.8z M120.8,66.8c0,2.3,1.1,3.7,2.9,3.7c1.7,0,2.8-1.4,2.8-3.7c0-2.2-1.1-3.7-2.8-3.7
			C121.9,63.1,120.8,64.5,120.8,66.8z"/>
		<path d="M130.8,58.4c0-0.7,0.6-1.3,1.3-1.3s1.3,0.6,1.3,1.3c0,0.7-0.6,1.3-1.3,1.3S130.8,59.1,130.8,58.4z M131,61.4h2.2v10.8H131
			V61.4z"/>
		<path d="M135.5,61.4h2.1v1.8h0.1c0.6-1.2,1.7-2,3.4-2c2.4,0,3.7,1.5,3.7,4v7h-2.2v-6.6c0-1.6-0.8-2.5-2.3-2.5
			c-1.6,0-2.6,1.1-2.6,2.8v6.3h-2.2V61.4z"/>
		<path d="M146.8,73.1h2.2c0.3,0.9,1.3,1.5,2.6,1.5c1.7,0,2.8-1,2.8-2.5v-1.8h0c-0.6,1.2-1.9,1.9-3.4,1.9c-2.7,0-4.5-2.1-4.5-5.5
			c0-3.4,1.8-5.5,4.5-5.5c1.5,0,2.8,0.8,3.4,2h0v-1.8h2.2V72c0,2.6-2,4.3-5.1,4.3C149,76.3,147.1,74.9,146.8,73.1z M154.4,66.8
			c0-2.2-1.1-3.7-2.9-3.7c-1.7,0-2.8,1.4-2.8,3.7c0,2.3,1.1,3.6,2.8,3.6C153.2,70.4,154.4,69,154.4,66.8z"/>
		<path d="M163.3,72.2V57.4h5.9c2.6,0,4.3,1.5,4.3,3.7c0,1.6-1.2,3-2.6,3.2v0.1c2,0.2,3.4,1.7,3.4,3.6c0,2.6-1.9,4.2-5,4.2H163.3z
			 M165.6,63.7h2.6c2,0,3.1-0.8,3.1-2.3c0-1.4-0.9-2.1-2.6-2.1h-3.1V63.7z M168.8,70.3c2.1,0,3.2-0.9,3.2-2.5s-1.1-2.4-3.3-2.4h-3
			v4.9H168.8z"/>
		<path d="M176.1,57.4h2.2v14.8h-2.2V57.4z"/>
		<path d="M180.1,66.8c0-3.5,2-5.6,5.1-5.6s5.1,2.1,5.1,5.6c0,3.5-2,5.6-5.1,5.6S180.1,70.3,180.1,66.8z M188.1,66.8
			c0-2.4-1.1-3.8-2.9-3.8s-2.9,1.4-2.9,3.8c0,2.4,1.1,3.8,2.9,3.8C186.9,70.6,188.1,69.2,188.1,66.8z"/>
		<path d="M199.2,65.1c-0.2-1.1-1.1-2.1-2.5-2.1c-1.7,0-2.8,1.4-2.8,3.7c0,2.4,1.1,3.7,2.9,3.7c1.4,0,2.3-0.7,2.5-2h2.1
			c-0.2,2.3-2.1,3.9-4.7,3.9c-3.1,0-5.1-2.1-5.1-5.6c0-3.4,2-5.6,5.1-5.6c2.8,0,4.5,1.8,4.7,3.9H199.2z"/>
	</g>
	<g class="st2">
		<path d="M209.6,61.4h2.6l-4.5,4.6l4.6,6.1h-2.6l-3.7-4.8l-0.9,0.9v3.9H203V57.4h2.2V66h0L209.6,61.4z"/>
	</g>
	<g class="st2">
		<path d="M220.1,65.1c-0.2-1.1-1.1-2.1-2.5-2.1c-1.7,0-2.8,1.4-2.8,3.7c0,2.4,1.1,3.7,2.9,3.7c1.4,0,2.3-0.7,2.5-2h2.1
			c-0.2,2.3-2.1,3.9-4.7,3.9c-3.1,0-5.1-2.1-5.1-5.6c0-3.4,2-5.6,5.1-5.6c2.8,0,4.5,1.8,4.7,3.9H220.1z"/>
		<path d="M223.9,57.4h2.2v5.8h0.1c0.6-1.3,1.8-2,3.4-2c2.4,0,3.8,1.6,3.8,4v7h-2.2v-6.5c0-1.6-0.8-2.5-2.4-2.5
			c-1.6,0-2.6,1.1-2.6,2.8v6.2h-2.2V57.4z"/>
		<path d="M235,69.1c0-1.9,1.4-3,4-3.2l3-0.2V65c0-1.2-0.8-1.9-2.2-1.9c-1.3,0-2.1,0.6-2.3,1.6h-2.1c0.1-1.9,1.8-3.4,4.5-3.4
			c2.6,0,4.3,1.4,4.3,3.5v7.4h-2.1v-1.8H242c-0.6,1.2-2,2-3.4,2C236.5,72.4,235,71.1,235,69.1z M242,68.2v-0.9l-2.7,0.2
			c-1.3,0.1-2.1,0.7-2.1,1.6c0,0.9,0.8,1.6,2,1.6C240.8,70.6,242,69.6,242,68.2z"/>
		<path d="M246.2,58.4c0-0.7,0.6-1.3,1.3-1.3s1.3,0.6,1.3,1.3c0,0.7-0.6,1.3-1.3,1.3S246.2,59.1,246.2,58.4z M246.4,61.4h2.2v10.8
			h-2.2V61.4z"/>
		<path d="M250.9,61.4h2.1v1.8h0.1c0.6-1.2,1.7-2,3.4-2c2.4,0,3.7,1.5,3.7,4v7H258v-6.6c0-1.6-0.8-2.5-2.3-2.5
			c-1.6,0-2.6,1.1-2.6,2.8v6.3h-2.2V61.4z"/>
		<path d="M272.4,57.4c2.9,0,4.9,2,4.9,4.9c0,2.9-2,4.9-4.9,4.9h-3.2v5.1h-2.3V57.4H272.4z M269.2,65.2h2.6c2,0,3.1-1.1,3.1-2.9
			s-1.1-2.9-3.1-2.9h-2.6V65.2z"/>
	</g>
	<g class="st2">
		<path d="M279,61.4h2.1v1.8h0.1c0.4-1.3,1.3-2,2.6-2c0.3,0,0.6,0.1,0.8,0.1v2.1c-0.2-0.1-0.6-0.1-1-0.1c-1.4,0-2.3,1-2.3,2.5v6.5
			H279V61.4z"/>
	</g>
	<g class="st2">
		<path d="M285,66.8c0-3.5,2-5.6,5.1-5.6s5.1,2.1,5.1,5.6c0,3.5-2,5.6-5.1,5.6S285,70.3,285,66.8z M292.9,66.8
			c0-2.4-1.1-3.8-2.9-3.8s-2.9,1.4-2.9,3.8c0,2.4,1.1,3.8,2.9,3.8C291.8,70.6,292.9,69.2,292.9,66.8z"/>
	</g>
	<g class="st2">
		<path d="M299.8,58.9v2.6h2.1v1.8h-2.1v5.9c0,0.9,0.4,1.4,1.3,1.4c0.2,0,0.6,0,0.7-0.1v1.8c-0.2,0.1-0.7,0.1-1.2,0.1
			c-2.2,0-3-0.8-3-2.9v-6.2H296v-1.8h1.6v-2.6H299.8z"/>
	</g>
	<g class="st2">
		<path d="M302.9,66.8c0-3.5,2-5.6,5.1-5.6s5.1,2.1,5.1,5.6c0,3.5-2,5.6-5.1,5.6C304.9,72.4,302.9,70.3,302.9,66.8z M310.9,66.8
			c0-2.4-1.1-3.8-2.9-3.8c-1.7,0-2.9,1.4-2.9,3.8c0,2.4,1.1,3.8,2.9,3.8C309.8,70.6,310.9,69.2,310.9,66.8z"/>
		<path d="M322,65.1c-0.2-1.1-1.1-2.1-2.5-2.1c-1.7,0-2.8,1.4-2.8,3.7c0,2.4,1.1,3.7,2.9,3.7c1.4,0,2.3-0.7,2.5-2h2.1
			c-0.2,2.3-2.1,3.9-4.7,3.9c-3.1,0-5.1-2.1-5.1-5.6c0-3.4,2-5.6,5.1-5.6c2.8,0,4.5,1.8,4.7,3.9H322z"/>
		<path d="M325.2,66.8c0-3.5,2-5.6,5.1-5.6s5.1,2.1,5.1,5.6c0,3.5-2,5.6-5.1,5.6C327.3,72.4,325.2,70.3,325.2,66.8z M333.2,66.8
			c0-2.4-1.1-3.8-2.9-3.8c-1.7,0-2.9,1.4-2.9,3.8c0,2.4,1.1,3.8,2.9,3.8C332.1,70.6,333.2,69.2,333.2,66.8z"/>
		<path d="M337.3,57.4h2.2v14.8h-2.2V57.4z"/>
	</g>
</g>
<g>
	<g class="st2">
		<path d="M56,158.8c0-4.7,2.6-7.6,6.8-7.6c3.4,0,5.9,2.1,6.3,5.1h-2.3c-0.4-1.9-2-3.1-4-3.1c-2.7,0-4.4,2.2-4.4,5.6
			c0,3.5,1.7,5.6,4.4,5.6c2.1,0,3.5-1.1,4-2.8h2.3c-0.6,3.1-2.9,4.8-6.3,4.8C58.7,166.5,56,163.5,56,158.8z"/>
		<path d="M70.4,160.8c0-3.5,2-5.6,5.1-5.6s5.1,2.1,5.1,5.6c0,3.5-2,5.6-5.1,5.6S70.4,164.3,70.4,160.8z M78.4,160.8
			c0-2.4-1.1-3.8-2.9-3.8s-2.9,1.4-2.9,3.8c0,2.4,1.1,3.8,2.9,3.8C77.3,164.6,78.4,163.2,78.4,160.8z"/>
		<path d="M82.4,155.4h2.1v1.8h0.1c0.5-1.2,1.6-2,3.1-2c1.5,0,2.6,0.8,3,2.1h0.1c0.6-1.3,1.8-2.1,3.4-2.1c2.1,0,3.5,1.4,3.5,3.6v7.4
			h-2.2v-6.9c0-1.4-0.7-2.2-2.1-2.2s-2.2,1-2.2,2.3v6.7h-2.2v-7c0-1.2-0.8-2-2-2c-1.3,0-2.2,1-2.2,2.4v6.7h-2.2V155.4z"/>
		<path d="M109.9,160.8c0,3.4-1.8,5.6-4.5,5.6c-1.5,0-2.8-0.8-3.4-2h-0.1v5.3h-2.2v-14.4h2.1v1.9h0c0.6-1.2,1.9-2,3.4-2
			C108,155.2,109.9,157.4,109.9,160.8z M107.6,160.8c0-2.3-1.1-3.7-2.9-3.7c-1.7,0-2.8,1.5-2.8,3.7c0,2.2,1.1,3.7,2.8,3.7
			C106.5,164.5,107.6,163.1,107.6,160.8z"/>
		<path d="M111.6,151.4h2.2v14.8h-2.2V151.4z"/>
		<path d="M125.4,163c-0.3,2-2.2,3.4-4.6,3.4c-3.2,0-5.1-2.1-5.1-5.5c0-3.4,1.9-5.6,5-5.6c3,0,4.9,2.1,4.9,5.4v0.8h-7.6v0.1
			c0,1.9,1.1,3.1,2.9,3.1c1.3,0,2.2-0.6,2.5-1.6H125.4z M117.9,159.8h5.4c-0.1-1.7-1.1-2.8-2.6-2.8S118,158.2,117.9,159.8z"/>
	</g>
	<g class="st2">
		<path d="M130.1,152.9v2.6h2.1v1.8h-2.1v5.9c0,0.9,0.4,1.4,1.3,1.4c0.2,0,0.6,0,0.7-0.1v1.8c-0.2,0.1-0.7,0.1-1.2,0.1
			c-2.2,0-3-0.8-3-2.9v-6.2h-1.6v-1.8h1.6v-2.6H130.1z"/>
	</g>
	<g class="st2">
		<path d="M142.9,163c-0.3,2-2.2,3.4-4.6,3.4c-3.2,0-5.1-2.1-5.1-5.5c0-3.4,1.9-5.6,5-5.6c3,0,4.9,2.1,4.9,5.4v0.8h-7.6v0.1
			c0,1.9,1.1,3.1,2.9,3.1c1.3,0,2.2-0.6,2.5-1.6H142.9z M135.5,159.8h5.4c-0.1-1.7-1.1-2.8-2.6-2.8S135.6,158.2,135.5,159.8z"/>
		<path d="M149.3,166.2v-14.8h5.9c2.6,0,4.3,1.5,4.3,3.7c0,1.6-1.2,3-2.6,3.2v0.1c2,0.2,3.4,1.7,3.4,3.6c0,2.6-1.9,4.2-5,4.2H149.3z
			 M151.6,157.7h2.6c2,0,3.1-0.8,3.1-2.3c0-1.4-0.9-2.1-2.6-2.1h-3.1V157.7z M154.8,164.3c2.1,0,3.2-0.9,3.2-2.5s-1.1-2.4-3.3-2.4
			h-3v4.9H154.8z"/>
		<path d="M162.1,151.4h2.2v14.8h-2.2V151.4z"/>
		<path d="M166.1,160.8c0-3.5,2-5.6,5.1-5.6s5.1,2.1,5.1,5.6c0,3.5-2,5.6-5.1,5.6S166.1,164.3,166.1,160.8z M174.1,160.8
			c0-2.4-1.1-3.8-2.9-3.8s-2.9,1.4-2.9,3.8c0,2.4,1.1,3.8,2.9,3.8C172.9,164.6,174.1,163.2,174.1,160.8z"/>
		<path d="M185.2,159.1c-0.2-1.1-1.1-2.1-2.5-2.1c-1.7,0-2.8,1.4-2.8,3.7c0,2.4,1.1,3.7,2.9,3.7c1.4,0,2.3-0.7,2.5-2h2.1
			c-0.2,2.3-2.1,3.9-4.7,3.9c-3.1,0-5.1-2.1-5.1-5.6c0-3.4,2-5.6,5.1-5.6c2.8,0,4.5,1.8,4.7,3.9H185.2z"/>
	</g>
	<g class="st2">
		<path d="M195.6,155.4h2.6l-4.5,4.6l4.6,6.1h-2.6l-3.7-4.8l-0.9,0.9v3.9H189v-14.8h2.2v8.6h0L195.6,155.4z"/>
	</g>
	<g class="st2">
		<path d="M206.1,159.1c-0.2-1.1-1.1-2.1-2.5-2.1c-1.7,0-2.8,1.4-2.8,3.7c0,2.4,1.1,3.7,2.9,3.7c1.4,0,2.3-0.7,2.5-2h2.1
			c-0.2,2.3-2.1,3.9-4.7,3.9c-3.1,0-5.1-2.1-5.1-5.6c0-3.4,2-5.6,5.1-5.6c2.8,0,4.5,1.8,4.7,3.9H206.1z"/>
		<path d="M209.9,151.4h2.2v5.8h0.1c0.6-1.3,1.8-2,3.4-2c2.4,0,3.8,1.6,3.8,4v7h-2.2v-6.5c0-1.6-0.8-2.5-2.4-2.5
			c-1.6,0-2.6,1.1-2.6,2.8v6.2h-2.2V151.4z"/>
		<path d="M221,163.1c0-1.9,1.4-3,4-3.2l3-0.2V159c0-1.2-0.8-1.9-2.2-1.9c-1.3,0-2.1,0.6-2.3,1.6h-2.1c0.1-1.9,1.8-3.4,4.5-3.4
			c2.6,0,4.3,1.4,4.3,3.5v7.4h-2.1v-1.8H228c-0.6,1.2-2,2-3.4,2C222.5,166.4,221,165.1,221,163.1z M228,162.2v-0.9l-2.7,0.2
			c-1.3,0.1-2.1,0.7-2.1,1.6c0,0.9,0.8,1.6,2,1.6C226.8,164.6,228,163.6,228,162.2z"/>
		<path d="M232.2,152.4c0-0.7,0.6-1.3,1.3-1.3s1.3,0.6,1.3,1.3c0,0.7-0.6,1.3-1.3,1.3S232.2,153.1,232.2,152.4z M232.4,155.4h2.2
			v10.8h-2.2V155.4z"/>
		<path d="M236.9,155.4h2.1v1.8h0.1c0.6-1.2,1.7-2,3.4-2c2.4,0,3.7,1.5,3.7,4v7H244v-6.6c0-1.6-0.8-2.5-2.3-2.5
			c-1.6,0-2.6,1.1-2.6,2.8v6.3h-2.2V155.4z"/>
		<path d="M258.4,151.4c2.9,0,4.9,2,4.9,4.9c0,2.9-2,4.9-4.9,4.9h-3.2v5.1h-2.3v-14.8H258.4z M255.1,159.2h2.6c2,0,3.1-1.1,3.1-2.9
			s-1.1-2.9-3.1-2.9h-2.6V159.2z"/>
	</g>
	<g class="st2">
		<path d="M265,155.4h2.1v1.8h0.1c0.4-1.3,1.3-2,2.6-2c0.3,0,0.6,0.1,0.8,0.1v2.1c-0.2-0.1-0.6-0.1-1-0.1c-1.4,0-2.3,1-2.3,2.5v6.5
			H265V155.4z"/>
	</g>
	<g class="st2">
		<path d="M271,160.8c0-3.5,2-5.6,5.1-5.6s5.1,2.1,5.1,5.6c0,3.5-2,5.6-5.1,5.6S271,164.3,271,160.8z M278.9,160.8
			c0-2.4-1.1-3.8-2.9-3.8s-2.9,1.4-2.9,3.8c0,2.4,1.1,3.8,2.9,3.8C277.8,164.6,278.9,163.2,278.9,160.8z"/>
	</g>
	<g class="st2">
		<path d="M285.8,152.9v2.6h2.1v1.8h-2.1v5.9c0,0.9,0.4,1.4,1.3,1.4c0.2,0,0.6,0,0.7-0.1v1.8c-0.2,0.1-0.7,0.1-1.2,0.1
			c-2.2,0-3-0.8-3-2.9v-6.2H282v-1.8h1.6v-2.6H285.8z"/>
	</g>
	<g class="st2">
		<path d="M288.9,160.8c0-3.5,2-5.6,5.1-5.6s5.1,2.1,5.1,5.6c0,3.5-2,5.6-5.1,5.6S288.9,164.3,288.9,160.8z M296.9,160.8
			c0-2.4-1.1-3.8-2.9-3.8s-2.9,1.4-2.9,3.8c0,2.4,1.1,3.8,2.9,3.8C295.8,164.6,296.9,163.2,296.9,160.8z"/>
		<path d="M303.7,152.9v2.6h2.1v1.8h-2.1v5.9c0,0.9,0.4,1.4,1.3,1.4c0.2,0,0.6,0,0.7-0.1v1.8c-0.2,0.1-0.7,0.1-1.2,0.1
			c-2.2,0-3-0.8-3-2.9v-6.2h-1.6v-1.8h1.6v-2.6H303.7z"/>
		<path d="M307.8,170.2v-1.8c0.2,0,0.5,0,0.7,0c1,0,1.6-0.4,1.9-1.5c0,0,0.2-0.7,0.2-0.7l-3.9-10.8h2.4l2.7,8.8h0l2.7-8.8h2.3
			l-4,11.4c-0.9,2.6-2,3.5-4.2,3.5C308.5,170.2,307.9,170.2,307.8,170.2z"/>
		<path d="M328.4,160.8c0,3.4-1.8,5.6-4.5,5.6c-1.5,0-2.8-0.8-3.4-2h-0.1v5.3h-2.2v-14.4h2.1v1.9h0c0.6-1.2,1.9-2,3.4-2
			C326.6,155.2,328.4,157.4,328.4,160.8z M326.1,160.8c0-2.3-1.1-3.7-2.9-3.7c-1.7,0-2.8,1.5-2.8,3.7c0,2.2,1.1,3.7,2.8,3.7
			C325,164.5,326.1,163.1,326.1,160.8z"/>
		<path d="M339.3,163c-0.3,2-2.2,3.4-4.6,3.4c-3.2,0-5.1-2.1-5.1-5.5c0-3.4,1.9-5.6,5-5.6c3,0,4.9,2.1,4.9,5.4v0.8h-7.6v0.1
			c0,1.9,1.1,3.1,2.9,3.1c1.3,0,2.2-0.6,2.5-1.6H339.3z M331.9,159.8h5.4c-0.1-1.7-1.1-2.8-2.6-2.8S332,158.2,331.9,159.8z"/>
	</g>
</g>
<g>
	<g class="st2">
		<path d="M127,353.2v-14.8h5.9c2.6,0,4.3,1.5,4.3,3.7c0,1.6-1.2,3-2.6,3.2v0.1c2,0.2,3.4,1.7,3.4,3.6c0,2.6-1.9,4.2-5,4.2H127z
			 M129.3,344.7h2.6c2,0,3.1-0.8,3.1-2.3c0-1.4-0.9-2.1-2.6-2.1h-3.1V344.7z M132.5,351.3c2.1,0,3.2-0.9,3.2-2.5s-1.1-2.4-3.3-2.4
			h-3v4.9H132.5z"/>
		<path d="M149,350c-0.3,2-2.2,3.4-4.6,3.4c-3.2,0-5.1-2.1-5.1-5.5c0-3.4,1.9-5.6,5-5.6c3,0,4.9,2.1,4.9,5.4v0.8h-7.6v0.1
			c0,1.9,1.1,3.1,2.9,3.1c1.3,0,2.2-0.6,2.5-1.6H149z M141.5,346.8h5.4c-0.1-1.7-1.1-2.8-2.6-2.8S141.6,345.2,141.5,346.8z"/>
	</g>
	<g class="st2">
		<path d="M153.7,339.9v2.6h2.1v1.8h-2.1v5.9c0,0.9,0.4,1.4,1.3,1.4c0.2,0,0.6,0,0.7-0.1v1.8c-0.2,0.1-0.7,0.1-1.2,0.1
			c-2.2,0-3-0.8-3-2.9v-6.2h-1.6v-1.8h1.6v-2.6H153.7z"/>
	</g>
	<g class="st2">
		<path d="M157,350.1c0-1.9,1.4-3,4-3.2l3-0.2V346c0-1.2-0.8-1.9-2.2-1.9c-1.3,0-2.1,0.6-2.3,1.6h-2.1c0.1-1.9,1.8-3.4,4.5-3.4
			c2.6,0,4.3,1.4,4.3,3.5v7.4H164v-1.8h-0.1c-0.6,1.2-2,2-3.4,2C158.4,353.4,157,352.1,157,350.1z M163.9,349.2v-0.9l-2.7,0.2
			c-1.3,0.1-2.1,0.7-2.1,1.6c0,0.9,0.8,1.6,2,1.6C162.7,351.6,163.9,350.6,163.9,349.2z"/>
		<path d="M174.4,349.1c0.2,1.5,1.6,2.3,3.6,2.3c1.9,0,3.2-1,3.2-2.3c0-1.1-0.8-1.9-2.8-2.3l-1.6-0.3c-3-0.6-4.3-2-4.3-4.1
			c0-2.5,2.2-4.3,5.4-4.3c3.1,0,5.3,1.8,5.4,4.4H181c-0.1-1.5-1.4-2.4-3.2-2.4c-1.7,0-3,0.8-3,2.2c0,1.1,0.8,1.8,2.7,2.2l1.6,0.3
			c3.1,0.7,4.4,1.9,4.4,4c0,2.8-2.2,4.5-5.6,4.5c-3.3,0-5.6-1.7-5.7-4.3H174.4z"/>
		<path d="M194.5,350c-0.3,2-2.2,3.4-4.6,3.4c-3.2,0-5.1-2.1-5.1-5.5c0-3.4,1.9-5.6,5-5.6c3,0,4.9,2.1,4.9,5.4v0.8H187v0.1
			c0,1.9,1.1,3.1,2.9,3.1c1.3,0,2.2-0.6,2.5-1.6H194.5z M187,346.8h5.4c-0.1-1.7-1.1-2.8-2.6-2.8S187.1,345.2,187,346.8z"/>
		<path d="M196.4,342.4h2.1v1.8h0.1c0.4-1.3,1.3-2,2.6-2c0.3,0,0.6,0.1,0.8,0.1v2.1c-0.2-0.1-0.6-0.1-1-0.1c-1.4,0-2.3,1-2.3,2.5
			v6.5h-2.2V342.4z"/>
		<path d="M208.6,353.2h-2.4l-3.9-10.8h2.4l2.7,8.6h0l2.7-8.6h2.3L208.6,353.2z"/>
		<path d="M213.6,339.4c0-0.7,0.6-1.3,1.3-1.3s1.3,0.6,1.3,1.3c0,0.7-0.6,1.3-1.3,1.3S213.6,340.1,213.6,339.4z M213.8,342.4h2.2
			v10.8h-2.2V342.4z"/>
		<path d="M225.4,346.1c-0.2-1.1-1.1-2.1-2.5-2.1c-1.7,0-2.8,1.4-2.8,3.7c0,2.4,1.1,3.7,2.9,3.7c1.4,0,2.3-0.7,2.5-2h2.1
			c-0.2,2.3-2.1,3.9-4.7,3.9c-3.1,0-5.1-2.1-5.1-5.6c0-3.4,2-5.6,5.1-5.6c2.8,0,4.5,1.8,4.7,3.9H225.4z"/>
		<path d="M238.4,350c-0.3,2-2.2,3.4-4.6,3.4c-3.2,0-5.1-2.1-5.1-5.5c0-3.4,1.9-5.6,5-5.6c3,0,4.9,2.1,4.9,5.4v0.8h-7.6v0.1
			c0,1.9,1.1,3.1,2.9,3.1c1.3,0,2.2-0.6,2.5-1.6H238.4z M230.9,346.8h5.4c-0.1-1.7-1.1-2.8-2.6-2.8S231,345.2,230.9,346.8z"/>
	</g>
	<g class="st2">
		<path d="M245.1,344.2h-1.5v-1.7h1.5v-1.1c0-2.1,1-3.1,3.2-3.1c0.5,0,1,0.1,1.2,0.1v1.6c-0.2,0-0.5-0.1-0.8-0.1
			c-1,0-1.4,0.5-1.4,1.4v1h2.2v1.7h-2.2v9h-2.2V344.2z"/>
	</g>
	<g class="st2">
		<path d="M250.3,347.8c0-3.5,2-5.6,5.1-5.6s5.1,2.1,5.1,5.6c0,3.5-2,5.6-5.1,5.6S250.3,351.3,250.3,347.8z M258.3,347.8
			c0-2.4-1.1-3.8-2.9-3.8s-2.9,1.4-2.9,3.8c0,2.4,1.1,3.8,2.9,3.8C257.2,351.6,258.3,350.2,258.3,347.8z"/>
		<path d="M262.2,342.4h2.1v1.8h0.1c0.4-1.3,1.3-2,2.6-2c0.3,0,0.6,0.1,0.8,0.1v2.1c-0.2-0.1-0.6-0.1-1-0.1c-1.4,0-2.3,1-2.3,2.5
			v6.5h-2.2V342.4z"/>
		<path d="M281.9,349.2h-5.6l-1.4,4h-2.4l5.3-14.8h2.5l5.3,14.8h-2.4L281.9,349.2z M276.9,347.4h4.5l-2.2-6.5h-0.1L276.9,347.4z"/>
		<path d="M287.1,342.4h2.1v1.8h0.1c0.4-1.3,1.3-2,2.6-2c0.3,0,0.6,0.1,0.8,0.1v2.1c-0.2-0.1-0.6-0.1-1-0.1c-1.4,0-2.3,1-2.3,2.5
			v6.5h-2.2V342.4z"/>
		<path d="M296.9,339.9v2.6h2.1v1.8h-2.1v5.9c0,0.9,0.4,1.4,1.3,1.4c0.2,0,0.6,0,0.7-0.1v1.8c-0.2,0.1-0.7,0.1-1.2,0.1
			c-2.2,0-3-0.8-3-2.9v-6.2h-1.6v-1.8h1.6v-2.6H296.9z"/>
		<path d="M300.7,342.4h2.1v1.8h0.1c0.6-1.2,1.7-2,3.4-2c2.4,0,3.7,1.5,3.7,4v7h-2.2v-6.6c0-1.6-0.8-2.5-2.3-2.5
			c-1.6,0-2.6,1.1-2.6,2.8v6.3h-2.2V342.4z"/>
		<path d="M311.7,347.8c0-3.5,2-5.6,5.1-5.6s5.1,2.1,5.1,5.6c0,3.5-2,5.6-5.1,5.6S311.7,351.3,311.7,347.8z M319.7,347.8
			c0-2.4-1.1-3.8-2.9-3.8s-2.9,1.4-2.9,3.8c0,2.4,1.1,3.8,2.9,3.8C318.5,351.6,319.7,350.2,319.7,347.8z"/>
	</g>
	<g class="st2">
		<path d="M326.5,339.9v2.6h2.1v1.8h-2.1v5.9c0,0.9,0.4,1.4,1.3,1.4c0.2,0,0.6,0,0.7-0.1v1.8c-0.2,0.1-0.7,0.1-1.2,0.1
			c-2.2,0-3-0.8-3-2.9v-6.2h-1.6v-1.8h1.6v-2.6H326.5z"/>
	</g>
	<g class="st2">
		<path d="M339.3,350c-0.3,2-2.2,3.4-4.6,3.4c-3.2,0-5.1-2.1-5.1-5.5c0-3.4,1.9-5.6,5-5.6c3,0,4.9,2.1,4.9,5.4v0.8h-7.6v0.1
			c0,1.9,1.1,3.1,2.9,3.1c1.3,0,2.2-0.6,2.5-1.6H339.3z M331.9,346.8h5.4c-0.1-1.7-1.1-2.8-2.6-2.8C333.1,344,332,345.2,331.9,346.8
			z"/>
	</g>
</g>
<g>
	<g class="st2">
		<path d="M120.4,540.2v-14.8h5.9c2.6,0,4.3,1.5,4.3,3.7c0,1.6-1.2,3-2.6,3.2v0.1c2,0.2,3.4,1.7,3.4,3.6c0,2.6-1.9,4.2-5,4.2H120.4z
			 M122.7,531.7h2.6c2,0,3.1-0.8,3.1-2.3c0-1.4-0.9-2.1-2.6-2.1h-3.1V531.7z M125.8,538.3c2.1,0,3.2-0.9,3.2-2.5s-1.1-2.4-3.3-2.4
			h-3v4.9H125.8z"/>
		<path d="M142.3,537c-0.3,2-2.2,3.4-4.6,3.4c-3.2,0-5.1-2.1-5.1-5.5c0-3.4,1.9-5.6,5-5.6c3,0,4.9,2.1,4.9,5.4v0.8h-7.6v0.1
			c0,1.9,1.1,3.1,2.9,3.1c1.3,0,2.2-0.6,2.5-1.6H142.3z M134.8,533.8h5.4c-0.1-1.7-1.1-2.8-2.6-2.8S134.9,532.2,134.8,533.8z"/>
	</g>
	<g class="st2">
		<path d="M147.9,526.9v2.6h2.1v1.8h-2.1v5.9c0,0.9,0.4,1.4,1.3,1.4c0.2,0,0.6,0,0.7-0.1v1.8c-0.2,0.1-0.7,0.1-1.2,0.1
			c-2.2,0-3-0.8-3-2.9v-6.2h-1.6v-1.8h1.6v-2.6H147.9z"/>
	</g>
	<g class="st2">
		<path d="M151.5,537.1c0-1.9,1.4-3,4-3.2l3-0.2V533c0-1.2-0.8-1.9-2.2-1.9c-1.3,0-2.1,0.6-2.3,1.6H152c0.1-1.9,1.8-3.4,4.5-3.4
			c2.6,0,4.3,1.4,4.3,3.5v7.4h-2.1v-1.8h-0.1c-0.6,1.2-2,2-3.4,2C153,540.4,151.5,539.1,151.5,537.1z M158.5,536.2v-0.9l-2.7,0.2
			c-1.3,0.1-2.1,0.7-2.1,1.6c0,0.9,0.8,1.6,2,1.6C157.3,538.6,158.5,537.6,158.5,536.2z"/>
		<path d="M168.9,536.1c0.2,1.5,1.6,2.3,3.6,2.3c1.9,0,3.2-1,3.2-2.3c0-1.1-0.8-1.9-2.8-2.3l-1.6-0.3c-3-0.6-4.3-2-4.3-4.1
			c0-2.5,2.2-4.3,5.4-4.3c3.1,0,5.3,1.8,5.4,4.4h-2.2c-0.1-1.5-1.4-2.4-3.2-2.4c-1.7,0-3,0.8-3,2.2c0,1.1,0.8,1.8,2.7,2.2l1.6,0.3
			c3.1,0.7,4.4,1.9,4.4,4c0,2.8-2.2,4.5-5.6,4.5c-3.3,0-5.6-1.7-5.7-4.3H168.9z"/>
		<path d="M189.1,537c-0.3,2-2.2,3.4-4.6,3.4c-3.2,0-5.1-2.1-5.1-5.5c0-3.4,1.9-5.6,5-5.6c3,0,4.9,2.1,4.9,5.4v0.8h-7.6v0.1
			c0,1.9,1.1,3.1,2.9,3.1c1.3,0,2.2-0.6,2.5-1.6H189.1z M181.6,533.8h5.4c-0.1-1.7-1.1-2.8-2.6-2.8S181.7,532.2,181.6,533.8z"/>
		<path d="M190.9,529.4h2.1v1.8h0.1c0.4-1.3,1.3-2,2.6-2c0.3,0,0.6,0.1,0.8,0.1v2.1c-0.2-0.1-0.6-0.1-1-0.1c-1.4,0-2.3,1-2.3,2.5
			v6.5h-2.2V529.4z"/>
		<path d="M203.2,540.2h-2.4l-3.9-10.8h2.4l2.7,8.6h0l2.7-8.6h2.3L203.2,540.2z"/>
		<path d="M208.2,526.4c0-0.7,0.6-1.3,1.3-1.3s1.3,0.6,1.3,1.3c0,0.7-0.6,1.3-1.3,1.3S208.2,527.1,208.2,526.4z M208.4,529.4h2.2
			v10.8h-2.2V529.4z"/>
		<path d="M220,533.1c-0.2-1.1-1.1-2.1-2.5-2.1c-1.7,0-2.8,1.4-2.8,3.7c0,2.4,1.1,3.7,2.9,3.7c1.4,0,2.3-0.7,2.5-2h2.1
			c-0.2,2.3-2.1,3.9-4.7,3.9c-3.1,0-5.1-2.1-5.1-5.6c0-3.4,2-5.6,5.1-5.6c2.8,0,4.5,1.8,4.7,3.9H220z"/>
		<path d="M233,537c-0.3,2-2.2,3.4-4.6,3.4c-3.2,0-5.1-2.1-5.1-5.5c0-3.4,1.9-5.6,5-5.6c3,0,4.9,2.1,4.9,5.4v0.8h-7.6v0.1
			c0,1.9,1.1,3.1,2.9,3.1c1.3,0,2.2-0.6,2.5-1.6H233z M225.5,533.8h5.4c-0.1-1.7-1.1-2.8-2.6-2.8S225.6,532.2,225.5,533.8z"/>
	</g>
	<g class="st2">
		<path d="M243.9,531.2h-1.5v-1.7h1.5v-1.1c0-2.1,1-3.1,3.2-3.1c0.5,0,1,0.1,1.2,0.1v1.6c-0.2,0-0.5-0.1-0.8-0.1
			c-1,0-1.4,0.5-1.4,1.4v1h2.2v1.7h-2.2v9h-2.2V531.2z"/>
	</g>
	<g class="st2">
		<path d="M249.5,534.8c0-3.5,2-5.6,5.1-5.6s5.1,2.1,5.1,5.6c0,3.5-2,5.6-5.1,5.6S249.5,538.3,249.5,534.8z M257.5,534.8
			c0-2.4-1.1-3.8-2.9-3.8s-2.9,1.4-2.9,3.8c0,2.4,1.1,3.8,2.9,3.8C256.4,538.6,257.5,537.2,257.5,534.8z"/>
		<path d="M261.5,529.4h2.1v1.8h0.1c0.4-1.3,1.3-2,2.6-2c0.3,0,0.6,0.1,0.8,0.1v2.1c-0.2-0.1-0.6-0.1-1-0.1c-1.4,0-2.3,1-2.3,2.5
			v6.5h-2.2V529.4z"/>
		<path d="M281.2,536.2h-5.6l-1.4,4h-2.4l5.3-14.8h2.5l5.3,14.8h-2.4L281.2,536.2z M276.1,534.4h4.5l-2.2-6.5h-0.1L276.1,534.4z"/>
		<path d="M286.3,529.4h2.1v1.8h0.1c0.4-1.3,1.3-2,2.6-2c0.3,0,0.6,0.1,0.8,0.1v2.1c-0.2-0.1-0.6-0.1-1-0.1c-1.4,0-2.3,1-2.3,2.5
			v6.5h-2.2V529.4z"/>
		<path d="M296.1,526.9v2.6h2.1v1.8h-2.1v5.9c0,0.9,0.4,1.4,1.3,1.4c0.2,0,0.6,0,0.7-0.1v1.8c-0.2,0.1-0.7,0.1-1.2,0.1
			c-2.2,0-3-0.8-3-2.9v-6.2h-1.6v-1.8h1.6v-2.6H296.1z"/>
		<path d="M299.9,529.4h2.1v1.8h0.1c0.6-1.2,1.7-2,3.4-2c2.4,0,3.7,1.5,3.7,4v7H307v-6.6c0-1.6-0.8-2.5-2.3-2.5
			c-1.6,0-2.6,1.1-2.6,2.8v6.3h-2.2V529.4z"/>
		<path d="M310.9,534.8c0-3.5,2-5.6,5.1-5.6s5.1,2.1,5.1,5.6c0,3.5-2,5.6-5.1,5.6S310.9,538.3,310.9,534.8z M318.9,534.8
			c0-2.4-1.1-3.8-2.9-3.8s-2.9,1.4-2.9,3.8c0,2.4,1.1,3.8,2.9,3.8C317.7,538.6,318.9,537.2,318.9,534.8z"/>
	</g>
	<g class="st2">
		<path d="M326.1,526.9v2.6h2.1v1.8h-2.1v5.9c0,0.9,0.4,1.4,1.3,1.4c0.2,0,0.6,0,0.7-0.1v1.8c-0.2,0.1-0.7,0.1-1.2,0.1
			c-2.2,0-3-0.8-3-2.9v-6.2h-1.6v-1.8h1.6v-2.6H326.1z"/>
	</g>
	<g class="st2">
		<path d="M339.3,537c-0.3,2-2.2,3.4-4.6,3.4c-3.2,0-5.1-2.1-5.1-5.5c0-3.4,1.9-5.6,5-5.6c3,0,4.9,2.1,4.9,5.4v0.8h-7.6v0.1
			c0,1.9,1.1,3.1,2.9,3.1c1.3,0,2.2-0.6,2.5-1.6H339.3z M331.9,533.8h5.4c-0.1-1.7-1.1-2.8-2.6-2.8S332,532.2,331.9,533.8z"/>
	</g>
</g>
<g>
	<g class="st2">
		<path d="M21.4,820.2v-14.8h5.9c2.6,0,4.3,1.5,4.3,3.7c0,1.6-1.2,3-2.6,3.2v0.1c2,0.2,3.4,1.7,3.4,3.6c0,2.6-1.9,4.2-5,4.2H21.4z
			 M23.7,811.7h2.6c2,0,3.1-0.8,3.1-2.3c0-1.4-0.9-2.1-2.6-2.1h-3.1V811.7z M26.9,818.3c2.1,0,3.2-0.9,3.2-2.5s-1.1-2.4-3.3-2.4h-3
			v4.9H26.9z"/>
		<path d="M43.4,817c-0.3,2-2.2,3.4-4.6,3.4c-3.2,0-5.1-2.1-5.1-5.5c0-3.4,1.9-5.6,5-5.6c3,0,4.9,2.1,4.9,5.4v0.8h-7.6v0.1
			c0,1.9,1.1,3.1,2.9,3.1c1.3,0,2.2-0.6,2.5-1.6H43.4z M35.9,813.8h5.4c-0.1-1.7-1.1-2.8-2.6-2.8S36,812.2,35.9,813.8z"/>
	</g>
	<g class="st2">
		<path d="M48.9,806.9v2.6H51v1.8h-2.1v5.9c0,0.9,0.4,1.4,1.3,1.4c0.2,0,0.6,0,0.7-0.1v1.8c-0.2,0.1-0.7,0.1-1.2,0.1
			c-2.2,0-3-0.8-3-2.9v-6.2h-1.6v-1.8h1.6v-2.6H48.9z"/>
	</g>
	<g class="st2">
		<path d="M52.6,817.1c0-1.9,1.4-3,4-3.2l3-0.2V813c0-1.2-0.8-1.9-2.2-1.9c-1.3,0-2.1,0.6-2.3,1.6H53c0.1-1.9,1.8-3.4,4.5-3.4
			c2.6,0,4.3,1.4,4.3,3.5v7.4h-2.1v-1.8h-0.1c-0.6,1.2-2,2-3.4,2C54.1,820.4,52.6,819.1,52.6,817.1z M59.6,816.2v-0.9l-2.7,0.2
			c-1.3,0.1-2.1,0.7-2.1,1.6c0,0.9,0.8,1.6,2,1.6C58.4,818.6,59.6,817.6,59.6,816.2z"/>
		<path d="M70,816.1c0.2,1.5,1.6,2.3,3.6,2.3c1.9,0,3.2-1,3.2-2.3c0-1.1-0.8-1.9-2.8-2.3l-1.6-0.3c-3-0.6-4.3-2-4.3-4.1
			c0-2.5,2.2-4.3,5.4-4.3c3.1,0,5.3,1.8,5.4,4.4h-2.2c-0.1-1.5-1.4-2.4-3.2-2.4c-1.7,0-3,0.8-3,2.2c0,1.1,0.8,1.8,2.7,2.2l1.6,0.3
			c3.1,0.7,4.4,1.9,4.4,4c0,2.8-2.2,4.5-5.6,4.5c-3.3,0-5.6-1.7-5.7-4.3H70z"/>
		<path d="M90.2,817c-0.3,2-2.2,3.4-4.6,3.4c-3.2,0-5.1-2.1-5.1-5.5c0-3.4,1.9-5.6,5-5.6c3,0,4.9,2.1,4.9,5.4v0.8h-7.6v0.1
			c0,1.9,1.1,3.1,2.9,3.1c1.3,0,2.2-0.6,2.5-1.6H90.2z M82.7,813.8h5.4c-0.1-1.7-1.1-2.8-2.6-2.8C83.9,811,82.8,812.2,82.7,813.8z"
			/>
		<path d="M92,809.4h2.1v1.8h0.1c0.4-1.3,1.3-2,2.6-2c0.3,0,0.6,0.1,0.8,0.1v2.1c-0.2-0.1-0.6-0.1-1-0.1c-1.4,0-2.3,1-2.3,2.5v6.5
			H92V809.4z"/>
		<path d="M104.2,820.2h-2.4L98,809.4h2.4l2.7,8.6h0l2.7-8.6h2.3L104.2,820.2z"/>
		<path d="M109.3,806.4c0-0.7,0.6-1.3,1.3-1.3c0.7,0,1.3,0.6,1.3,1.3c0,0.7-0.6,1.3-1.3,1.3C109.8,807.7,109.3,807.1,109.3,806.4z
			 M109.4,809.4h2.2v10.8h-2.2V809.4z"/>
		<path d="M121.1,813.1c-0.2-1.1-1.1-2.1-2.5-2.1c-1.7,0-2.8,1.4-2.8,3.7c0,2.4,1.1,3.7,2.9,3.7c1.4,0,2.3-0.7,2.5-2h2.1
			c-0.2,2.3-2.1,3.9-4.7,3.9c-3.1,0-5.1-2.1-5.1-5.6c0-3.4,2-5.6,5.1-5.6c2.8,0,4.5,1.8,4.7,3.9H121.1z"/>
		<path d="M134,817c-0.3,2-2.2,3.4-4.6,3.4c-3.2,0-5.1-2.1-5.1-5.5c0-3.4,1.9-5.6,5-5.6c3,0,4.9,2.1,4.9,5.4v0.8h-7.6v0.1
			c0,1.9,1.1,3.1,2.9,3.1c1.3,0,2.2-0.6,2.5-1.6H134z M126.5,813.8h5.4c-0.1-1.7-1.1-2.8-2.6-2.8C127.7,811,126.6,812.2,126.5,813.8
			z"/>
	</g>
	<g class="st2">
		<path d="M145,811.2h-1.5v-1.7h1.5v-1.1c0-2.1,1-3.1,3.2-3.1c0.5,0,1,0.1,1.2,0.1v1.6c-0.2,0-0.5-0.1-0.8-0.1c-1,0-1.4,0.5-1.4,1.4
			v1h2.2v1.7h-2.2v9H145V811.2z"/>
	</g>
	<g class="st2">
		<path d="M150.6,814.8c0-3.5,2-5.6,5.1-5.6s5.1,2.1,5.1,5.6c0,3.5-2,5.6-5.1,5.6S150.6,818.3,150.6,814.8z M158.6,814.8
			c0-2.4-1.1-3.8-2.9-3.8s-2.9,1.4-2.9,3.8c0,2.4,1.1,3.8,2.9,3.8C157.4,818.6,158.6,817.2,158.6,814.8z"/>
		<path d="M162.5,809.4h2.1v1.8h0.1c0.4-1.3,1.3-2,2.6-2c0.3,0,0.6,0.1,0.8,0.1v2.1c-0.2-0.1-0.6-0.1-1-0.1c-1.4,0-2.3,1-2.3,2.5
			v6.5h-2.2V809.4z"/>
		<path d="M182.2,816.2h-5.6l-1.4,4h-2.4l5.3-14.8h2.5l5.3,14.8h-2.4L182.2,816.2z M177.2,814.4h4.5l-2.2-6.5h-0.1L177.2,814.4z"/>
		<path d="M187.4,809.4h2.1v1.8h0.1c0.4-1.3,1.3-2,2.6-2c0.3,0,0.6,0.1,0.8,0.1v2.1c-0.2-0.1-0.6-0.1-1-0.1c-1.4,0-2.3,1-2.3,2.5
			v6.5h-2.2V809.4z"/>
		<path d="M197.1,806.9v2.6h2.1v1.8h-2.1v5.9c0,0.9,0.4,1.4,1.3,1.4c0.2,0,0.6,0,0.7-0.1v1.8c-0.2,0.1-0.7,0.1-1.2,0.1
			c-2.2,0-3-0.8-3-2.9v-6.2h-1.6v-1.8h1.6v-2.6H197.1z"/>
	</g>
	<g class="st2">
		<path d="M212.1,820.2v-12.8h-4.5v-2h11.4v2h-4.5v12.8H212.1z"/>
	</g>
	<g class="st2">
		<path d="M219,809.4h2.1v1.8h0.1c0.4-1.3,1.3-2,2.6-2c0.3,0,0.6,0.1,0.8,0.1v2.1c-0.2-0.1-0.6-0.1-1-0.1c-1.4,0-2.3,1-2.3,2.5v6.5
			H219V809.4z"/>
	</g>
	<g class="st2">
		<path d="M225.6,817.1c0-1.9,1.4-3,4-3.2l3-0.2V813c0-1.2-0.8-1.9-2.2-1.9c-1.3,0-2.1,0.6-2.3,1.6H226c0.1-1.9,1.8-3.4,4.5-3.4
			c2.6,0,4.3,1.4,4.3,3.5v7.4h-2.1v-1.8h-0.1c-0.6,1.2-2,2-3.4,2C227.1,820.4,225.6,819.1,225.6,817.1z M232.6,816.2v-0.9l-2.7,0.2
			c-1.3,0.1-2.1,0.7-2.1,1.6c0,0.9,0.8,1.6,2,1.6C231.4,818.6,232.6,817.6,232.6,816.2z"/>
		<path d="M236.4,814.8c0-3.4,1.8-5.6,4.5-5.6c1.5,0,2.8,0.8,3.4,2h0v-5.8h2.2v14.8h-2.2v-1.8h0c-0.6,1.2-1.9,2-3.4,2
			C238.2,820.4,236.4,818.2,236.4,814.8z M238.7,814.8c0,2.3,1.1,3.7,2.9,3.7c1.7,0,2.8-1.4,2.8-3.7c0-2.2-1.1-3.7-2.8-3.7
			C239.8,811.1,238.7,812.5,238.7,814.8z"/>
		<path d="M258.1,817c-0.3,2-2.2,3.4-4.6,3.4c-3.2,0-5.1-2.1-5.1-5.5c0-3.4,1.9-5.6,5-5.6c3,0,4.9,2.1,4.9,5.4v0.8h-7.6v0.1
			c0,1.9,1.1,3.1,2.9,3.1c1.3,0,2.2-0.6,2.5-1.6H258.1z M250.6,813.8h5.4c-0.1-1.7-1.1-2.8-2.6-2.8
			C251.8,811,250.7,812.2,250.6,813.8z"/>
		<path d="M270,805.4c2.9,0,4.9,2,4.9,4.9c0,2.9-2,4.9-4.9,4.9h-3.2v5.1h-2.3v-14.8H270z M266.8,813.2h2.6c2,0,3.1-1.1,3.1-2.9
			s-1.1-2.9-3.1-2.9h-2.6V813.2z"/>
		<path d="M276.7,805.4h2.2v14.8h-2.2V805.4z"/>
		<path d="M280.8,817.1c0-1.9,1.4-3,4-3.2l3-0.2V813c0-1.2-0.8-1.9-2.2-1.9c-1.3,0-2.1,0.6-2.3,1.6h-2.1c0.1-1.9,1.8-3.4,4.5-3.4
			c2.6,0,4.3,1.4,4.3,3.5v7.4h-2.1v-1.8h-0.1c-0.6,1.2-2,2-3.4,2C282.2,820.4,280.8,819.1,280.8,817.1z M287.7,816.2v-0.9l-2.7,0.2
			c-1.3,0.1-2.1,0.7-2.1,1.6c0,0.9,0.8,1.6,2,1.6C286.5,818.6,287.7,817.6,287.7,816.2z"/>
		<path d="M295,806.9v2.6h2.1v1.8H295v5.9c0,0.9,0.4,1.4,1.3,1.4c0.2,0,0.6,0,0.7-0.1v1.8c-0.2,0.1-0.7,0.1-1.2,0.1
			c-2.2,0-3-0.8-3-2.9v-6.2h-1.6v-1.8h1.6v-2.6H295z"/>
	</g>
	<g class="st2">
		<path d="M299.8,811.2h-1.5v-1.7h1.5v-1.1c0-2.1,1-3.1,3.2-3.1c0.5,0,1,0.1,1.2,0.1v1.6c-0.2,0-0.5-0.1-0.8-0.1
			c-1,0-1.4,0.5-1.4,1.4v1h2.2v1.7h-2.2v9h-2.2V811.2z"/>
	</g>
	<g class="st2">
		<path d="M305.4,814.8c0-3.5,2-5.6,5.1-5.6s5.1,2.1,5.1,5.6c0,3.5-2,5.6-5.1,5.6S305.4,818.3,305.4,814.8z M313.4,814.8
			c0-2.4-1.1-3.8-2.9-3.8s-2.9,1.4-2.9,3.8c0,2.4,1.1,3.8,2.9,3.8C312.3,818.6,313.4,817.2,313.4,814.8z"/>
		<path d="M317.4,809.4h2.1v1.8h0.1c0.4-1.3,1.3-2,2.6-2c0.3,0,0.6,0.1,0.8,0.1v2.1c-0.2-0.1-0.6-0.1-1-0.1c-1.4,0-2.3,1-2.3,2.5
			v6.5h-2.2V809.4z"/>
		<path d="M324.3,809.4h2.1v1.8h0.1c0.5-1.2,1.6-2,3.1-2c1.5,0,2.6,0.8,3,2.1h0.1c0.6-1.3,1.8-2.1,3.4-2.1c2.1,0,3.5,1.4,3.5,3.6
			v7.4h-2.2v-6.9c0-1.4-0.7-2.2-2.1-2.2s-2.2,1-2.2,2.3v6.7h-2.2v-7c0-1.2-0.8-2-2-2c-1.3,0-2.2,1-2.2,2.4v6.7h-2.2V809.4z"/>
	</g>
</g>
<text transform="matrix(1 0 0 1 436.73 72.33)" class="st3 st4">J</text>
<text transform="matrix(1 0 0 1 443.4301 72.33)" class="st3 st4">an,</text>
<text transform="matrix(1 0 0 1 469.23 72.33)" class="st3 st4"> </text>
<text transform="matrix(1 0 0 1 473.01 72.33)" class="st3 st4">2019</text>
<text transform="matrix(1 0 0 1 433.79 166.33)" class="st3 st4">F</text>
<text transform="matrix(1 0 0 1 444.28 166.33)" class="st3 st4">eb,</text>
<text transform="matrix(1 0 0 1 469.16 166.33)" class="st3 st4"> </text>
<text transform="matrix(1 0 0 1 472.94 166.33)" class="st3 st4">2019</text>
<text transform="matrix(1 0 0 1 433.79 353.33)" class="st3 st4">M</text>
<text transform="matrix(1 0 0 1 451.03 353.33)" class="st3 st4">a</text>
<text transform="matrix(1 0 0 1 460.39 353.33)" class="st3 st4">y</text>
<text transform="matrix(1 0 0 1 469.11 353.33)" class="st3 st4">,</text>
<text transform="matrix(1 0 0 1 474.11 353.33)" class="st3 st4"> </text>
<text transform="matrix(1 0 0 1 477.89 353.33)" class="st3 st4">2019</text>
<text transform="matrix(1 0 0 1 434.17 540.33)" class="st3 st4">A</text>
<text transform="matrix(1 0 0 1 446.09 540.33)" class="st3 st4">ug,</text>
<text transform="matrix(1 0 0 1 472.37 540.33)" class="st3 st4"> </text>
<text transform="matrix(1 0 0 1 476.15 540.33)" class="st3 st4">2019</text>
<text transform="matrix(1 0 0 1 433.79 820.33)" class="st3 st4">Oct,</text>
<text transform="matrix(1 0 0 1 469.03 820.33)" class="st3 st4"> </text>
<text transform="matrix(1 0 0 1 472.81 820.33)" class="st3 st4">2019</text>
<rect x="536.8" class="st5" width="160.7" height="1038"/>
</svg>
