<?xml version="1.0" encoding="utf-8"?>
<!-- Generator: Adobe Illustrator 23.0.2, SVG Export Plug-In . SVG Version: 6.00 Build 0)  -->
<svg version="1.1" id="Layer_1" xmlns="http://www.w3.org/2000/svg" xmlns:xlink="http://www.w3.org/1999/xlink" x="0px" y="0px"
	 viewBox="0 0 377.5 350" style="enable-background:new 0 0 377.5 350;" xml:space="preserve">
<style type="text/css">
	.st0{fill:#FFFFFF;}
	.st1{fill:none;}
</style>
<g>
	<path class="st0" d="M284,266.6H55.6L169.8,68.8L284,266.6z M58.6,264.9H281L169.8,72.3L58.6,264.9z"/>
</g>
<g>
	<path d="M168.9,132.1L168.9,132.1c-28.8,0-52.1-23.3-52.1-52.1v0c0-28.8,23.3-52.1,52.1-52.1h0c28.8,0,52.1,23.3,52.1,52.1v0
		C221,108.8,197.7,132.1,168.9,132.1z"/>
	<path class="st0" d="M168.9,133c-29.2,0-52.9-23.7-52.9-52.9s23.7-52.9,52.9-52.9s52.9,23.7,52.9,52.9S198.1,133,168.9,133z
		 M168.9,28.9c-28.2,0-51.2,23-51.2,51.2s23,51.2,51.2,51.2s51.2-23,51.2-51.2S197.2,28.9,168.9,28.9z"/>
</g>
<g>
</g>
<g>
	<path class="st0" d="M137.4,84.9V72.7h1.9l6.1,8.6h0.1v-8.6h2.1v12.2h-1.9l-6.1-8.6h-0.1v8.6H137.4z"/>
	<path class="st0" d="M157.4,82.2c-0.3,1.7-1.8,2.9-4,2.9c-2.7,0-4.3-1.8-4.3-4.6c0-2.8,1.6-4.7,4.2-4.7c2.5,0,4.1,1.8,4.1,4.5V81
		h-6.3v0.1c0,1.4,0.9,2.4,2.3,2.4c1,0,1.7-0.5,2-1.2H157.4z M151.2,79.6h4.2c0-1.3-0.9-2.2-2.1-2.2
		C152.1,77.4,151.3,78.3,151.2,79.6z"/>
	<path class="st0" d="M161.5,73.9V76h1.7v1.6h-1.7v4.7c0,0.7,0.3,1.1,1.1,1.1c0.2,0,0.5,0,0.6,0v1.6c-0.2,0.1-0.6,0.1-1.1,0.1
		c-1.9,0-2.7-0.7-2.7-2.4v-5h-1.3V76h1.3v-2.1H161.5z"/>
	<path class="st0" d="M174.4,84.9h-2.2l-1.8-6.6h0l-1.8,6.6h-2.2l-2.4-9h2.1l1.5,6.9h0l1.8-6.9h2l1.8,6.9h0.1l1.5-6.9h2.1
		L174.4,84.9z"/>
	<path class="st0" d="M177.4,80.4c0-2.9,1.7-4.7,4.3-4.7c2.6,0,4.3,1.8,4.3,4.7c0,2.9-1.7,4.7-4.3,4.7S177.4,83.4,177.4,80.4z
		 M184,80.4c0-1.9-0.9-3-2.2-3c-1.3,0-2.2,1.1-2.2,3c0,1.9,0.9,3,2.2,3C183.1,83.4,184,82.4,184,80.4z"/>
	<path class="st0" d="M187.5,76h2v1.6h0c0.3-1.1,1.1-1.7,2.2-1.7c0.3,0,0.5,0.1,0.7,0.1v1.9c-0.2-0.1-0.5-0.1-0.9-0.1
		c-1.2,0-1.9,0.8-1.9,2v5.2h-2.1V76z"/>
	<path class="st0" d="M199,76h2.4l-3.6,3.9l3.7,5.1h-2.4l-2.8-3.8l-0.7,0.7v3.1h-2.1V72.7h2.1v7h0L199,76z"/>
</g>
<g>
	<path d="M57.4,309.6L57.4,309.6c-28.8,0-52.1-23.3-52.1-52.1v0c0-28.8,23.3-52.1,52.1-52.1h0c28.8,0,52.1,23.3,52.1,52.1v0
		C109.5,286.3,86.2,309.6,57.4,309.6z"/>
	<path class="st0" d="M57.4,310.5c-29.2,0-52.9-23.7-52.9-52.9s23.7-52.9,52.9-52.9c29.2,0,52.9,23.7,52.9,52.9
		S86.6,310.5,57.4,310.5z M57.4,206.3c-28.2,0-51.2,23-51.2,51.2s23,51.2,51.2,51.2h0c28.2,0,51.2-23,51.2-51.2
		S85.6,206.3,57.4,206.3z"/>
</g>
<g>
	<path class="st0" d="M33.1,259c0.2,1.1,1.3,1.8,2.8,1.8c1.5,0,2.5-0.7,2.5-1.7c0-0.9-0.6-1.4-2.2-1.8l-1.3-0.3
		c-2.4-0.5-3.6-1.7-3.6-3.4c0-2.2,1.9-3.6,4.5-3.6c2.7,0,4.5,1.5,4.5,3.7h-2.1c-0.1-1.2-1.1-1.8-2.5-1.8c-1.4,0-2.3,0.6-2.3,1.7
		c0,0.8,0.6,1.4,2.1,1.7l1.3,0.3c2.6,0.5,3.7,1.6,3.7,3.4c0,2.3-1.8,3.8-4.8,3.8c-2.8,0-4.7-1.4-4.8-3.6H33.1z"/>
	<path class="st0" d="M49.9,259.7c-0.3,1.7-1.8,2.9-4,2.9c-2.7,0-4.3-1.8-4.3-4.6c0-2.8,1.6-4.7,4.2-4.7c2.5,0,4.1,1.8,4.1,4.5v0.7
		h-6.3v0.1c0,1.4,0.9,2.4,2.3,2.4c1,0,1.7-0.5,2-1.2H49.9z M43.7,257h4.2c0-1.3-0.9-2.2-2.1-2.2C44.7,254.9,43.8,255.8,43.7,257z"/>
	<path class="st0" d="M51.3,253.4h2v1.5h0c0.5-1.1,1.4-1.7,2.8-1.7c2,0,3.1,1.3,3.1,3.3v5.8h-2.1V257c0-1.3-0.6-2-1.8-2
		c-1.2,0-2,0.9-2,2.2v5.2h-2.1V253.4z"/>
	<path class="st0" d="M64.5,253.2c2.2,0,3.6,1.2,3.6,2.9h-2c-0.1-0.8-0.7-1.3-1.7-1.3c-0.9,0-1.5,0.4-1.5,1.1c0,0.5,0.4,0.9,1.3,1.1
		l1.5,0.3c1.9,0.4,2.6,1.1,2.6,2.4c0,1.7-1.6,2.8-3.8,2.8c-2.3,0-3.7-1.1-3.9-2.9h2.1c0.2,0.9,0.8,1.3,1.8,1.3c1,0,1.7-0.4,1.7-1.1
		c0-0.5-0.3-0.8-1.3-1.1l-1.5-0.3c-1.7-0.4-2.6-1.2-2.6-2.6C60.9,254.3,62.3,253.2,64.5,253.2z"/>
	<path class="st0" d="M69.3,257.9c0-2.9,1.7-4.7,4.3-4.7c2.6,0,4.3,1.8,4.3,4.7c0,2.9-1.7,4.7-4.3,4.7S69.3,260.8,69.3,257.9z
		 M75.8,257.9c0-1.9-0.9-3-2.2-3c-1.3,0-2.2,1.1-2.2,3c0,1.9,0.9,3,2.2,3C75,260.9,75.8,259.8,75.8,257.9z"/>
	<path class="st0" d="M79.3,253.4h2v1.6h0c0.3-1.1,1.1-1.7,2.2-1.7c0.3,0,0.5,0.1,0.7,0.1v1.9c-0.2-0.1-0.5-0.1-0.9-0.1
		c-1.2,0-1.9,0.8-1.9,2v5.2h-2.1V253.4z"/>
</g>
<g>
	<path d="M283,309.6L283,309.6c-28.8,0-52.1-23.3-52.1-52.1v0c0-28.8,23.3-52.1,52.1-52.1h0c28.8,0,52.1,23.3,52.1,52.1v0
		C335.1,286.3,311.8,309.6,283,309.6z"/>
	<path class="st0" d="M283,310.5c-29.2,0-52.9-23.7-52.9-52.9s23.7-52.9,52.9-52.9s52.9,23.7,52.9,52.9S312.2,310.5,283,310.5z
		 M283,206.3c-28.2,0-51.2,23-51.2,51.2s23,51.2,51.2,51.2s51.2-23,51.2-51.2S311.3,206.3,283,206.3z"/>
</g>
<g>
</g>
<g>
	<path class="st0" d="M258.2,262.4h-7.9v-12.2h7.9v1.8h-5.7v3.3h5.4v1.7h-5.4v3.5h5.7V262.4z"/>
	<path class="st0" d="M263.4,259.2l-1.9,3.2h-2.2l2.9-4.5l-2.9-4.5h2.4l1.8,3.2h0l1.8-3.2h2.3l-2.9,4.4l2.9,4.5h-2.3L263.4,259.2
		L263.4,259.2z"/>
	<path class="st0" d="M276.4,259.7c-0.3,1.7-1.8,2.9-4,2.9c-2.7,0-4.3-1.8-4.3-4.6c0-2.8,1.6-4.7,4.2-4.7c2.5,0,4.1,1.8,4.1,4.5v0.7
		h-6.3v0.1c0,1.4,0.9,2.4,2.3,2.4c1,0,1.7-0.5,2-1.2H276.4z M270.2,257h4.2c0-1.3-0.9-2.2-2.1-2.2
		C271.2,254.9,270.3,255.8,270.2,257z"/>
	<path class="st0" d="M283.8,256.6c-0.2-1-0.8-1.7-2-1.7c-1.3,0-2.2,1.1-2.2,3c0,1.9,0.9,3,2.2,3c1.1,0,1.8-0.6,2-1.6h2
		c-0.2,2-1.7,3.3-4,3.3c-2.6,0-4.3-1.8-4.3-4.7c0-2.9,1.7-4.7,4.3-4.7c2.4,0,3.8,1.5,4,3.4H283.8z"/>
	<path class="st0" d="M295,262.4h-2v-1.6h0c-0.5,1.1-1.4,1.7-2.7,1.7c-1.9,0-3.2-1.3-3.2-3.3v-5.8h2.1v5.4c0,1.3,0.6,2,1.8,2
		c1.2,0,2-0.9,2-2.2v-5.2h2.1V262.4z"/>
	<path class="st0" d="M299.4,251.3v2.1h1.7v1.6h-1.7v4.7c0,0.7,0.3,1.1,1.1,1.1c0.2,0,0.5,0,0.6,0v1.6c-0.2,0.1-0.6,0.1-1.1,0.1
		c-1.9,0-2.7-0.7-2.7-2.4v-5H296v-1.6h1.3v-2.1H299.4z"/>
	<path class="st0" d="M310.3,259.7c-0.3,1.7-1.8,2.9-4,2.9c-2.7,0-4.3-1.8-4.3-4.6c0-2.8,1.6-4.7,4.2-4.7c2.5,0,4.1,1.8,4.1,4.5v0.7
		h-6.3v0.1c0,1.4,0.9,2.4,2.3,2.4c1,0,1.7-0.5,2-1.2H310.3z M304.1,257h4.2c0-1.3-0.9-2.2-2.1-2.2
		C305.1,254.9,304.2,255.8,304.1,257z"/>
	<path class="st0" d="M311.7,253.4h2v1.6h0c0.3-1.1,1.1-1.7,2.2-1.7c0.3,0,0.5,0.1,0.7,0.1v1.9c-0.2-0.1-0.5-0.1-0.9-0.1
		c-1.2,0-1.9,0.8-1.9,2v5.2h-2.1V253.4z"/>
</g>
<g>
	<rect x="337.9" y="0" class="st1" width="39.6" height="350"/>
</g>
</svg>
