<svg id="Layer_1" data-name="Layer 1" xmlns="http://www.w3.org/2000/svg" xmlns:xlink="http://www.w3.org/1999/xlink" viewBox="0 0 165.24 47.54"><defs><style>.cls-1{fill:#282725;}.cls-2{fill:url(#linear-gradient);}.cls-3{fill:url(#linear-gradient-2);}</style><linearGradient id="linear-gradient" x1="30.45" y1="16.47" x2="46.44" y2="16.47" gradientUnits="userSpaceOnUse"><stop offset="0.5" stop-color="#010101"/><stop offset="0.7" stop-color="#4e4e4e"/></linearGradient><linearGradient id="linear-gradient-2" x1="3.79" y1="24.81" x2="25.92" y2="19.75" xlink:href="#linear-gradient"/></defs><title>valico-logo</title><path class="cls-1" d="M57.05,46.1l-7.39-20a6,6,0,0,0-.74-1.53,1.9,1.9,0,0,0-1-.64l-1.51-.46,0-.72c1.09.05,2.37.07,3.84.07s3,0,4.63-.07l.06.72-1.56.44a1.07,1.07,0,0,0-.48.24.65.65,0,0,0-.14.46,3,3,0,0,0,.17.88c.11.37.28.85.49,1.44l5.35,14.91L64.53,27c.23-.6.42-1.09.55-1.46a2.91,2.91,0,0,0,.2-.89.59.59,0,0,0-.16-.44,1.14,1.14,0,0,0-.47-.22l-1.54-.42,0-.76c1.21.05,2.42.07,3.65.07s2.4,0,3.53-.07l.06.72L68.64,24a1.61,1.61,0,0,0-.88.55A8.31,8.31,0,0,0,67,26.12L58.7,46Z"/><path class="cls-1" d="M78.41,22.43l7.35,20.25a5.47,5.47,0,0,0,.76,1.55,2,2,0,0,0,1,.61L89,45.3l0,.71c-1.45,0-2.79,0-4,0s-2.74,0-4.45,0l-.07-.71,1.57-.46a1.32,1.32,0,0,0,.48-.26.61.61,0,0,0,.14-.44,2.91,2.91,0,0,0-.18-.87c-.11-.36-.28-.83-.49-1.43L80.5,37.4h-8l-1.74,4.42c-.23.62-.41,1.11-.54,1.48a2.5,2.5,0,0,0-.2.86.54.54,0,0,0,.15.42,1.34,1.34,0,0,0,.48.24l1.54.45,0,.74c-1.57,0-2.85,0-3.84,0s-2.11,0-3.33,0L65,45.3l1.68-.51a1.77,1.77,0,0,0,.93-.61,7.24,7.24,0,0,0,.66-1.3L76.7,22.67ZM73.12,35.89H80l-3.23-9.12Z"/><path class="cls-1" d="M96.18,27.38V40.85c0,1.22,0,2.43,0,3.62h8.06l2.12-4.39.75-.11-.36,5.93-.1.11q-4.29,0-7.94,0H94.59c-1.33,0-2.7,0-4.11,0l-.06-.71,2-.61a.55.55,0,0,0,.44-.51c0-.45,0-.94,0-1.49s0-1.15,0-1.81V27.44c0-.56,0-1.07,0-1.52s0-.86,0-1.23a.57.57,0,0,0-.39-.56l-2.06-.64,0-.72c1.42.05,2.79.07,4.11.07s2.69,0,4.11-.07l.06.72-2,.61a.52.52,0,0,0-.43.51c0,.39,0,.95,0,1.69S96.18,27.4,96.18,27.38Z"/><path class="cls-1" d="M115,40.88c0,.66,0,1.26,0,1.8s0,1,0,1.48c0,.27.2.46.58.56l1.87.58,0,.71c-1.42,0-2.79,0-4.11,0s-2.7,0-4.1,0l-.07-.71,2-.61a.55.55,0,0,0,.44-.51c0-.45,0-.94,0-1.49s0-1.15,0-1.81V27.44c0-.56,0-1.07,0-1.52s0-.86,0-1.23a.57.57,0,0,0-.39-.56l-2.06-.64,0-.72c1.42.05,2.79.07,4.11.07s2.69,0,4.11-.07l.06.72-2,.61a.52.52,0,0,0-.43.51c0,.39,0,.81,0,1.27s0,1,0,1.5Z"/><path class="cls-1" d="M137,28.55l-.66.1-1.21-4.35a15.15,15.15,0,0,0-3.73-.52A7.8,7.8,0,0,0,125,26.62,11.25,11.25,0,0,0,122.69,34a11,11,0,0,0,2.65,7.72,9.49,9.49,0,0,0,7.34,2.88,16.75,16.75,0,0,0,5.55-1l.18.75A12.69,12.69,0,0,1,131,46.56a11.81,11.81,0,0,1-8.66-3.26,11.56,11.56,0,0,1-3.3-8.6,11.55,11.55,0,0,1,3.63-9,13.52,13.52,0,0,1,9.47-3.32,25.58,25.58,0,0,1,5.73.68l.12.13Z"/><path class="cls-1" d="M164.65,33.87a13,13,0,0,1-3.25,9.22q-3.26,3.48-9.1,3.49c-3.7,0-6.56-1.08-8.58-3.22s-3-5.06-3-8.73q0-5.73,3.27-9.07T153,22.23q5.56,0,8.6,3.12T164.65,33.87Zm-20.34.22q0,5.4,2.18,8.27a7.56,7.56,0,0,0,6.41,2.88c2.78,0,4.82-.87,6.14-2.61s2-4.47,2-8.2c0-3.48-.7-6.17-2.1-8s-3.57-2.81-6.5-2.81-4.9.87-6.18,2.61S144.31,30.55,144.31,34.09Z"/><path class="cls-2" d="M35,0V1.12c2.15,0,5.23-.22,4.42,2.44-.5,1.64-6,17.37-8.94,26.18v3.19C34.23,22,40.3,4.3,40.65,3.5a3.54,3.54,0,0,1,3.5-2.17h2.29V0Z"/><rect class="cls-1" x="30.44" width="0.5" height="46.14"/><path class="cls-3" d="M16.59,1.69c-2.16,0-5.66-.48-4.85,2.17s10,24.05,11,26.51S27,39,26.2,41.31s-1.44,4.39-1.44,4.39L6.48,3.5a3.52,3.52,0,0,0-3.34-2C1.66,1.37,0,1.33,0,1.33V0H16.59Z"/></svg>