<svg id="Layer_1" data-name="Layer 1" xmlns="http://www.w3.org/2000/svg" viewBox="0 0 165.24 47.54"><defs><style>.cls-1{fill:#fff;}</style></defs><title>valico-logo</title><path class="cls-1" d="M57.37,46.38,50,26.4a6,6,0,0,0-.74-1.53,1.82,1.82,0,0,0-1-.64l-1.5-.46,0-.72c1.09.05,2.38.07,3.84.07s3,0,4.63-.07l.06.72-1.55.44a1,1,0,0,0-.48.24.65.65,0,0,0-.15.46,3,3,0,0,0,.17.88c.12.37.28.85.49,1.44L59,42.14l5.81-14.9c.24-.6.42-1.09.55-1.46a2.91,2.91,0,0,0,.2-.89.55.55,0,0,0-.16-.44,1.08,1.08,0,0,0-.47-.22l-1.54-.42,0-.76c1.2.05,2.41.07,3.64.07s2.4,0,3.53-.07l.07.72L69,24.3a1.65,1.65,0,0,0-.88.55,9,9,0,0,0-.79,1.55L59,46.24Z"/><path class="cls-1" d="M78.73,22.7,86.09,43a5.25,5.25,0,0,0,.75,1.55,2,2,0,0,0,1,.61l1.55.46,0,.71c-1.45,0-2.79,0-4,0s-2.74,0-4.45,0l-.07-.71,1.57-.46a1.39,1.39,0,0,0,.48-.26.61.61,0,0,0,.14-.44,2.91,2.91,0,0,0-.18-.87c-.11-.36-.28-.83-.49-1.43l-1.55-4.44h-8L71.09,42.1c-.23.62-.41,1.11-.54,1.48a2.5,2.5,0,0,0-.2.86.51.51,0,0,0,.16.42,1.36,1.36,0,0,0,.47.24l1.54.45,0,.74c-1.57,0-2.85,0-3.84,0s-2.11,0-3.33,0l-.08-.71L67,45.07a1.73,1.73,0,0,0,.93-.62,6.22,6.22,0,0,0,.66-1.29L77,23ZM73.45,36.17h6.82L77,27.05Z"/><path class="cls-1" d="M96.51,27.66V41.13c0,1.22,0,2.43,0,3.62h8.06l2.13-4.39.74-.11-.36,5.93-.1.11q-4.29,0-7.94,0H94.91c-1.33,0-2.7,0-4.1,0l-.07-.71,2-.61a.57.57,0,0,0,.45-.52c0-.44,0-.93,0-1.48s0-1.15,0-1.81V27.72c0-.56,0-1.07,0-1.52s0-.86,0-1.23a.59.59,0,0,0-.4-.56l-2.06-.64,0-.72c1.42.05,2.79.07,4.11.07s2.69,0,4.11-.07l.06.72-2,.61a.52.52,0,0,0-.43.51c0,.39,0,.95,0,1.69Z"/><path class="cls-1" d="M115.36,41.16V43c0,.55,0,1,0,1.48,0,.27.2.46.58.56l1.87.58,0,.71c-1.42,0-2.79,0-4.1,0s-2.71,0-4.11,0l-.07-.71,2-.61a.57.57,0,0,0,.45-.52c0-.44,0-.93,0-1.48s0-1.15,0-1.81V27.72c0-.56,0-1.07,0-1.52s0-.86,0-1.23a.59.59,0,0,0-.4-.56l-2.06-.64,0-.72c1.43.05,2.79.07,4.11.07s2.69,0,4.11-.07l.06.72-2.05.61a.52.52,0,0,0-.43.51c0,.39,0,.81,0,1.27v15Z"/><path class="cls-1" d="M137.31,28.83l-.66.1-1.21-4.35a15.15,15.15,0,0,0-3.73-.52,7.81,7.81,0,0,0-6.38,2.84A11.25,11.25,0,0,0,123,34.25,11,11,0,0,0,125.66,42,9.49,9.49,0,0,0,133,44.85a16.75,16.75,0,0,0,5.55-1l.18.75a12.67,12.67,0,0,1-7.38,2.25,11.82,11.82,0,0,1-8.66-3.26,11.56,11.56,0,0,1-3.3-8.6A11.55,11.55,0,0,1,123,26a13.52,13.52,0,0,1,9.47-3.32,25.45,25.45,0,0,1,5.73.68l.12.13Z"/><path class="cls-1" d="M165,34.15a13,13,0,0,1-3.25,9.22q-3.25,3.48-9.1,3.49-5.55,0-8.58-3.23t-3-8.72q0-5.73,3.27-9.07t9.06-3.33q5.56,0,8.6,3.12T165,34.15Zm-20.34.22q0,5.4,2.18,8.27a7.56,7.56,0,0,0,6.42,2.87c2.77,0,4.81-.86,6.13-2.6s2-4.47,2-8.2c0-3.48-.7-6.17-2.1-8s-3.57-2.81-6.49-2.81-4.9.87-6.19,2.61S144.63,30.83,144.63,34.37Z"/><path class="cls-1" d="M35.29.28V1.4c2.15,0,5.23-.22,4.42,2.44-.5,1.64-6,17.37-8.94,26.18v3.19C34.55,22.26,40.62,4.58,41,3.78a3.54,3.54,0,0,1,3.5-2.17h2.29V.28Z"/><rect class="cls-1" x="30.76" y="0.28" width="0.5" height="46.14"/><path class="cls-1" d="M16.91,2c-2.16,0-5.66-.48-4.85,2.17s10,24.05,11,26.51,4.25,8.64,3.44,10.94S25.08,46,25.08,46,7.48,5.35,6.81,3.78a3.55,3.55,0,0,0-3.35-2C2,1.65.27,1.61.27,1.61V.28H16.91Z"/></svg>